%TF.GenerationSoftware,KiCad,Pcbnew,7.0.2*%
%TF.CreationDate,2023-10-26T18:42:08-06:00*%
%TF.ProjectId,LED_Probe_PCB,4c45445f-5072-46f6-9265-5f5043422e6b,rev?*%
%TF.SameCoordinates,Original*%
%TF.FileFunction,Legend,Top*%
%TF.FilePolarity,Positive*%
%FSLAX46Y46*%
G04 Gerber Fmt 4.6, Leading zero omitted, Abs format (unit mm)*
G04 Created by KiCad (PCBNEW 7.0.2) date 2023-10-26 18:42:08*
%MOMM*%
%LPD*%
G01*
G04 APERTURE LIST*
G04 Aperture macros list*
%AMRoundRect*
0 Rectangle with rounded corners*
0 $1 Rounding radius*
0 $2 $3 $4 $5 $6 $7 $8 $9 X,Y pos of 4 corners*
0 Add a 4 corners polygon primitive as box body*
4,1,4,$2,$3,$4,$5,$6,$7,$8,$9,$2,$3,0*
0 Add four circle primitives for the rounded corners*
1,1,$1+$1,$2,$3*
1,1,$1+$1,$4,$5*
1,1,$1+$1,$6,$7*
1,1,$1+$1,$8,$9*
0 Add four rect primitives between the rounded corners*
20,1,$1+$1,$2,$3,$4,$5,0*
20,1,$1+$1,$4,$5,$6,$7,0*
20,1,$1+$1,$6,$7,$8,$9,0*
20,1,$1+$1,$8,$9,$2,$3,0*%
G04 Aperture macros list end*
%ADD10C,0.150000*%
%ADD11C,0.100000*%
%ADD12C,0.300000*%
%ADD13C,0.254000*%
%ADD14R,2.000000X2.500000*%
%ADD15R,0.300000X1.250000*%
%ADD16C,3.800000*%
%ADD17RoundRect,0.400000X-0.300000X-1.000000X0.300000X-1.000000X0.300000X1.000000X-0.300000X1.000000X0*%
%ADD18RoundRect,0.400000X1.000000X-0.300000X1.000000X0.300000X-1.000000X0.300000X-1.000000X-0.300000X0*%
%ADD19RoundRect,0.400000X-1.000000X0.300000X-1.000000X-0.300000X1.000000X-0.300000X1.000000X0.300000X0*%
%ADD20RoundRect,0.400000X0.300000X1.000000X-0.300000X1.000000X-0.300000X-1.000000X0.300000X-1.000000X0*%
G04 APERTURE END LIST*
D10*
X-14311904Y-16037619D02*
X-14311904Y-15037619D01*
X-14311904Y-15037619D02*
X-13930952Y-15037619D01*
X-13930952Y-15037619D02*
X-13835714Y-15085238D01*
X-13835714Y-15085238D02*
X-13788095Y-15132857D01*
X-13788095Y-15132857D02*
X-13740476Y-15228095D01*
X-13740476Y-15228095D02*
X-13740476Y-15370952D01*
X-13740476Y-15370952D02*
X-13788095Y-15466190D01*
X-13788095Y-15466190D02*
X-13835714Y-15513809D01*
X-13835714Y-15513809D02*
X-13930952Y-15561428D01*
X-13930952Y-15561428D02*
X-14311904Y-15561428D01*
X-13311904Y-16037619D02*
X-13311904Y-15370952D01*
X-13311904Y-15561428D02*
X-13264285Y-15466190D01*
X-13264285Y-15466190D02*
X-13216666Y-15418571D01*
X-13216666Y-15418571D02*
X-13121428Y-15370952D01*
X-13121428Y-15370952D02*
X-13026190Y-15370952D01*
X-12549999Y-16037619D02*
X-12645237Y-15990000D01*
X-12645237Y-15990000D02*
X-12692856Y-15942380D01*
X-12692856Y-15942380D02*
X-12740475Y-15847142D01*
X-12740475Y-15847142D02*
X-12740475Y-15561428D01*
X-12740475Y-15561428D02*
X-12692856Y-15466190D01*
X-12692856Y-15466190D02*
X-12645237Y-15418571D01*
X-12645237Y-15418571D02*
X-12549999Y-15370952D01*
X-12549999Y-15370952D02*
X-12407142Y-15370952D01*
X-12407142Y-15370952D02*
X-12311904Y-15418571D01*
X-12311904Y-15418571D02*
X-12264285Y-15466190D01*
X-12264285Y-15466190D02*
X-12216666Y-15561428D01*
X-12216666Y-15561428D02*
X-12216666Y-15847142D01*
X-12216666Y-15847142D02*
X-12264285Y-15942380D01*
X-12264285Y-15942380D02*
X-12311904Y-15990000D01*
X-12311904Y-15990000D02*
X-12407142Y-16037619D01*
X-12407142Y-16037619D02*
X-12549999Y-16037619D01*
X-11788094Y-16037619D02*
X-11788094Y-15037619D01*
X-11788094Y-15418571D02*
X-11692856Y-15370952D01*
X-11692856Y-15370952D02*
X-11502380Y-15370952D01*
X-11502380Y-15370952D02*
X-11407142Y-15418571D01*
X-11407142Y-15418571D02*
X-11359523Y-15466190D01*
X-11359523Y-15466190D02*
X-11311904Y-15561428D01*
X-11311904Y-15561428D02*
X-11311904Y-15847142D01*
X-11311904Y-15847142D02*
X-11359523Y-15942380D01*
X-11359523Y-15942380D02*
X-11407142Y-15990000D01*
X-11407142Y-15990000D02*
X-11502380Y-16037619D01*
X-11502380Y-16037619D02*
X-11692856Y-16037619D01*
X-11692856Y-16037619D02*
X-11788094Y-15990000D01*
X-10502380Y-15990000D02*
X-10597618Y-16037619D01*
X-10597618Y-16037619D02*
X-10788094Y-16037619D01*
X-10788094Y-16037619D02*
X-10883332Y-15990000D01*
X-10883332Y-15990000D02*
X-10930951Y-15894761D01*
X-10930951Y-15894761D02*
X-10930951Y-15513809D01*
X-10930951Y-15513809D02*
X-10883332Y-15418571D01*
X-10883332Y-15418571D02*
X-10788094Y-15370952D01*
X-10788094Y-15370952D02*
X-10597618Y-15370952D01*
X-10597618Y-15370952D02*
X-10502380Y-15418571D01*
X-10502380Y-15418571D02*
X-10454761Y-15513809D01*
X-10454761Y-15513809D02*
X-10454761Y-15609047D01*
X-10454761Y-15609047D02*
X-10930951Y-15704285D01*
X-10264285Y-16132857D02*
X-9502380Y-16132857D01*
X-9264284Y-16037619D02*
X-9264284Y-15037619D01*
X-9264284Y-15037619D02*
X-8883332Y-15037619D01*
X-8883332Y-15037619D02*
X-8788094Y-15085238D01*
X-8788094Y-15085238D02*
X-8740475Y-15132857D01*
X-8740475Y-15132857D02*
X-8692856Y-15228095D01*
X-8692856Y-15228095D02*
X-8692856Y-15370952D01*
X-8692856Y-15370952D02*
X-8740475Y-15466190D01*
X-8740475Y-15466190D02*
X-8788094Y-15513809D01*
X-8788094Y-15513809D02*
X-8883332Y-15561428D01*
X-8883332Y-15561428D02*
X-9264284Y-15561428D01*
X-7692856Y-15942380D02*
X-7740475Y-15990000D01*
X-7740475Y-15990000D02*
X-7883332Y-16037619D01*
X-7883332Y-16037619D02*
X-7978570Y-16037619D01*
X-7978570Y-16037619D02*
X-8121427Y-15990000D01*
X-8121427Y-15990000D02*
X-8216665Y-15894761D01*
X-8216665Y-15894761D02*
X-8264284Y-15799523D01*
X-8264284Y-15799523D02*
X-8311903Y-15609047D01*
X-8311903Y-15609047D02*
X-8311903Y-15466190D01*
X-8311903Y-15466190D02*
X-8264284Y-15275714D01*
X-8264284Y-15275714D02*
X-8216665Y-15180476D01*
X-8216665Y-15180476D02*
X-8121427Y-15085238D01*
X-8121427Y-15085238D02*
X-7978570Y-15037619D01*
X-7978570Y-15037619D02*
X-7883332Y-15037619D01*
X-7883332Y-15037619D02*
X-7740475Y-15085238D01*
X-7740475Y-15085238D02*
X-7692856Y-15132857D01*
X-6930951Y-15513809D02*
X-6788094Y-15561428D01*
X-6788094Y-15561428D02*
X-6740475Y-15609047D01*
X-6740475Y-15609047D02*
X-6692856Y-15704285D01*
X-6692856Y-15704285D02*
X-6692856Y-15847142D01*
X-6692856Y-15847142D02*
X-6740475Y-15942380D01*
X-6740475Y-15942380D02*
X-6788094Y-15990000D01*
X-6788094Y-15990000D02*
X-6883332Y-16037619D01*
X-6883332Y-16037619D02*
X-7264284Y-16037619D01*
X-7264284Y-16037619D02*
X-7264284Y-15037619D01*
X-7264284Y-15037619D02*
X-6930951Y-15037619D01*
X-6930951Y-15037619D02*
X-6835713Y-15085238D01*
X-6835713Y-15085238D02*
X-6788094Y-15132857D01*
X-6788094Y-15132857D02*
X-6740475Y-15228095D01*
X-6740475Y-15228095D02*
X-6740475Y-15323333D01*
X-6740475Y-15323333D02*
X-6788094Y-15418571D01*
X-6788094Y-15418571D02*
X-6835713Y-15466190D01*
X-6835713Y-15466190D02*
X-6930951Y-15513809D01*
X-6930951Y-15513809D02*
X-7264284Y-15513809D01*
X-13740476Y-17657619D02*
X-14073809Y-17181428D01*
X-14311904Y-17657619D02*
X-14311904Y-16657619D01*
X-14311904Y-16657619D02*
X-13930952Y-16657619D01*
X-13930952Y-16657619D02*
X-13835714Y-16705238D01*
X-13835714Y-16705238D02*
X-13788095Y-16752857D01*
X-13788095Y-16752857D02*
X-13740476Y-16848095D01*
X-13740476Y-16848095D02*
X-13740476Y-16990952D01*
X-13740476Y-16990952D02*
X-13788095Y-17086190D01*
X-13788095Y-17086190D02*
X-13835714Y-17133809D01*
X-13835714Y-17133809D02*
X-13930952Y-17181428D01*
X-13930952Y-17181428D02*
X-14311904Y-17181428D01*
X-13407142Y-16990952D02*
X-13169047Y-17657619D01*
X-12930952Y-16990952D02*
X-13169047Y-17657619D01*
X-13169047Y-17657619D02*
X-13264285Y-17895714D01*
X-13264285Y-17895714D02*
X-13311904Y-17943333D01*
X-13311904Y-17943333D02*
X-13407142Y-17990952D01*
X-12121428Y-17657619D02*
X-12121428Y-17133809D01*
X-12121428Y-17133809D02*
X-12169047Y-17038571D01*
X-12169047Y-17038571D02*
X-12264285Y-16990952D01*
X-12264285Y-16990952D02*
X-12454761Y-16990952D01*
X-12454761Y-16990952D02*
X-12549999Y-17038571D01*
X-12121428Y-17610000D02*
X-12216666Y-17657619D01*
X-12216666Y-17657619D02*
X-12454761Y-17657619D01*
X-12454761Y-17657619D02*
X-12549999Y-17610000D01*
X-12549999Y-17610000D02*
X-12597618Y-17514761D01*
X-12597618Y-17514761D02*
X-12597618Y-17419523D01*
X-12597618Y-17419523D02*
X-12549999Y-17324285D01*
X-12549999Y-17324285D02*
X-12454761Y-17276666D01*
X-12454761Y-17276666D02*
X-12216666Y-17276666D01*
X-12216666Y-17276666D02*
X-12121428Y-17229047D01*
X-11645237Y-16990952D02*
X-11645237Y-17657619D01*
X-11645237Y-17086190D02*
X-11597618Y-17038571D01*
X-11597618Y-17038571D02*
X-11502380Y-16990952D01*
X-11502380Y-16990952D02*
X-11359523Y-16990952D01*
X-11359523Y-16990952D02*
X-11264285Y-17038571D01*
X-11264285Y-17038571D02*
X-11216666Y-17133809D01*
X-11216666Y-17133809D02*
X-11216666Y-17657619D01*
X-9978570Y-17657619D02*
X-9978570Y-16657619D01*
X-9978570Y-16657619D02*
X-9645237Y-17371904D01*
X-9645237Y-17371904D02*
X-9311904Y-16657619D01*
X-9311904Y-16657619D02*
X-9311904Y-17657619D01*
X-8692856Y-17657619D02*
X-8788094Y-17610000D01*
X-8788094Y-17610000D02*
X-8835713Y-17562380D01*
X-8835713Y-17562380D02*
X-8883332Y-17467142D01*
X-8883332Y-17467142D02*
X-8883332Y-17181428D01*
X-8883332Y-17181428D02*
X-8835713Y-17086190D01*
X-8835713Y-17086190D02*
X-8788094Y-17038571D01*
X-8788094Y-17038571D02*
X-8692856Y-16990952D01*
X-8692856Y-16990952D02*
X-8549999Y-16990952D01*
X-8549999Y-16990952D02*
X-8454761Y-17038571D01*
X-8454761Y-17038571D02*
X-8407142Y-17086190D01*
X-8407142Y-17086190D02*
X-8359523Y-17181428D01*
X-8359523Y-17181428D02*
X-8359523Y-17467142D01*
X-8359523Y-17467142D02*
X-8407142Y-17562380D01*
X-8407142Y-17562380D02*
X-8454761Y-17610000D01*
X-8454761Y-17610000D02*
X-8549999Y-17657619D01*
X-8549999Y-17657619D02*
X-8692856Y-17657619D01*
X-7930951Y-17657619D02*
X-7930951Y-16990952D01*
X-7930951Y-17181428D02*
X-7883332Y-17086190D01*
X-7883332Y-17086190D02*
X-7835713Y-17038571D01*
X-7835713Y-17038571D02*
X-7740475Y-16990952D01*
X-7740475Y-16990952D02*
X-7645237Y-16990952D01*
X-6883332Y-16990952D02*
X-6883332Y-17800476D01*
X-6883332Y-17800476D02*
X-6930951Y-17895714D01*
X-6930951Y-17895714D02*
X-6978570Y-17943333D01*
X-6978570Y-17943333D02*
X-7073808Y-17990952D01*
X-7073808Y-17990952D02*
X-7216665Y-17990952D01*
X-7216665Y-17990952D02*
X-7311903Y-17943333D01*
X-6883332Y-17610000D02*
X-6978570Y-17657619D01*
X-6978570Y-17657619D02*
X-7169046Y-17657619D01*
X-7169046Y-17657619D02*
X-7264284Y-17610000D01*
X-7264284Y-17610000D02*
X-7311903Y-17562380D01*
X-7311903Y-17562380D02*
X-7359522Y-17467142D01*
X-7359522Y-17467142D02*
X-7359522Y-17181428D01*
X-7359522Y-17181428D02*
X-7311903Y-17086190D01*
X-7311903Y-17086190D02*
X-7264284Y-17038571D01*
X-7264284Y-17038571D02*
X-7169046Y-16990952D01*
X-7169046Y-16990952D02*
X-6978570Y-16990952D01*
X-6978570Y-16990952D02*
X-6883332Y-17038571D01*
X-6026189Y-17610000D02*
X-6121427Y-17657619D01*
X-6121427Y-17657619D02*
X-6311903Y-17657619D01*
X-6311903Y-17657619D02*
X-6407141Y-17610000D01*
X-6407141Y-17610000D02*
X-6454760Y-17514761D01*
X-6454760Y-17514761D02*
X-6454760Y-17133809D01*
X-6454760Y-17133809D02*
X-6407141Y-17038571D01*
X-6407141Y-17038571D02*
X-6311903Y-16990952D01*
X-6311903Y-16990952D02*
X-6121427Y-16990952D01*
X-6121427Y-16990952D02*
X-6026189Y-17038571D01*
X-6026189Y-17038571D02*
X-5978570Y-17133809D01*
X-5978570Y-17133809D02*
X-5978570Y-17229047D01*
X-5978570Y-17229047D02*
X-6454760Y-17324285D01*
X-5549998Y-16990952D02*
X-5549998Y-17657619D01*
X-5549998Y-17086190D02*
X-5502379Y-17038571D01*
X-5502379Y-17038571D02*
X-5407141Y-16990952D01*
X-5407141Y-16990952D02*
X-5264284Y-16990952D01*
X-5264284Y-16990952D02*
X-5169046Y-17038571D01*
X-5169046Y-17038571D02*
X-5121427Y-17133809D01*
X-5121427Y-17133809D02*
X-5121427Y-17657619D01*
X-4692855Y-17610000D02*
X-4597617Y-17657619D01*
X-4597617Y-17657619D02*
X-4407141Y-17657619D01*
X-4407141Y-17657619D02*
X-4311903Y-17610000D01*
X-4311903Y-17610000D02*
X-4264284Y-17514761D01*
X-4264284Y-17514761D02*
X-4264284Y-17467142D01*
X-4264284Y-17467142D02*
X-4311903Y-17371904D01*
X-4311903Y-17371904D02*
X-4407141Y-17324285D01*
X-4407141Y-17324285D02*
X-4549998Y-17324285D01*
X-4549998Y-17324285D02*
X-4645236Y-17276666D01*
X-4645236Y-17276666D02*
X-4692855Y-17181428D01*
X-4692855Y-17181428D02*
X-4692855Y-17133809D01*
X-4692855Y-17133809D02*
X-4645236Y-17038571D01*
X-4645236Y-17038571D02*
X-4549998Y-16990952D01*
X-4549998Y-16990952D02*
X-4407141Y-16990952D01*
X-4407141Y-16990952D02*
X-4311903Y-17038571D01*
X-3978569Y-16990952D02*
X-3597617Y-16990952D01*
X-3835712Y-16657619D02*
X-3835712Y-17514761D01*
X-3835712Y-17514761D02*
X-3788093Y-17610000D01*
X-3788093Y-17610000D02*
X-3692855Y-17657619D01*
X-3692855Y-17657619D02*
X-3597617Y-17657619D01*
X-2883331Y-17610000D02*
X-2978569Y-17657619D01*
X-2978569Y-17657619D02*
X-3169045Y-17657619D01*
X-3169045Y-17657619D02*
X-3264283Y-17610000D01*
X-3264283Y-17610000D02*
X-3311902Y-17514761D01*
X-3311902Y-17514761D02*
X-3311902Y-17133809D01*
X-3311902Y-17133809D02*
X-3264283Y-17038571D01*
X-3264283Y-17038571D02*
X-3169045Y-16990952D01*
X-3169045Y-16990952D02*
X-2978569Y-16990952D01*
X-2978569Y-16990952D02*
X-2883331Y-17038571D01*
X-2883331Y-17038571D02*
X-2835712Y-17133809D01*
X-2835712Y-17133809D02*
X-2835712Y-17229047D01*
X-2835712Y-17229047D02*
X-3311902Y-17324285D01*
X-2407140Y-17657619D02*
X-2407140Y-16990952D01*
X-2407140Y-17181428D02*
X-2359521Y-17086190D01*
X-2359521Y-17086190D02*
X-2311902Y-17038571D01*
X-2311902Y-17038571D02*
X-2216664Y-16990952D01*
X-2216664Y-16990952D02*
X-2121426Y-16990952D01*
X-1788092Y-16990952D02*
X-1788092Y-17657619D01*
X-1788092Y-17086190D02*
X-1740473Y-17038571D01*
X-1740473Y-17038571D02*
X-1645235Y-16990952D01*
X-1645235Y-16990952D02*
X-1502378Y-16990952D01*
X-1502378Y-16990952D02*
X-1407140Y-17038571D01*
X-1407140Y-17038571D02*
X-1359521Y-17133809D01*
X-1359521Y-17133809D02*
X-1359521Y-17657619D01*
X-13788095Y-19277619D02*
X-14359523Y-19277619D01*
X-14073809Y-19277619D02*
X-14073809Y-18277619D01*
X-14073809Y-18277619D02*
X-14169047Y-18420476D01*
X-14169047Y-18420476D02*
X-14264285Y-18515714D01*
X-14264285Y-18515714D02*
X-14359523Y-18563333D01*
X-13169047Y-18277619D02*
X-13073809Y-18277619D01*
X-13073809Y-18277619D02*
X-12978571Y-18325238D01*
X-12978571Y-18325238D02*
X-12930952Y-18372857D01*
X-12930952Y-18372857D02*
X-12883333Y-18468095D01*
X-12883333Y-18468095D02*
X-12835714Y-18658571D01*
X-12835714Y-18658571D02*
X-12835714Y-18896666D01*
X-12835714Y-18896666D02*
X-12883333Y-19087142D01*
X-12883333Y-19087142D02*
X-12930952Y-19182380D01*
X-12930952Y-19182380D02*
X-12978571Y-19230000D01*
X-12978571Y-19230000D02*
X-13073809Y-19277619D01*
X-13073809Y-19277619D02*
X-13169047Y-19277619D01*
X-13169047Y-19277619D02*
X-13264285Y-19230000D01*
X-13264285Y-19230000D02*
X-13311904Y-19182380D01*
X-13311904Y-19182380D02*
X-13359523Y-19087142D01*
X-13359523Y-19087142D02*
X-13407142Y-18896666D01*
X-13407142Y-18896666D02*
X-13407142Y-18658571D01*
X-13407142Y-18658571D02*
X-13359523Y-18468095D01*
X-13359523Y-18468095D02*
X-13311904Y-18372857D01*
X-13311904Y-18372857D02*
X-13264285Y-18325238D01*
X-13264285Y-18325238D02*
X-13169047Y-18277619D01*
X-11692857Y-18230000D02*
X-12549999Y-19515714D01*
X-11407142Y-18372857D02*
X-11359523Y-18325238D01*
X-11359523Y-18325238D02*
X-11264285Y-18277619D01*
X-11264285Y-18277619D02*
X-11026190Y-18277619D01*
X-11026190Y-18277619D02*
X-10930952Y-18325238D01*
X-10930952Y-18325238D02*
X-10883333Y-18372857D01*
X-10883333Y-18372857D02*
X-10835714Y-18468095D01*
X-10835714Y-18468095D02*
X-10835714Y-18563333D01*
X-10835714Y-18563333D02*
X-10883333Y-18706190D01*
X-10883333Y-18706190D02*
X-11454761Y-19277619D01*
X-11454761Y-19277619D02*
X-10835714Y-19277619D01*
X-9978571Y-18277619D02*
X-10169047Y-18277619D01*
X-10169047Y-18277619D02*
X-10264285Y-18325238D01*
X-10264285Y-18325238D02*
X-10311904Y-18372857D01*
X-10311904Y-18372857D02*
X-10407142Y-18515714D01*
X-10407142Y-18515714D02*
X-10454761Y-18706190D01*
X-10454761Y-18706190D02*
X-10454761Y-19087142D01*
X-10454761Y-19087142D02*
X-10407142Y-19182380D01*
X-10407142Y-19182380D02*
X-10359523Y-19230000D01*
X-10359523Y-19230000D02*
X-10264285Y-19277619D01*
X-10264285Y-19277619D02*
X-10073809Y-19277619D01*
X-10073809Y-19277619D02*
X-9978571Y-19230000D01*
X-9978571Y-19230000D02*
X-9930952Y-19182380D01*
X-9930952Y-19182380D02*
X-9883333Y-19087142D01*
X-9883333Y-19087142D02*
X-9883333Y-18849047D01*
X-9883333Y-18849047D02*
X-9930952Y-18753809D01*
X-9930952Y-18753809D02*
X-9978571Y-18706190D01*
X-9978571Y-18706190D02*
X-10073809Y-18658571D01*
X-10073809Y-18658571D02*
X-10264285Y-18658571D01*
X-10264285Y-18658571D02*
X-10359523Y-18706190D01*
X-10359523Y-18706190D02*
X-10407142Y-18753809D01*
X-10407142Y-18753809D02*
X-10454761Y-18849047D01*
X-8740476Y-18230000D02*
X-9597618Y-19515714D01*
X-8454761Y-18372857D02*
X-8407142Y-18325238D01*
X-8407142Y-18325238D02*
X-8311904Y-18277619D01*
X-8311904Y-18277619D02*
X-8073809Y-18277619D01*
X-8073809Y-18277619D02*
X-7978571Y-18325238D01*
X-7978571Y-18325238D02*
X-7930952Y-18372857D01*
X-7930952Y-18372857D02*
X-7883333Y-18468095D01*
X-7883333Y-18468095D02*
X-7883333Y-18563333D01*
X-7883333Y-18563333D02*
X-7930952Y-18706190D01*
X-7930952Y-18706190D02*
X-8502380Y-19277619D01*
X-8502380Y-19277619D02*
X-7883333Y-19277619D01*
X-7549999Y-18277619D02*
X-6930952Y-18277619D01*
X-6930952Y-18277619D02*
X-7264285Y-18658571D01*
X-7264285Y-18658571D02*
X-7121428Y-18658571D01*
X-7121428Y-18658571D02*
X-7026190Y-18706190D01*
X-7026190Y-18706190D02*
X-6978571Y-18753809D01*
X-6978571Y-18753809D02*
X-6930952Y-18849047D01*
X-6930952Y-18849047D02*
X-6930952Y-19087142D01*
X-6930952Y-19087142D02*
X-6978571Y-19182380D01*
X-6978571Y-19182380D02*
X-7026190Y-19230000D01*
X-7026190Y-19230000D02*
X-7121428Y-19277619D01*
X-7121428Y-19277619D02*
X-7407142Y-19277619D01*
X-7407142Y-19277619D02*
X-7502380Y-19230000D01*
X-7502380Y-19230000D02*
X-7549999Y-19182380D01*
%TO.C,J1*%
X-10690476Y19330380D02*
X-10690476Y18616095D01*
X-10690476Y18616095D02*
X-10738095Y18473238D01*
X-10738095Y18473238D02*
X-10833333Y18378000D01*
X-10833333Y18378000D02*
X-10976190Y18330380D01*
X-10976190Y18330380D02*
X-11071428Y18330380D01*
X-9690476Y18330380D02*
X-10261904Y18330380D01*
X-9976190Y18330380D02*
X-9976190Y19330380D01*
X-9976190Y19330380D02*
X-10071428Y19187523D01*
X-10071428Y19187523D02*
X-10166666Y19092285D01*
X-10166666Y19092285D02*
X-10261904Y19044666D01*
%TO.C,H2*%
X18238095Y21437380D02*
X18238095Y22437380D01*
X18238095Y21961190D02*
X18809523Y21961190D01*
X18809523Y21437380D02*
X18809523Y22437380D01*
X19238095Y22342142D02*
X19285714Y22389761D01*
X19285714Y22389761D02*
X19380952Y22437380D01*
X19380952Y22437380D02*
X19619047Y22437380D01*
X19619047Y22437380D02*
X19714285Y22389761D01*
X19714285Y22389761D02*
X19761904Y22342142D01*
X19761904Y22342142D02*
X19809523Y22246904D01*
X19809523Y22246904D02*
X19809523Y22151666D01*
X19809523Y22151666D02*
X19761904Y22008809D01*
X19761904Y22008809D02*
X19190476Y21437380D01*
X19190476Y21437380D02*
X19809523Y21437380D01*
%TO.C,S1*%
X-761904Y-14665000D02*
X-619047Y-14712619D01*
X-619047Y-14712619D02*
X-380952Y-14712619D01*
X-380952Y-14712619D02*
X-285714Y-14665000D01*
X-285714Y-14665000D02*
X-238095Y-14617380D01*
X-238095Y-14617380D02*
X-190476Y-14522142D01*
X-190476Y-14522142D02*
X-190476Y-14426904D01*
X-190476Y-14426904D02*
X-238095Y-14331666D01*
X-238095Y-14331666D02*
X-285714Y-14284047D01*
X-285714Y-14284047D02*
X-380952Y-14236428D01*
X-380952Y-14236428D02*
X-571428Y-14188809D01*
X-571428Y-14188809D02*
X-666666Y-14141190D01*
X-666666Y-14141190D02*
X-714285Y-14093571D01*
X-714285Y-14093571D02*
X-761904Y-13998333D01*
X-761904Y-13998333D02*
X-761904Y-13903095D01*
X-761904Y-13903095D02*
X-714285Y-13807857D01*
X-714285Y-13807857D02*
X-666666Y-13760238D01*
X-666666Y-13760238D02*
X-571428Y-13712619D01*
X-571428Y-13712619D02*
X-333333Y-13712619D01*
X-333333Y-13712619D02*
X-190476Y-13760238D01*
X761904Y-14712619D02*
X190476Y-14712619D01*
X476190Y-14712619D02*
X476190Y-13712619D01*
X476190Y-13712619D02*
X380952Y-13855476D01*
X380952Y-13855476D02*
X285714Y-13950714D01*
X285714Y-13950714D02*
X190476Y-13998333D01*
D11*
X-3404761Y-12127619D02*
X-3071428Y-13127619D01*
X-3071428Y-13127619D02*
X-2738095Y-12127619D01*
X-2404761Y-12746666D02*
X-1642857Y-12746666D01*
X-2023809Y-13127619D02*
X-2023809Y-12365714D01*
X4738095Y-13127619D02*
X4738095Y-12127619D01*
X5214285Y-12746666D02*
X5976190Y-12746666D01*
X-7261904Y-13127619D02*
X-7261904Y-12127619D01*
X-6785714Y-12746666D02*
X-6023810Y-12746666D01*
X-6404762Y-13127619D02*
X-6404762Y-12365714D01*
X595238Y-12127619D02*
X928571Y-13127619D01*
X928571Y-13127619D02*
X1261904Y-12127619D01*
X1595238Y-12746666D02*
X2357143Y-12746666D01*
D10*
%TO.C,E1*%
X14188809Y-690475D02*
X14188809Y-357142D01*
X14712619Y-214285D02*
X14712619Y-690475D01*
X14712619Y-690475D02*
X13712619Y-690475D01*
X13712619Y-690475D02*
X13712619Y-214285D01*
X14712619Y738095D02*
X14712619Y166667D01*
X14712619Y452381D02*
X13712619Y452381D01*
X13712619Y452381D02*
X13855476Y357143D01*
X13855476Y357143D02*
X13950714Y261905D01*
X13950714Y261905D02*
X13998333Y166667D01*
D11*
X13127619Y4738095D02*
X12127619Y4738095D01*
X12746666Y5214285D02*
X12746666Y5976190D01*
X12127619Y595238D02*
X13127619Y928571D01*
X13127619Y928571D02*
X12127619Y1261904D01*
X12746666Y1595238D02*
X12746666Y2357143D01*
X12127619Y-3404761D02*
X13127619Y-3071428D01*
X13127619Y-3071428D02*
X12127619Y-2738095D01*
X12746666Y-2404761D02*
X12746666Y-1642857D01*
X13127619Y-2023809D02*
X12365714Y-2023809D01*
X13127619Y-7261904D02*
X12127619Y-7261904D01*
X12746666Y-6785714D02*
X12746666Y-6023810D01*
X13127619Y-6404762D02*
X12365714Y-6404762D01*
D10*
%TO.C,W1*%
X-14787380Y-904761D02*
X-13787380Y-666666D01*
X-13787380Y-666666D02*
X-14501666Y-476190D01*
X-14501666Y-476190D02*
X-13787380Y-285714D01*
X-13787380Y-285714D02*
X-14787380Y-47619D01*
X-13787380Y857142D02*
X-13787380Y285714D01*
X-13787380Y571428D02*
X-14787380Y571428D01*
X-14787380Y571428D02*
X-14644523Y476190D01*
X-14644523Y476190D02*
X-14549285Y380952D01*
X-14549285Y380952D02*
X-14501666Y285714D01*
D11*
X-12127619Y3404761D02*
X-13127619Y3071428D01*
X-13127619Y3071428D02*
X-12127619Y2738095D01*
X-12746666Y2404761D02*
X-12746666Y1642857D01*
X-13127619Y2023809D02*
X-12365714Y2023809D01*
X-12127619Y-595238D02*
X-13127619Y-928571D01*
X-13127619Y-928571D02*
X-12127619Y-1261904D01*
X-12746666Y-1595238D02*
X-12746666Y-2357143D01*
X-13127619Y7261904D02*
X-12127619Y7261904D01*
X-12746666Y6785714D02*
X-12746666Y6023810D01*
X-13127619Y6404762D02*
X-12365714Y6404762D01*
X-13127619Y-4738095D02*
X-12127619Y-4738095D01*
X-12746666Y-5214285D02*
X-12746666Y-5976190D01*
D10*
%TO.C,N1*%
X-761904Y13787380D02*
X-761904Y14787380D01*
X-761904Y14787380D02*
X-190476Y13787380D01*
X-190476Y13787380D02*
X-190476Y14787380D01*
X809523Y13787380D02*
X238095Y13787380D01*
X523809Y13787380D02*
X523809Y14787380D01*
X523809Y14787380D02*
X428571Y14644523D01*
X428571Y14644523D02*
X333333Y14549285D01*
X333333Y14549285D02*
X238095Y14501666D01*
D11*
X-595238Y12127619D02*
X-928571Y13127619D01*
X-928571Y13127619D02*
X-1261904Y12127619D01*
X-1595238Y12746666D02*
X-2357143Y12746666D01*
X3404761Y12127619D02*
X3071428Y13127619D01*
X3071428Y13127619D02*
X2738095Y12127619D01*
X2404761Y12746666D02*
X1642857Y12746666D01*
X2023809Y13127619D02*
X2023809Y12365714D01*
X-4738095Y13127619D02*
X-4738095Y12127619D01*
X-5214285Y12746666D02*
X-5976190Y12746666D01*
X7261904Y13127619D02*
X7261904Y12127619D01*
X6785714Y12746666D02*
X6023810Y12746666D01*
X6404762Y13127619D02*
X6404762Y12365714D01*
D10*
%TO.C,H4*%
X18238095Y-16562619D02*
X18238095Y-15562619D01*
X18238095Y-16038809D02*
X18809523Y-16038809D01*
X18809523Y-16562619D02*
X18809523Y-15562619D01*
X19714285Y-15895952D02*
X19714285Y-16562619D01*
X19476190Y-15515000D02*
X19238095Y-16229285D01*
X19238095Y-16229285D02*
X19857142Y-16229285D01*
%TO.C,H3*%
X-19761904Y-16562619D02*
X-19761904Y-15562619D01*
X-19761904Y-16038809D02*
X-19190476Y-16038809D01*
X-19190476Y-16562619D02*
X-19190476Y-15562619D01*
X-18809523Y-15562619D02*
X-18190476Y-15562619D01*
X-18190476Y-15562619D02*
X-18523809Y-15943571D01*
X-18523809Y-15943571D02*
X-18380952Y-15943571D01*
X-18380952Y-15943571D02*
X-18285714Y-15991190D01*
X-18285714Y-15991190D02*
X-18238095Y-16038809D01*
X-18238095Y-16038809D02*
X-18190476Y-16134047D01*
X-18190476Y-16134047D02*
X-18190476Y-16372142D01*
X-18190476Y-16372142D02*
X-18238095Y-16467380D01*
X-18238095Y-16467380D02*
X-18285714Y-16515000D01*
X-18285714Y-16515000D02*
X-18380952Y-16562619D01*
X-18380952Y-16562619D02*
X-18666666Y-16562619D01*
X-18666666Y-16562619D02*
X-18761904Y-16515000D01*
X-18761904Y-16515000D02*
X-18809523Y-16467380D01*
%TO.C,H1*%
X-19761904Y21437380D02*
X-19761904Y22437380D01*
X-19761904Y21961190D02*
X-19190476Y21961190D01*
X-19190476Y21437380D02*
X-19190476Y22437380D01*
X-18190476Y21437380D02*
X-18761904Y21437380D01*
X-18476190Y21437380D02*
X-18476190Y22437380D01*
X-18476190Y22437380D02*
X-18571428Y22294523D01*
X-18571428Y22294523D02*
X-18666666Y22199285D01*
X-18666666Y22199285D02*
X-18761904Y22151666D01*
D12*
%TO.C,J2*%
X14984000Y20476000D02*
G75*
G03*
X14984000Y20476000I-150000J0D01*
G01*
D13*
X2300000Y25912000D02*
X2300000Y26191000D01*
X2300000Y25912000D02*
X2300000Y24769000D01*
X2300000Y21806000D02*
X2300000Y20984000D01*
X2300000Y20984000D02*
X4277000Y20984000D01*
X16700000Y26191000D02*
X2300000Y26191000D01*
X16700000Y25912000D02*
X16700000Y26191000D01*
X16700000Y25912000D02*
X16700000Y24769000D01*
X16700000Y21806000D02*
X16700000Y21000000D01*
X16700000Y21000000D02*
X14631000Y21000000D01*
D12*
%TO.C,J1*%
X-4016000Y20476000D02*
G75*
G03*
X-4016000Y20476000I-150000J0D01*
G01*
D13*
X-16700000Y25912000D02*
X-16700000Y26191000D01*
X-16700000Y25912000D02*
X-16700000Y24769000D01*
X-16700000Y21806000D02*
X-16700000Y20984000D01*
X-16700000Y20984000D02*
X-14723000Y20984000D01*
X-2300000Y26191000D02*
X-16700000Y26191000D01*
X-2300000Y25912000D02*
X-2300000Y26191000D01*
X-2300000Y25912000D02*
X-2300000Y24769000D01*
X-2300000Y21806000D02*
X-2300000Y21000000D01*
X-2300000Y21000000D02*
X-4369000Y21000000D01*
%TD*%
%LPC*%
D10*
X-8000000Y8000000D02*
X8000000Y8000000D01*
X8000000Y-8000000D01*
X-8000000Y-8000000D01*
X-8000000Y8000000D01*
G36*
X-8000000Y8000000D02*
G01*
X8000000Y8000000D01*
X8000000Y-8000000D01*
X-8000000Y-8000000D01*
X-8000000Y8000000D01*
G37*
D14*
%TO.C,J2*%
X15940000Y23287000D03*
X3060000Y23287000D03*
D15*
X4750000Y20712000D03*
X5250000Y20712000D03*
X5750000Y20712000D03*
X6250000Y20712000D03*
X6750000Y20712000D03*
X7250000Y20712000D03*
X7750000Y20712000D03*
X8250000Y20712000D03*
X8750000Y20712000D03*
X9250000Y20712000D03*
X9750000Y20712000D03*
X10250000Y20712000D03*
X10750000Y20712000D03*
X11250000Y20712000D03*
X11750000Y20712000D03*
X12250000Y20712000D03*
X12750000Y20712000D03*
X13250000Y20712000D03*
X13750000Y20712000D03*
X14250000Y20712000D03*
%TD*%
D14*
%TO.C,J1*%
X-3060000Y23287000D03*
X-15940000Y23287000D03*
D15*
X-14250000Y20712000D03*
X-13750000Y20712000D03*
X-13250000Y20712000D03*
X-12750000Y20712000D03*
X-12250000Y20712000D03*
X-11750000Y20712000D03*
X-11250000Y20712000D03*
X-10750000Y20712000D03*
X-10250000Y20712000D03*
X-9750000Y20712000D03*
X-9250000Y20712000D03*
X-8750000Y20712000D03*
X-8250000Y20712000D03*
X-7750000Y20712000D03*
X-7250000Y20712000D03*
X-6750000Y20712000D03*
X-6250000Y20712000D03*
X-5750000Y20712000D03*
X-5250000Y20712000D03*
X-4750000Y20712000D03*
%TD*%
D16*
%TO.C,H2*%
X19000000Y19000000D03*
%TD*%
D17*
%TO.C,S1*%
X-7000000Y-10214500D03*
X-5000000Y-10214500D03*
X-3000000Y-10214500D03*
X-1000000Y-10214500D03*
X1000000Y-10214500D03*
X3000000Y-10214500D03*
X5000000Y-10214500D03*
X7000000Y-10214500D03*
%TD*%
D18*
%TO.C,E1*%
X10214500Y-7000000D03*
X10214500Y-5000000D03*
X10214500Y-3000000D03*
X10214500Y-1000000D03*
X10214500Y1000000D03*
X10214500Y3000000D03*
X10214500Y5000000D03*
X10214500Y7000000D03*
%TD*%
D19*
%TO.C,W1*%
X-10214500Y7000000D03*
X-10214500Y5000000D03*
X-10214500Y3000000D03*
X-10214500Y1000000D03*
X-10214500Y-1000000D03*
X-10214500Y-3000000D03*
X-10214500Y-5000000D03*
X-10214500Y-7000000D03*
%TD*%
D20*
%TO.C,N1*%
X-7000000Y10214500D03*
X-5000000Y10214500D03*
X-3000000Y10214500D03*
X-1000000Y10214500D03*
X1000000Y10214500D03*
X3000000Y10214500D03*
X5000000Y10214500D03*
X7000000Y10214500D03*
%TD*%
D16*
%TO.C,H4*%
X19000000Y-19000000D03*
%TD*%
%TO.C,H3*%
X-19000000Y-19000000D03*
%TD*%
%TO.C,H1*%
X-19000000Y19000000D03*
%TD*%
%LPD*%
M02*
