%TF.GenerationSoftware,KiCad,Pcbnew,7.0.2*%
%TF.CreationDate,2023-10-18T16:01:08-06:00*%
%TF.ProjectId,LED_Probe_PCB,4c45445f-5072-46f6-9265-5f5043422e6b,rev?*%
%TF.SameCoordinates,Original*%
%TF.FileFunction,Copper,L1,Top*%
%TF.FilePolarity,Positive*%
%FSLAX46Y46*%
G04 Gerber Fmt 4.6, Leading zero omitted, Abs format (unit mm)*
G04 Created by KiCad (PCBNEW 7.0.2) date 2023-10-18 16:01:08*
%MOMM*%
%LPD*%
G01*
G04 APERTURE LIST*
G04 Aperture macros list*
%AMRoundRect*
0 Rectangle with rounded corners*
0 $1 Rounding radius*
0 $2 $3 $4 $5 $6 $7 $8 $9 X,Y pos of 4 corners*
0 Add a 4 corners polygon primitive as box body*
4,1,4,$2,$3,$4,$5,$6,$7,$8,$9,$2,$3,0*
0 Add four circle primitives for the rounded corners*
1,1,$1+$1,$2,$3*
1,1,$1+$1,$4,$5*
1,1,$1+$1,$6,$7*
1,1,$1+$1,$8,$9*
0 Add four rect primitives between the rounded corners*
20,1,$1+$1,$2,$3,$4,$5,0*
20,1,$1+$1,$4,$5,$6,$7,0*
20,1,$1+$1,$6,$7,$8,$9,0*
20,1,$1+$1,$8,$9,$2,$3,0*%
G04 Aperture macros list end*
%TA.AperFunction,ComponentPad*%
%ADD10C,3.800000*%
%TD*%
%TA.AperFunction,SMDPad,CuDef*%
%ADD11RoundRect,0.400000X-0.300000X-1.000000X0.300000X-1.000000X0.300000X1.000000X-0.300000X1.000000X0*%
%TD*%
%TA.AperFunction,SMDPad,CuDef*%
%ADD12RoundRect,0.400000X1.000000X-0.300000X1.000000X0.300000X-1.000000X0.300000X-1.000000X-0.300000X0*%
%TD*%
%TA.AperFunction,SMDPad,CuDef*%
%ADD13RoundRect,0.400000X-1.000000X0.300000X-1.000000X-0.300000X1.000000X-0.300000X1.000000X0.300000X0*%
%TD*%
%TA.AperFunction,SMDPad,CuDef*%
%ADD14RoundRect,0.400000X0.300000X1.000000X-0.300000X1.000000X-0.300000X-1.000000X0.300000X-1.000000X0*%
%TD*%
%TA.AperFunction,SMDPad,CuDef*%
%ADD15R,0.300000X1.300000*%
%TD*%
%TA.AperFunction,SMDPad,CuDef*%
%ADD16R,2.000000X1.600000*%
%TD*%
%TA.AperFunction,Conductor*%
%ADD17C,0.127000*%
%TD*%
%TA.AperFunction,Conductor*%
%ADD18C,0.250000*%
%TD*%
G04 APERTURE END LIST*
D10*
%TO.P,H2,1,1*%
%TO.N,GND*%
X19000000Y19000000D03*
%TD*%
D11*
%TO.P,S1,1,Pin_1*%
%TO.N,/S_I+*%
X-7000000Y-10214500D03*
%TO.P,S1,2,Pin_2*%
%TO.N,Net-(J5-Pin_2)*%
X-5000000Y-10214500D03*
%TO.P,S1,3,Pin_3*%
%TO.N,/S_V+*%
X-3000000Y-10214500D03*
%TO.P,S1,4,Pin_4*%
%TO.N,Net-(J5-Pin_4)*%
X-1000000Y-10214500D03*
%TO.P,S1,5,Pin_5*%
%TO.N,/S_V-*%
X1000000Y-10214500D03*
%TO.P,S1,6,Pin_6*%
%TO.N,Net-(J5-Pin_6)*%
X3000000Y-10214500D03*
%TO.P,S1,7,Pin_7*%
%TO.N,/S_I-*%
X5000000Y-10214500D03*
%TO.P,S1,8,Pin_8*%
%TO.N,Net-(J5-Pin_8)*%
X7000000Y-10214500D03*
%TD*%
D12*
%TO.P,E1,1,Pin_1*%
%TO.N,/E_I+*%
X10214500Y-7000000D03*
%TO.P,E1,2,Pin_2*%
%TO.N,Net-(E1-Pin_2)*%
X10214500Y-5000000D03*
%TO.P,E1,3,Pin_3*%
%TO.N,/E_V+*%
X10214500Y-3000000D03*
%TO.P,E1,4,Pin_4*%
%TO.N,Net-(E1-Pin_4)*%
X10214500Y-1000000D03*
%TO.P,E1,5,Pin_5*%
%TO.N,/E_V-*%
X10214500Y1000000D03*
%TO.P,E1,6,Pin_6*%
%TO.N,Net-(E1-Pin_6)*%
X10214500Y3000000D03*
%TO.P,E1,7,Pin_7*%
%TO.N,/E_I-*%
X10214500Y5000000D03*
%TO.P,E1,8,Pin_8*%
%TO.N,Net-(E1-Pin_8)*%
X10214500Y7000000D03*
%TD*%
D13*
%TO.P,W1,1,Pin_1*%
%TO.N,/W_I+*%
X-10214500Y7000000D03*
%TO.P,W1,2,Pin_2*%
%TO.N,Net-(J5-Pin_26)*%
X-10214500Y5000000D03*
%TO.P,W1,3,Pin_3*%
%TO.N,/W_V+*%
X-10214500Y3000000D03*
%TO.P,W1,4,Pin_4*%
%TO.N,Net-(J5-Pin_28)*%
X-10214500Y1000000D03*
%TO.P,W1,5,Pin_5*%
%TO.N,/W_V-*%
X-10214500Y-1000000D03*
%TO.P,W1,6,Pin_6*%
%TO.N,Net-(J5-Pin_30)*%
X-10214500Y-3000000D03*
%TO.P,W1,7,Pin_7*%
%TO.N,/W_I-*%
X-10214500Y-5000000D03*
%TO.P,W1,8,Pin_8*%
%TO.N,Net-(J5-Pin_32)*%
X-10214500Y-7000000D03*
%TD*%
D14*
%TO.P,N1,1,Pin_1*%
%TO.N,/N_I+*%
X7000000Y10214500D03*
%TO.P,N1,2,Pin_2*%
%TO.N,Net-(J5-Pin_18)*%
X5000000Y10214500D03*
%TO.P,N1,3,Pin_3*%
%TO.N,/N_V+*%
X3000000Y10214500D03*
%TO.P,N1,4,Pin_4*%
%TO.N,Net-(J5-Pin_20)*%
X1000000Y10214500D03*
%TO.P,N1,5,Pin_5*%
%TO.N,/N_V-*%
X-1000000Y10214500D03*
%TO.P,N1,6,Pin_6*%
%TO.N,Net-(J5-Pin_22)*%
X-3000000Y10214500D03*
%TO.P,N1,7,Pin_7*%
%TO.N,/N_I-*%
X-5000000Y10214500D03*
%TO.P,N1,8,Pin_8*%
%TO.N,Net-(J5-Pin_24)*%
X-7000000Y10214500D03*
%TD*%
D10*
%TO.P,H4,1,1*%
%TO.N,GND*%
X19000000Y-19000000D03*
%TD*%
%TO.P,H3,1,1*%
%TO.N,GND*%
X-19000000Y-19000000D03*
%TD*%
%TO.P,H1,1,1*%
%TO.N,GND*%
X-19000000Y19000000D03*
%TD*%
D15*
%TO.P,J5,1,Pin_1*%
%TO.N,/S_I+*%
X9740000Y18840000D03*
%TO.P,J5,2,Pin_2*%
%TO.N,Net-(J5-Pin_2)*%
X9240000Y18840000D03*
%TO.P,J5,3,Pin_3*%
%TO.N,/S_V+*%
X8740000Y18840000D03*
%TO.P,J5,4,Pin_4*%
%TO.N,Net-(J5-Pin_4)*%
X8240000Y18840000D03*
%TO.P,J5,5,Pin_5*%
%TO.N,/S_V-*%
X7740000Y18840000D03*
%TO.P,J5,6,Pin_6*%
%TO.N,Net-(J5-Pin_6)*%
X7240000Y18840000D03*
%TO.P,J5,7,Pin_7*%
%TO.N,/S_I-*%
X6740000Y18840000D03*
%TO.P,J5,8,Pin_8*%
%TO.N,Net-(J5-Pin_8)*%
X6240000Y18840000D03*
%TO.P,J5,9,Pin_9*%
%TO.N,/E_I+*%
X5740000Y18840000D03*
%TO.P,J5,10,Pin_10*%
%TO.N,Net-(E1-Pin_2)*%
X5240000Y18840000D03*
%TO.P,J5,11,Pin_11*%
%TO.N,/E_V+*%
X4740000Y18840000D03*
%TO.P,J5,12,Pin_12*%
%TO.N,Net-(E1-Pin_4)*%
X4240000Y18840000D03*
%TO.P,J5,13,Pin_13*%
%TO.N,/E_V-*%
X3740000Y18840000D03*
%TO.P,J5,14,Pin_14*%
%TO.N,Net-(E1-Pin_6)*%
X3240000Y18840000D03*
%TO.P,J5,15,Pin_15*%
%TO.N,/E_I-*%
X2740000Y18840000D03*
%TO.P,J5,16,Pin_16*%
%TO.N,Net-(E1-Pin_8)*%
X2240000Y18840000D03*
%TO.P,J5,17,Pin_17*%
%TO.N,/N_I+*%
X1740000Y18840000D03*
%TO.P,J5,18,Pin_18*%
%TO.N,Net-(J5-Pin_18)*%
X1240000Y18840000D03*
%TO.P,J5,19,Pin_19*%
%TO.N,/N_V+*%
X740000Y18840000D03*
%TO.P,J5,20,Pin_20*%
%TO.N,Net-(J5-Pin_20)*%
X240000Y18840000D03*
%TO.P,J5,21,Pin_21*%
%TO.N,/N_V-*%
X-260000Y18840000D03*
%TO.P,J5,22,Pin_22*%
%TO.N,Net-(J5-Pin_22)*%
X-760000Y18840000D03*
%TO.P,J5,23,Pin_23*%
%TO.N,/N_I-*%
X-1260000Y18840000D03*
%TO.P,J5,24,Pin_24*%
%TO.N,Net-(J5-Pin_24)*%
X-1760000Y18840000D03*
%TO.P,J5,25,Pin_25*%
%TO.N,/W_I+*%
X-2260000Y18840000D03*
%TO.P,J5,26,Pin_26*%
%TO.N,Net-(J5-Pin_26)*%
X-2760000Y18840000D03*
%TO.P,J5,27,Pin_27*%
%TO.N,/W_V+*%
X-3260000Y18840000D03*
%TO.P,J5,28,Pin_28*%
%TO.N,Net-(J5-Pin_28)*%
X-3760000Y18840000D03*
%TO.P,J5,29,Pin_29*%
%TO.N,/W_V-*%
X-4260000Y18840000D03*
%TO.P,J5,30,Pin_30*%
%TO.N,Net-(J5-Pin_30)*%
X-4760000Y18840000D03*
%TO.P,J5,31,Pin_31*%
%TO.N,/W_I-*%
X-5260000Y18840000D03*
%TO.P,J5,32,Pin_32*%
%TO.N,Net-(J5-Pin_32)*%
X-5760000Y18840000D03*
%TO.P,J5,33,Pin_33*%
%TO.N,GND*%
X-6260000Y18840000D03*
%TO.P,J5,34,Pin_34*%
X-6760000Y18840000D03*
%TO.P,J5,35,Pin_35*%
X-7260000Y18840000D03*
%TO.P,J5,36,Pin_36*%
X-7760000Y18840000D03*
%TO.P,J5,37,Pin_37*%
X-8260000Y18840000D03*
%TO.P,J5,38,Pin_38*%
X-8760000Y18840000D03*
%TO.P,J5,39,Pin_39*%
X-9260000Y18840000D03*
%TO.P,J5,40,Pin_40*%
X-9760000Y18840000D03*
D16*
%TO.P,J5,41,Pin_41*%
X-11460000Y21440000D03*
%TO.P,J5,42,Pin_42*%
X11440000Y21440000D03*
%TD*%
D17*
%TO.N,/S_I+*%
X9740000Y17523720D02*
X9740000Y18840000D01*
X9869188Y-14725500D02*
X17341500Y-7253188D01*
X-7000000Y-11500000D02*
X-3774500Y-14725500D01*
X17341500Y-7253188D02*
X17341500Y9922220D01*
X17341500Y9922220D02*
X9740000Y17523720D01*
X-7000000Y-9714500D02*
X-7000000Y-11500000D01*
X-3774500Y-14725500D02*
X9869188Y-14725500D01*
%TO.N,/S_V+*%
X8740000Y18840000D02*
X8740000Y17598824D01*
X16687500Y9651324D02*
X16687500Y-6982292D01*
X-3000000Y-11500000D02*
X-3000000Y-9714500D01*
X9598292Y-14071500D02*
X-428500Y-14071500D01*
X16687500Y-6982292D02*
X9598292Y-14071500D01*
X-428500Y-14071500D02*
X-3000000Y-11500000D01*
X8740000Y17598824D02*
X16687500Y9651324D01*
%TO.N,/S_V-*%
X9327396Y-13417500D02*
X16033500Y-6711396D01*
X1000000Y-11500000D02*
X2917500Y-13417500D01*
X2917500Y-13417500D02*
X9327396Y-13417500D01*
X1000000Y-9714500D02*
X1000000Y-11500000D01*
X16033500Y9380428D02*
X8569928Y16844000D01*
X16033500Y-6711396D02*
X16033500Y9380428D01*
X8569928Y16844000D02*
X7810000Y16844000D01*
X7740000Y16914000D02*
X7740000Y18840000D01*
X7810000Y16844000D02*
X7740000Y16914000D01*
%TO.N,/S_I-*%
X9056500Y-12763500D02*
X15379500Y-6440500D01*
X15379500Y-6440500D02*
X15379500Y9109532D01*
X6263500Y-12763500D02*
X9056500Y-12763500D01*
X5000000Y-11500000D02*
X6263500Y-12763500D01*
X6850000Y16190000D02*
X6750000Y16290000D01*
X8299032Y16190000D02*
X6850000Y16190000D01*
X15379500Y9109532D02*
X8299032Y16190000D01*
X6740000Y18840000D02*
X6740000Y17210000D01*
X5000000Y-11500000D02*
X5000000Y-9714500D01*
X6750000Y16290000D02*
X6750000Y17200000D01*
X6740000Y17210000D02*
X6750000Y17200000D01*
%TO.N,/E_I+*%
X14725500Y-3774500D02*
X11500000Y-7000000D01*
X5750000Y15556000D02*
X5770000Y15536000D01*
X8028136Y15536000D02*
X14725500Y8838636D01*
X14725500Y8838636D02*
X14725500Y-3774500D01*
X11500000Y-7000000D02*
X9714500Y-7000000D01*
X5740000Y18840000D02*
X5740000Y17210000D01*
X5750000Y17200000D02*
X5750000Y15556000D01*
X5740000Y17210000D02*
X5750000Y17200000D01*
X5770000Y15536000D02*
X8028136Y15536000D01*
%TO.N,/E_V+*%
X4740000Y17271500D02*
X4740000Y18840000D01*
X14071500Y8567740D02*
X14071500Y-428500D01*
X4750000Y17261500D02*
X4740000Y17271500D01*
X4750000Y17261500D02*
X4750000Y16434500D01*
X4750000Y16434500D02*
X4740000Y16424500D01*
X4750000Y17261500D02*
X4750000Y15132000D01*
X11500000Y-3000000D02*
X9714500Y-3000000D01*
X4740000Y16424500D02*
X4740000Y14882000D01*
X7757240Y14882000D02*
X14071500Y8567740D01*
X4750000Y15132000D02*
X5000000Y14882000D01*
X14071500Y-428500D02*
X11500000Y-3000000D01*
X5000000Y14882000D02*
X7757240Y14882000D01*
%TO.N,/E_V-*%
X11500000Y1000000D02*
X9714500Y1000000D01*
X3750000Y17261500D02*
X3740000Y17271500D01*
X3740000Y17271500D02*
X3740000Y18840000D01*
X13417500Y8296844D02*
X13417500Y2917500D01*
X3750000Y14832240D02*
X4354240Y14228000D01*
X3750000Y17261500D02*
X3750000Y14832240D01*
X4354240Y14228000D02*
X7486344Y14228000D01*
X7486344Y14228000D02*
X13417500Y8296844D01*
X13417500Y2917500D02*
X11500000Y1000000D01*
%TO.N,/E_I-*%
X7215448Y13574000D02*
X12763500Y8025948D01*
X2750000Y17261500D02*
X2740000Y17271500D01*
X12763500Y6263500D02*
X11500000Y5000000D01*
X11500000Y5000000D02*
X9714500Y5000000D01*
X12763500Y8025948D02*
X12763500Y6263500D01*
X2750000Y17261500D02*
X2750000Y14907344D01*
X2740000Y17271500D02*
X2740000Y18840000D01*
X4083344Y13574000D02*
X7215448Y13574000D01*
X2750000Y14907344D02*
X4083344Y13574000D01*
%TO.N,/W_I+*%
X-11500000Y9883552D02*
X-7386052Y13997500D01*
X-2260000Y17271500D02*
X-2250000Y17261500D01*
X-9714500Y7000000D02*
X-11250000Y7000000D01*
X-4713052Y13997500D02*
X-2250000Y16460552D01*
X-2260000Y18840000D02*
X-2260000Y17271500D01*
X-11250000Y7000000D02*
X-11500000Y7250000D01*
X-11500000Y7250000D02*
X-11500000Y9883552D01*
X-7386052Y13997500D02*
X-4713052Y13997500D01*
X-2250000Y16460552D02*
X-2250000Y17261500D01*
%TO.N,/W_V+*%
X-3250000Y16423000D02*
X-3250000Y17261500D01*
X-3260000Y17271500D02*
X-3250000Y17261500D01*
X-3260000Y18840000D02*
X-3260000Y17271500D01*
X-13090500Y4590500D02*
X-13090500Y9217948D01*
X-11500000Y3000000D02*
X-13090500Y4590500D01*
X-13090500Y9217948D02*
X-7656948Y14651500D01*
X-11500000Y3000000D02*
X-9714500Y3000000D01*
X-7656948Y14651500D02*
X-5021500Y14651500D01*
X-5021500Y14651500D02*
X-3250000Y16423000D01*
%TO.N,/W_V-*%
X-5367500Y15305500D02*
X-4250000Y16423000D01*
X-4260000Y18840000D02*
X-4260000Y17271500D01*
X-13744500Y9488844D02*
X-7927844Y15305500D01*
X-11500000Y-1000000D02*
X-9714500Y-1000000D01*
X-4260000Y17271500D02*
X-4250000Y17261500D01*
X-7927844Y15305500D02*
X-5367500Y15305500D01*
X-13744500Y1244500D02*
X-13744500Y9488844D01*
X-11500000Y-1000000D02*
X-13744500Y1244500D01*
X-4250000Y16423000D02*
X-4250000Y17261500D01*
%TO.N,/W_I-*%
X-8198740Y15959500D02*
X-5701052Y15959500D01*
X-5260000Y17271500D02*
X-5250000Y17261500D01*
X-11500000Y-5000000D02*
X-9714500Y-5000000D01*
X-14398500Y9759740D02*
X-8198740Y15959500D01*
X-5250000Y16410552D02*
X-5250000Y17200000D01*
X-11500000Y-5000000D02*
X-14398500Y-2101500D01*
X-5260000Y18840000D02*
X-5260000Y17271500D01*
X-14398500Y-2101500D02*
X-14398500Y9759740D01*
X-5250000Y16472052D02*
X-5250000Y17261500D01*
X-5701052Y15959500D02*
X-5250000Y16410552D01*
%TO.N,/N_I+*%
X1750000Y14982448D02*
X3812448Y12920000D01*
X1750000Y17261500D02*
X1750000Y14982448D01*
X5670000Y12920000D02*
X7000000Y11590000D01*
X1740000Y17271500D02*
X1750000Y17261500D01*
X3812448Y12920000D02*
X5670000Y12920000D01*
X7000000Y11590000D02*
X7000000Y9714500D01*
X1740000Y18840000D02*
X1740000Y17271500D01*
%TO.N,/N_V+*%
X750000Y13750000D02*
X750000Y17261500D01*
X3000000Y11500000D02*
X750000Y13750000D01*
X740000Y17271500D02*
X740000Y18840000D01*
X750000Y17261500D02*
X740000Y17271500D01*
X3000000Y11500000D02*
X3000000Y9714500D01*
%TO.N,/N_V-*%
X-1000000Y11500000D02*
X-1000000Y9714500D01*
X-336500Y12163500D02*
X-336500Y17175000D01*
X-260000Y17271500D02*
X-260000Y18840000D01*
X-250000Y17261500D02*
X-260000Y17271500D01*
X-336500Y17175000D02*
X-250000Y17261500D01*
X-1000000Y11500000D02*
X-336500Y12163500D01*
%TO.N,/N_I-*%
X-1260000Y17271500D02*
X-1250000Y17261500D01*
X-1260000Y18840000D02*
X-1260000Y17271500D01*
X-1250000Y17261500D02*
X-1250000Y16373000D01*
X-1250000Y16373000D02*
X-5000000Y12623000D01*
X-5000000Y12623000D02*
X-5000000Y9714500D01*
%TO.N,Net-(E1-Pin_2)*%
X14398500Y-2101500D02*
X14398500Y8703188D01*
X14398500Y8703188D02*
X7892688Y15209000D01*
X11500000Y-5000000D02*
X9714500Y-5000000D01*
X5530000Y15209000D02*
X5250000Y15489000D01*
X7892688Y15209000D02*
X5530000Y15209000D01*
X5250000Y15489000D02*
X5250000Y17200000D01*
X5240000Y18840000D02*
X5240000Y17210000D01*
X11500000Y-5000000D02*
X14398500Y-2101500D01*
X5240000Y17210000D02*
X5250000Y17200000D01*
%TO.N,Net-(E1-Pin_4)*%
X7621792Y14555000D02*
X13744500Y8432292D01*
X4250000Y14794688D02*
X4489688Y14555000D01*
X13744500Y1244500D02*
X11500000Y-1000000D01*
X13744500Y8432292D02*
X13744500Y1244500D01*
X4250000Y17261500D02*
X4250000Y14794688D01*
X4489688Y14555000D02*
X7621792Y14555000D01*
X4240000Y17271500D02*
X4250000Y17261500D01*
X4240000Y18840000D02*
X4240000Y17271500D01*
X11500000Y-1000000D02*
X9714500Y-1000000D01*
%TO.N,Net-(E1-Pin_6)*%
X13090500Y8161396D02*
X13090500Y4590500D01*
X3240000Y18840000D02*
X3240000Y17271500D01*
X3250000Y17261500D02*
X3250000Y14869792D01*
X4218792Y13901000D02*
X7350896Y13901000D01*
X3250000Y14869792D02*
X4218792Y13901000D01*
X7350896Y13901000D02*
X13090500Y8161396D01*
X3240000Y17271500D02*
X3250000Y17261500D01*
X11500000Y3000000D02*
X9714500Y3000000D01*
X13090500Y4590500D02*
X11500000Y3000000D01*
%TO.N,Net-(E1-Pin_8)*%
X7080000Y13247000D02*
X11500000Y8827000D01*
X2250000Y14944896D02*
X3947896Y13247000D01*
X11500000Y7000000D02*
X9714500Y7000000D01*
X3947896Y13247000D02*
X7080000Y13247000D01*
X2250000Y17261500D02*
X2250000Y14944896D01*
X11500000Y8827000D02*
X11500000Y7000000D01*
X2240000Y18840000D02*
X2240000Y17271500D01*
X2240000Y17271500D02*
X2250000Y17261500D01*
%TO.N,Net-(J5-Pin_18)*%
X1250000Y15020000D02*
X1250000Y17261500D01*
X1240000Y17271500D02*
X1240000Y18840000D01*
X5000000Y9714500D02*
X5000000Y11270000D01*
X1250000Y17261500D02*
X1240000Y17271500D01*
X5000000Y11270000D02*
X1250000Y15020000D01*
%TO.N,Net-(J5-Pin_20)*%
X240000Y17271500D02*
X250000Y17261500D01*
X240000Y18840000D02*
X240000Y17271500D01*
X250000Y12250000D02*
X1000000Y11500000D01*
X250000Y17261500D02*
X250000Y12250000D01*
X1000000Y11500000D02*
X1000000Y9714500D01*
%TO.N,Net-(J5-Pin_22)*%
X-760000Y17271500D02*
X-750000Y17261500D01*
X-760000Y18840000D02*
X-760000Y17271500D01*
X-3000000Y13950000D02*
X-3000000Y9714500D01*
X-750000Y16200000D02*
X-3000000Y13950000D01*
X-750000Y17261500D02*
X-750000Y16200000D01*
%TO.N,Net-(J5-Pin_24)*%
X-1760000Y18840000D02*
X-1760000Y17210000D01*
X-1750000Y16498104D02*
X-4577604Y13670500D01*
X-1760000Y17210000D02*
X-1750000Y17200000D01*
X-4577604Y13670500D02*
X-6670000Y13670500D01*
X-7000000Y13340500D02*
X-7000000Y9714500D01*
X-6670000Y13670500D02*
X-7000000Y13340500D01*
X-1750000Y17200000D02*
X-1750000Y16498104D01*
%TO.N,Net-(J5-Pin_2)*%
X9733740Y-14398500D02*
X-2101500Y-14398500D01*
X9240000Y17561272D02*
X17014500Y9786772D01*
X17014500Y-7117740D02*
X9733740Y-14398500D01*
X9240000Y18840000D02*
X9240000Y17561272D01*
X-2101500Y-14398500D02*
X-5000000Y-11500000D01*
X17014500Y9786772D02*
X17014500Y-7117740D01*
X-5000000Y-9714500D02*
X-5000000Y-11500000D01*
%TO.N,Net-(J5-Pin_4)*%
X9462844Y-13744500D02*
X16360500Y-6846844D01*
X-1000000Y-9714500D02*
X-1000000Y-11327000D01*
X1417500Y-13744500D02*
X9462844Y-13744500D01*
X16360500Y-6846844D02*
X16360500Y9515876D01*
X16360500Y9515876D02*
X8705376Y17171000D01*
X8360000Y17171000D02*
X8240000Y17291000D01*
X8705376Y17171000D02*
X8360000Y17171000D01*
X-1000000Y-11327000D02*
X1417500Y-13744500D01*
X8240000Y17291000D02*
X8240000Y18840000D01*
%TO.N,Net-(J5-Pin_6)*%
X7360000Y16517000D02*
X8434480Y16517000D01*
X7240000Y18840000D02*
X7240000Y16637000D01*
X15706500Y-6575948D02*
X9191948Y-13090500D01*
X7240000Y16637000D02*
X7360000Y16517000D01*
X15706500Y9244980D02*
X15706500Y-6575948D01*
X9191948Y-13090500D02*
X4590500Y-13090500D01*
X4590500Y-13090500D02*
X3000000Y-11500000D01*
X8434480Y16517000D02*
X15706500Y9244980D01*
X3000000Y-11500000D02*
X3000000Y-9714500D01*
%TO.N,Net-(J5-Pin_8)*%
X6250000Y16103000D02*
X6490000Y15863000D01*
X6240000Y17210000D02*
X6240000Y18840000D01*
X8163584Y15863000D02*
X15052500Y8974084D01*
X7000000Y-11250000D02*
X7250000Y-11500000D01*
X15052500Y8974084D02*
X15052500Y-5274500D01*
X6490000Y15863000D02*
X8163584Y15863000D01*
X6250000Y17200000D02*
X6250000Y16103000D01*
X8827000Y-11500000D02*
X7250000Y-11500000D01*
X15052500Y-5274500D02*
X8827000Y-11500000D01*
X6250000Y17200000D02*
X6240000Y17210000D01*
X7000000Y-11250000D02*
X7000000Y-9714500D01*
D18*
%TO.N,GND*%
X-6260000Y18840000D02*
X-6760000Y18840000D01*
D17*
X18800000Y-19000000D02*
X18750000Y-18950000D01*
%TO.N,Net-(J5-Pin_26)*%
X-11500000Y5000000D02*
X-9714500Y5000000D01*
X-11500000Y5000000D02*
X-12763500Y6263500D01*
X-2750000Y16423000D02*
X-2750000Y17261500D01*
X-12763500Y6263500D02*
X-12763500Y9082500D01*
X-12763500Y9082500D02*
X-7521500Y14324500D01*
X-4848500Y14324500D02*
X-2750000Y16423000D01*
X-2760000Y17271500D02*
X-2760000Y18840000D01*
X-7521500Y14324500D02*
X-4848500Y14324500D01*
X-2750000Y17261500D02*
X-2760000Y17271500D01*
%TO.N,Net-(J5-Pin_28)*%
X-13417500Y9353396D02*
X-7792396Y14978500D01*
X-3750000Y16460552D02*
X-3750000Y17261500D01*
X-11500000Y1000000D02*
X-13417500Y2917500D01*
X-11500000Y1000000D02*
X-9714500Y1000000D01*
X-13417500Y2917500D02*
X-13417500Y9353396D01*
X-3750000Y17261500D02*
X-3760000Y17271500D01*
X-7792396Y14978500D02*
X-5232052Y14978500D01*
X-5232052Y14978500D02*
X-3750000Y16460552D01*
X-3760000Y17271500D02*
X-3760000Y18840000D01*
%TO.N,Net-(J5-Pin_30)*%
X-8063292Y15632500D02*
X-5540500Y15632500D01*
X-11500000Y-3000000D02*
X-14071500Y-428500D01*
X-11500000Y-3000000D02*
X-9714500Y-3000000D01*
X-4750000Y16423000D02*
X-4750000Y17261500D01*
X-5540500Y15632500D02*
X-4750000Y16423000D01*
X-4750000Y17261500D02*
X-4760000Y17271500D01*
X-4760000Y17271500D02*
X-4760000Y18840000D01*
X-14071500Y-428500D02*
X-14071500Y9624292D01*
X-14071500Y9624292D02*
X-8063292Y15632500D01*
%TO.N,Net-(J5-Pin_32)*%
X-5750000Y17200000D02*
X-5760000Y17210000D01*
X-5750000Y16373000D02*
X-5750000Y17200000D01*
X-8334188Y16286500D02*
X-5836500Y16286500D01*
X-14725500Y9895188D02*
X-8334188Y16286500D01*
X-11500000Y-7000000D02*
X-14725500Y-3774500D01*
X-5760000Y17210000D02*
X-5760000Y18840000D01*
X-11500000Y-7000000D02*
X-9714500Y-7000000D01*
X-5836500Y16286500D02*
X-5750000Y16373000D01*
X-14725500Y-3774500D02*
X-14725500Y9895188D01*
%TD*%
%TA.AperFunction,Conductor*%
%TO.N,GND*%
G36*
X13942539Y24979815D02*
G01*
X13988294Y24927011D01*
X13999500Y24875500D01*
X13999500Y21024760D01*
X13999459Y21024553D01*
X13999459Y20999999D01*
X13999500Y20999900D01*
X13999615Y20999618D01*
X13999618Y20999615D01*
X13999999Y20999459D01*
X14000000Y20999459D01*
X14024616Y20999476D01*
X14024616Y20999471D01*
X14024760Y20999500D01*
X17362851Y20999500D01*
X17429890Y20979815D01*
X17475645Y20927011D01*
X17486187Y20867363D01*
X18386562Y19966989D01*
X18406018Y19931356D01*
X18402590Y19929589D01*
X18237460Y19799729D01*
X18099890Y19640965D01*
X18071282Y19591414D01*
X18033009Y19613436D01*
X17135312Y20511134D01*
X17057006Y20416479D01*
X17052430Y20410181D01*
X16894792Y20161782D01*
X16891050Y20154976D01*
X16765781Y19888765D01*
X16762921Y19881541D01*
X16672009Y19601745D01*
X16670073Y19594206D01*
X16614946Y19305220D01*
X16613972Y19297500D01*
X16595500Y19003894D01*
X16595500Y18996105D01*
X16613972Y18702499D01*
X16614946Y18694779D01*
X16670073Y18405793D01*
X16672009Y18398254D01*
X16762921Y18118458D01*
X16765781Y18111234D01*
X16891050Y17845023D01*
X16894792Y17838217D01*
X17052434Y17589812D01*
X17056995Y17583534D01*
X17135312Y17488864D01*
X18033010Y18386563D01*
X18071473Y18407565D01*
X18164894Y18276376D01*
X18316932Y18131408D01*
X18409098Y18072176D01*
X18386563Y18033010D01*
X17486564Y17133012D01*
X17486565Y17133011D01*
X17708309Y16971905D01*
X17714899Y16967723D01*
X17972694Y16825999D01*
X17979733Y16822686D01*
X18253270Y16714386D01*
X18260665Y16711983D01*
X18545625Y16638817D01*
X18553256Y16637362D01*
X18845140Y16600488D01*
X18852899Y16600000D01*
X19147101Y16600000D01*
X19154859Y16600488D01*
X19446743Y16637362D01*
X19454374Y16638817D01*
X19739334Y16711983D01*
X19746729Y16714386D01*
X20020266Y16822686D01*
X20027305Y16825999D01*
X20285108Y16967727D01*
X20291679Y16971897D01*
X20513433Y17133012D01*
X20513434Y17133012D01*
X19613436Y18033009D01*
X19593978Y18068642D01*
X19597410Y18070411D01*
X19762540Y18200271D01*
X19900110Y18359035D01*
X19928716Y18408583D01*
X19966989Y18386562D01*
X20864687Y17488863D01*
X20869661Y17489098D01*
X20937553Y17472593D01*
X20985743Y17422002D01*
X20999500Y17365236D01*
X20999500Y-17365236D01*
X20979815Y-17432275D01*
X20927011Y-17478030D01*
X20869661Y-17489098D01*
X20864687Y-17488863D01*
X19966989Y-18386562D01*
X19928525Y-18407564D01*
X19835106Y-18276376D01*
X19683068Y-18131408D01*
X19590900Y-18072175D01*
X19613436Y-18033009D01*
X20513434Y-17133012D01*
X20291679Y-16971897D01*
X20285108Y-16967727D01*
X20027305Y-16825999D01*
X20020266Y-16822686D01*
X19746729Y-16714386D01*
X19739334Y-16711983D01*
X19454374Y-16638817D01*
X19446743Y-16637362D01*
X19154859Y-16600488D01*
X19147101Y-16600000D01*
X18852899Y-16600000D01*
X18845140Y-16600488D01*
X18553256Y-16637362D01*
X18545625Y-16638817D01*
X18260665Y-16711983D01*
X18253270Y-16714386D01*
X17979733Y-16822686D01*
X17972694Y-16825999D01*
X17714899Y-16967723D01*
X17708309Y-16971905D01*
X17486565Y-17133011D01*
X17486564Y-17133012D01*
X18386563Y-18033010D01*
X18406019Y-18068642D01*
X18402590Y-18070411D01*
X18237460Y-18200271D01*
X18099890Y-18359035D01*
X18071282Y-18408584D01*
X18033010Y-18386563D01*
X17135312Y-17488864D01*
X17056995Y-17583534D01*
X17052434Y-17589812D01*
X16894792Y-17838217D01*
X16891050Y-17845023D01*
X16765781Y-18111234D01*
X16762921Y-18118458D01*
X16672009Y-18398254D01*
X16670073Y-18405793D01*
X16614946Y-18694779D01*
X16613972Y-18702499D01*
X16595500Y-18996105D01*
X16595500Y-19003894D01*
X16613972Y-19297500D01*
X16614946Y-19305220D01*
X16670073Y-19594206D01*
X16672009Y-19601745D01*
X16762921Y-19881541D01*
X16765781Y-19888765D01*
X16891050Y-20154976D01*
X16894792Y-20161782D01*
X17052430Y-20410181D01*
X17057006Y-20416479D01*
X17135312Y-20511134D01*
X18033009Y-19613436D01*
X18071472Y-19592433D01*
X18164894Y-19723624D01*
X18316932Y-19868592D01*
X18409097Y-19927823D01*
X18386562Y-19966989D01*
X17486120Y-20867430D01*
X17472104Y-20934149D01*
X17423053Y-20983906D01*
X17362851Y-20999500D01*
X-17362851Y-20999500D01*
X-17429890Y-20979815D01*
X-17475645Y-20927011D01*
X-17486187Y-20867363D01*
X-18386562Y-19966989D01*
X-18406018Y-19931356D01*
X-18402590Y-19929589D01*
X-18237460Y-19799729D01*
X-18099890Y-19640965D01*
X-18071282Y-19591414D01*
X-18033009Y-19613436D01*
X-17135312Y-20511134D01*
X-17057006Y-20416479D01*
X-17052430Y-20410181D01*
X-16894792Y-20161782D01*
X-16891050Y-20154976D01*
X-16765781Y-19888765D01*
X-16762921Y-19881541D01*
X-16672009Y-19601745D01*
X-16670073Y-19594206D01*
X-16614946Y-19305220D01*
X-16613972Y-19297500D01*
X-16595500Y-19003894D01*
X-16595500Y-18996105D01*
X-16613972Y-18702499D01*
X-16614946Y-18694779D01*
X-16670073Y-18405793D01*
X-16672009Y-18398254D01*
X-16762921Y-18118458D01*
X-16765781Y-18111234D01*
X-16891050Y-17845023D01*
X-16894792Y-17838217D01*
X-17052434Y-17589812D01*
X-17056995Y-17583534D01*
X-17135312Y-17488864D01*
X-18033010Y-18386563D01*
X-18071473Y-18407565D01*
X-18164894Y-18276376D01*
X-18316932Y-18131408D01*
X-18409098Y-18072176D01*
X-18386563Y-18033010D01*
X-17486564Y-17133012D01*
X-17486565Y-17133011D01*
X-17708309Y-16971905D01*
X-17714899Y-16967723D01*
X-17972694Y-16825999D01*
X-17979733Y-16822686D01*
X-18253270Y-16714386D01*
X-18260665Y-16711983D01*
X-18545625Y-16638817D01*
X-18553256Y-16637362D01*
X-18845140Y-16600488D01*
X-18852899Y-16600000D01*
X-19147101Y-16600000D01*
X-19154859Y-16600488D01*
X-19446743Y-16637362D01*
X-19454374Y-16638817D01*
X-19739334Y-16711983D01*
X-19746729Y-16714386D01*
X-20020266Y-16822686D01*
X-20027305Y-16825999D01*
X-20285108Y-16967727D01*
X-20291679Y-16971897D01*
X-20513433Y-17133012D01*
X-20513434Y-17133012D01*
X-19613436Y-18033009D01*
X-19593978Y-18068642D01*
X-19597410Y-18070411D01*
X-19762540Y-18200271D01*
X-19900110Y-18359035D01*
X-19928716Y-18408583D01*
X-19966989Y-18386562D01*
X-20864687Y-17488863D01*
X-20869661Y-17489098D01*
X-20937553Y-17472593D01*
X-20985743Y-17422002D01*
X-20999500Y-17365236D01*
X-20999500Y-3774500D01*
X-15294367Y-3774500D01*
X-15289499Y-3811468D01*
X-15289500Y-3811468D01*
X-15274983Y-3921734D01*
X-15218153Y-4058933D01*
X-15127750Y-4176750D01*
X-15104614Y-4194502D01*
X-15092424Y-4205191D01*
X-13504467Y-5793149D01*
X-12151318Y-7146298D01*
X-12117833Y-7207621D01*
X-12114999Y-7233978D01*
X-12114999Y-7363020D01*
X-12108812Y-7441645D01*
X-12059820Y-7624488D01*
X-11973883Y-7793149D01*
X-11854757Y-7940257D01*
X-11707649Y-8059383D01*
X-11538988Y-8145320D01*
X-11356145Y-8194312D01*
X-11277521Y-8200500D01*
X-9151480Y-8200499D01*
X-9072855Y-8194312D01*
X-8890012Y-8145320D01*
X-8721351Y-8059383D01*
X-8574243Y-7940257D01*
X-8455117Y-7793149D01*
X-8369180Y-7624488D01*
X-8320188Y-7441645D01*
X-8314191Y-7365455D01*
X-8314190Y-7365430D01*
X-8314000Y-7363021D01*
X-8314000Y-7146298D01*
X-8314000Y-6639401D01*
X-8314000Y-6639375D01*
X-8314001Y-6636980D01*
X-8314189Y-6634587D01*
X-8314190Y-6634569D01*
X-8320188Y-6558354D01*
X-8369179Y-6375513D01*
X-8455117Y-6206850D01*
X-8559430Y-6078036D01*
X-8586322Y-6013549D01*
X-8574080Y-5944760D01*
X-8559430Y-5921964D01*
X-8455117Y-5793149D01*
X-8369179Y-5624486D01*
X-8320188Y-5441646D01*
X-8314191Y-5365455D01*
X-8314190Y-5365430D01*
X-8314000Y-5363021D01*
X-8314000Y-5040883D01*
X-8314000Y-4639401D01*
X-8314000Y-4639375D01*
X-8314001Y-4636980D01*
X-8314189Y-4634587D01*
X-8314190Y-4634569D01*
X-8320188Y-4558354D01*
X-8369179Y-4375513D01*
X-8455117Y-4206850D01*
X-8559430Y-4078036D01*
X-8586322Y-4013549D01*
X-8574080Y-3944760D01*
X-8559430Y-3921964D01*
X-8559243Y-3921734D01*
X-8455117Y-3793149D01*
X-8369180Y-3624488D01*
X-8356509Y-3577201D01*
X-8320188Y-3441646D01*
X-8314191Y-3365455D01*
X-8314190Y-3365430D01*
X-8314000Y-3363021D01*
X-8314000Y-3136117D01*
X-8314000Y-2639401D01*
X-8314000Y-2639375D01*
X-8314001Y-2636980D01*
X-8314189Y-2634587D01*
X-8314190Y-2634569D01*
X-8320188Y-2558354D01*
X-8369179Y-2375513D01*
X-8455117Y-2206850D01*
X-8559430Y-2078036D01*
X-8586322Y-2013549D01*
X-8574080Y-1944760D01*
X-8559430Y-1921964D01*
X-8545045Y-1904201D01*
X-8455117Y-1793149D01*
X-8369180Y-1624488D01*
X-8320188Y-1441645D01*
X-8317241Y-1404202D01*
X-8314191Y-1365455D01*
X-8314190Y-1365430D01*
X-8314000Y-1363021D01*
X-8314000Y-1146297D01*
X-8314000Y-639401D01*
X-8314000Y-639375D01*
X-8314001Y-636980D01*
X-8314189Y-634587D01*
X-8314190Y-634569D01*
X-8320188Y-558354D01*
X-8369179Y-375513D01*
X-8455117Y-206850D01*
X-8550164Y-89478D01*
X-8559430Y-78034D01*
X-8586322Y-13549D01*
X-8574080Y55240D01*
X-8559430Y78036D01*
X-8455117Y206850D01*
X-8369179Y375513D01*
X-8320188Y558353D01*
X-8314191Y634544D01*
X-8314190Y634569D01*
X-8314000Y636979D01*
X-8314000Y853701D01*
X-8314000Y1360598D01*
X-8314000Y1360623D01*
X-8314001Y1363020D01*
X-8314189Y1365413D01*
X-8314190Y1365430D01*
X-8320188Y1441645D01*
X-8369179Y1624486D01*
X-8455117Y1793149D01*
X-8527782Y1882882D01*
X-8559430Y1921965D01*
X-8586322Y1986451D01*
X-8574080Y2055240D01*
X-8559430Y2078036D01*
X-8455117Y2206850D01*
X-8369179Y2375513D01*
X-8320188Y2558353D01*
X-8314191Y2634544D01*
X-8314190Y2634569D01*
X-8314000Y2636979D01*
X-8314000Y2853701D01*
X-8314000Y3360598D01*
X-8314000Y3360623D01*
X-8314001Y3363020D01*
X-8314189Y3365413D01*
X-8314190Y3365430D01*
X-8320188Y3441645D01*
X-8369179Y3624486D01*
X-8455117Y3793149D01*
X-8559430Y3921964D01*
X-8586322Y3986451D01*
X-8574080Y4055240D01*
X-8559430Y4078036D01*
X-8455117Y4206850D01*
X-8369179Y4375513D01*
X-8320188Y4558353D01*
X-8314191Y4634544D01*
X-8314190Y4634569D01*
X-8314000Y4636979D01*
X-8314000Y4996560D01*
X-8314000Y5360598D01*
X-8314000Y5360623D01*
X-8314001Y5363020D01*
X-8314189Y5365413D01*
X-8314190Y5365430D01*
X-8320188Y5441645D01*
X-8369179Y5624486D01*
X-8455117Y5793149D01*
X-8559430Y5921964D01*
X-8586322Y5986451D01*
X-8574080Y6055240D01*
X-8559430Y6078036D01*
X-8455117Y6206850D01*
X-8369179Y6375513D01*
X-8320188Y6558353D01*
X-8314191Y6634544D01*
X-8314190Y6634569D01*
X-8314000Y6636979D01*
X-8314000Y6639424D01*
X-8314000Y7360598D01*
X-8314000Y7360623D01*
X-8314001Y7363020D01*
X-8314189Y7365413D01*
X-8314190Y7365430D01*
X-8320188Y7441645D01*
X-8369179Y7624486D01*
X-8455117Y7793149D01*
X-8564181Y7927831D01*
X-8574243Y7940257D01*
X-8721351Y8059383D01*
X-8890012Y8145320D01*
X-9072855Y8194312D01*
X-9151479Y8200500D01*
X-10812000Y8200499D01*
X-10879039Y8220184D01*
X-10924794Y8272987D01*
X-10936000Y8324499D01*
X-10936000Y9598572D01*
X-10916315Y9665611D01*
X-10899681Y9686253D01*
X-7775681Y12810254D01*
X-7714358Y12843739D01*
X-7644666Y12838755D01*
X-7588733Y12796883D01*
X-7564316Y12731419D01*
X-7564000Y12722573D01*
X-7564000Y12166627D01*
X-7583685Y12099588D01*
X-7631703Y12056143D01*
X-7793149Y11973883D01*
X-7940257Y11854757D01*
X-8059383Y11707649D01*
X-8145320Y11538988D01*
X-8194312Y11356145D01*
X-8200500Y11277521D01*
X-8200499Y9151480D01*
X-8194312Y9072855D01*
X-8145320Y8890012D01*
X-8059383Y8721351D01*
X-7940257Y8574243D01*
X-7793149Y8455117D01*
X-7624486Y8369179D01*
X-7441646Y8320188D01*
X-7365455Y8314191D01*
X-7365440Y8314190D01*
X-7363021Y8314000D01*
X-7360575Y8314000D01*
X-6639401Y8314000D01*
X-6639375Y8314000D01*
X-6636980Y8314001D01*
X-6634587Y8314189D01*
X-6634569Y8314190D01*
X-6558354Y8320188D01*
X-6375513Y8369179D01*
X-6206850Y8455117D01*
X-6099535Y8542020D01*
X-6078034Y8559430D01*
X-6013549Y8586322D01*
X-5944760Y8574080D01*
X-5921966Y8559431D01*
X-5900465Y8542020D01*
X-5793149Y8455117D01*
X-5624486Y8369179D01*
X-5441646Y8320188D01*
X-5365455Y8314191D01*
X-5365440Y8314190D01*
X-5363021Y8314000D01*
X-5360575Y8314000D01*
X-4639401Y8314000D01*
X-4639375Y8314000D01*
X-4636980Y8314001D01*
X-4634587Y8314189D01*
X-4634569Y8314190D01*
X-4558354Y8320188D01*
X-4375513Y8369179D01*
X-4206850Y8455117D01*
X-4099535Y8542020D01*
X-4078034Y8559430D01*
X-4013549Y8586322D01*
X-3944760Y8574080D01*
X-3921966Y8559431D01*
X-3900465Y8542020D01*
X-3793149Y8455117D01*
X-3624486Y8369179D01*
X-3441646Y8320188D01*
X-3365455Y8314191D01*
X-3365440Y8314190D01*
X-3363021Y8314000D01*
X-3360575Y8314000D01*
X-2639401Y8314000D01*
X-2639375Y8314000D01*
X-2636980Y8314001D01*
X-2634587Y8314189D01*
X-2634569Y8314190D01*
X-2558354Y8320188D01*
X-2375513Y8369179D01*
X-2206850Y8455117D01*
X-2099535Y8542020D01*
X-2078034Y8559430D01*
X-2013549Y8586322D01*
X-1944760Y8574080D01*
X-1921966Y8559431D01*
X-1900465Y8542020D01*
X-1793149Y8455117D01*
X-1624486Y8369179D01*
X-1441646Y8320188D01*
X-1365455Y8314191D01*
X-1365440Y8314190D01*
X-1363021Y8314000D01*
X-1360575Y8314000D01*
X-639401Y8314000D01*
X-639375Y8314000D01*
X-636980Y8314001D01*
X-634587Y8314189D01*
X-634569Y8314190D01*
X-558354Y8320188D01*
X-375513Y8369179D01*
X-206850Y8455117D01*
X-99535Y8542020D01*
X-78034Y8559430D01*
X-13549Y8586322D01*
X55240Y8574080D01*
X78033Y8559431D01*
X99535Y8542020D01*
X206850Y8455117D01*
X375513Y8369179D01*
X558353Y8320188D01*
X634544Y8314191D01*
X634560Y8314190D01*
X636979Y8314000D01*
X639423Y8314000D01*
X639424Y8314000D01*
X1360598Y8314000D01*
X1360623Y8314000D01*
X1363020Y8314001D01*
X1365413Y8314189D01*
X1365430Y8314190D01*
X1441645Y8320188D01*
X1624486Y8369179D01*
X1793149Y8455117D01*
X1900465Y8542020D01*
X1921965Y8559430D01*
X1986451Y8586322D01*
X2055240Y8574080D01*
X2078033Y8559431D01*
X2099535Y8542020D01*
X2206850Y8455117D01*
X2375513Y8369179D01*
X2558353Y8320188D01*
X2634544Y8314191D01*
X2634560Y8314190D01*
X2636979Y8314000D01*
X2639423Y8314000D01*
X2639424Y8314000D01*
X3360598Y8314000D01*
X3360623Y8314000D01*
X3363020Y8314001D01*
X3365413Y8314189D01*
X3365430Y8314190D01*
X3441645Y8320188D01*
X3624486Y8369179D01*
X3793149Y8455117D01*
X3900465Y8542020D01*
X3921965Y8559430D01*
X3986451Y8586322D01*
X4055240Y8574080D01*
X4078033Y8559431D01*
X4099535Y8542020D01*
X4206850Y8455117D01*
X4375513Y8369179D01*
X4558353Y8320188D01*
X4634544Y8314191D01*
X4634560Y8314190D01*
X4636979Y8314000D01*
X4639423Y8314000D01*
X4639424Y8314000D01*
X5360598Y8314000D01*
X5360623Y8314000D01*
X5363020Y8314001D01*
X5365413Y8314189D01*
X5365430Y8314190D01*
X5441645Y8320188D01*
X5624486Y8369179D01*
X5793149Y8455117D01*
X5900465Y8542020D01*
X5921965Y8559430D01*
X5986451Y8586322D01*
X6055240Y8574080D01*
X6078033Y8559431D01*
X6099535Y8542020D01*
X6206850Y8455117D01*
X6375513Y8369179D01*
X6558353Y8320188D01*
X6634544Y8314191D01*
X6634560Y8314190D01*
X6636979Y8314000D01*
X6639423Y8314000D01*
X6639424Y8314000D01*
X7360598Y8314000D01*
X7360623Y8314000D01*
X7363020Y8314001D01*
X7365413Y8314189D01*
X7365430Y8314190D01*
X7441645Y8320188D01*
X7624486Y8369179D01*
X7793149Y8455117D01*
X7940257Y8574243D01*
X8059383Y8721351D01*
X8145320Y8890012D01*
X8194312Y9072855D01*
X8200500Y9151479D01*
X8200499Y11029520D01*
X8220184Y11096559D01*
X8272987Y11142314D01*
X8342146Y11152258D01*
X8405702Y11123233D01*
X8412180Y11117201D01*
X10899681Y8629701D01*
X10933166Y8568378D01*
X10936000Y8542020D01*
X10936000Y8324499D01*
X10916315Y8257460D01*
X10863511Y8211705D01*
X10812000Y8200499D01*
X9151480Y8200499D01*
X9072855Y8194312D01*
X8890012Y8145320D01*
X8721351Y8059383D01*
X8574243Y7940257D01*
X8564181Y7927831D01*
X8455117Y7793149D01*
X8369179Y7624486D01*
X8320188Y7441646D01*
X8314191Y7365455D01*
X8314190Y7365440D01*
X8314000Y7363021D01*
X8314000Y7360575D01*
X8314000Y6639401D01*
X8314000Y6639375D01*
X8314001Y6636980D01*
X8314189Y6634587D01*
X8314190Y6634569D01*
X8320188Y6558354D01*
X8369179Y6375513D01*
X8455117Y6206850D01*
X8559430Y6078036D01*
X8586322Y6013549D01*
X8574080Y5944760D01*
X8559430Y5921964D01*
X8455117Y5793149D01*
X8369179Y5624486D01*
X8320188Y5441646D01*
X8314191Y5365455D01*
X8314190Y5365440D01*
X8314000Y5363021D01*
X8314000Y5360575D01*
X8314000Y4639401D01*
X8314000Y4639375D01*
X8314001Y4636980D01*
X8314189Y4634587D01*
X8314190Y4634569D01*
X8320188Y4558354D01*
X8369179Y4375513D01*
X8455117Y4206850D01*
X8559430Y4078036D01*
X8586322Y4013549D01*
X8574080Y3944760D01*
X8559430Y3921964D01*
X8455117Y3793149D01*
X8369179Y3624486D01*
X8320188Y3441646D01*
X8314191Y3365455D01*
X8314190Y3365440D01*
X8314000Y3363021D01*
X8314000Y3360575D01*
X8314000Y2639401D01*
X8314000Y2639375D01*
X8314001Y2636980D01*
X8314189Y2634587D01*
X8314190Y2634569D01*
X8320188Y2558354D01*
X8369179Y2375513D01*
X8455117Y2206850D01*
X8559430Y2078036D01*
X8586322Y2013549D01*
X8574080Y1944760D01*
X8559431Y1921966D01*
X8527782Y1882882D01*
X8455117Y1793149D01*
X8369179Y1624486D01*
X8320188Y1441646D01*
X8314191Y1365455D01*
X8314190Y1365440D01*
X8314000Y1363021D01*
X8314000Y1360575D01*
X8314000Y639401D01*
X8314000Y639375D01*
X8314001Y636980D01*
X8314189Y634587D01*
X8314190Y634569D01*
X8320188Y558354D01*
X8369179Y375513D01*
X8455117Y206850D01*
X8559430Y78036D01*
X8586322Y13549D01*
X8574080Y-55240D01*
X8559431Y-78033D01*
X8550164Y-89478D01*
X8455117Y-206850D01*
X8369179Y-375513D01*
X8320188Y-558353D01*
X8314191Y-634544D01*
X8314190Y-634560D01*
X8314000Y-636979D01*
X8314000Y-639423D01*
X8314000Y-639424D01*
X8314000Y-1360598D01*
X8314000Y-1360623D01*
X8314001Y-1363020D01*
X8314189Y-1365413D01*
X8314190Y-1365430D01*
X8320188Y-1441644D01*
X8320188Y-1441645D01*
X8369180Y-1624488D01*
X8455117Y-1793149D01*
X8545045Y-1904201D01*
X8559430Y-1921964D01*
X8586322Y-1986451D01*
X8574080Y-2055240D01*
X8559430Y-2078036D01*
X8455117Y-2206850D01*
X8369179Y-2375513D01*
X8320188Y-2558353D01*
X8314191Y-2634544D01*
X8314190Y-2634560D01*
X8314000Y-2636979D01*
X8314000Y-2639423D01*
X8314000Y-2639424D01*
X8314000Y-3360598D01*
X8314000Y-3360623D01*
X8314001Y-3363020D01*
X8314189Y-3365413D01*
X8314190Y-3365430D01*
X8320188Y-3441645D01*
X8356509Y-3577201D01*
X8369180Y-3624488D01*
X8455117Y-3793149D01*
X8559243Y-3921734D01*
X8559430Y-3921964D01*
X8586322Y-3986451D01*
X8574080Y-4055240D01*
X8559430Y-4078036D01*
X8455117Y-4206850D01*
X8369179Y-4375513D01*
X8320188Y-4558353D01*
X8314191Y-4634544D01*
X8314190Y-4634560D01*
X8314000Y-4636979D01*
X8314000Y-4639423D01*
X8314000Y-4639424D01*
X8314000Y-5360598D01*
X8314000Y-5360623D01*
X8314001Y-5363020D01*
X8314189Y-5365413D01*
X8314190Y-5365430D01*
X8320188Y-5441645D01*
X8369179Y-5624486D01*
X8455117Y-5793149D01*
X8559430Y-5921964D01*
X8586322Y-5986451D01*
X8574080Y-6055240D01*
X8559430Y-6078036D01*
X8455117Y-6206850D01*
X8369179Y-6375513D01*
X8320188Y-6558353D01*
X8314191Y-6634544D01*
X8314190Y-6634560D01*
X8314000Y-6636979D01*
X8314000Y-6639423D01*
X8314000Y-6639424D01*
X8314000Y-7360598D01*
X8314000Y-7360623D01*
X8314001Y-7363020D01*
X8314189Y-7365413D01*
X8314190Y-7365430D01*
X8316944Y-7400421D01*
X8320188Y-7441645D01*
X8369180Y-7624488D01*
X8455117Y-7793149D01*
X8574243Y-7940257D01*
X8721351Y-8059383D01*
X8890012Y-8145320D01*
X9072855Y-8194312D01*
X9151479Y-8200500D01*
X11029520Y-8200499D01*
X11096559Y-8220184D01*
X11142314Y-8272987D01*
X11152258Y-8342146D01*
X11123233Y-8405702D01*
X11117201Y-8412180D01*
X8629702Y-10899681D01*
X8568379Y-10933166D01*
X8542021Y-10936000D01*
X8324500Y-10936000D01*
X8257461Y-10916315D01*
X8211706Y-10863511D01*
X8200500Y-10812000D01*
X8200499Y-9153901D01*
X8200499Y-9151480D01*
X8194312Y-9072855D01*
X8145320Y-8890012D01*
X8059383Y-8721351D01*
X7940257Y-8574243D01*
X7793149Y-8455117D01*
X7624488Y-8369180D01*
X7624487Y-8369179D01*
X7624486Y-8369179D01*
X7441646Y-8320188D01*
X7365455Y-8314191D01*
X7365440Y-8314190D01*
X7363021Y-8314000D01*
X7360575Y-8314000D01*
X6639401Y-8314000D01*
X6639375Y-8314000D01*
X6636980Y-8314001D01*
X6634587Y-8314189D01*
X6634569Y-8314190D01*
X6558354Y-8320188D01*
X6375513Y-8369179D01*
X6206850Y-8455117D01*
X6121712Y-8524060D01*
X6078034Y-8559430D01*
X6013549Y-8586322D01*
X5944760Y-8574080D01*
X5921966Y-8559431D01*
X5793149Y-8455117D01*
X5624488Y-8369180D01*
X5624487Y-8369179D01*
X5624486Y-8369179D01*
X5441646Y-8320188D01*
X5365455Y-8314191D01*
X5365440Y-8314190D01*
X5363021Y-8314000D01*
X5360575Y-8314000D01*
X4639401Y-8314000D01*
X4639375Y-8314000D01*
X4636980Y-8314001D01*
X4634587Y-8314189D01*
X4634569Y-8314190D01*
X4558354Y-8320188D01*
X4375513Y-8369179D01*
X4206850Y-8455117D01*
X4121712Y-8524060D01*
X4078034Y-8559430D01*
X4013549Y-8586322D01*
X3944760Y-8574080D01*
X3921966Y-8559431D01*
X3793149Y-8455117D01*
X3624488Y-8369180D01*
X3624487Y-8369179D01*
X3624486Y-8369179D01*
X3441646Y-8320188D01*
X3365455Y-8314191D01*
X3365440Y-8314190D01*
X3363021Y-8314000D01*
X3360575Y-8314000D01*
X2639401Y-8314000D01*
X2639375Y-8314000D01*
X2636980Y-8314001D01*
X2634587Y-8314189D01*
X2634569Y-8314190D01*
X2558354Y-8320188D01*
X2375513Y-8369179D01*
X2206850Y-8455117D01*
X2121712Y-8524060D01*
X2078034Y-8559430D01*
X2013549Y-8586322D01*
X1944760Y-8574080D01*
X1921966Y-8559431D01*
X1793149Y-8455117D01*
X1624488Y-8369180D01*
X1624487Y-8369179D01*
X1624486Y-8369179D01*
X1441646Y-8320188D01*
X1365455Y-8314191D01*
X1365440Y-8314190D01*
X1363021Y-8314000D01*
X1360575Y-8314000D01*
X639401Y-8314000D01*
X639375Y-8314000D01*
X636980Y-8314001D01*
X634587Y-8314189D01*
X634569Y-8314190D01*
X558354Y-8320188D01*
X375513Y-8369179D01*
X206850Y-8455117D01*
X121712Y-8524060D01*
X78034Y-8559430D01*
X13549Y-8586322D01*
X-55240Y-8574080D01*
X-78033Y-8559431D01*
X-121712Y-8524060D01*
X-206850Y-8455117D01*
X-375513Y-8369179D01*
X-558353Y-8320188D01*
X-634544Y-8314191D01*
X-634560Y-8314190D01*
X-636979Y-8314000D01*
X-639423Y-8314000D01*
X-639424Y-8314000D01*
X-1360598Y-8314000D01*
X-1360623Y-8314000D01*
X-1363020Y-8314001D01*
X-1365413Y-8314189D01*
X-1365430Y-8314190D01*
X-1441645Y-8320188D01*
X-1624486Y-8369179D01*
X-1624487Y-8369179D01*
X-1624488Y-8369180D01*
X-1793149Y-8455117D01*
X-1921965Y-8559430D01*
X-1986451Y-8586322D01*
X-2055240Y-8574080D01*
X-2078033Y-8559431D01*
X-2121712Y-8524060D01*
X-2206850Y-8455117D01*
X-2375513Y-8369179D01*
X-2558353Y-8320188D01*
X-2634544Y-8314191D01*
X-2634560Y-8314190D01*
X-2636979Y-8314000D01*
X-2639423Y-8314000D01*
X-2639424Y-8314000D01*
X-3360598Y-8314000D01*
X-3360623Y-8314000D01*
X-3363020Y-8314001D01*
X-3365413Y-8314189D01*
X-3365430Y-8314190D01*
X-3441645Y-8320188D01*
X-3624486Y-8369179D01*
X-3624487Y-8369179D01*
X-3624488Y-8369180D01*
X-3793149Y-8455117D01*
X-3921965Y-8559430D01*
X-3986451Y-8586322D01*
X-4055240Y-8574080D01*
X-4078033Y-8559431D01*
X-4121712Y-8524060D01*
X-4206850Y-8455117D01*
X-4375513Y-8369179D01*
X-4558353Y-8320188D01*
X-4634544Y-8314191D01*
X-4634560Y-8314190D01*
X-4636979Y-8314000D01*
X-4639423Y-8314000D01*
X-4639424Y-8314000D01*
X-5360598Y-8314000D01*
X-5360623Y-8314000D01*
X-5363020Y-8314001D01*
X-5365413Y-8314189D01*
X-5365430Y-8314190D01*
X-5441645Y-8320188D01*
X-5624486Y-8369179D01*
X-5624487Y-8369179D01*
X-5624488Y-8369180D01*
X-5793149Y-8455117D01*
X-5921965Y-8559430D01*
X-5986451Y-8586322D01*
X-6055240Y-8574080D01*
X-6078033Y-8559431D01*
X-6121712Y-8524060D01*
X-6206850Y-8455117D01*
X-6375513Y-8369179D01*
X-6558353Y-8320188D01*
X-6634544Y-8314191D01*
X-6634560Y-8314190D01*
X-6636979Y-8314000D01*
X-6639423Y-8314000D01*
X-6639424Y-8314000D01*
X-7360598Y-8314000D01*
X-7360623Y-8314000D01*
X-7363020Y-8314001D01*
X-7365413Y-8314189D01*
X-7365430Y-8314190D01*
X-7441645Y-8320188D01*
X-7624486Y-8369179D01*
X-7624487Y-8369179D01*
X-7624488Y-8369180D01*
X-7793149Y-8455117D01*
X-7940257Y-8574243D01*
X-8059383Y-8721351D01*
X-8145320Y-8890012D01*
X-8194312Y-9072855D01*
X-8200500Y-9151479D01*
X-8200499Y-11277520D01*
X-8194312Y-11356145D01*
X-8145320Y-11538988D01*
X-8059383Y-11707649D01*
X-7940257Y-11854757D01*
X-7793149Y-11973883D01*
X-7624488Y-12059820D01*
X-7441645Y-12108812D01*
X-7363021Y-12115000D01*
X-7233978Y-12114999D01*
X-7166939Y-12134683D01*
X-7146302Y-12151313D01*
X-4205190Y-15092425D01*
X-4194503Y-15104612D01*
X-4176750Y-15127750D01*
X-4147168Y-15150448D01*
X-4147168Y-15150449D01*
X-4058933Y-15218153D01*
X-3921734Y-15274983D01*
X-3774500Y-15294368D01*
X-3745583Y-15290560D01*
X-3729398Y-15289500D01*
X9824094Y-15289500D01*
X9840277Y-15290560D01*
X9869188Y-15294367D01*
X10016422Y-15274983D01*
X10153621Y-15218153D01*
X10241856Y-15150449D01*
X10241856Y-15150448D01*
X10251249Y-15143240D01*
X10271438Y-15127750D01*
X10289191Y-15104612D01*
X10299878Y-15092425D01*
X17708424Y-7683879D01*
X17720614Y-7673190D01*
X17743750Y-7655438D01*
X17767499Y-7624488D01*
X17834153Y-7537621D01*
X17890983Y-7400422D01*
X17910367Y-7253188D01*
X17906561Y-7224277D01*
X17905500Y-7208092D01*
X17905500Y9877125D01*
X17906561Y9893311D01*
X17910367Y9922220D01*
X17890983Y10069454D01*
X17834153Y10206653D01*
X17796119Y10256220D01*
X17743750Y10324470D01*
X17720606Y10342227D01*
X17708421Y10352913D01*
X10340317Y17721018D01*
X10306834Y17782339D01*
X10304000Y17808697D01*
X10304000Y17866594D01*
X10323685Y17933633D01*
X10328733Y17940904D01*
X10333795Y17947667D01*
X10384090Y18082514D01*
X10384091Y18082517D01*
X10390500Y18142127D01*
X10390499Y19537872D01*
X10384091Y19597483D01*
X10333796Y19732331D01*
X10247546Y19847546D01*
X10132331Y19933796D01*
X9997483Y19984091D01*
X9937873Y19990500D01*
X9542128Y19990499D01*
X9538826Y19990144D01*
X9503254Y19986320D01*
X9476747Y19986320D01*
X9437873Y19990500D01*
X9042128Y19990499D01*
X9038826Y19990144D01*
X9003254Y19986320D01*
X8976747Y19986320D01*
X8937873Y19990500D01*
X8542128Y19990499D01*
X8538826Y19990144D01*
X8503254Y19986320D01*
X8476747Y19986320D01*
X8437873Y19990500D01*
X8042128Y19990499D01*
X8038826Y19990144D01*
X8003254Y19986320D01*
X7976747Y19986320D01*
X7937873Y19990500D01*
X7542128Y19990499D01*
X7538826Y19990144D01*
X7503254Y19986320D01*
X7476747Y19986320D01*
X7437873Y19990500D01*
X7042128Y19990499D01*
X7038826Y19990144D01*
X7003254Y19986320D01*
X6976747Y19986320D01*
X6937873Y19990500D01*
X6542128Y19990499D01*
X6538826Y19990144D01*
X6503254Y19986320D01*
X6476747Y19986320D01*
X6437873Y19990500D01*
X6042128Y19990499D01*
X6038826Y19990144D01*
X6003254Y19986320D01*
X5976747Y19986320D01*
X5937873Y19990500D01*
X5542128Y19990499D01*
X5538826Y19990144D01*
X5503254Y19986320D01*
X5476747Y19986320D01*
X5437873Y19990500D01*
X5042128Y19990499D01*
X5038826Y19990144D01*
X5003254Y19986320D01*
X4976747Y19986320D01*
X4937873Y19990500D01*
X4542128Y19990499D01*
X4538826Y19990144D01*
X4503254Y19986320D01*
X4476747Y19986320D01*
X4437873Y19990500D01*
X4042128Y19990499D01*
X4038826Y19990144D01*
X4003254Y19986320D01*
X3976747Y19986320D01*
X3937873Y19990500D01*
X3542128Y19990499D01*
X3538826Y19990144D01*
X3503254Y19986320D01*
X3476747Y19986320D01*
X3437873Y19990500D01*
X3042128Y19990499D01*
X3038826Y19990144D01*
X3003254Y19986320D01*
X2976747Y19986320D01*
X2937873Y19990500D01*
X2542128Y19990499D01*
X2538826Y19990144D01*
X2503254Y19986320D01*
X2476747Y19986320D01*
X2437873Y19990500D01*
X2042128Y19990499D01*
X2038826Y19990144D01*
X2003254Y19986320D01*
X1976747Y19986320D01*
X1937873Y19990500D01*
X1542128Y19990499D01*
X1538826Y19990144D01*
X1503254Y19986320D01*
X1476747Y19986320D01*
X1437873Y19990500D01*
X1042128Y19990499D01*
X1038826Y19990144D01*
X1003254Y19986320D01*
X976747Y19986320D01*
X937873Y19990500D01*
X542128Y19990499D01*
X538826Y19990144D01*
X503254Y19986320D01*
X476747Y19986320D01*
X437873Y19990500D01*
X42128Y19990499D01*
X3256Y19986320D01*
X-23252Y19986320D01*
X-62127Y19990500D01*
X-457872Y19990499D01*
X-496744Y19986320D01*
X-523252Y19986320D01*
X-562127Y19990500D01*
X-957872Y19990499D01*
X-996744Y19986320D01*
X-1023252Y19986320D01*
X-1062127Y19990500D01*
X-1457872Y19990499D01*
X-1496744Y19986320D01*
X-1523252Y19986320D01*
X-1562127Y19990500D01*
X-1957872Y19990499D01*
X-1996744Y19986320D01*
X-2023252Y19986320D01*
X-2062127Y19990500D01*
X-2457872Y19990499D01*
X-2496744Y19986320D01*
X-2523252Y19986320D01*
X-2562127Y19990500D01*
X-2957872Y19990499D01*
X-2996744Y19986320D01*
X-3023252Y19986320D01*
X-3062127Y19990500D01*
X-3457872Y19990499D01*
X-3496744Y19986320D01*
X-3523252Y19986320D01*
X-3562127Y19990500D01*
X-3957872Y19990499D01*
X-3996744Y19986320D01*
X-4023252Y19986320D01*
X-4062127Y19990500D01*
X-4457872Y19990499D01*
X-4496744Y19986320D01*
X-4523252Y19986320D01*
X-4562127Y19990500D01*
X-4957872Y19990499D01*
X-4996744Y19986320D01*
X-5023252Y19986320D01*
X-5062127Y19990500D01*
X-5457872Y19990499D01*
X-5496744Y19986320D01*
X-5523252Y19986320D01*
X-5562127Y19990500D01*
X-5957872Y19990499D01*
X-5961173Y19990144D01*
X-5961175Y19990144D01*
X-5999094Y19986068D01*
X-6025606Y19986068D01*
X-6058867Y19989644D01*
X-6065496Y19990000D01*
X-6110000Y19990000D01*
X-6125611Y19974388D01*
X-6129685Y19960515D01*
X-6159686Y19928289D01*
X-6211690Y19889359D01*
X-6277154Y19864943D01*
X-6345426Y19879795D01*
X-6394832Y19929200D01*
X-6410000Y19988627D01*
X-6410000Y19990000D01*
X-6454506Y19990000D01*
X-6461128Y19989644D01*
X-6496741Y19985815D01*
X-6523259Y19985815D01*
X-6558871Y19989644D01*
X-6565494Y19990000D01*
X-6610000Y19990000D01*
X-6610000Y18990000D01*
X-6534500Y18990000D01*
X-6467461Y18970315D01*
X-6421706Y18917511D01*
X-6410500Y18866002D01*
X-6410499Y18814002D01*
X-6430182Y18746963D01*
X-6482985Y18701207D01*
X-6534499Y18690000D01*
X-6610000Y18690000D01*
X-6610000Y17690000D01*
X-6565482Y17690000D01*
X-6558877Y17690353D01*
X-6523252Y17694183D01*
X-6496748Y17694183D01*
X-6461122Y17690353D01*
X-6454518Y17690000D01*
X-6448000Y17690000D01*
X-6380961Y17670315D01*
X-6335206Y17617511D01*
X-6324000Y17566000D01*
X-6324000Y17255094D01*
X-6325061Y17238908D01*
X-6328867Y17210000D01*
X-6315061Y17105133D01*
X-6314000Y17088948D01*
X-6314000Y16974500D01*
X-6333685Y16907461D01*
X-6386489Y16861706D01*
X-6438000Y16850500D01*
X-8289094Y16850500D01*
X-8305277Y16851560D01*
X-8334188Y16855367D01*
X-8390540Y16847948D01*
X-8481422Y16835983D01*
X-8618621Y16779153D01*
X-8736438Y16688750D01*
X-8754193Y16665610D01*
X-8764882Y16653420D01*
X-15092425Y10325878D01*
X-15104612Y10315191D01*
X-15127750Y10297438D01*
X-15150448Y10267856D01*
X-15150449Y10267856D01*
X-15218153Y10179621D01*
X-15274983Y10042422D01*
X-15294367Y9895188D01*
X-15291988Y9877125D01*
X-15290560Y9866275D01*
X-15289499Y9850088D01*
X-15289499Y-3729401D01*
X-15290560Y-3745586D01*
X-15294367Y-3774500D01*
X-20999500Y-3774500D01*
X-20999500Y17365236D01*
X-20979815Y17432275D01*
X-20927011Y17478030D01*
X-20869661Y17489098D01*
X-20864687Y17488863D01*
X-19966989Y18386562D01*
X-19928525Y18407564D01*
X-19835106Y18276376D01*
X-19683068Y18131408D01*
X-19590900Y18072175D01*
X-19613436Y18033009D01*
X-20513434Y17133012D01*
X-20291679Y16971897D01*
X-20285108Y16967727D01*
X-20027305Y16825999D01*
X-20020266Y16822686D01*
X-19746729Y16714386D01*
X-19739334Y16711983D01*
X-19454374Y16638817D01*
X-19446743Y16637362D01*
X-19154859Y16600488D01*
X-19147101Y16600000D01*
X-18852899Y16600000D01*
X-18845140Y16600488D01*
X-18553256Y16637362D01*
X-18545625Y16638817D01*
X-18260665Y16711983D01*
X-18253270Y16714386D01*
X-17979733Y16822686D01*
X-17972694Y16825999D01*
X-17714899Y16967723D01*
X-17708309Y16971905D01*
X-17486565Y17133011D01*
X-17486564Y17133012D01*
X-18386563Y18033010D01*
X-18406019Y18068642D01*
X-18402590Y18070411D01*
X-18237460Y18200271D01*
X-18099890Y18359035D01*
X-18071282Y18408584D01*
X-18033010Y18386563D01*
X-17135312Y17488864D01*
X-17056995Y17583534D01*
X-17052434Y17589812D01*
X-16894792Y17838217D01*
X-16891050Y17845023D01*
X-16765781Y18111234D01*
X-16762921Y18118458D01*
X-16672009Y18398254D01*
X-16670073Y18405793D01*
X-16615858Y18690000D01*
X-10410000Y18690000D01*
X-10410000Y18145481D01*
X-10409645Y18138867D01*
X-10403599Y18082628D01*
X-10353352Y17947910D01*
X-10267188Y17832811D01*
X-10152089Y17746647D01*
X-10017371Y17696400D01*
X-9961132Y17690354D01*
X-9954518Y17690000D01*
X-9910000Y17690000D01*
X-9910000Y18690000D01*
X-9610000Y18690000D01*
X-9610000Y17690000D01*
X-9565482Y17690000D01*
X-9558877Y17690353D01*
X-9523252Y17694183D01*
X-9496748Y17694183D01*
X-9461122Y17690353D01*
X-9454518Y17690000D01*
X-9410000Y17690000D01*
X-9410000Y18690000D01*
X-9110000Y18690000D01*
X-9110000Y17690000D01*
X-9065482Y17690000D01*
X-9058877Y17690353D01*
X-9023252Y17694183D01*
X-8996748Y17694183D01*
X-8961122Y17690353D01*
X-8954518Y17690000D01*
X-8910000Y17690000D01*
X-8910000Y18690000D01*
X-8610000Y18690000D01*
X-8610000Y17690000D01*
X-8565482Y17690000D01*
X-8558877Y17690353D01*
X-8523252Y17694183D01*
X-8496748Y17694183D01*
X-8461122Y17690353D01*
X-8454518Y17690000D01*
X-8410000Y17690000D01*
X-8410000Y18690000D01*
X-8110000Y18690000D01*
X-8110000Y17690000D01*
X-8065482Y17690000D01*
X-8058877Y17690353D01*
X-8023252Y17694183D01*
X-7996748Y17694183D01*
X-7961122Y17690353D01*
X-7954518Y17690000D01*
X-7910000Y17690000D01*
X-7910000Y18690000D01*
X-7610000Y18690000D01*
X-7610000Y17690000D01*
X-7565482Y17690000D01*
X-7558877Y17690353D01*
X-7523252Y17694183D01*
X-7496748Y17694183D01*
X-7461122Y17690353D01*
X-7454518Y17690000D01*
X-7410000Y17690000D01*
X-7410000Y18690000D01*
X-7110000Y18690000D01*
X-7110000Y17690000D01*
X-7065482Y17690000D01*
X-7058877Y17690353D01*
X-7023252Y17694183D01*
X-6996748Y17694183D01*
X-6961122Y17690353D01*
X-6954518Y17690000D01*
X-6910000Y17690000D01*
X-6910000Y18690000D01*
X-7110000Y18690000D01*
X-7410000Y18690000D01*
X-7610000Y18690000D01*
X-7910000Y18690000D01*
X-8110000Y18690000D01*
X-8410000Y18690000D01*
X-8610000Y18690000D01*
X-8910000Y18690000D01*
X-9110000Y18690000D01*
X-9410000Y18690000D01*
X-9610000Y18690000D01*
X-9910000Y18690000D01*
X-10410000Y18690000D01*
X-16615858Y18690000D01*
X-16614946Y18694779D01*
X-16613972Y18702499D01*
X-16595884Y18990000D01*
X-10410000Y18990000D01*
X-9910000Y18990000D01*
X-9910000Y19990000D01*
X-9610000Y19990000D01*
X-9610000Y18990000D01*
X-9410000Y18990000D01*
X-9410000Y19990000D01*
X-9110000Y19990000D01*
X-9110000Y18990000D01*
X-8910000Y18990000D01*
X-8910000Y19990000D01*
X-8610000Y19990000D01*
X-8610000Y18990000D01*
X-8410000Y18990000D01*
X-8410000Y19990000D01*
X-8110000Y19990000D01*
X-8110000Y18990000D01*
X-7910000Y18990000D01*
X-7910000Y19990000D01*
X-7610000Y19990000D01*
X-7610000Y18990000D01*
X-7410000Y18990000D01*
X-7410000Y19990000D01*
X-7110000Y19990000D01*
X-7110000Y18990000D01*
X-6910000Y18990000D01*
X-6910000Y19990000D01*
X-6954506Y19990000D01*
X-6961128Y19989644D01*
X-6996741Y19985815D01*
X-7023259Y19985815D01*
X-7058871Y19989644D01*
X-7065494Y19990000D01*
X-7110000Y19990000D01*
X-7410000Y19990000D01*
X-7454506Y19990000D01*
X-7461128Y19989644D01*
X-7496741Y19985815D01*
X-7523259Y19985815D01*
X-7558871Y19989644D01*
X-7565494Y19990000D01*
X-7610000Y19990000D01*
X-7910000Y19990000D01*
X-7954506Y19990000D01*
X-7961128Y19989644D01*
X-7996741Y19985815D01*
X-8023259Y19985815D01*
X-8058871Y19989644D01*
X-8065494Y19990000D01*
X-8110000Y19990000D01*
X-8410000Y19990000D01*
X-8454506Y19990000D01*
X-8461128Y19989644D01*
X-8496741Y19985815D01*
X-8523259Y19985815D01*
X-8558871Y19989644D01*
X-8565494Y19990000D01*
X-8610000Y19990000D01*
X-8910000Y19990000D01*
X-8954506Y19990000D01*
X-8961128Y19989644D01*
X-8996741Y19985815D01*
X-9023259Y19985815D01*
X-9058871Y19989644D01*
X-9065494Y19990000D01*
X-9110000Y19990000D01*
X-9410000Y19990000D01*
X-9454506Y19990000D01*
X-9461128Y19989644D01*
X-9496741Y19985815D01*
X-9523259Y19985815D01*
X-9558871Y19989644D01*
X-9565494Y19990000D01*
X-9610000Y19990000D01*
X-9910000Y19990000D01*
X-9954518Y19990000D01*
X-9961132Y19989645D01*
X-10017371Y19983599D01*
X-10152089Y19933352D01*
X-10267188Y19847188D01*
X-10353352Y19732089D01*
X-10403599Y19597371D01*
X-10409645Y19541132D01*
X-10410000Y19534518D01*
X-10410000Y18990000D01*
X-16595884Y18990000D01*
X-16595500Y18996105D01*
X-16595500Y19003894D01*
X-16613972Y19297500D01*
X-16614946Y19305220D01*
X-16670073Y19594206D01*
X-16672009Y19601745D01*
X-16762921Y19881541D01*
X-16765781Y19888765D01*
X-16891050Y20154976D01*
X-16894792Y20161782D01*
X-17052430Y20410181D01*
X-17057006Y20416479D01*
X-17135312Y20511134D01*
X-18033009Y19613436D01*
X-18071472Y19592433D01*
X-18164894Y19723624D01*
X-18316932Y19868592D01*
X-18409097Y19927823D01*
X-18386562Y19966989D01*
X-17486120Y20867430D01*
X-17472104Y20934149D01*
X-17423053Y20983906D01*
X-17362851Y20999500D01*
X-14024760Y20999500D01*
X-14024616Y20999471D01*
X-14024616Y20999476D01*
X-14000000Y20999459D01*
X-13999999Y20999459D01*
X-13999618Y20999615D01*
X-13999616Y20999618D01*
X-13999499Y20999903D01*
X-13999459Y20999999D01*
X-13999459Y21024553D01*
X-13999500Y21024760D01*
X-13999500Y21190000D01*
X-12960000Y21190000D01*
X-12960000Y20595481D01*
X-12959645Y20588867D01*
X-12953599Y20532628D01*
X-12903352Y20397910D01*
X-12817188Y20282811D01*
X-12702089Y20196647D01*
X-12567371Y20146400D01*
X-12511132Y20140354D01*
X-12504518Y20140000D01*
X-11710000Y20140000D01*
X-11710000Y21190000D01*
X-11210000Y21190000D01*
X-11210000Y20140000D01*
X-10415482Y20140000D01*
X-10408867Y20140354D01*
X-10352628Y20146400D01*
X-10217910Y20196647D01*
X-10102811Y20282811D01*
X-10016647Y20397910D01*
X-9966400Y20532628D01*
X-9960354Y20588867D01*
X-9960000Y20595481D01*
X-9960000Y21190000D01*
X9940000Y21190000D01*
X9940000Y20595481D01*
X9940354Y20588867D01*
X9946400Y20532628D01*
X9996647Y20397910D01*
X10082811Y20282811D01*
X10197910Y20196647D01*
X10332628Y20146400D01*
X10388867Y20140354D01*
X10395482Y20140000D01*
X11190000Y20140000D01*
X11190000Y21190000D01*
X11690000Y21190000D01*
X11690000Y20140000D01*
X12484518Y20140000D01*
X12491132Y20140354D01*
X12547371Y20146400D01*
X12682089Y20196647D01*
X12797188Y20282811D01*
X12883352Y20397910D01*
X12933599Y20532628D01*
X12939645Y20588867D01*
X12940000Y20595481D01*
X12940000Y21190000D01*
X11690000Y21190000D01*
X11190000Y21190000D01*
X9940000Y21190000D01*
X-9960000Y21190000D01*
X-11210000Y21190000D01*
X-11710000Y21190000D01*
X-12960000Y21190000D01*
X-13999500Y21190000D01*
X-13999500Y21690000D01*
X-12960000Y21690000D01*
X-11710000Y21690000D01*
X-11710000Y22740000D01*
X-11210000Y22740000D01*
X-11210000Y21690000D01*
X-9960000Y21690000D01*
X9940000Y21690000D01*
X11190000Y21690000D01*
X11190000Y22740000D01*
X11690000Y22740000D01*
X11690000Y21690000D01*
X12940000Y21690000D01*
X12940000Y22284518D01*
X12939645Y22291132D01*
X12933599Y22347371D01*
X12883352Y22482089D01*
X12797188Y22597188D01*
X12682089Y22683352D01*
X12547371Y22733599D01*
X12491132Y22739645D01*
X12484518Y22740000D01*
X11690000Y22740000D01*
X11190000Y22740000D01*
X10395482Y22740000D01*
X10388867Y22739645D01*
X10332628Y22733599D01*
X10197910Y22683352D01*
X10082811Y22597188D01*
X9996647Y22482089D01*
X9946400Y22347371D01*
X9940354Y22291132D01*
X9940000Y22284518D01*
X9940000Y21690000D01*
X-9960000Y21690000D01*
X-9960000Y22284518D01*
X-9960354Y22291132D01*
X-9966400Y22347371D01*
X-10016647Y22482089D01*
X-10102811Y22597188D01*
X-10217910Y22683352D01*
X-10352628Y22733599D01*
X-10408867Y22739645D01*
X-10415482Y22740000D01*
X-11210000Y22740000D01*
X-11710000Y22740000D01*
X-12504518Y22740000D01*
X-12511132Y22739645D01*
X-12567371Y22733599D01*
X-12702089Y22683352D01*
X-12817188Y22597188D01*
X-12903352Y22482089D01*
X-12953599Y22347371D01*
X-12959645Y22291132D01*
X-12960000Y22284518D01*
X-12960000Y21690000D01*
X-13999500Y21690000D01*
X-13999500Y24875500D01*
X-13979815Y24942539D01*
X-13927011Y24988294D01*
X-13875500Y24999500D01*
X13875500Y24999500D01*
X13942539Y24979815D01*
G37*
%TD.AperFunction*%
%TD*%
%TA.AperFunction,NonConductor*%
G36*
X1019202Y12682733D02*
G01*
X1025680Y12676701D01*
X1375701Y12326680D01*
X1409186Y12265357D01*
X1404202Y12195665D01*
X1362330Y12139732D01*
X1296866Y12115315D01*
X1288036Y12114999D01*
X1233976Y12114999D01*
X1166938Y12134684D01*
X1146301Y12151313D01*
X850316Y12447298D01*
X816833Y12508620D01*
X813999Y12534969D01*
X813999Y12589022D01*
X833684Y12656059D01*
X886488Y12701814D01*
X955646Y12711758D01*
X1019202Y12682733D01*
G37*
%TD.AperFunction*%
%TA.AperFunction,NonConductor*%
G36*
X-981166Y15068702D02*
G01*
X-925233Y15026830D01*
X-900816Y14961366D01*
X-900500Y14952520D01*
X-900500Y12448474D01*
X-920184Y12381439D01*
X-936810Y12360806D01*
X-1101951Y12195665D01*
X-1146298Y12151318D01*
X-1207621Y12117833D01*
X-1233979Y12114999D01*
X-1363020Y12114999D01*
X-1441645Y12108812D01*
X-1624488Y12059820D01*
X-1793149Y11973883D01*
X-1921965Y11869569D01*
X-1986451Y11842678D01*
X-2055240Y11854920D01*
X-2078034Y11869569D01*
X-2206851Y11973883D01*
X-2368296Y12056143D01*
X-2419091Y12104116D01*
X-2436000Y12166627D01*
X-2436000Y13665021D01*
X-2416315Y13732060D01*
X-2399681Y13752702D01*
X-1112181Y15040201D01*
X-1050858Y15073686D01*
X-981166Y15068702D01*
G37*
%TD.AperFunction*%
%TA.AperFunction,NonConductor*%
G36*
X-3644666Y13078203D02*
G01*
X-3588733Y13036331D01*
X-3564316Y12970867D01*
X-3564000Y12962021D01*
X-3564000Y12166627D01*
X-3583685Y12099588D01*
X-3631703Y12056143D01*
X-3793149Y11973883D01*
X-3921965Y11869569D01*
X-3986451Y11842678D01*
X-4055240Y11854920D01*
X-4078034Y11869569D01*
X-4206851Y11973883D01*
X-4368296Y12056143D01*
X-4419091Y12104116D01*
X-4436000Y12166627D01*
X-4436000Y12338021D01*
X-4416315Y12405060D01*
X-4399681Y12425702D01*
X-3775681Y13049702D01*
X-3714358Y13083187D01*
X-3644666Y13078203D01*
G37*
%TD.AperFunction*%
%TA.AperFunction,NonConductor*%
G36*
X-5524312Y13086815D02*
G01*
X-5478557Y13034011D01*
X-5468613Y12964853D01*
X-5486439Y12922529D01*
X-5486406Y12922515D01*
X-5492653Y12907433D01*
X-5549483Y12770234D01*
X-5568867Y12623000D01*
X-5565061Y12594091D01*
X-5564000Y12577905D01*
X-5564000Y12166627D01*
X-5583685Y12099588D01*
X-5631703Y12056143D01*
X-5793149Y11973883D01*
X-5921967Y11869567D01*
X-5986451Y11842677D01*
X-6055240Y11854919D01*
X-6078027Y11869563D01*
X-6206851Y11973883D01*
X-6368296Y12056143D01*
X-6419091Y12104116D01*
X-6436000Y12166627D01*
X-6436000Y12982500D01*
X-6416315Y13049539D01*
X-6363511Y13095294D01*
X-6312000Y13106500D01*
X-5591351Y13106500D01*
X-5524312Y13086815D01*
G37*
%TD.AperFunction*%
%TA.AperFunction,NonConductor*%
G36*
X12445834Y5045703D02*
G01*
X12501767Y5003831D01*
X12526184Y4938367D01*
X12526500Y4929521D01*
X12526500Y4875479D01*
X12506815Y4808440D01*
X12490181Y4787798D01*
X12326680Y4624297D01*
X12265357Y4590812D01*
X12195665Y4595796D01*
X12139732Y4637668D01*
X12115315Y4703132D01*
X12114999Y4711961D01*
X12114999Y4766020D01*
X12134684Y4833059D01*
X12151318Y4853701D01*
X12314819Y5017202D01*
X12376142Y5050687D01*
X12445834Y5045703D01*
G37*
%TD.AperFunction*%
%TA.AperFunction,NonConductor*%
G36*
X-12321297Y5023234D02*
G01*
X-12314832Y5017215D01*
X-12227138Y4929521D01*
X-12151317Y4853700D01*
X-12117833Y4792377D01*
X-12114999Y4766019D01*
X-12114999Y4711977D01*
X-12134684Y4644938D01*
X-12187488Y4599183D01*
X-12256646Y4589239D01*
X-12320202Y4618264D01*
X-12326680Y4624296D01*
X-12490181Y4787797D01*
X-12523666Y4849120D01*
X-12526500Y4875478D01*
X-12526500Y4929521D01*
X-12506815Y4996560D01*
X-12454011Y5042315D01*
X-12384853Y5052259D01*
X-12321297Y5023234D01*
G37*
%TD.AperFunction*%
%TA.AperFunction,NonConductor*%
G36*
X12772834Y3372702D02*
G01*
X12828767Y3330830D01*
X12853184Y3265366D01*
X12853500Y3256520D01*
X12853500Y3202478D01*
X12833815Y3135439D01*
X12817185Y3114802D01*
X12556084Y2853701D01*
X12326680Y2624297D01*
X12265357Y2590812D01*
X12195665Y2595796D01*
X12139732Y2637668D01*
X12115315Y2703132D01*
X12114999Y2711961D01*
X12114999Y2766020D01*
X12134684Y2833059D01*
X12151318Y2853701D01*
X12641819Y3344201D01*
X12703142Y3377686D01*
X12772834Y3372702D01*
G37*
%TD.AperFunction*%
%TA.AperFunction,NonConductor*%
G36*
X-12648297Y3350233D02*
G01*
X-12641819Y3344201D01*
X-12151318Y2853700D01*
X-12117833Y2792377D01*
X-12114999Y2766019D01*
X-12114999Y2711978D01*
X-12134684Y2644939D01*
X-12187488Y2599184D01*
X-12256646Y2589240D01*
X-12320202Y2618265D01*
X-12326680Y2624297D01*
X-12556084Y2853701D01*
X-12817182Y3114799D01*
X-12850666Y3176120D01*
X-12853500Y3202478D01*
X-12853500Y3256520D01*
X-12833815Y3323559D01*
X-12781011Y3369314D01*
X-12711853Y3379258D01*
X-12648297Y3350233D01*
G37*
%TD.AperFunction*%
%TA.AperFunction,NonConductor*%
G36*
X13099834Y1699702D02*
G01*
X13155767Y1657830D01*
X13180184Y1592366D01*
X13180500Y1583520D01*
X13180500Y1529478D01*
X13160815Y1462439D01*
X13144181Y1441797D01*
X12326680Y624297D01*
X12265357Y590812D01*
X12195665Y595796D01*
X12139732Y637668D01*
X12115315Y703132D01*
X12114999Y711961D01*
X12114999Y766020D01*
X12134684Y833059D01*
X12151318Y853701D01*
X12968819Y1671201D01*
X13030142Y1704686D01*
X13099834Y1699702D01*
G37*
%TD.AperFunction*%
%TA.AperFunction,NonConductor*%
G36*
X-12975297Y1677234D02*
G01*
X-12968819Y1671202D01*
X-12151317Y853700D01*
X-12117832Y792377D01*
X-12114999Y766026D01*
X-12114999Y711978D01*
X-12114999Y711975D01*
X-12134685Y644936D01*
X-12187490Y599182D01*
X-12256648Y589239D01*
X-12320203Y618266D01*
X-12326680Y624296D01*
X-12556085Y853701D01*
X-13144182Y1441798D01*
X-13177666Y1503119D01*
X-13180500Y1529477D01*
X-13180500Y1583521D01*
X-13160815Y1650560D01*
X-13108011Y1696315D01*
X-13038853Y1706259D01*
X-12975297Y1677234D01*
G37*
%TD.AperFunction*%
%TA.AperFunction,NonConductor*%
G36*
X13426834Y26704D02*
G01*
X13482767Y-15168D01*
X13507184Y-80632D01*
X13507500Y-89478D01*
X13507500Y-143520D01*
X13487815Y-210559D01*
X13471181Y-231201D01*
X12326680Y-1375701D01*
X12265357Y-1409186D01*
X12195665Y-1404202D01*
X12139732Y-1362330D01*
X12115315Y-1296866D01*
X12114999Y-1288036D01*
X12114999Y-1233977D01*
X12134684Y-1166939D01*
X12151313Y-1146302D01*
X13295820Y-1795D01*
X13357142Y31688D01*
X13426834Y26704D01*
G37*
%TD.AperFunction*%
%TA.AperFunction,NonConductor*%
G36*
X-13302296Y4235D02*
G01*
X-13295830Y-1785D01*
X-12739262Y-558353D01*
X-12151318Y-1146297D01*
X-12117833Y-1207620D01*
X-12114999Y-1233978D01*
X-12114999Y-1288021D01*
X-12134684Y-1355060D01*
X-12187488Y-1400815D01*
X-12256646Y-1410759D01*
X-12320202Y-1381734D01*
X-12326680Y-1375702D01*
X-13471180Y-231202D01*
X-13504665Y-169879D01*
X-13507499Y-143521D01*
X-13507499Y-89478D01*
X-13487814Y-22439D01*
X-13435010Y23316D01*
X-13365852Y33260D01*
X-13302296Y4235D01*
G37*
%TD.AperFunction*%
%TA.AperFunction,NonConductor*%
G36*
X-13629299Y-1668763D02*
G01*
X-13622831Y-1674784D01*
X-12922103Y-2375512D01*
X-12151318Y-3146297D01*
X-12117833Y-3207620D01*
X-12114999Y-3233978D01*
X-12114999Y-3288021D01*
X-12134684Y-3355060D01*
X-12187488Y-3400815D01*
X-12256646Y-3410759D01*
X-12320202Y-3381734D01*
X-12326680Y-3375702D01*
X-13798180Y-1904201D01*
X-13831665Y-1842878D01*
X-13834499Y-1816522D01*
X-13834500Y-1762479D01*
X-13814817Y-1695439D01*
X-13762014Y-1649684D01*
X-13692855Y-1639739D01*
X-13629299Y-1668763D01*
G37*
%TD.AperFunction*%
%TA.AperFunction,NonConductor*%
G36*
X14080834Y-3319296D02*
G01*
X14136767Y-3361168D01*
X14161184Y-3426632D01*
X14161500Y-3435480D01*
X14161499Y-3489522D01*
X14141813Y-3556561D01*
X14125180Y-3577201D01*
X12326680Y-5375701D01*
X12265357Y-5409186D01*
X12195665Y-5404202D01*
X12139732Y-5362330D01*
X12115315Y-5296866D01*
X12114999Y-5288036D01*
X12114999Y-5233977D01*
X12134684Y-5166939D01*
X12151313Y-5146302D01*
X13949820Y-3347795D01*
X14011142Y-3314312D01*
X14080834Y-3319296D01*
G37*
%TD.AperFunction*%
%TA.AperFunction,NonConductor*%
G36*
X13753834Y-1646295D02*
G01*
X13809767Y-1688167D01*
X13834184Y-1753631D01*
X13834500Y-1762479D01*
X13834499Y-1816522D01*
X13814813Y-1883561D01*
X13798180Y-1904201D01*
X12326680Y-3375701D01*
X12265357Y-3409186D01*
X12195665Y-3404202D01*
X12139732Y-3362330D01*
X12115315Y-3296866D01*
X12114999Y-3288036D01*
X12114999Y-3233977D01*
X12134684Y-3166939D01*
X12151313Y-3146302D01*
X13622821Y-1674794D01*
X13684142Y-1641311D01*
X13753834Y-1646295D01*
G37*
%TD.AperFunction*%
%TA.AperFunction,NonConductor*%
G36*
X-13956296Y-3341766D02*
G01*
X-13949831Y-3347785D01*
X-13120866Y-4176750D01*
X-12151318Y-5146298D01*
X-12117833Y-5207621D01*
X-12114999Y-5233979D01*
X-12114999Y-5288021D01*
X-12134684Y-5355060D01*
X-12187488Y-5400815D01*
X-12256646Y-5410759D01*
X-12320202Y-5381734D01*
X-12326680Y-5375702D01*
X-14125180Y-3577201D01*
X-14158665Y-3515878D01*
X-14161499Y-3489520D01*
X-14161499Y-3435479D01*
X-14141814Y-3368440D01*
X-14089010Y-3322685D01*
X-14019852Y-3312741D01*
X-13956296Y-3341766D01*
G37*
%TD.AperFunction*%
%TA.AperFunction,NonConductor*%
G36*
X4833059Y-12134684D02*
G01*
X4853701Y-12151318D01*
X5017202Y-12314819D01*
X5050687Y-12376142D01*
X5045703Y-12445834D01*
X5003831Y-12501767D01*
X4938367Y-12526184D01*
X4929521Y-12526500D01*
X4875479Y-12526500D01*
X4808440Y-12506815D01*
X4787798Y-12490181D01*
X4624297Y-12326680D01*
X4590812Y-12265357D01*
X4595796Y-12195665D01*
X4637668Y-12139732D01*
X4703132Y-12115315D01*
X4711961Y-12114999D01*
X4766020Y-12114999D01*
X4833059Y-12134684D01*
G37*
%TD.AperFunction*%
%TA.AperFunction,NonConductor*%
G36*
X2833059Y-12134684D02*
G01*
X2853701Y-12151318D01*
X3344202Y-12641819D01*
X3377687Y-12703142D01*
X3372703Y-12772834D01*
X3330831Y-12828767D01*
X3265367Y-12853184D01*
X3256521Y-12853500D01*
X3202479Y-12853500D01*
X3135440Y-12833815D01*
X3114798Y-12817181D01*
X2624297Y-12326680D01*
X2590812Y-12265357D01*
X2595796Y-12195665D01*
X2637668Y-12139732D01*
X2703132Y-12115315D01*
X2711961Y-12114999D01*
X2766020Y-12114999D01*
X2833059Y-12134684D01*
G37*
%TD.AperFunction*%
%TA.AperFunction,NonConductor*%
G36*
X-993939Y-12134684D02*
G01*
X-973302Y-12151313D01*
X-351782Y-12772834D01*
X171203Y-13295819D01*
X204688Y-13357142D01*
X199704Y-13426834D01*
X157832Y-13482767D01*
X92368Y-13507184D01*
X83522Y-13507500D01*
X-143522Y-13507500D01*
X-210561Y-13487815D01*
X-231203Y-13471181D01*
X-1375701Y-12326680D01*
X-1409186Y-12265357D01*
X-1404202Y-12195665D01*
X-1362330Y-12139732D01*
X-1296866Y-12115315D01*
X-1288042Y-12114999D01*
X-1060977Y-12114999D01*
X-993939Y-12134684D01*
G37*
%TD.AperFunction*%
%TA.AperFunction,NonConductor*%
G36*
X-3166939Y-12134684D02*
G01*
X-3146302Y-12151313D01*
X-2117116Y-13180500D01*
X-1674797Y-13622819D01*
X-1641312Y-13684142D01*
X-1646296Y-13753834D01*
X-1688168Y-13809767D01*
X-1753632Y-13834184D01*
X-1762478Y-13834500D01*
X-1816521Y-13834500D01*
X-1883560Y-13814815D01*
X-1904202Y-13798181D01*
X-3375701Y-12326680D01*
X-3409186Y-12265357D01*
X-3404202Y-12195665D01*
X-3362330Y-12139732D01*
X-3296866Y-12115315D01*
X-3288036Y-12114999D01*
X-3233977Y-12114999D01*
X-3166939Y-12134684D01*
G37*
%TD.AperFunction*%
%TA.AperFunction,NonConductor*%
G36*
X-5166939Y-12134684D02*
G01*
X-5146302Y-12151313D01*
X-3790433Y-13507184D01*
X-3347798Y-13949819D01*
X-3314313Y-14011142D01*
X-3319297Y-14080834D01*
X-3361169Y-14136767D01*
X-3426633Y-14161184D01*
X-3435479Y-14161500D01*
X-3489521Y-14161500D01*
X-3556560Y-14141815D01*
X-3577202Y-14125181D01*
X-5375701Y-12326680D01*
X-5409186Y-12265357D01*
X-5404202Y-12195665D01*
X-5362330Y-12139732D01*
X-5296866Y-12115315D01*
X-5288036Y-12114999D01*
X-5233977Y-12114999D01*
X-5166939Y-12134684D01*
G37*
%TD.AperFunction*%
M02*
