%TF.GenerationSoftware,KiCad,Pcbnew,7.0.2*%
%TF.CreationDate,2023-10-26T18:42:08-06:00*%
%TF.ProjectId,LED_Probe_PCB,4c45445f-5072-46f6-9265-5f5043422e6b,rev?*%
%TF.SameCoordinates,Original*%
%TF.FileFunction,Copper,L1,Top*%
%TF.FilePolarity,Positive*%
%FSLAX46Y46*%
G04 Gerber Fmt 4.6, Leading zero omitted, Abs format (unit mm)*
G04 Created by KiCad (PCBNEW 7.0.2) date 2023-10-26 18:42:08*
%MOMM*%
%LPD*%
G01*
G04 APERTURE LIST*
G04 Aperture macros list*
%AMRoundRect*
0 Rectangle with rounded corners*
0 $1 Rounding radius*
0 $2 $3 $4 $5 $6 $7 $8 $9 X,Y pos of 4 corners*
0 Add a 4 corners polygon primitive as box body*
4,1,4,$2,$3,$4,$5,$6,$7,$8,$9,$2,$3,0*
0 Add four circle primitives for the rounded corners*
1,1,$1+$1,$2,$3*
1,1,$1+$1,$4,$5*
1,1,$1+$1,$6,$7*
1,1,$1+$1,$8,$9*
0 Add four rect primitives between the rounded corners*
20,1,$1+$1,$2,$3,$4,$5,0*
20,1,$1+$1,$4,$5,$6,$7,0*
20,1,$1+$1,$6,$7,$8,$9,0*
20,1,$1+$1,$8,$9,$2,$3,0*%
G04 Aperture macros list end*
%TA.AperFunction,SMDPad,CuDef*%
%ADD10R,2.000000X2.500000*%
%TD*%
%TA.AperFunction,SMDPad,CuDef*%
%ADD11R,0.300000X1.250000*%
%TD*%
%TA.AperFunction,ComponentPad*%
%ADD12C,3.800000*%
%TD*%
%TA.AperFunction,SMDPad,CuDef*%
%ADD13RoundRect,0.400000X-0.300000X-1.000000X0.300000X-1.000000X0.300000X1.000000X-0.300000X1.000000X0*%
%TD*%
%TA.AperFunction,SMDPad,CuDef*%
%ADD14RoundRect,0.400000X1.000000X-0.300000X1.000000X0.300000X-1.000000X0.300000X-1.000000X-0.300000X0*%
%TD*%
%TA.AperFunction,SMDPad,CuDef*%
%ADD15RoundRect,0.400000X-1.000000X0.300000X-1.000000X-0.300000X1.000000X-0.300000X1.000000X0.300000X0*%
%TD*%
%TA.AperFunction,SMDPad,CuDef*%
%ADD16RoundRect,0.400000X0.300000X1.000000X-0.300000X1.000000X-0.300000X-1.000000X0.300000X-1.000000X0*%
%TD*%
%TA.AperFunction,Conductor*%
%ADD17C,0.127000*%
%TD*%
G04 APERTURE END LIST*
D10*
%TO.P,J2,22,Pin_22*%
%TO.N,GND*%
X15940000Y23287000D03*
%TO.P,J2,21,Pin_21*%
X3060000Y23287000D03*
D11*
%TO.P,J2,20,Pin_20*%
X4750000Y20712000D03*
%TO.P,J2,19,Pin_19*%
X5250000Y20712000D03*
%TO.P,J2,18,Pin_18*%
X5750000Y20712000D03*
%TO.P,J2,17,Pin_17*%
X6250000Y20712000D03*
%TO.P,J2,16,Pin_16*%
%TO.N,Net-(E1-Pin_8)*%
X6750000Y20712000D03*
%TO.P,J2,15,Pin_15*%
%TO.N,/E_I-*%
X7250000Y20712000D03*
%TO.P,J2,14,Pin_14*%
%TO.N,Net-(E1-Pin_6)*%
X7750000Y20712000D03*
%TO.P,J2,13,Pin_13*%
%TO.N,/E_V-*%
X8250000Y20712000D03*
%TO.P,J2,12,Pin_12*%
%TO.N,Net-(E1-Pin_4)*%
X8750000Y20712000D03*
%TO.P,J2,11,Pin_11*%
%TO.N,/E_V+*%
X9250000Y20712000D03*
%TO.P,J2,10,Pin_10*%
%TO.N,Net-(E1-Pin_2)*%
X9750000Y20712000D03*
%TO.P,J2,9,Pin_9*%
%TO.N,/E_I+*%
X10250000Y20712000D03*
%TO.P,J2,8,Pin_8*%
%TO.N,Net-(J2-Pin_8)*%
X10750000Y20712000D03*
%TO.P,J2,7,Pin_7*%
%TO.N,/S_I-*%
X11250000Y20712000D03*
%TO.P,J2,6,Pin_6*%
%TO.N,Net-(J2-Pin_6)*%
X11750000Y20712000D03*
%TO.P,J2,5,Pin_5*%
%TO.N,/S_V-*%
X12250000Y20712000D03*
%TO.P,J2,4,Pin_4*%
%TO.N,Net-(J2-Pin_4)*%
X12750000Y20712000D03*
%TO.P,J2,3,Pin_3*%
%TO.N,/S_V+*%
X13250000Y20712000D03*
%TO.P,J2,2,Pin_2*%
%TO.N,Net-(J2-Pin_2)*%
X13750000Y20712000D03*
%TO.P,J2,1,Pin_1*%
%TO.N,/S_I+*%
X14250000Y20712000D03*
%TD*%
D10*
%TO.P,J1,22,Pin_22*%
%TO.N,GND*%
X-3060000Y23287000D03*
%TO.P,J1,21,Pin_21*%
X-15940000Y23287000D03*
D11*
%TO.P,J1,20,Pin_20*%
X-14250000Y20712000D03*
%TO.P,J1,19,Pin_19*%
X-13750000Y20712000D03*
%TO.P,J1,18,Pin_18*%
X-13250000Y20712000D03*
%TO.P,J1,17,Pin_17*%
X-12750000Y20712000D03*
%TO.P,J1,16,Pin_16*%
%TO.N,Net-(J1-Pin_16)*%
X-12250000Y20712000D03*
%TO.P,J1,15,Pin_15*%
%TO.N,/W_I-*%
X-11750000Y20712000D03*
%TO.P,J1,14,Pin_14*%
%TO.N,Net-(J1-Pin_14)*%
X-11250000Y20712000D03*
%TO.P,J1,13,Pin_13*%
%TO.N,/W_V-*%
X-10750000Y20712000D03*
%TO.P,J1,12,Pin_12*%
%TO.N,Net-(J1-Pin_12)*%
X-10250000Y20712000D03*
%TO.P,J1,11,Pin_11*%
%TO.N,/W_V+*%
X-9750000Y20712000D03*
%TO.P,J1,10,Pin_10*%
%TO.N,Net-(J1-Pin_10)*%
X-9250000Y20712000D03*
%TO.P,J1,9,Pin_9*%
%TO.N,/W_I+*%
X-8750000Y20712000D03*
%TO.P,J1,8,Pin_8*%
%TO.N,Net-(J1-Pin_8)*%
X-8250000Y20712000D03*
%TO.P,J1,7,Pin_7*%
%TO.N,/N_I-*%
X-7750000Y20712000D03*
%TO.P,J1,6,Pin_6*%
%TO.N,Net-(J1-Pin_6)*%
X-7250000Y20712000D03*
%TO.P,J1,5,Pin_5*%
%TO.N,/N_V-*%
X-6750000Y20712000D03*
%TO.P,J1,4,Pin_4*%
%TO.N,Net-(J1-Pin_4)*%
X-6250000Y20712000D03*
%TO.P,J1,3,Pin_3*%
%TO.N,/N_V+*%
X-5750000Y20712000D03*
%TO.P,J1,2,Pin_2*%
%TO.N,Net-(J1-Pin_2)*%
X-5250000Y20712000D03*
%TO.P,J1,1,Pin_1*%
%TO.N,/N_I+*%
X-4750000Y20712000D03*
%TD*%
D12*
%TO.P,H2,1,1*%
%TO.N,GND*%
X19000000Y19000000D03*
%TD*%
D13*
%TO.P,S1,1,Pin_1*%
%TO.N,/S_I+*%
X-7000000Y-10214500D03*
%TO.P,S1,2,Pin_2*%
%TO.N,Net-(J2-Pin_2)*%
X-5000000Y-10214500D03*
%TO.P,S1,3,Pin_3*%
%TO.N,/S_V+*%
X-3000000Y-10214500D03*
%TO.P,S1,4,Pin_4*%
%TO.N,Net-(J2-Pin_4)*%
X-1000000Y-10214500D03*
%TO.P,S1,5,Pin_5*%
%TO.N,/S_V-*%
X1000000Y-10214500D03*
%TO.P,S1,6,Pin_6*%
%TO.N,Net-(J2-Pin_6)*%
X3000000Y-10214500D03*
%TO.P,S1,7,Pin_7*%
%TO.N,/S_I-*%
X5000000Y-10214500D03*
%TO.P,S1,8,Pin_8*%
%TO.N,Net-(J2-Pin_8)*%
X7000000Y-10214500D03*
%TD*%
D14*
%TO.P,E1,1,Pin_1*%
%TO.N,/E_I+*%
X10214500Y-7000000D03*
%TO.P,E1,2,Pin_2*%
%TO.N,Net-(E1-Pin_2)*%
X10214500Y-5000000D03*
%TO.P,E1,3,Pin_3*%
%TO.N,/E_V+*%
X10214500Y-3000000D03*
%TO.P,E1,4,Pin_4*%
%TO.N,Net-(E1-Pin_4)*%
X10214500Y-1000000D03*
%TO.P,E1,5,Pin_5*%
%TO.N,/E_V-*%
X10214500Y1000000D03*
%TO.P,E1,6,Pin_6*%
%TO.N,Net-(E1-Pin_6)*%
X10214500Y3000000D03*
%TO.P,E1,7,Pin_7*%
%TO.N,/E_I-*%
X10214500Y5000000D03*
%TO.P,E1,8,Pin_8*%
%TO.N,Net-(E1-Pin_8)*%
X10214500Y7000000D03*
%TD*%
D15*
%TO.P,W1,1,Pin_1*%
%TO.N,/W_I+*%
X-10214500Y7000000D03*
%TO.P,W1,2,Pin_2*%
%TO.N,Net-(J1-Pin_10)*%
X-10214500Y5000000D03*
%TO.P,W1,3,Pin_3*%
%TO.N,/W_V+*%
X-10214500Y3000000D03*
%TO.P,W1,4,Pin_4*%
%TO.N,Net-(J1-Pin_12)*%
X-10214500Y1000000D03*
%TO.P,W1,5,Pin_5*%
%TO.N,/W_V-*%
X-10214500Y-1000000D03*
%TO.P,W1,6,Pin_6*%
%TO.N,Net-(J1-Pin_14)*%
X-10214500Y-3000000D03*
%TO.P,W1,7,Pin_7*%
%TO.N,/W_I-*%
X-10214500Y-5000000D03*
%TO.P,W1,8,Pin_8*%
%TO.N,Net-(J1-Pin_16)*%
X-10214500Y-7000000D03*
%TD*%
D16*
%TO.P,N1,8,Pin_8*%
%TO.N,Net-(J1-Pin_8)*%
X-7000000Y10214500D03*
%TO.P,N1,7,Pin_7*%
%TO.N,/N_I-*%
X-5000000Y10214500D03*
%TO.P,N1,6,Pin_6*%
%TO.N,Net-(J1-Pin_6)*%
X-3000000Y10214500D03*
%TO.P,N1,5,Pin_5*%
%TO.N,/N_V-*%
X-1000000Y10214500D03*
%TO.P,N1,4,Pin_4*%
%TO.N,Net-(J1-Pin_4)*%
X1000000Y10214500D03*
%TO.P,N1,3,Pin_3*%
%TO.N,/N_V+*%
X3000000Y10214500D03*
%TO.P,N1,2,Pin_2*%
%TO.N,Net-(J1-Pin_2)*%
X5000000Y10214500D03*
%TO.P,N1,1,Pin_1*%
%TO.N,/N_I+*%
X7000000Y10214500D03*
%TD*%
D12*
%TO.P,H4,1,1*%
%TO.N,GND*%
X19000000Y-19000000D03*
%TD*%
%TO.P,H3,1,1*%
%TO.N,GND*%
X-19000000Y-19000000D03*
%TD*%
%TO.P,H1,1,1*%
%TO.N,GND*%
X-19000000Y19000000D03*
%TD*%
D17*
%TO.N,GND*%
X6250000Y20712000D02*
X4750000Y20712000D01*
X-12750000Y20712000D02*
X-14250000Y20712000D01*
%TO.N,/E_I-*%
X7250000Y16995624D02*
X12763500Y11482124D01*
X7250000Y20712000D02*
X7250000Y16995624D01*
%TO.N,Net-(E1-Pin_6)*%
X7750000Y16958072D02*
X7750000Y20712000D01*
X13090500Y11617572D02*
X7750000Y16958072D01*
%TO.N,/E_V-*%
X13417500Y2917500D02*
X11500000Y1000000D01*
X11500000Y1000000D02*
X9714500Y1000000D01*
X13417500Y11753020D02*
X13417500Y2917500D01*
X8250000Y20712000D02*
X8250000Y16920520D01*
X8250000Y16920520D02*
X13417500Y11753020D01*
%TO.N,/S_I-*%
X9056500Y-12763500D02*
X6263500Y-12763500D01*
X6263500Y-12763500D02*
X5000000Y-11500000D01*
X5000000Y-11500000D02*
X5000000Y-9714500D01*
X15379500Y-6440500D02*
X9056500Y-12763500D01*
X15379500Y12565708D02*
X15379500Y-6440500D01*
X11250000Y20712000D02*
X11250000Y16695208D01*
X11250000Y16695208D02*
X15379500Y12565708D01*
%TO.N,Net-(J2-Pin_6)*%
X9191948Y-13090500D02*
X15706500Y-6575948D01*
X11750000Y16657656D02*
X11750000Y20712000D01*
X4590500Y-13090500D02*
X9191948Y-13090500D01*
X15706500Y-6575948D02*
X15706500Y12701156D01*
X15706500Y12701156D02*
X11750000Y16657656D01*
X3000000Y-11500000D02*
X4590500Y-13090500D01*
X3000000Y-9714500D02*
X3000000Y-11500000D01*
%TO.N,/S_V-*%
X1000000Y-11500000D02*
X1000000Y-9714500D01*
X9327396Y-13417500D02*
X2917500Y-13417500D01*
X16033500Y-6711396D02*
X9327396Y-13417500D01*
X16033500Y12836604D02*
X16033500Y-6711396D01*
X12250000Y16620104D02*
X16033500Y12836604D01*
X12250000Y20712000D02*
X12250000Y16620104D01*
X2917500Y-13417500D02*
X1000000Y-11500000D01*
%TO.N,Net-(J2-Pin_4)*%
X12750000Y16582552D02*
X12750000Y20712000D01*
%TO.N,/S_V+*%
X-428500Y-14071500D02*
X-3000000Y-11500000D01*
X16687500Y13107500D02*
X16687500Y-6982292D01*
X-3000000Y-11500000D02*
X-3000000Y-9714500D01*
X13250000Y16545000D02*
X16687500Y13107500D01*
X9598292Y-14071500D02*
X-428500Y-14071500D01*
X13250000Y20712000D02*
X13250000Y16545000D01*
X16687500Y-6982292D02*
X9598292Y-14071500D01*
%TO.N,Net-(J2-Pin_2)*%
X-5000000Y-11500000D02*
X-5000000Y-9714500D01*
X9733740Y-14398500D02*
X-2101500Y-14398500D01*
X-2101500Y-14398500D02*
X-5000000Y-11500000D01*
X17014500Y-7117740D02*
X9733740Y-14398500D01*
X13750000Y16617552D02*
X17014500Y13353052D01*
X17014500Y13353052D02*
X17014500Y-7117740D01*
X13750000Y20712000D02*
X13750000Y16617552D01*
%TO.N,/S_I+*%
X14250000Y20712000D02*
X14250000Y16580000D01*
%TO.N,Net-(J2-Pin_8)*%
X10750000Y16732760D02*
X10750000Y20712000D01*
%TO.N,/E_I+*%
X10250000Y20712000D02*
X10250000Y16770312D01*
%TO.N,Net-(E1-Pin_2)*%
X9750000Y16807864D02*
X9750000Y20712000D01*
%TO.N,/E_V+*%
X9250000Y20712000D02*
X9250000Y16845416D01*
%TO.N,Net-(E1-Pin_4)*%
X13744500Y1244500D02*
X11500000Y-1000000D01*
X13744500Y11888468D02*
X13744500Y1244500D01*
X11500000Y-1000000D02*
X9714500Y-1000000D01*
X8750000Y16882968D02*
X13744500Y11888468D01*
X8750000Y20712000D02*
X8750000Y16882968D01*
%TO.N,Net-(E1-Pin_8)*%
X6750000Y20712000D02*
X6750000Y15850000D01*
%TO.N,/N_I+*%
X-2122000Y20712000D02*
X7000000Y11590000D01*
X7000000Y11590000D02*
X7000000Y9714500D01*
X-4750000Y20712000D02*
X-2122000Y20712000D01*
%TO.N,Net-(J1-Pin_2)*%
X5000000Y10800000D02*
X5000000Y10214500D01*
X-5250000Y19910000D02*
X2782000Y11878000D01*
X2782000Y11878000D02*
X3922000Y11878000D01*
X3922000Y11878000D02*
X5000000Y10800000D01*
X-5250000Y20712000D02*
X-5250000Y19910000D01*
%TO.N,/N_V+*%
X3000000Y11160000D02*
X3000000Y10214500D01*
X-5750000Y19910000D02*
X3000000Y11160000D01*
X-5750000Y20712000D02*
X-5750000Y19910000D01*
%TO.N,Net-(J1-Pin_4)*%
X1000000Y10452831D02*
X1000000Y10214500D01*
X-6250000Y17702831D02*
X1000000Y10452831D01*
X-6250000Y20712000D02*
X-6250000Y17702831D01*
%TO.N,/N_V-*%
X-6750000Y16932448D02*
X-1000000Y11182448D01*
X-1000000Y11182448D02*
X-1000000Y10214500D01*
X-6750000Y20712000D02*
X-6750000Y16932448D01*
%TO.N,Net-(J1-Pin_6)*%
X-3000000Y12720000D02*
X-3000000Y9714500D01*
X-7250000Y16970000D02*
X-3000000Y12720000D01*
X-7250000Y20712000D02*
X-7250000Y16970000D01*
%TO.N,/N_I-*%
X-7750000Y15373000D02*
X-5000000Y12623000D01*
X-5000000Y12623000D02*
X-5000000Y9714500D01*
X-7750000Y20712000D02*
X-7750000Y15373000D01*
%TO.N,Net-(J1-Pin_8)*%
X-8250000Y14590500D02*
X-7000000Y13340500D01*
X-8250000Y20712000D02*
X-8250000Y14590500D01*
%TO.N,/W_I+*%
X-8750000Y12633552D02*
X-8750000Y20712000D01*
X-11500000Y9883552D02*
X-8750000Y12633552D01*
%TO.N,Net-(J1-Pin_10)*%
X-9250000Y12596000D02*
X-12763500Y9082500D01*
X-9250000Y20712000D02*
X-9250000Y12596000D01*
%TO.N,/W_V+*%
X-9750000Y12558448D02*
X-9750000Y20712000D01*
X-13090500Y9217948D02*
X-9750000Y12558448D01*
%TO.N,Net-(J1-Pin_12)*%
X-10250000Y12520896D02*
X-13417500Y9353396D01*
X-10250000Y20712000D02*
X-10250000Y12520896D01*
%TO.N,/W_V-*%
X-10750000Y12483344D02*
X-13744500Y9488844D01*
X-10750000Y20712000D02*
X-10750000Y12483344D01*
%TO.N,Net-(J1-Pin_14)*%
X-11250000Y12445792D02*
X-11250000Y20712000D01*
X-14071500Y9624292D02*
X-11250000Y12445792D01*
%TO.N,/W_I-*%
X-11740000Y12418240D02*
X-14398500Y9759740D01*
X-11740000Y20702000D02*
X-11740000Y12418240D01*
X-11750000Y20712000D02*
X-11740000Y20702000D01*
%TO.N,Net-(J1-Pin_10)*%
X-11500000Y5000000D02*
X-9714500Y5000000D01*
X-12763500Y6263500D02*
X-11500000Y5000000D01*
X-12763500Y9082500D02*
X-12763500Y6263500D01*
%TO.N,Net-(J1-Pin_16)*%
X-12250000Y20712000D02*
X-12250000Y12370688D01*
X-12250000Y12370688D02*
X-12275344Y12345344D01*
X-14725500Y9895188D02*
X-12275344Y12345344D01*
%TO.N,Net-(J1-Pin_12)*%
X-13417500Y2917500D02*
X-13417500Y9353396D01*
X-11500000Y1000000D02*
X-13417500Y2917500D01*
X-11500000Y1000000D02*
X-9714500Y1000000D01*
%TO.N,/W_V+*%
X-13090500Y4590500D02*
X-13090500Y9217948D01*
X-11500000Y3000000D02*
X-9714500Y3000000D01*
X-11500000Y3000000D02*
X-13090500Y4590500D01*
%TO.N,Net-(J1-Pin_8)*%
X-7000000Y13340500D02*
X-7000000Y9714500D01*
%TO.N,/E_I-*%
X12763500Y6263500D02*
X12763500Y11482124D01*
%TO.N,Net-(E1-Pin_6)*%
X13090500Y11617572D02*
X13090500Y4590500D01*
%TO.N,/E_I+*%
X11500000Y-7000000D02*
X14725500Y-3774500D01*
X14725500Y-3774500D02*
X14725500Y12294812D01*
X14725500Y12294812D02*
X10250000Y16770312D01*
X9714500Y-7000000D02*
X11500000Y-7000000D01*
%TO.N,Net-(J2-Pin_8)*%
X10750000Y16732760D02*
X15052500Y12430260D01*
%TO.N,/S_I+*%
X17341500Y13488500D02*
X14250000Y16580000D01*
%TO.N,Net-(J2-Pin_4)*%
X12750000Y16582552D02*
X16360500Y12972052D01*
%TO.N,Net-(E1-Pin_2)*%
X9750000Y16807864D02*
X14398500Y12159364D01*
%TO.N,/E_V+*%
X9250000Y16845416D02*
X14071500Y12023916D01*
%TO.N,/E_I-*%
X9714500Y5000000D02*
X11500000Y5000000D01*
X11500000Y5000000D02*
X12763500Y6263500D01*
%TO.N,/E_V+*%
X14071500Y12023916D02*
X14071500Y8250000D01*
X14071500Y8567740D02*
X14071500Y8250000D01*
X14071500Y8250000D02*
X14071500Y-428500D01*
X14071500Y-428500D02*
X11500000Y-3000000D01*
X11500000Y-3000000D02*
X9714500Y-3000000D01*
%TO.N,/S_I+*%
X17341500Y-7253188D02*
X17341500Y13488500D01*
%TO.N,/N_V+*%
X3000000Y10452831D02*
X3000000Y10214500D01*
%TO.N,Net-(E1-Pin_8)*%
X11500000Y11100000D02*
X11500000Y8710000D01*
X11500000Y8827000D02*
X11500000Y8710000D01*
X11500000Y8710000D02*
X11500000Y7000000D01*
X6750000Y15850000D02*
X11500000Y11100000D01*
%TO.N,Net-(E1-Pin_6)*%
X13090500Y4590500D02*
X11500000Y3000000D01*
X11500000Y3000000D02*
X9714500Y3000000D01*
%TO.N,Net-(E1-Pin_2)*%
X14398500Y-2101500D02*
X11500000Y-5000000D01*
X14398500Y12159364D02*
X14398500Y-2101500D01*
X11500000Y-5000000D02*
X9714500Y-5000000D01*
%TO.N,Net-(J2-Pin_8)*%
X8827000Y-11500000D02*
X7250000Y-11500000D01*
X7250000Y-11500000D02*
X7000000Y-11250000D01*
X15052500Y-5274500D02*
X8827000Y-11500000D01*
X7000000Y-11250000D02*
X7000000Y-9714500D01*
X15052500Y12430260D02*
X15052500Y-5274500D01*
%TO.N,Net-(J2-Pin_4)*%
X-1000000Y-11327000D02*
X-1000000Y-9714500D01*
X9462844Y-13744500D02*
X1417500Y-13744500D01*
X1417500Y-13744500D02*
X-1000000Y-11327000D01*
X16360500Y-6846844D02*
X9462844Y-13744500D01*
X16360500Y12972052D02*
X16360500Y-6846844D01*
%TO.N,/S_I+*%
X-3774500Y-14725500D02*
X9869188Y-14725500D01*
X-7000000Y-11500000D02*
X-3774500Y-14725500D01*
X9869188Y-14725500D02*
X17341500Y-7253188D01*
X-7000000Y-9714500D02*
X-7000000Y-11500000D01*
%TO.N,/W_I+*%
X-11250000Y7000000D02*
X-11500000Y7250000D01*
X-9714500Y7000000D02*
X-11250000Y7000000D01*
X-11500000Y7250000D02*
X-11500000Y9883552D01*
%TO.N,/W_V-*%
X-11500000Y-1000000D02*
X-9714500Y-1000000D01*
X-13744500Y1244500D02*
X-13744500Y9488844D01*
X-11500000Y-1000000D02*
X-13744500Y1244500D01*
%TO.N,/W_I-*%
X-11500000Y-5000000D02*
X-9714500Y-5000000D01*
X-11500000Y-5000000D02*
X-14398500Y-2101500D01*
X-14398500Y-2101500D02*
X-14398500Y9759740D01*
%TO.N,/N_V+*%
X3000000Y11500000D02*
X3000000Y9714500D01*
%TO.N,/N_V-*%
X-1000000Y11500000D02*
X-1000000Y9714500D01*
%TO.N,Net-(E1-Pin_8)*%
X11500000Y7000000D02*
X9714500Y7000000D01*
%TO.N,Net-(J1-Pin_2)*%
X5000000Y9714500D02*
X5000000Y11270000D01*
%TO.N,Net-(J1-Pin_4)*%
X1000000Y11500000D02*
X1000000Y9714500D01*
%TO.N,GND*%
X18800000Y-19000000D02*
X18750000Y-18950000D01*
%TO.N,Net-(J1-Pin_14)*%
X-11500000Y-3000000D02*
X-14071500Y-428500D01*
X-11500000Y-3000000D02*
X-9714500Y-3000000D01*
X-14071500Y-428500D02*
X-14071500Y9624292D01*
%TO.N,Net-(J1-Pin_16)*%
X-11500000Y-7000000D02*
X-14725500Y-3774500D01*
X-11500000Y-7000000D02*
X-9714500Y-7000000D01*
X-14725500Y-3774500D02*
X-14725500Y9895188D01*
%TD*%
%TA.AperFunction,Conductor*%
%TO.N,GND*%
G36*
X-17399036Y24979815D02*
G01*
X-17353281Y24927011D01*
X-17343337Y24857853D01*
X-17366809Y24801189D01*
X-17383351Y24779091D01*
X-17433599Y24644371D01*
X-17439645Y24588132D01*
X-17440000Y24581518D01*
X-17440000Y23537000D01*
X-14440000Y23537000D01*
X-14440000Y24581518D01*
X-14440354Y24588132D01*
X-14446400Y24644371D01*
X-14496648Y24779091D01*
X-14513191Y24801189D01*
X-14537609Y24866653D01*
X-14522758Y24934926D01*
X-14473353Y24984332D01*
X-14413925Y24999500D01*
X-4586075Y24999500D01*
X-4519036Y24979815D01*
X-4473281Y24927011D01*
X-4463337Y24857853D01*
X-4486809Y24801189D01*
X-4503351Y24779091D01*
X-4553599Y24644371D01*
X-4559645Y24588132D01*
X-4560000Y24581518D01*
X-4560000Y23537000D01*
X-1560000Y23537000D01*
X-1560000Y24581518D01*
X-1560354Y24588132D01*
X-1566400Y24644371D01*
X-1616648Y24779091D01*
X-1633191Y24801189D01*
X-1657609Y24866653D01*
X-1642758Y24934926D01*
X-1593353Y24984332D01*
X-1533925Y24999500D01*
X1533925Y24999500D01*
X1600964Y24979815D01*
X1646719Y24927011D01*
X1656663Y24857853D01*
X1633191Y24801189D01*
X1616648Y24779091D01*
X1566400Y24644371D01*
X1560354Y24588132D01*
X1560000Y24581518D01*
X1560000Y23537000D01*
X4560000Y23537000D01*
X4560000Y24581518D01*
X4559645Y24588132D01*
X4553599Y24644371D01*
X4503351Y24779091D01*
X4486809Y24801189D01*
X4462391Y24866653D01*
X4477242Y24934926D01*
X4526647Y24984332D01*
X4586075Y24999500D01*
X14413925Y24999500D01*
X14480964Y24979815D01*
X14526719Y24927011D01*
X14536663Y24857853D01*
X14513191Y24801189D01*
X14496648Y24779091D01*
X14446400Y24644371D01*
X14440354Y24588132D01*
X14440000Y24581518D01*
X14440000Y23537000D01*
X17440000Y23537000D01*
X17440000Y24581518D01*
X17439645Y24588132D01*
X17433599Y24644371D01*
X17383351Y24779091D01*
X17366809Y24801189D01*
X17342391Y24866653D01*
X17357242Y24934926D01*
X17406647Y24984332D01*
X17466075Y24999500D01*
X18875500Y24999500D01*
X18942539Y24979815D01*
X18988294Y24927011D01*
X18999500Y24875500D01*
X18999500Y21524000D01*
X18979815Y21456961D01*
X18927011Y21411206D01*
X18875500Y21400000D01*
X18852899Y21400000D01*
X18845140Y21399511D01*
X18553256Y21362637D01*
X18545625Y21361182D01*
X18260665Y21288016D01*
X18253270Y21285613D01*
X17979733Y21177313D01*
X17972694Y21174000D01*
X17714891Y21032272D01*
X17708320Y21028102D01*
X17486565Y20866986D01*
X17486564Y20866986D01*
X18416692Y19936859D01*
X18402590Y19929589D01*
X18237460Y19799729D01*
X18099890Y19640965D01*
X18065334Y19581112D01*
X17135312Y20511134D01*
X17057006Y20416479D01*
X17052430Y20410181D01*
X16894792Y20161782D01*
X16891050Y20154976D01*
X16765781Y19888765D01*
X16762921Y19881541D01*
X16672009Y19601745D01*
X16670073Y19594206D01*
X16614946Y19305220D01*
X16613972Y19297500D01*
X16595500Y19003894D01*
X16595500Y18996105D01*
X16613972Y18702499D01*
X16614946Y18694779D01*
X16670073Y18405793D01*
X16672009Y18398254D01*
X16762921Y18118458D01*
X16765781Y18111234D01*
X16891050Y17845023D01*
X16894792Y17838217D01*
X17052434Y17589812D01*
X17056995Y17583534D01*
X17135312Y17488864D01*
X18064211Y18417764D01*
X18164894Y18276376D01*
X18316932Y18131408D01*
X18419222Y18065669D01*
X17486564Y17133012D01*
X17486565Y17133011D01*
X17708309Y16971905D01*
X17714899Y16967723D01*
X17972694Y16825999D01*
X17979733Y16822686D01*
X18253270Y16714386D01*
X18260665Y16711983D01*
X18545625Y16638817D01*
X18553256Y16637362D01*
X18845140Y16600488D01*
X18852899Y16600000D01*
X19147101Y16600000D01*
X19154859Y16600488D01*
X19446743Y16637362D01*
X19454374Y16638817D01*
X19739334Y16711983D01*
X19746729Y16714386D01*
X20020266Y16822686D01*
X20027305Y16825999D01*
X20285108Y16967727D01*
X20291679Y16971897D01*
X20513433Y17133012D01*
X20513434Y17133012D01*
X19583306Y18063140D01*
X19597410Y18070411D01*
X19762540Y18200271D01*
X19900110Y18359035D01*
X19934665Y18418886D01*
X20864687Y17488863D01*
X20869661Y17489098D01*
X20937553Y17472593D01*
X20985743Y17422002D01*
X20999500Y17365236D01*
X20999500Y-17365236D01*
X20979815Y-17432275D01*
X20927011Y-17478030D01*
X20869661Y-17489098D01*
X20864687Y-17488863D01*
X19935788Y-18417763D01*
X19835106Y-18276376D01*
X19683068Y-18131408D01*
X19580777Y-18065669D01*
X20513434Y-17133012D01*
X20291679Y-16971897D01*
X20285108Y-16967727D01*
X20027305Y-16825999D01*
X20020266Y-16822686D01*
X19746729Y-16714386D01*
X19739334Y-16711983D01*
X19454374Y-16638817D01*
X19446743Y-16637362D01*
X19154859Y-16600488D01*
X19147101Y-16600000D01*
X18852899Y-16600000D01*
X18845140Y-16600488D01*
X18553256Y-16637362D01*
X18545625Y-16638817D01*
X18260665Y-16711983D01*
X18253270Y-16714386D01*
X17979733Y-16822686D01*
X17972694Y-16825999D01*
X17714899Y-16967723D01*
X17708309Y-16971905D01*
X17486565Y-17133011D01*
X17486564Y-17133012D01*
X18416693Y-18063140D01*
X18402590Y-18070411D01*
X18237460Y-18200271D01*
X18099890Y-18359035D01*
X18065334Y-18418886D01*
X17135312Y-17488864D01*
X17056995Y-17583534D01*
X17052434Y-17589812D01*
X16894792Y-17838217D01*
X16891050Y-17845023D01*
X16765781Y-18111234D01*
X16762921Y-18118458D01*
X16672009Y-18398254D01*
X16670073Y-18405793D01*
X16614946Y-18694779D01*
X16613972Y-18702499D01*
X16595500Y-18996105D01*
X16595500Y-19003894D01*
X16613972Y-19297500D01*
X16614946Y-19305220D01*
X16670073Y-19594206D01*
X16672009Y-19601745D01*
X16762921Y-19881541D01*
X16765781Y-19888765D01*
X16891050Y-20154976D01*
X16894792Y-20161782D01*
X17052430Y-20410181D01*
X17057006Y-20416479D01*
X17135312Y-20511134D01*
X18064211Y-19582235D01*
X18164894Y-19723624D01*
X18316932Y-19868592D01*
X18419222Y-19934329D01*
X17486120Y-20867430D01*
X17472104Y-20934149D01*
X17423053Y-20983906D01*
X17362851Y-20999500D01*
X-17362851Y-20999500D01*
X-17429890Y-20979815D01*
X-17475645Y-20927011D01*
X-17486187Y-20867363D01*
X-18416692Y-19936859D01*
X-18402590Y-19929589D01*
X-18237460Y-19799729D01*
X-18099890Y-19640965D01*
X-18065334Y-19581112D01*
X-17135312Y-20511134D01*
X-17057006Y-20416479D01*
X-17052430Y-20410181D01*
X-16894792Y-20161782D01*
X-16891050Y-20154976D01*
X-16765781Y-19888765D01*
X-16762921Y-19881541D01*
X-16672009Y-19601745D01*
X-16670073Y-19594206D01*
X-16614946Y-19305220D01*
X-16613972Y-19297500D01*
X-16595500Y-19003894D01*
X-16595500Y-18996105D01*
X-16613972Y-18702499D01*
X-16614946Y-18694779D01*
X-16670073Y-18405793D01*
X-16672009Y-18398254D01*
X-16762921Y-18118458D01*
X-16765781Y-18111234D01*
X-16891050Y-17845023D01*
X-16894792Y-17838217D01*
X-17052434Y-17589812D01*
X-17056995Y-17583534D01*
X-17135312Y-17488864D01*
X-18064211Y-18417763D01*
X-18164894Y-18276376D01*
X-18316932Y-18131408D01*
X-18419222Y-18065669D01*
X-17486564Y-17133012D01*
X-17486565Y-17133011D01*
X-17708309Y-16971905D01*
X-17714899Y-16967723D01*
X-17972694Y-16825999D01*
X-17979733Y-16822686D01*
X-18253270Y-16714386D01*
X-18260665Y-16711983D01*
X-18545625Y-16638817D01*
X-18553256Y-16637362D01*
X-18845140Y-16600488D01*
X-18852899Y-16600000D01*
X-19147101Y-16600000D01*
X-19154859Y-16600488D01*
X-19446743Y-16637362D01*
X-19454374Y-16638817D01*
X-19739334Y-16711983D01*
X-19746729Y-16714386D01*
X-20020266Y-16822686D01*
X-20027305Y-16825999D01*
X-20285108Y-16967727D01*
X-20291679Y-16971897D01*
X-20513433Y-17133012D01*
X-20513434Y-17133012D01*
X-19583306Y-18063140D01*
X-19597410Y-18070411D01*
X-19762540Y-18200271D01*
X-19900110Y-18359035D01*
X-19934665Y-18418886D01*
X-20864687Y-17488863D01*
X-20869661Y-17489098D01*
X-20937553Y-17472593D01*
X-20985743Y-17422002D01*
X-20999500Y-17365236D01*
X-20999500Y-9151479D01*
X-8200500Y-9151479D01*
X-8200499Y-11277520D01*
X-8194312Y-11356145D01*
X-8145320Y-11538988D01*
X-8059383Y-11707649D01*
X-7940257Y-11854757D01*
X-7793149Y-11973883D01*
X-7624488Y-12059820D01*
X-7441645Y-12108812D01*
X-7363021Y-12115000D01*
X-7233978Y-12114999D01*
X-7166939Y-12134683D01*
X-7146302Y-12151313D01*
X-4205190Y-15092425D01*
X-4194503Y-15104612D01*
X-4176750Y-15127750D01*
X-4147168Y-15150448D01*
X-4147168Y-15150449D01*
X-4058933Y-15218153D01*
X-3921734Y-15274983D01*
X-3774500Y-15294368D01*
X-3745583Y-15290560D01*
X-3729398Y-15289500D01*
X9824094Y-15289500D01*
X9840277Y-15290560D01*
X9869188Y-15294367D01*
X10016422Y-15274983D01*
X10153621Y-15218153D01*
X10241856Y-15150449D01*
X10241856Y-15150448D01*
X10251249Y-15143240D01*
X10271438Y-15127750D01*
X10289191Y-15104612D01*
X10299878Y-15092425D01*
X17708424Y-7683879D01*
X17720614Y-7673190D01*
X17743750Y-7655438D01*
X17767499Y-7624488D01*
X17834153Y-7537621D01*
X17890983Y-7400422D01*
X17910367Y-7253188D01*
X17906561Y-7224277D01*
X17905500Y-7208092D01*
X17905500Y13443404D01*
X17906561Y13459589D01*
X17910367Y13488500D01*
X17903282Y13542314D01*
X17890983Y13635734D01*
X17834153Y13772933D01*
X17787945Y13833153D01*
X17743750Y13890750D01*
X17720606Y13908507D01*
X17708421Y13919193D01*
X14850318Y16777297D01*
X14816833Y16838620D01*
X14813999Y16864978D01*
X14813999Y19763593D01*
X14833684Y19830632D01*
X14838732Y19837903D01*
X14843795Y19844666D01*
X14894090Y19979514D01*
X14894091Y19979517D01*
X14900500Y20039127D01*
X14900499Y21384872D01*
X14898900Y21399747D01*
X14911307Y21468506D01*
X14958918Y21519643D01*
X15022190Y21537000D01*
X15690000Y21537000D01*
X16189999Y21537000D01*
X16984518Y21537000D01*
X16991132Y21537354D01*
X17047371Y21543400D01*
X17182089Y21593647D01*
X17297188Y21679811D01*
X17383352Y21794910D01*
X17433599Y21929628D01*
X17439645Y21985867D01*
X17440000Y21992481D01*
X17440000Y23037000D01*
X16190000Y23037000D01*
X16189999Y21537000D01*
X15690000Y21537000D01*
X15690000Y23037000D01*
X14440000Y23037000D01*
X14440000Y21992481D01*
X14440353Y21985883D01*
X14441550Y21974753D01*
X14429144Y21905994D01*
X14381533Y21854857D01*
X14318262Y21837499D01*
X14052128Y21837499D01*
X14048826Y21837144D01*
X14013254Y21833320D01*
X13986747Y21833320D01*
X13947873Y21837500D01*
X13552128Y21837499D01*
X13548826Y21837144D01*
X13513254Y21833320D01*
X13486747Y21833320D01*
X13447873Y21837500D01*
X13052128Y21837499D01*
X13048826Y21837144D01*
X13013254Y21833320D01*
X12986747Y21833320D01*
X12947873Y21837500D01*
X12552128Y21837499D01*
X12548826Y21837144D01*
X12513254Y21833320D01*
X12486747Y21833320D01*
X12447873Y21837500D01*
X12052128Y21837499D01*
X12048826Y21837144D01*
X12013254Y21833320D01*
X11986747Y21833320D01*
X11947873Y21837500D01*
X11552128Y21837499D01*
X11548826Y21837144D01*
X11513254Y21833320D01*
X11486747Y21833320D01*
X11447873Y21837500D01*
X11052128Y21837499D01*
X11048826Y21837144D01*
X11013254Y21833320D01*
X10986747Y21833320D01*
X10947873Y21837500D01*
X10552128Y21837499D01*
X10548826Y21837144D01*
X10513254Y21833320D01*
X10486747Y21833320D01*
X10447873Y21837500D01*
X10052128Y21837499D01*
X10048826Y21837144D01*
X10013254Y21833320D01*
X9986747Y21833320D01*
X9947873Y21837500D01*
X9552128Y21837499D01*
X9548826Y21837144D01*
X9513254Y21833320D01*
X9486747Y21833320D01*
X9447873Y21837500D01*
X9052128Y21837499D01*
X9048826Y21837144D01*
X9013254Y21833320D01*
X8986747Y21833320D01*
X8947873Y21837500D01*
X8552128Y21837499D01*
X8548826Y21837144D01*
X8513254Y21833320D01*
X8486747Y21833320D01*
X8447873Y21837500D01*
X8052128Y21837499D01*
X8048826Y21837144D01*
X8013254Y21833320D01*
X7986747Y21833320D01*
X7947873Y21837500D01*
X7552128Y21837499D01*
X7548826Y21837144D01*
X7513254Y21833320D01*
X7486747Y21833320D01*
X7447873Y21837500D01*
X7052128Y21837499D01*
X7048826Y21837144D01*
X7013254Y21833320D01*
X6986747Y21833320D01*
X6947873Y21837500D01*
X6552128Y21837499D01*
X6510898Y21833067D01*
X6484393Y21833068D01*
X6451132Y21836644D01*
X6444506Y21837000D01*
X6400000Y21837000D01*
X6384388Y21821388D01*
X6380315Y21807515D01*
X6350313Y21775289D01*
X6298309Y21736359D01*
X6232846Y21711943D01*
X6164574Y21726795D01*
X6115168Y21776200D01*
X6100000Y21835627D01*
X6100000Y21837000D01*
X6055494Y21837000D01*
X6048871Y21836644D01*
X6013259Y21832815D01*
X5986741Y21832815D01*
X5951128Y21836644D01*
X5944506Y21837000D01*
X5900000Y21837000D01*
X5900000Y20862000D01*
X5975500Y20862000D01*
X6042539Y20842315D01*
X6088294Y20789511D01*
X6099500Y20738002D01*
X6099501Y20686002D01*
X6079818Y20618963D01*
X6027015Y20573207D01*
X5975501Y20562000D01*
X5900000Y20562000D01*
X5900000Y19587000D01*
X5944518Y19587000D01*
X5951122Y19587353D01*
X5986748Y19591183D01*
X6013252Y19591183D01*
X6048877Y19587353D01*
X6055482Y19587000D01*
X6062000Y19587000D01*
X6129039Y19567315D01*
X6174794Y19514511D01*
X6186000Y19463000D01*
X6186000Y15895094D01*
X6184939Y15878908D01*
X6181133Y15850000D01*
X6186000Y15813033D01*
X6200517Y15702765D01*
X6257347Y15565566D01*
X6347749Y15447749D01*
X6370888Y15429994D01*
X6383080Y15419301D01*
X10899681Y10902701D01*
X10933166Y10841378D01*
X10936000Y10815020D01*
X10936000Y8324499D01*
X10916315Y8257460D01*
X10863511Y8211705D01*
X10812000Y8200499D01*
X9151480Y8200499D01*
X9072855Y8194312D01*
X8890012Y8145320D01*
X8721351Y8059383D01*
X8574243Y7940257D01*
X8455116Y7793149D01*
X8455117Y7793149D01*
X8369179Y7624486D01*
X8320188Y7441646D01*
X8314191Y7365455D01*
X8314190Y7365440D01*
X8314000Y7363021D01*
X8314000Y7360575D01*
X8314000Y6639401D01*
X8314000Y6639375D01*
X8314001Y6636980D01*
X8314189Y6634587D01*
X8314190Y6634569D01*
X8320188Y6558354D01*
X8369179Y6375513D01*
X8455117Y6206850D01*
X8559430Y6078036D01*
X8586322Y6013549D01*
X8574080Y5944760D01*
X8559430Y5921964D01*
X8455117Y5793149D01*
X8369179Y5624486D01*
X8320188Y5441646D01*
X8314191Y5365455D01*
X8314190Y5365440D01*
X8314000Y5363021D01*
X8314000Y5360575D01*
X8314000Y4639401D01*
X8314000Y4639375D01*
X8314001Y4636980D01*
X8314189Y4634587D01*
X8314190Y4634569D01*
X8320188Y4558354D01*
X8369179Y4375513D01*
X8455117Y4206850D01*
X8559430Y4078036D01*
X8586322Y4013549D01*
X8574080Y3944760D01*
X8559430Y3921964D01*
X8455117Y3793149D01*
X8369179Y3624486D01*
X8320188Y3441646D01*
X8314191Y3365455D01*
X8314190Y3365440D01*
X8314000Y3363021D01*
X8314000Y3360575D01*
X8314000Y2639401D01*
X8314000Y2639375D01*
X8314001Y2636980D01*
X8314189Y2634587D01*
X8314190Y2634569D01*
X8320188Y2558354D01*
X8369179Y2375513D01*
X8455117Y2206850D01*
X8559430Y2078036D01*
X8586322Y2013549D01*
X8574080Y1944760D01*
X8559431Y1921966D01*
X8527782Y1882882D01*
X8455117Y1793149D01*
X8369179Y1624486D01*
X8320188Y1441646D01*
X8314191Y1365455D01*
X8314190Y1365440D01*
X8314000Y1363021D01*
X8314000Y1360575D01*
X8314000Y639401D01*
X8314000Y639375D01*
X8314001Y636980D01*
X8314189Y634587D01*
X8314190Y634569D01*
X8320188Y558354D01*
X8369179Y375513D01*
X8455117Y206850D01*
X8559430Y78036D01*
X8586322Y13549D01*
X8574080Y-55240D01*
X8559431Y-78033D01*
X8550164Y-89478D01*
X8455117Y-206850D01*
X8369179Y-375513D01*
X8320188Y-558353D01*
X8314191Y-634544D01*
X8314190Y-634560D01*
X8314000Y-636979D01*
X8314000Y-639423D01*
X8314000Y-639424D01*
X8314000Y-1360598D01*
X8314000Y-1360623D01*
X8314001Y-1363020D01*
X8314189Y-1365413D01*
X8314190Y-1365430D01*
X8320188Y-1441644D01*
X8320188Y-1441645D01*
X8369180Y-1624488D01*
X8455117Y-1793149D01*
X8545045Y-1904201D01*
X8559430Y-1921964D01*
X8586322Y-1986451D01*
X8574080Y-2055240D01*
X8559430Y-2078036D01*
X8455117Y-2206850D01*
X8369179Y-2375513D01*
X8320188Y-2558353D01*
X8314191Y-2634544D01*
X8314190Y-2634560D01*
X8314000Y-2636979D01*
X8314000Y-2639423D01*
X8314000Y-2639424D01*
X8314000Y-3360598D01*
X8314000Y-3360623D01*
X8314001Y-3363020D01*
X8314189Y-3365413D01*
X8314190Y-3365430D01*
X8320188Y-3441645D01*
X8356509Y-3577201D01*
X8369180Y-3624488D01*
X8455117Y-3793149D01*
X8559243Y-3921734D01*
X8559430Y-3921964D01*
X8586322Y-3986451D01*
X8574080Y-4055240D01*
X8559430Y-4078036D01*
X8455117Y-4206850D01*
X8369179Y-4375513D01*
X8320188Y-4558353D01*
X8314191Y-4634544D01*
X8314190Y-4634560D01*
X8314000Y-4636979D01*
X8314000Y-4639423D01*
X8314000Y-4639424D01*
X8314000Y-5360598D01*
X8314000Y-5360623D01*
X8314001Y-5363020D01*
X8314189Y-5365413D01*
X8314190Y-5365430D01*
X8320188Y-5441645D01*
X8369179Y-5624486D01*
X8455117Y-5793149D01*
X8559430Y-5921964D01*
X8586322Y-5986451D01*
X8574080Y-6055240D01*
X8559430Y-6078036D01*
X8455117Y-6206850D01*
X8369179Y-6375513D01*
X8320188Y-6558353D01*
X8314191Y-6634544D01*
X8314190Y-6634560D01*
X8314000Y-6636979D01*
X8314000Y-6639423D01*
X8314000Y-6639424D01*
X8314000Y-7360598D01*
X8314000Y-7360623D01*
X8314001Y-7363020D01*
X8314189Y-7365413D01*
X8314190Y-7365430D01*
X8316944Y-7400421D01*
X8320188Y-7441645D01*
X8369180Y-7624488D01*
X8455117Y-7793149D01*
X8574243Y-7940257D01*
X8721351Y-8059383D01*
X8890012Y-8145320D01*
X9072855Y-8194312D01*
X9151479Y-8200500D01*
X11029520Y-8200499D01*
X11096559Y-8220184D01*
X11142314Y-8272987D01*
X11152258Y-8342146D01*
X11123233Y-8405702D01*
X11117201Y-8412180D01*
X8629702Y-10899681D01*
X8568379Y-10933166D01*
X8542021Y-10936000D01*
X8324500Y-10936000D01*
X8257461Y-10916315D01*
X8211706Y-10863511D01*
X8200500Y-10812000D01*
X8200499Y-9153901D01*
X8200499Y-9151480D01*
X8194312Y-9072855D01*
X8145320Y-8890012D01*
X8059383Y-8721351D01*
X7940257Y-8574243D01*
X7793149Y-8455117D01*
X7624488Y-8369180D01*
X7624487Y-8369179D01*
X7624486Y-8369179D01*
X7441646Y-8320188D01*
X7365455Y-8314191D01*
X7365440Y-8314190D01*
X7363021Y-8314000D01*
X7360575Y-8314000D01*
X6639401Y-8314000D01*
X6639375Y-8314000D01*
X6636980Y-8314001D01*
X6634587Y-8314189D01*
X6634569Y-8314190D01*
X6558354Y-8320188D01*
X6375513Y-8369179D01*
X6206850Y-8455117D01*
X6121712Y-8524060D01*
X6078034Y-8559430D01*
X6013549Y-8586322D01*
X5944760Y-8574080D01*
X5921966Y-8559431D01*
X5793149Y-8455117D01*
X5624488Y-8369180D01*
X5624487Y-8369179D01*
X5624486Y-8369179D01*
X5441646Y-8320188D01*
X5365455Y-8314191D01*
X5365440Y-8314190D01*
X5363021Y-8314000D01*
X5360575Y-8314000D01*
X4639401Y-8314000D01*
X4639375Y-8314000D01*
X4636980Y-8314001D01*
X4634587Y-8314189D01*
X4634569Y-8314190D01*
X4558354Y-8320188D01*
X4375513Y-8369179D01*
X4206850Y-8455117D01*
X4121712Y-8524060D01*
X4078034Y-8559430D01*
X4013549Y-8586322D01*
X3944760Y-8574080D01*
X3921966Y-8559431D01*
X3793149Y-8455117D01*
X3624488Y-8369180D01*
X3624487Y-8369179D01*
X3624486Y-8369179D01*
X3441646Y-8320188D01*
X3365455Y-8314191D01*
X3365440Y-8314190D01*
X3363021Y-8314000D01*
X3360575Y-8314000D01*
X2639401Y-8314000D01*
X2639375Y-8314000D01*
X2636980Y-8314001D01*
X2634587Y-8314189D01*
X2634569Y-8314190D01*
X2558354Y-8320188D01*
X2375513Y-8369179D01*
X2206850Y-8455117D01*
X2121712Y-8524060D01*
X2078034Y-8559430D01*
X2013549Y-8586322D01*
X1944760Y-8574080D01*
X1921966Y-8559431D01*
X1793149Y-8455117D01*
X1624488Y-8369180D01*
X1624487Y-8369179D01*
X1624486Y-8369179D01*
X1441646Y-8320188D01*
X1365455Y-8314191D01*
X1365440Y-8314190D01*
X1363021Y-8314000D01*
X1360575Y-8314000D01*
X639401Y-8314000D01*
X639375Y-8314000D01*
X636980Y-8314001D01*
X634587Y-8314189D01*
X634569Y-8314190D01*
X558354Y-8320188D01*
X375513Y-8369179D01*
X206850Y-8455117D01*
X121712Y-8524060D01*
X78034Y-8559430D01*
X13549Y-8586322D01*
X-55240Y-8574080D01*
X-78033Y-8559431D01*
X-121712Y-8524060D01*
X-206850Y-8455117D01*
X-375513Y-8369179D01*
X-558353Y-8320188D01*
X-634544Y-8314191D01*
X-634560Y-8314190D01*
X-636979Y-8314000D01*
X-639423Y-8314000D01*
X-639424Y-8314000D01*
X-1360598Y-8314000D01*
X-1360623Y-8314000D01*
X-1363020Y-8314001D01*
X-1365413Y-8314189D01*
X-1365430Y-8314190D01*
X-1441645Y-8320188D01*
X-1624486Y-8369179D01*
X-1624487Y-8369179D01*
X-1624488Y-8369180D01*
X-1793149Y-8455117D01*
X-1921965Y-8559430D01*
X-1986451Y-8586322D01*
X-2055240Y-8574080D01*
X-2078033Y-8559431D01*
X-2121712Y-8524060D01*
X-2206850Y-8455117D01*
X-2375513Y-8369179D01*
X-2558353Y-8320188D01*
X-2634544Y-8314191D01*
X-2634560Y-8314190D01*
X-2636979Y-8314000D01*
X-2639423Y-8314000D01*
X-2639424Y-8314000D01*
X-3360598Y-8314000D01*
X-3360623Y-8314000D01*
X-3363020Y-8314001D01*
X-3365413Y-8314189D01*
X-3365430Y-8314190D01*
X-3441645Y-8320188D01*
X-3624486Y-8369179D01*
X-3624487Y-8369179D01*
X-3624488Y-8369180D01*
X-3793149Y-8455117D01*
X-3921965Y-8559430D01*
X-3986451Y-8586322D01*
X-4055240Y-8574080D01*
X-4078033Y-8559431D01*
X-4121712Y-8524060D01*
X-4206850Y-8455117D01*
X-4375513Y-8369179D01*
X-4558353Y-8320188D01*
X-4634544Y-8314191D01*
X-4634560Y-8314190D01*
X-4636979Y-8314000D01*
X-4639423Y-8314000D01*
X-4639424Y-8314000D01*
X-5360598Y-8314000D01*
X-5360623Y-8314000D01*
X-5363020Y-8314001D01*
X-5365413Y-8314189D01*
X-5365430Y-8314190D01*
X-5441645Y-8320188D01*
X-5624486Y-8369179D01*
X-5624487Y-8369179D01*
X-5624488Y-8369180D01*
X-5793149Y-8455117D01*
X-5921965Y-8559430D01*
X-5986451Y-8586322D01*
X-6055240Y-8574080D01*
X-6078033Y-8559431D01*
X-6121712Y-8524060D01*
X-6206850Y-8455117D01*
X-6375513Y-8369179D01*
X-6558353Y-8320188D01*
X-6634544Y-8314191D01*
X-6634560Y-8314190D01*
X-6636979Y-8314000D01*
X-6639423Y-8314000D01*
X-6639424Y-8314000D01*
X-7360598Y-8314000D01*
X-7360623Y-8314000D01*
X-7363020Y-8314001D01*
X-7365413Y-8314189D01*
X-7365430Y-8314190D01*
X-7441645Y-8320188D01*
X-7624486Y-8369179D01*
X-7624487Y-8369179D01*
X-7624488Y-8369180D01*
X-7793149Y-8455117D01*
X-7940257Y-8574243D01*
X-8059383Y-8721351D01*
X-8145320Y-8890012D01*
X-8194312Y-9072855D01*
X-8200500Y-9151479D01*
X-20999500Y-9151479D01*
X-20999500Y-3774500D01*
X-15294367Y-3774500D01*
X-15289499Y-3811468D01*
X-15289500Y-3811468D01*
X-15274983Y-3921734D01*
X-15218153Y-4058933D01*
X-15127750Y-4176750D01*
X-15104614Y-4194502D01*
X-15092424Y-4205191D01*
X-13504467Y-5793149D01*
X-12151318Y-7146298D01*
X-12117833Y-7207621D01*
X-12114999Y-7233978D01*
X-12114999Y-7363020D01*
X-12108812Y-7441645D01*
X-12059820Y-7624488D01*
X-11973883Y-7793149D01*
X-11854757Y-7940257D01*
X-11707649Y-8059383D01*
X-11538988Y-8145320D01*
X-11356145Y-8194312D01*
X-11277521Y-8200500D01*
X-9151480Y-8200499D01*
X-9072855Y-8194312D01*
X-8890012Y-8145320D01*
X-8721351Y-8059383D01*
X-8574243Y-7940257D01*
X-8455117Y-7793149D01*
X-8369180Y-7624488D01*
X-8320188Y-7441645D01*
X-8314191Y-7365455D01*
X-8314190Y-7365430D01*
X-8314000Y-7363021D01*
X-8314000Y-7146298D01*
X-8314000Y-6639401D01*
X-8314000Y-6639375D01*
X-8314001Y-6636980D01*
X-8314189Y-6634587D01*
X-8314190Y-6634569D01*
X-8320188Y-6558354D01*
X-8369179Y-6375513D01*
X-8455117Y-6206850D01*
X-8559430Y-6078036D01*
X-8586322Y-6013549D01*
X-8574080Y-5944760D01*
X-8559430Y-5921964D01*
X-8455117Y-5793149D01*
X-8369179Y-5624486D01*
X-8320188Y-5441646D01*
X-8314191Y-5365455D01*
X-8314190Y-5365430D01*
X-8314000Y-5363021D01*
X-8314000Y-5040883D01*
X-8314000Y-4639401D01*
X-8314000Y-4639375D01*
X-8314001Y-4636980D01*
X-8314189Y-4634587D01*
X-8314190Y-4634569D01*
X-8320188Y-4558354D01*
X-8369179Y-4375513D01*
X-8455117Y-4206850D01*
X-8559430Y-4078036D01*
X-8586322Y-4013549D01*
X-8574080Y-3944760D01*
X-8559430Y-3921964D01*
X-8559243Y-3921734D01*
X-8455117Y-3793149D01*
X-8369180Y-3624488D01*
X-8356509Y-3577201D01*
X-8320188Y-3441646D01*
X-8314191Y-3365455D01*
X-8314190Y-3365430D01*
X-8314000Y-3363021D01*
X-8314000Y-3136116D01*
X-8314000Y-2639401D01*
X-8314000Y-2639375D01*
X-8314001Y-2636980D01*
X-8314189Y-2634587D01*
X-8314190Y-2634569D01*
X-8320188Y-2558354D01*
X-8369179Y-2375513D01*
X-8455117Y-2206850D01*
X-8559430Y-2078036D01*
X-8586322Y-2013549D01*
X-8574080Y-1944760D01*
X-8559430Y-1921964D01*
X-8545045Y-1904201D01*
X-8455117Y-1793149D01*
X-8369180Y-1624488D01*
X-8320188Y-1441645D01*
X-8317241Y-1404202D01*
X-8314191Y-1365455D01*
X-8314190Y-1365430D01*
X-8314000Y-1363021D01*
X-8314000Y-1146297D01*
X-8314000Y-639401D01*
X-8314000Y-639375D01*
X-8314001Y-636980D01*
X-8314189Y-634587D01*
X-8314190Y-634569D01*
X-8320188Y-558354D01*
X-8369179Y-375513D01*
X-8455117Y-206850D01*
X-8550164Y-89478D01*
X-8559430Y-78034D01*
X-8586322Y-13549D01*
X-8574080Y55240D01*
X-8559430Y78036D01*
X-8455117Y206850D01*
X-8369179Y375513D01*
X-8320188Y558353D01*
X-8314191Y634544D01*
X-8314190Y634569D01*
X-8314000Y636979D01*
X-8314000Y853701D01*
X-8314000Y1360598D01*
X-8314000Y1360623D01*
X-8314001Y1363020D01*
X-8314189Y1365413D01*
X-8314190Y1365430D01*
X-8320188Y1441645D01*
X-8369179Y1624486D01*
X-8455117Y1793149D01*
X-8527782Y1882882D01*
X-8559430Y1921965D01*
X-8586322Y1986451D01*
X-8574080Y2055240D01*
X-8559430Y2078036D01*
X-8455117Y2206850D01*
X-8369179Y2375513D01*
X-8320188Y2558353D01*
X-8314191Y2634544D01*
X-8314190Y2634569D01*
X-8314000Y2636979D01*
X-8314000Y2853701D01*
X-8314000Y3360598D01*
X-8314000Y3360623D01*
X-8314001Y3363020D01*
X-8314189Y3365413D01*
X-8314190Y3365430D01*
X-8320188Y3441645D01*
X-8369179Y3624486D01*
X-8455117Y3793149D01*
X-8559430Y3921964D01*
X-8586322Y3986451D01*
X-8574080Y4055240D01*
X-8559430Y4078036D01*
X-8455117Y4206850D01*
X-8369179Y4375513D01*
X-8320188Y4558353D01*
X-8314191Y4634544D01*
X-8314190Y4634569D01*
X-8314000Y4636979D01*
X-8314000Y4996560D01*
X-8314000Y5360598D01*
X-8314000Y5360623D01*
X-8314001Y5363020D01*
X-8314189Y5365413D01*
X-8314190Y5365430D01*
X-8320188Y5441645D01*
X-8369179Y5624486D01*
X-8455117Y5793149D01*
X-8559430Y5921964D01*
X-8586322Y5986451D01*
X-8574080Y6055240D01*
X-8559430Y6078036D01*
X-8455117Y6206850D01*
X-8369179Y6375513D01*
X-8320188Y6558353D01*
X-8314191Y6634544D01*
X-8314190Y6634569D01*
X-8314000Y6636979D01*
X-8314000Y6639424D01*
X-8314000Y7360598D01*
X-8314000Y7360623D01*
X-8314001Y7363020D01*
X-8314189Y7365413D01*
X-8314190Y7365430D01*
X-8320188Y7441645D01*
X-8369179Y7624486D01*
X-8455117Y7793149D01*
X-8455116Y7793149D01*
X-8574243Y7940257D01*
X-8721351Y8059383D01*
X-8890012Y8145320D01*
X-9072855Y8194312D01*
X-9151479Y8200500D01*
X-10812000Y8200499D01*
X-10879039Y8220184D01*
X-10924794Y8272987D01*
X-10936000Y8324499D01*
X-10936000Y9598573D01*
X-10916315Y9665612D01*
X-10899681Y9686254D01*
X-8383084Y12202850D01*
X-8370892Y12213543D01*
X-8347749Y12231301D01*
X-8257347Y12349118D01*
X-8200517Y12486317D01*
X-8187048Y12588627D01*
X-8186000Y12596584D01*
X-8182522Y12623000D01*
X-8181132Y12633554D01*
X-8184938Y12662463D01*
X-8185999Y12678646D01*
X-8185999Y13429520D01*
X-8166314Y13496559D01*
X-8113510Y13542314D01*
X-8044352Y13552258D01*
X-7980796Y13523233D01*
X-7974318Y13517201D01*
X-7600316Y13143199D01*
X-7566833Y13081878D01*
X-7564000Y13055529D01*
X-7564000Y12166623D01*
X-7583684Y12099588D01*
X-7631703Y12056143D01*
X-7793149Y11973883D01*
X-7940257Y11854757D01*
X-8059383Y11707649D01*
X-8145320Y11538988D01*
X-8194312Y11356145D01*
X-8200500Y11277521D01*
X-8200499Y9151480D01*
X-8194312Y9072855D01*
X-8145320Y8890012D01*
X-8059383Y8721351D01*
X-7940257Y8574243D01*
X-7793149Y8455117D01*
X-7624486Y8369179D01*
X-7441646Y8320188D01*
X-7365455Y8314191D01*
X-7365440Y8314190D01*
X-7363021Y8314000D01*
X-7360575Y8314000D01*
X-6639401Y8314000D01*
X-6639375Y8314000D01*
X-6636980Y8314001D01*
X-6634587Y8314189D01*
X-6634569Y8314190D01*
X-6558354Y8320188D01*
X-6375513Y8369179D01*
X-6206850Y8455117D01*
X-6121712Y8524060D01*
X-6078034Y8559430D01*
X-6013549Y8586322D01*
X-5944760Y8574080D01*
X-5921966Y8559431D01*
X-5793148Y8455117D01*
X-5793149Y8455117D01*
X-5624486Y8369179D01*
X-5441646Y8320188D01*
X-5365455Y8314191D01*
X-5365440Y8314190D01*
X-5363021Y8314000D01*
X-5360575Y8314000D01*
X-4639401Y8314000D01*
X-4639375Y8314000D01*
X-4636980Y8314001D01*
X-4634587Y8314189D01*
X-4634569Y8314190D01*
X-4558354Y8320188D01*
X-4375513Y8369179D01*
X-4206850Y8455117D01*
X-4121712Y8524060D01*
X-4078034Y8559430D01*
X-4013549Y8586322D01*
X-3944760Y8574080D01*
X-3921966Y8559431D01*
X-3793149Y8455117D01*
X-3624486Y8369179D01*
X-3441646Y8320188D01*
X-3365455Y8314191D01*
X-3365440Y8314190D01*
X-3363021Y8314000D01*
X-3360575Y8314000D01*
X-2639401Y8314000D01*
X-2639375Y8314000D01*
X-2636980Y8314001D01*
X-2634587Y8314189D01*
X-2634569Y8314190D01*
X-2558354Y8320188D01*
X-2375513Y8369179D01*
X-2206850Y8455117D01*
X-2121712Y8524060D01*
X-2078034Y8559430D01*
X-2013549Y8586322D01*
X-1944760Y8574080D01*
X-1921966Y8559431D01*
X-1793149Y8455117D01*
X-1624486Y8369179D01*
X-1441646Y8320188D01*
X-1365455Y8314191D01*
X-1365440Y8314190D01*
X-1363021Y8314000D01*
X-1360575Y8314000D01*
X-639401Y8314000D01*
X-639375Y8314000D01*
X-636980Y8314001D01*
X-634587Y8314189D01*
X-634569Y8314190D01*
X-558354Y8320188D01*
X-375513Y8369179D01*
X-206850Y8455117D01*
X-121712Y8524060D01*
X-78034Y8559430D01*
X-13549Y8586322D01*
X55240Y8574080D01*
X78033Y8559431D01*
X121712Y8524060D01*
X206850Y8455117D01*
X375513Y8369179D01*
X558353Y8320188D01*
X634544Y8314191D01*
X634560Y8314190D01*
X636979Y8314000D01*
X639423Y8314000D01*
X639424Y8314000D01*
X1360598Y8314000D01*
X1360623Y8314000D01*
X1363020Y8314001D01*
X1365413Y8314189D01*
X1365430Y8314190D01*
X1441645Y8320188D01*
X1624486Y8369179D01*
X1793149Y8455117D01*
X1921965Y8559430D01*
X1986451Y8586322D01*
X2055240Y8574080D01*
X2078033Y8559431D01*
X2121712Y8524060D01*
X2206850Y8455117D01*
X2375513Y8369179D01*
X2558353Y8320188D01*
X2634544Y8314191D01*
X2634560Y8314190D01*
X2636979Y8314000D01*
X2639423Y8314000D01*
X2639424Y8314000D01*
X3360598Y8314000D01*
X3360623Y8314000D01*
X3363020Y8314001D01*
X3365413Y8314189D01*
X3365430Y8314190D01*
X3441645Y8320188D01*
X3624486Y8369179D01*
X3793149Y8455117D01*
X3921965Y8559430D01*
X3986451Y8586322D01*
X4055240Y8574080D01*
X4078033Y8559431D01*
X4121712Y8524060D01*
X4206850Y8455117D01*
X4375513Y8369179D01*
X4558353Y8320188D01*
X4634544Y8314191D01*
X4634560Y8314190D01*
X4636979Y8314000D01*
X4639423Y8314000D01*
X4639424Y8314000D01*
X5360598Y8314000D01*
X5360623Y8314000D01*
X5363020Y8314001D01*
X5365413Y8314189D01*
X5365430Y8314190D01*
X5441645Y8320188D01*
X5624486Y8369179D01*
X5793149Y8455117D01*
X5793148Y8455117D01*
X5921965Y8559430D01*
X5986451Y8586322D01*
X6055240Y8574080D01*
X6078033Y8559431D01*
X6121712Y8524060D01*
X6206850Y8455117D01*
X6375513Y8369179D01*
X6558353Y8320188D01*
X6634544Y8314191D01*
X6634560Y8314190D01*
X6636979Y8314000D01*
X6639423Y8314000D01*
X6639424Y8314000D01*
X7360598Y8314000D01*
X7360623Y8314000D01*
X7363020Y8314001D01*
X7365413Y8314189D01*
X7365430Y8314190D01*
X7441645Y8320188D01*
X7624486Y8369179D01*
X7793149Y8455117D01*
X7940257Y8574243D01*
X8059383Y8721351D01*
X8145320Y8890012D01*
X8194312Y9072855D01*
X8200500Y9151479D01*
X8200499Y11277520D01*
X8194312Y11356145D01*
X8145320Y11538988D01*
X8059383Y11707649D01*
X7940257Y11854757D01*
X7793149Y11973883D01*
X7624488Y12059820D01*
X7441645Y12108812D01*
X7363021Y12115000D01*
X7323978Y12114999D01*
X7256940Y12134682D01*
X7236301Y12151313D01*
X-1174383Y20562000D01*
X4100000Y20562000D01*
X4100000Y20042481D01*
X4100354Y20035867D01*
X4106400Y19979628D01*
X4156647Y19844910D01*
X4242811Y19729811D01*
X4357910Y19643647D01*
X4492628Y19593400D01*
X4548867Y19587354D01*
X4555482Y19587000D01*
X4600000Y19587000D01*
X4600000Y20562000D01*
X4900000Y20562000D01*
X4900000Y19587000D01*
X4944518Y19587000D01*
X4951122Y19587353D01*
X4986748Y19591183D01*
X5013252Y19591183D01*
X5048877Y19587353D01*
X5055482Y19587000D01*
X5100000Y19587000D01*
X5100000Y20562000D01*
X5400000Y20562000D01*
X5400000Y19587000D01*
X5444518Y19587000D01*
X5451122Y19587353D01*
X5486748Y19591183D01*
X5513252Y19591183D01*
X5548877Y19587353D01*
X5555482Y19587000D01*
X5600000Y19587000D01*
X5600000Y20562000D01*
X5400000Y20562000D01*
X5100000Y20562000D01*
X4900000Y20562000D01*
X4600000Y20562000D01*
X4100000Y20562000D01*
X-1174383Y20562000D01*
X-1691302Y21078919D01*
X-1701997Y21091114D01*
X-1719749Y21114250D01*
X-1837566Y21204652D01*
X-1837567Y21204653D01*
X-1974766Y21261483D01*
X-2085032Y21276000D01*
X-2122000Y21280867D01*
X-2150910Y21277060D01*
X-2167094Y21276000D01*
X-3976413Y21276000D01*
X-4043452Y21295685D01*
X-4089207Y21348489D01*
X-4099703Y21386751D01*
X-4101100Y21399751D01*
X-4088691Y21468510D01*
X-4041078Y21519645D01*
X-3977810Y21537000D01*
X-3310000Y21537000D01*
X-3310000Y23037000D01*
X-2810000Y23037000D01*
X-2810000Y21537000D01*
X-2015482Y21537000D01*
X-2008867Y21537354D01*
X-1952628Y21543400D01*
X-1817910Y21593647D01*
X-1702811Y21679811D01*
X-1616647Y21794910D01*
X-1566400Y21929628D01*
X-1560354Y21985867D01*
X-1560000Y21992481D01*
X-1560000Y23037000D01*
X1560000Y23037000D01*
X1560000Y21992481D01*
X1560354Y21985867D01*
X1566400Y21929628D01*
X1616647Y21794910D01*
X1702811Y21679811D01*
X1817910Y21593647D01*
X1952628Y21543400D01*
X2008867Y21537354D01*
X2015482Y21537000D01*
X2810000Y21537000D01*
X2810000Y23037000D01*
X3310000Y23037000D01*
X3310000Y21537000D01*
X3978314Y21537000D01*
X4045353Y21517315D01*
X4091108Y21464511D01*
X4101603Y21399743D01*
X4100354Y21388127D01*
X4100000Y21381518D01*
X4100000Y20862000D01*
X4600000Y20862000D01*
X4600000Y21836999D01*
X4599999Y21837000D01*
X4900000Y21837000D01*
X4900000Y20862000D01*
X5100000Y20862000D01*
X5100000Y21837000D01*
X5400000Y21837000D01*
X5400000Y20862000D01*
X5600000Y20862000D01*
X5600000Y21837000D01*
X5555494Y21837000D01*
X5548871Y21836644D01*
X5513259Y21832815D01*
X5486741Y21832815D01*
X5451128Y21836644D01*
X5444506Y21837000D01*
X5400000Y21837000D01*
X5100000Y21837000D01*
X5055494Y21837000D01*
X5048871Y21836644D01*
X5013259Y21832815D01*
X4986741Y21832815D01*
X4951128Y21836644D01*
X4944506Y21837000D01*
X4900000Y21837000D01*
X4599999Y21837000D01*
X4591062Y21845937D01*
X4557576Y21907260D01*
X4555453Y21946875D01*
X4559645Y21985869D01*
X4560000Y21992481D01*
X4560000Y23037000D01*
X3310000Y23037000D01*
X2810000Y23037000D01*
X1560000Y23037000D01*
X-1560000Y23037000D01*
X-2810000Y23037000D01*
X-3310000Y23037000D01*
X-4560000Y23037000D01*
X-4560000Y21992481D01*
X-4559646Y21985886D01*
X-4558450Y21974762D01*
X-4570852Y21906001D01*
X-4618459Y21854861D01*
X-4681736Y21837499D01*
X-4947872Y21837499D01*
X-4986744Y21833320D01*
X-5013252Y21833320D01*
X-5052127Y21837500D01*
X-5447872Y21837499D01*
X-5486744Y21833320D01*
X-5513252Y21833320D01*
X-5552127Y21837500D01*
X-5947872Y21837499D01*
X-5986744Y21833320D01*
X-6013252Y21833320D01*
X-6052127Y21837500D01*
X-6447872Y21837499D01*
X-6486744Y21833320D01*
X-6513252Y21833320D01*
X-6552127Y21837500D01*
X-6947872Y21837499D01*
X-6986744Y21833320D01*
X-7013252Y21833320D01*
X-7052127Y21837500D01*
X-7447872Y21837499D01*
X-7486744Y21833320D01*
X-7513252Y21833320D01*
X-7552127Y21837500D01*
X-7947872Y21837499D01*
X-7986744Y21833320D01*
X-8013252Y21833320D01*
X-8052127Y21837500D01*
X-8447872Y21837499D01*
X-8486744Y21833320D01*
X-8513252Y21833320D01*
X-8552127Y21837500D01*
X-8947872Y21837499D01*
X-8986744Y21833320D01*
X-9013252Y21833320D01*
X-9052127Y21837500D01*
X-9447872Y21837499D01*
X-9486744Y21833320D01*
X-9513252Y21833320D01*
X-9552127Y21837500D01*
X-9947872Y21837499D01*
X-9986744Y21833320D01*
X-10013252Y21833320D01*
X-10052127Y21837500D01*
X-10447872Y21837499D01*
X-10486744Y21833320D01*
X-10513252Y21833320D01*
X-10552127Y21837500D01*
X-10947872Y21837499D01*
X-10986744Y21833320D01*
X-11013252Y21833320D01*
X-11052127Y21837500D01*
X-11447872Y21837499D01*
X-11486744Y21833320D01*
X-11513252Y21833320D01*
X-11552127Y21837500D01*
X-11947872Y21837499D01*
X-11986744Y21833320D01*
X-12013252Y21833320D01*
X-12052127Y21837500D01*
X-12447872Y21837499D01*
X-12451173Y21837144D01*
X-12451175Y21837144D01*
X-12489094Y21833068D01*
X-12515606Y21833068D01*
X-12548867Y21836644D01*
X-12555496Y21837000D01*
X-12600000Y21837000D01*
X-12615611Y21821388D01*
X-12619685Y21807515D01*
X-12649686Y21775289D01*
X-12701690Y21736359D01*
X-12767154Y21711943D01*
X-12835426Y21726795D01*
X-12884832Y21776200D01*
X-12900000Y21835627D01*
X-12900000Y21837000D01*
X-12944506Y21837000D01*
X-12951128Y21836644D01*
X-12986741Y21832815D01*
X-13013259Y21832815D01*
X-13048871Y21836644D01*
X-13055494Y21837000D01*
X-13100000Y21837000D01*
X-13100000Y20862000D01*
X-13024500Y20862000D01*
X-12957461Y20842315D01*
X-12911706Y20789511D01*
X-12900500Y20738002D01*
X-12900499Y20686002D01*
X-12920182Y20618963D01*
X-12972985Y20573207D01*
X-13024499Y20562000D01*
X-13100000Y20562000D01*
X-13100000Y19587000D01*
X-13055482Y19587000D01*
X-13048877Y19587353D01*
X-13013252Y19591183D01*
X-12986748Y19591183D01*
X-12951122Y19587353D01*
X-12944518Y19587000D01*
X-12938000Y19587000D01*
X-12870961Y19567315D01*
X-12825206Y19514511D01*
X-12814000Y19463000D01*
X-12814000Y12655666D01*
X-12833685Y12588627D01*
X-12850314Y12567990D01*
X-15092425Y10325878D01*
X-15104612Y10315191D01*
X-15127750Y10297438D01*
X-15150448Y10267856D01*
X-15150449Y10267856D01*
X-15218153Y10179621D01*
X-15274983Y10042422D01*
X-15294367Y9895188D01*
X-15291551Y9873806D01*
X-15290560Y9866275D01*
X-15289499Y9850088D01*
X-15289499Y-3729401D01*
X-15290560Y-3745586D01*
X-15294367Y-3774500D01*
X-20999500Y-3774500D01*
X-20999500Y17365236D01*
X-20979815Y17432275D01*
X-20927011Y17478030D01*
X-20869661Y17489098D01*
X-20864687Y17488863D01*
X-19935788Y18417763D01*
X-19835106Y18276376D01*
X-19683068Y18131408D01*
X-19580777Y18065669D01*
X-20513434Y17133012D01*
X-20291679Y16971897D01*
X-20285108Y16967727D01*
X-20027305Y16825999D01*
X-20020266Y16822686D01*
X-19746729Y16714386D01*
X-19739334Y16711983D01*
X-19454374Y16638817D01*
X-19446743Y16637362D01*
X-19154859Y16600488D01*
X-19147101Y16600000D01*
X-18852899Y16600000D01*
X-18845140Y16600488D01*
X-18553256Y16637362D01*
X-18545625Y16638817D01*
X-18260665Y16711983D01*
X-18253270Y16714386D01*
X-17979733Y16822686D01*
X-17972694Y16825999D01*
X-17714899Y16967723D01*
X-17708309Y16971905D01*
X-17486565Y17133011D01*
X-17486564Y17133012D01*
X-18416693Y18063140D01*
X-18402590Y18070411D01*
X-18237460Y18200271D01*
X-18099890Y18359035D01*
X-18065334Y18418887D01*
X-17135312Y17488864D01*
X-17056995Y17583534D01*
X-17052434Y17589812D01*
X-16894792Y17838217D01*
X-16891050Y17845023D01*
X-16765781Y18111234D01*
X-16762921Y18118458D01*
X-16672009Y18398254D01*
X-16670073Y18405793D01*
X-16614946Y18694779D01*
X-16613972Y18702499D01*
X-16595500Y18996105D01*
X-16595500Y19003894D01*
X-16613972Y19297500D01*
X-16614946Y19305220D01*
X-16670073Y19594206D01*
X-16672009Y19601745D01*
X-16762921Y19881541D01*
X-16765781Y19888765D01*
X-16891050Y20154976D01*
X-16894792Y20161782D01*
X-17052430Y20410181D01*
X-17057006Y20416479D01*
X-17135312Y20511134D01*
X-18064211Y19582235D01*
X-18164894Y19723624D01*
X-18316932Y19868592D01*
X-18419222Y19934329D01*
X-17791550Y20562000D01*
X-14900000Y20562000D01*
X-14900000Y20042481D01*
X-14899645Y20035867D01*
X-14893599Y19979628D01*
X-14843352Y19844910D01*
X-14757188Y19729811D01*
X-14642089Y19643647D01*
X-14507371Y19593400D01*
X-14451132Y19587354D01*
X-14444518Y19587000D01*
X-14400000Y19587000D01*
X-14400000Y20562000D01*
X-14100000Y20562000D01*
X-14100000Y19587000D01*
X-14055482Y19587000D01*
X-14048877Y19587353D01*
X-14013252Y19591183D01*
X-13986748Y19591183D01*
X-13951122Y19587353D01*
X-13944518Y19587000D01*
X-13900000Y19587000D01*
X-13900000Y20562000D01*
X-13600000Y20562000D01*
X-13600000Y19587000D01*
X-13555482Y19587000D01*
X-13548877Y19587353D01*
X-13513252Y19591183D01*
X-13486748Y19591183D01*
X-13451122Y19587353D01*
X-13444518Y19587000D01*
X-13400000Y19587000D01*
X-13400000Y20562000D01*
X-13600000Y20562000D01*
X-13900000Y20562000D01*
X-14100000Y20562000D01*
X-14400000Y20562000D01*
X-14900000Y20562000D01*
X-17791550Y20562000D01*
X-17486564Y20866986D01*
X-17708320Y21028102D01*
X-17714891Y21032272D01*
X-17972694Y21174000D01*
X-17979733Y21177313D01*
X-18253270Y21285613D01*
X-18260665Y21288016D01*
X-18545625Y21361182D01*
X-18553256Y21362637D01*
X-18845140Y21399511D01*
X-18852899Y21400000D01*
X-18875500Y21400000D01*
X-18942539Y21419685D01*
X-18988294Y21472489D01*
X-18999500Y21524000D01*
X-18999500Y23037000D01*
X-17440000Y23037000D01*
X-17440000Y21992481D01*
X-17439645Y21985867D01*
X-17433599Y21929628D01*
X-17383352Y21794910D01*
X-17297188Y21679811D01*
X-17182089Y21593647D01*
X-17047371Y21543400D01*
X-16991132Y21537354D01*
X-16984518Y21537000D01*
X-16189999Y21537000D01*
X-16190000Y23037000D01*
X-15690000Y23037000D01*
X-15690000Y21537000D01*
X-15021686Y21537000D01*
X-14954647Y21517315D01*
X-14908892Y21464511D01*
X-14898397Y21399743D01*
X-14899645Y21388127D01*
X-14900000Y21381518D01*
X-14900000Y20862000D01*
X-14400000Y20862000D01*
X-14400000Y21837000D01*
X-14100000Y21837000D01*
X-14100000Y20862000D01*
X-13900000Y20862000D01*
X-13900000Y21837000D01*
X-13600000Y21837000D01*
X-13600000Y20862000D01*
X-13400000Y20862000D01*
X-13400000Y21837000D01*
X-13444506Y21837000D01*
X-13451128Y21836644D01*
X-13486741Y21832815D01*
X-13513259Y21832815D01*
X-13548871Y21836644D01*
X-13555494Y21837000D01*
X-13600000Y21837000D01*
X-13900000Y21837000D01*
X-13944506Y21837000D01*
X-13951128Y21836644D01*
X-13986741Y21832815D01*
X-14013259Y21832815D01*
X-14048871Y21836644D01*
X-14055494Y21837000D01*
X-14100000Y21837000D01*
X-14400000Y21837000D01*
X-14408938Y21845938D01*
X-14442423Y21907261D01*
X-14444547Y21946873D01*
X-14440353Y21985882D01*
X-14440000Y21992481D01*
X-14440000Y23037000D01*
X-15690000Y23037000D01*
X-16190000Y23037000D01*
X-17440000Y23037000D01*
X-18999500Y23037000D01*
X-18999500Y24875500D01*
X-18979815Y24942539D01*
X-18927011Y24988294D01*
X-18875500Y24999500D01*
X-17466075Y24999500D01*
X-17399036Y24979815D01*
G37*
%TD.AperFunction*%
%TD*%
%TA.AperFunction,NonConductor*%
G36*
X12445834Y5045703D02*
G01*
X12501767Y5003831D01*
X12526184Y4938367D01*
X12526500Y4929521D01*
X12526500Y4875479D01*
X12506815Y4808440D01*
X12490181Y4787798D01*
X12326680Y4624297D01*
X12265357Y4590812D01*
X12195665Y4595796D01*
X12139732Y4637668D01*
X12115315Y4703132D01*
X12114999Y4711961D01*
X12114999Y4766020D01*
X12134684Y4833059D01*
X12151318Y4853701D01*
X12314819Y5017202D01*
X12376142Y5050687D01*
X12445834Y5045703D01*
G37*
%TD.AperFunction*%
%TA.AperFunction,NonConductor*%
G36*
X12772834Y3372702D02*
G01*
X12828767Y3330830D01*
X12853184Y3265366D01*
X12853500Y3256520D01*
X12853500Y3202478D01*
X12833815Y3135439D01*
X12817181Y3114797D01*
X12326680Y2624297D01*
X12265357Y2590812D01*
X12195665Y2595796D01*
X12139732Y2637668D01*
X12115315Y2703132D01*
X12114999Y2711961D01*
X12114999Y2766020D01*
X12134684Y2833059D01*
X12151318Y2853701D01*
X12641819Y3344201D01*
X12703142Y3377686D01*
X12772834Y3372702D01*
G37*
%TD.AperFunction*%
%TA.AperFunction,NonConductor*%
G36*
X13099834Y1699702D02*
G01*
X13155767Y1657830D01*
X13180184Y1592366D01*
X13180500Y1583520D01*
X13180500Y1529478D01*
X13160815Y1462439D01*
X13144181Y1441797D01*
X12326680Y624297D01*
X12265357Y590812D01*
X12195665Y595796D01*
X12139732Y637668D01*
X12115315Y703132D01*
X12114999Y711961D01*
X12114999Y766020D01*
X12134684Y833059D01*
X12151318Y853701D01*
X12968819Y1671201D01*
X13030142Y1704686D01*
X13099834Y1699702D01*
G37*
%TD.AperFunction*%
%TA.AperFunction,NonConductor*%
G36*
X13426834Y26704D02*
G01*
X13482767Y-15168D01*
X13507184Y-80632D01*
X13507500Y-89478D01*
X13507500Y-143520D01*
X13487815Y-210559D01*
X13471181Y-231201D01*
X12326680Y-1375701D01*
X12265357Y-1409186D01*
X12195665Y-1404202D01*
X12139732Y-1362330D01*
X12115315Y-1296866D01*
X12114999Y-1288036D01*
X12114999Y-1233977D01*
X12134684Y-1166939D01*
X12151313Y-1146302D01*
X13295820Y-1795D01*
X13357142Y31688D01*
X13426834Y26704D01*
G37*
%TD.AperFunction*%
%TA.AperFunction,NonConductor*%
G36*
X14080834Y-3319296D02*
G01*
X14136767Y-3361168D01*
X14161184Y-3426632D01*
X14161500Y-3435480D01*
X14161499Y-3489522D01*
X14141813Y-3556561D01*
X14125180Y-3577201D01*
X12326680Y-5375701D01*
X12265357Y-5409186D01*
X12195665Y-5404202D01*
X12139732Y-5362330D01*
X12115315Y-5296866D01*
X12114999Y-5288036D01*
X12114999Y-5233977D01*
X12134684Y-5166939D01*
X12151313Y-5146302D01*
X13949819Y-3347796D01*
X14011142Y-3314312D01*
X14080834Y-3319296D01*
G37*
%TD.AperFunction*%
%TA.AperFunction,NonConductor*%
G36*
X13753834Y-1646295D02*
G01*
X13809767Y-1688167D01*
X13834184Y-1753631D01*
X13834500Y-1762479D01*
X13834499Y-1816522D01*
X13814813Y-1883561D01*
X13798180Y-1904201D01*
X12326680Y-3375701D01*
X12265357Y-3409186D01*
X12195665Y-3404202D01*
X12139732Y-3362330D01*
X12115315Y-3296866D01*
X12114999Y-3288036D01*
X12114999Y-3233977D01*
X12134684Y-3166939D01*
X12151313Y-3146302D01*
X13622821Y-1674794D01*
X13684142Y-1641311D01*
X13753834Y-1646295D01*
G37*
%TD.AperFunction*%
%TA.AperFunction,NonConductor*%
G36*
X4833059Y-12134684D02*
G01*
X4853701Y-12151318D01*
X5017202Y-12314819D01*
X5050687Y-12376142D01*
X5045703Y-12445834D01*
X5003831Y-12501767D01*
X4938367Y-12526184D01*
X4929521Y-12526500D01*
X4875479Y-12526500D01*
X4808440Y-12506815D01*
X4787798Y-12490181D01*
X4624297Y-12326680D01*
X4590812Y-12265357D01*
X4595796Y-12195665D01*
X4637668Y-12139732D01*
X4703132Y-12115315D01*
X4711961Y-12114999D01*
X4766020Y-12114999D01*
X4833059Y-12134684D01*
G37*
%TD.AperFunction*%
%TA.AperFunction,NonConductor*%
G36*
X2833059Y-12134684D02*
G01*
X2853701Y-12151318D01*
X3344202Y-12641819D01*
X3377687Y-12703142D01*
X3372703Y-12772834D01*
X3330831Y-12828767D01*
X3265367Y-12853184D01*
X3256521Y-12853500D01*
X3202479Y-12853500D01*
X3135440Y-12833815D01*
X3114798Y-12817181D01*
X2624297Y-12326680D01*
X2590812Y-12265357D01*
X2595796Y-12195665D01*
X2637668Y-12139732D01*
X2703132Y-12115315D01*
X2711961Y-12114999D01*
X2766020Y-12114999D01*
X2833059Y-12134684D01*
G37*
%TD.AperFunction*%
%TA.AperFunction,NonConductor*%
G36*
X-993939Y-12134684D02*
G01*
X-973302Y-12151313D01*
X-351782Y-12772834D01*
X171203Y-13295819D01*
X204688Y-13357142D01*
X199704Y-13426834D01*
X157832Y-13482767D01*
X92368Y-13507184D01*
X83522Y-13507500D01*
X-143522Y-13507500D01*
X-210561Y-13487815D01*
X-231203Y-13471181D01*
X-1375701Y-12326680D01*
X-1409186Y-12265357D01*
X-1404202Y-12195665D01*
X-1362330Y-12139732D01*
X-1296866Y-12115315D01*
X-1288042Y-12114999D01*
X-1060977Y-12114999D01*
X-993939Y-12134684D01*
G37*
%TD.AperFunction*%
%TA.AperFunction,NonConductor*%
G36*
X-3166939Y-12134684D02*
G01*
X-3146302Y-12151313D01*
X-2117116Y-13180500D01*
X-1674797Y-13622819D01*
X-1641312Y-13684142D01*
X-1646296Y-13753834D01*
X-1688168Y-13809767D01*
X-1753632Y-13834184D01*
X-1762478Y-13834500D01*
X-1816521Y-13834500D01*
X-1883560Y-13814815D01*
X-1904202Y-13798181D01*
X-3375701Y-12326680D01*
X-3409186Y-12265357D01*
X-3404202Y-12195665D01*
X-3362330Y-12139732D01*
X-3296866Y-12115315D01*
X-3288036Y-12114999D01*
X-3233977Y-12114999D01*
X-3166939Y-12134684D01*
G37*
%TD.AperFunction*%
%TA.AperFunction,NonConductor*%
G36*
X-5166939Y-12134684D02*
G01*
X-5146302Y-12151313D01*
X-3790433Y-13507184D01*
X-3347798Y-13949819D01*
X-3314313Y-14011142D01*
X-3319297Y-14080834D01*
X-3361169Y-14136767D01*
X-3426633Y-14161184D01*
X-3435479Y-14161500D01*
X-3489521Y-14161500D01*
X-3556560Y-14141815D01*
X-3577202Y-14125181D01*
X-5375701Y-12326680D01*
X-5409186Y-12265357D01*
X-5404202Y-12195665D01*
X-5362330Y-12139732D01*
X-5296866Y-12115315D01*
X-5288036Y-12114999D01*
X-5233977Y-12114999D01*
X-5166939Y-12134684D01*
G37*
%TD.AperFunction*%
%TA.AperFunction,NonConductor*%
G36*
X-2339940Y20128315D02*
G01*
X-2319298Y20111681D01*
X5466565Y12325816D01*
X5500050Y12264493D01*
X5495066Y12194801D01*
X5453194Y12138868D01*
X5387730Y12114451D01*
X5369150Y12114518D01*
X5367395Y12114655D01*
X5363021Y12115000D01*
X4636980Y12114999D01*
X4558355Y12108812D01*
X4558351Y12108811D01*
X4550865Y12108222D01*
X4482488Y12122587D01*
X4453459Y12144156D01*
X4352691Y12244924D01*
X4342002Y12257114D01*
X4335677Y12265357D01*
X4324250Y12280250D01*
X4283436Y12311567D01*
X4206433Y12370653D01*
X4069234Y12427483D01*
X3922000Y12446867D01*
X3893089Y12443060D01*
X3876906Y12442000D01*
X3066978Y12442000D01*
X2999939Y12461685D01*
X2979297Y12478319D01*
X-4179056Y19636673D01*
X-4212541Y19697996D01*
X-4207557Y19767688D01*
X-4190643Y19798664D01*
X-4156204Y19844668D01*
X-4105909Y19979516D01*
X-4103734Y19999750D01*
X-4099701Y20037256D01*
X-4072964Y20101806D01*
X-4015572Y20141654D01*
X-3976412Y20148000D01*
X-2406979Y20148000D01*
X-2339940Y20128315D01*
G37*
%TD.AperFunction*%
%TA.AperFunction,NonConductor*%
G36*
X-5480797Y18842733D02*
G01*
X-5474319Y18836701D01*
X1035702Y12326680D01*
X1069187Y12265357D01*
X1064203Y12195665D01*
X1022331Y12139732D01*
X956867Y12115315D01*
X948021Y12114999D01*
X636980Y12114999D01*
X558355Y12108812D01*
X375512Y12059820D01*
X333303Y12038313D01*
X264637Y12025417D01*
X199896Y12051692D01*
X189337Y12061108D01*
X-5649682Y17900129D01*
X-5683166Y17961450D01*
X-5686000Y17987808D01*
X-5686000Y18749020D01*
X-5666315Y18816059D01*
X-5613511Y18861814D01*
X-5544353Y18871758D01*
X-5480797Y18842733D01*
G37*
%TD.AperFunction*%
%TA.AperFunction,NonConductor*%
G36*
X-6980797Y15902734D02*
G01*
X-6974319Y15896702D01*
X-3600319Y12522701D01*
X-3566834Y12461378D01*
X-3564000Y12435020D01*
X-3564000Y12166627D01*
X-3583685Y12099588D01*
X-3631703Y12056143D01*
X-3793149Y11973883D01*
X-3921965Y11869569D01*
X-3986451Y11842678D01*
X-4055240Y11854920D01*
X-4078034Y11869569D01*
X-4206851Y11973883D01*
X-4368296Y12056143D01*
X-4419091Y12104116D01*
X-4436000Y12166627D01*
X-4436000Y12577904D01*
X-4434939Y12594089D01*
X-4431133Y12623000D01*
X-4435434Y12655666D01*
X-4450517Y12770234D01*
X-4507347Y12907433D01*
X-4507348Y12907435D01*
X-4523208Y12928105D01*
X-4597749Y13025249D01*
X-4597750Y13025250D01*
X-4620890Y13043006D01*
X-4633084Y13053700D01*
X-7149681Y15570297D01*
X-7183166Y15631620D01*
X-7186000Y15657978D01*
X-7186000Y15809021D01*
X-7166315Y15876060D01*
X-7113511Y15921815D01*
X-7044353Y15931759D01*
X-6980797Y15902734D01*
G37*
%TD.AperFunction*%
%TA.AperFunction,NonConductor*%
G36*
X-6230797Y13055734D02*
G01*
X-6224319Y13049702D01*
X-5600319Y12425702D01*
X-5566834Y12364379D01*
X-5564000Y12338021D01*
X-5564000Y12166627D01*
X-5583685Y12099588D01*
X-5631703Y12056143D01*
X-5793149Y11973883D01*
X-5921967Y11869567D01*
X-5986451Y11842677D01*
X-6055240Y11854919D01*
X-6078027Y11869563D01*
X-6206851Y11973883D01*
X-6368296Y12056143D01*
X-6419091Y12104116D01*
X-6436000Y12166627D01*
X-6436000Y12962021D01*
X-6416315Y13029060D01*
X-6363511Y13074815D01*
X-6294353Y13084759D01*
X-6230797Y13055734D01*
G37*
%TD.AperFunction*%
%TA.AperFunction,NonConductor*%
G36*
X-12321297Y5023234D02*
G01*
X-12314832Y5017215D01*
X-12227138Y4929521D01*
X-12151317Y4853700D01*
X-12117833Y4792377D01*
X-12114999Y4766019D01*
X-12114999Y4711977D01*
X-12134684Y4644938D01*
X-12187488Y4599183D01*
X-12256646Y4589239D01*
X-12320202Y4618264D01*
X-12326680Y4624296D01*
X-12490181Y4787797D01*
X-12523666Y4849120D01*
X-12526500Y4875478D01*
X-12526500Y4929521D01*
X-12506815Y4996560D01*
X-12454011Y5042315D01*
X-12384853Y5052259D01*
X-12321297Y5023234D01*
G37*
%TD.AperFunction*%
%TA.AperFunction,NonConductor*%
G36*
X-12648297Y3350233D02*
G01*
X-12641819Y3344201D01*
X-12151318Y2853700D01*
X-12117833Y2792377D01*
X-12114999Y2766019D01*
X-12114999Y2711978D01*
X-12134684Y2644939D01*
X-12187488Y2599184D01*
X-12256646Y2589240D01*
X-12320202Y2618265D01*
X-12326680Y2624297D01*
X-12556084Y2853701D01*
X-12817182Y3114799D01*
X-12850666Y3176120D01*
X-12853500Y3202478D01*
X-12853500Y3256520D01*
X-12833815Y3323559D01*
X-12781011Y3369314D01*
X-12711853Y3379258D01*
X-12648297Y3350233D01*
G37*
%TD.AperFunction*%
%TA.AperFunction,NonConductor*%
G36*
X-12975297Y1677234D02*
G01*
X-12968819Y1671202D01*
X-12151317Y853700D01*
X-12117832Y792377D01*
X-12114999Y766026D01*
X-12114999Y711978D01*
X-12114999Y711975D01*
X-12134685Y644936D01*
X-12187490Y599182D01*
X-12256648Y589239D01*
X-12320203Y618266D01*
X-12326680Y624296D01*
X-12556085Y853701D01*
X-13144182Y1441798D01*
X-13177666Y1503119D01*
X-13180500Y1529477D01*
X-13180500Y1583521D01*
X-13160815Y1650560D01*
X-13108011Y1696315D01*
X-13038853Y1706259D01*
X-12975297Y1677234D01*
G37*
%TD.AperFunction*%
%TA.AperFunction,NonConductor*%
G36*
X-13302296Y4235D02*
G01*
X-13295830Y-1785D01*
X-12739262Y-558353D01*
X-12151318Y-1146297D01*
X-12117833Y-1207620D01*
X-12114999Y-1233978D01*
X-12114999Y-1288021D01*
X-12134684Y-1355060D01*
X-12187488Y-1400815D01*
X-12256646Y-1410759D01*
X-12320202Y-1381734D01*
X-12326680Y-1375702D01*
X-13471180Y-231202D01*
X-13504665Y-169879D01*
X-13507499Y-143521D01*
X-13507499Y-89478D01*
X-13487814Y-22439D01*
X-13435010Y23316D01*
X-13365852Y33260D01*
X-13302296Y4235D01*
G37*
%TD.AperFunction*%
%TA.AperFunction,NonConductor*%
G36*
X-13629299Y-1668763D02*
G01*
X-13622831Y-1674784D01*
X-12922103Y-2375512D01*
X-12151318Y-3146297D01*
X-12117833Y-3207620D01*
X-12114999Y-3233978D01*
X-12114999Y-3288021D01*
X-12134684Y-3355060D01*
X-12187488Y-3400815D01*
X-12256646Y-3410759D01*
X-12320202Y-3381734D01*
X-12326680Y-3375702D01*
X-13798180Y-1904201D01*
X-13831665Y-1842878D01*
X-13834499Y-1816522D01*
X-13834500Y-1762479D01*
X-13814817Y-1695439D01*
X-13762014Y-1649684D01*
X-13692855Y-1639739D01*
X-13629299Y-1668763D01*
G37*
%TD.AperFunction*%
%TA.AperFunction,NonConductor*%
G36*
X-13956296Y-3341766D02*
G01*
X-13949831Y-3347785D01*
X-13120866Y-4176750D01*
X-12151318Y-5146298D01*
X-12117833Y-5207621D01*
X-12114999Y-5233979D01*
X-12114999Y-5288021D01*
X-12134684Y-5355060D01*
X-12187488Y-5400815D01*
X-12256646Y-5410759D01*
X-12320202Y-5381734D01*
X-12326680Y-5375702D01*
X-14125180Y-3577201D01*
X-14158665Y-3515878D01*
X-14161499Y-3489520D01*
X-14161499Y-3435479D01*
X-14141814Y-3368440D01*
X-14089010Y-3322685D01*
X-14019852Y-3312741D01*
X-13956296Y-3341766D01*
G37*
%TD.AperFunction*%
M02*
