M48
; DRILL file {KiCad 7.0.2} date Wed Oct 18 16:00:00 2023
; FORMAT={-:-/ absolute / inch / decimal}
; #@! TF.CreationDate,2023-10-18T16:00:00-06:00
; #@! TF.GenerationSoftware,Kicad,Pcbnew,7.0.2
; #@! TF.FileFunction,Plated,1,4,PTH
FMAT,2
INCH
; #@! TA.AperFunction,Plated,PTH,ViaDrill
T1C0.0118
; #@! TA.AperFunction,Plated,PTH,ComponentDrill
T2C0.0394
; #@! TA.AperFunction,Plated,PTH,ComponentDrill
T3C0.0433
; #@! TA.AperFunction,Plated,PTH,ComponentDrill
T4C0.0591
; #@! TA.AperFunction,Plated,PTH,ComponentDrill
T5C0.1181
%
G90
G05
T1
X-2.0025Y-1.2289
X-1.9946Y-1.1974
X-1.9929Y-1.1552
X-1.9891Y-1.1279
X-1.939Y-1.0335
X-1.9055Y-1.1122
X-1.9055Y-1.1791
X-1.9035Y-1.1417
X-1.9028Y-1.2065
X-1.8996Y-1.3883
X-1.8978Y-1.2404
X-1.8937Y-1.3293
X-1.878Y-1.3697
X-1.874Y-1.748
X-1.8575Y-1.2291
X-1.8504Y-1.4101
X-1.8449Y-1.287
X-1.8336Y-1.3329
X-1.8333Y-1.6842
X-1.8327Y-1.7126
X-1.8327Y-1.7401
X-1.831Y-1.6568
X-1.8137Y-1.6353
X-1.811Y-1.467
X-1.7953Y-1.5866
X-1.7916Y-1.6189
X-1.7872Y-1.4432
X-1.7833Y-1.3761
X-1.7798Y-1.4697
X-1.7613Y-1.5753
X-1.746Y-1.4823
X-1.7322Y-1.5257
X-1.6903Y-1.4799
X-1.6853Y-1.8821
T2
X2.1654Y0.1496
X2.1654Y0.0496
X2.1654Y-0.0504
X2.1654Y-0.1504
X2.1654Y-0.8504
X2.1654Y-0.9504
X2.1654Y-1.0504
X2.1654Y-1.1504
X2.1654Y-1.8504
X2.1654Y-1.9504
X2.1654Y-2.0504
X2.1654Y-2.1504
X2.1654Y-2.8504
X2.1654Y-2.9504
X2.1654Y-3.0504
X2.1654Y-3.1504
T3
X-1.378Y0.0
X-1.378Y-1.0
X-1.378Y-2.0
X-1.378Y-3.0
X-0.628Y0.0
X-0.628Y-1.0
X-0.628Y-2.0
X-0.628Y-3.0
X0.635Y0.0
X0.635Y-1.0
X0.635Y-2.0
X0.635Y-3.0
X1.385Y0.0
X1.385Y-1.0
X1.385Y-2.0
X1.385Y-3.0012
T4
X-1.513Y0.135
X-1.513Y-0.135
X-1.513Y-0.865
X-1.513Y-1.135
X-1.513Y-1.865
X-1.513Y-2.135
X-1.513Y-2.865
X-1.513Y-3.135
X-1.243Y0.135
X-1.243Y-0.135
X-1.243Y-0.865
X-1.243Y-1.135
X-1.243Y-1.865
X-1.243Y-2.135
X-1.243Y-2.865
X-1.243Y-3.135
X-0.763Y0.135
X-0.763Y-0.135
X-0.763Y-0.865
X-0.763Y-1.135
X-0.763Y-1.865
X-0.763Y-2.135
X-0.763Y-2.865
X-0.763Y-3.135
X-0.493Y0.135
X-0.493Y-0.135
X-0.493Y-0.865
X-0.493Y-1.135
X-0.493Y-1.865
X-0.493Y-2.135
X-0.493Y-2.865
X-0.493Y-3.135
X0.5Y0.135
X0.5Y-0.135
X0.5Y-0.865
X0.5Y-1.135
X0.5Y-1.865
X0.5Y-2.135
X0.5Y-2.865
X0.5Y-3.135
X0.77Y0.135
X0.77Y-0.135
X0.77Y-0.865
X0.77Y-1.135
X0.77Y-1.865
X0.77Y-2.135
X0.77Y-2.865
X0.77Y-3.135
X1.25Y0.135
X1.25Y-0.135
X1.25Y-0.865
X1.25Y-1.135
X1.25Y-1.865
X1.25Y-2.135
X1.25Y-2.8662
X1.25Y-3.1362
X1.52Y0.135
X1.52Y-0.135
X1.52Y-0.865
X1.52Y-1.135
X1.52Y-1.865
X1.52Y-2.135
X1.52Y-2.8662
X1.52Y-3.1362
T5
X-1.7717Y0.3937
X-1.7717Y-3.3858
X2.3622Y0.3937
X2.3622Y-3.3858
T0
M30
