%TF.GenerationSoftware,KiCad,Pcbnew,7.0.2*%
%TF.CreationDate,2023-10-26T19:02:47-06:00*%
%TF.ProjectId,LED_Probe_Breakout,4c45445f-5072-46f6-9265-5f427265616b,rev?*%
%TF.SameCoordinates,Original*%
%TF.FileFunction,Copper,L2,Inr*%
%TF.FilePolarity,Positive*%
%FSLAX46Y46*%
G04 Gerber Fmt 4.6, Leading zero omitted, Abs format (unit mm)*
G04 Created by KiCad (PCBNEW 7.0.2) date 2023-10-26 19:02:47*
%MOMM*%
%LPD*%
G01*
G04 APERTURE LIST*
%TA.AperFunction,ComponentPad*%
%ADD10C,1.800000*%
%TD*%
%TA.AperFunction,ComponentPad*%
%ADD11C,2.300000*%
%TD*%
%TA.AperFunction,ComponentPad*%
%ADD12C,6.000000*%
%TD*%
%TA.AperFunction,ComponentPad*%
%ADD13R,1.700000X1.700000*%
%TD*%
%TA.AperFunction,ComponentPad*%
%ADD14O,1.700000X1.700000*%
%TD*%
%TA.AperFunction,ViaPad*%
%ADD15C,0.800000*%
%TD*%
%TA.AperFunction,Conductor*%
%ADD16C,0.127000*%
%TD*%
G04 APERTURE END LIST*
D10*
%TO.N,/W_I-*%
%TO.C,J14*%
X-15950000Y-76200000D03*
D11*
%TO.N,GND*%
X-19379000Y-79629000D03*
X-12521000Y-79629000D03*
X-19379000Y-72771000D03*
X-12521000Y-72771000D03*
%TD*%
D10*
%TO.N,/S_V-*%
%TO.C,J4*%
X35179000Y0D03*
D11*
%TO.N,GND*%
X31750000Y-3429000D03*
X38608000Y-3429000D03*
X31750000Y3429000D03*
X38608000Y3429000D03*
%TD*%
D10*
%TO.N,/W_V-*%
%TO.C,J17*%
X35179000Y-76230000D03*
D11*
%TO.N,GND*%
X31750000Y-79659000D03*
X38608000Y-79659000D03*
X31750000Y-72801000D03*
X38608000Y-72801000D03*
%TD*%
D10*
%TO.N,/N_I-*%
%TO.C,J10*%
X-15950000Y-50800000D03*
D11*
%TO.N,GND*%
X-19379000Y-54229000D03*
X-12521000Y-54229000D03*
X-19379000Y-47371000D03*
X-12521000Y-47371000D03*
%TD*%
D10*
%TO.N,/E_I-*%
%TO.C,J6*%
X-15950000Y-25400000D03*
D11*
%TO.N,GND*%
X-19379000Y-28829000D03*
X-12521000Y-28829000D03*
X-19379000Y-21971000D03*
X-12521000Y-21971000D03*
%TD*%
D12*
%TO.N,GND*%
%TO.C,H4*%
X60000000Y10000000D03*
%TD*%
D13*
%TO.N,/Solder_Point_Breakout3/Sig_1*%
%TO.C,J21*%
X55000000Y-72400000D03*
D14*
%TO.N,/Solder_Point_Breakout3/Sig_2*%
X55000000Y-74940000D03*
%TO.N,/Solder_Point_Breakout3/Sig_3*%
X55000000Y-77480000D03*
%TO.N,/Solder_Point_Breakout3/Sig_4*%
X55000000Y-80020000D03*
%TD*%
D10*
%TO.N,/S_V+*%
%TO.C,J3*%
X16129000Y0D03*
D11*
%TO.N,GND*%
X12700000Y-3429000D03*
X19558000Y-3429000D03*
X12700000Y3429000D03*
X19558000Y3429000D03*
%TD*%
D10*
%TO.N,/N_I+*%
%TO.C,J11*%
X-35000000Y-50800000D03*
D11*
%TO.N,GND*%
X-38429000Y-54229000D03*
X-31571000Y-54229000D03*
X-38429000Y-47371000D03*
X-31571000Y-47371000D03*
%TD*%
D13*
%TO.N,/Solder_Point_Breakout1/Sig_1*%
%TO.C,J19*%
X55000000Y-21600000D03*
D14*
%TO.N,/Solder_Point_Breakout1/Sig_2*%
X55000000Y-24140000D03*
%TO.N,/Solder_Point_Breakout1/Sig_3*%
X55000000Y-26680000D03*
%TO.N,/Solder_Point_Breakout1/Sig_4*%
X55000000Y-29220000D03*
%TD*%
D13*
%TO.N,/Solder_Point_Breakout2/Sig_1*%
%TO.C,J20*%
X55000000Y-47000000D03*
D14*
%TO.N,/Solder_Point_Breakout2/Sig_2*%
X55000000Y-49540000D03*
%TO.N,/Solder_Point_Breakout2/Sig_3*%
X55000000Y-52080000D03*
%TO.N,/Solder_Point_Breakout2/Sig_4*%
X55000000Y-54620000D03*
%TD*%
D10*
%TO.N,/E_I+*%
%TO.C,J7*%
X-35000000Y-25400000D03*
D11*
%TO.N,GND*%
X-38429000Y-28829000D03*
X-31571000Y-28829000D03*
X-38429000Y-21971000D03*
X-31571000Y-21971000D03*
%TD*%
D12*
%TO.N,GND*%
%TO.C,H1*%
X60000000Y-86000000D03*
%TD*%
D13*
%TO.N,/Solder_Point_Breakout/Sig_1*%
%TO.C,J18*%
X55000000Y3800000D03*
D14*
%TO.N,/Solder_Point_Breakout/Sig_2*%
X55000000Y1260000D03*
%TO.N,/Solder_Point_Breakout/Sig_3*%
X55000000Y-1280000D03*
%TO.N,/Solder_Point_Breakout/Sig_4*%
X55000000Y-3820000D03*
%TD*%
D10*
%TO.N,/W_I+*%
%TO.C,J15*%
X-35000000Y-76200000D03*
D11*
%TO.N,GND*%
X-38429000Y-79629000D03*
X-31571000Y-79629000D03*
X-38429000Y-72771000D03*
X-31571000Y-72771000D03*
%TD*%
D10*
%TO.N,/S_I-*%
%TO.C,J5*%
X-15950000Y0D03*
D11*
%TO.N,GND*%
X-19379000Y-3429000D03*
X-12521000Y-3429000D03*
X-19379000Y3429000D03*
X-12521000Y3429000D03*
%TD*%
D10*
%TO.N,/S_I+*%
%TO.C,J2*%
X-35000000Y0D03*
D11*
%TO.N,GND*%
X-38429000Y-3429000D03*
X-31571000Y-3429000D03*
X-38429000Y3429000D03*
X-31571000Y3429000D03*
%TD*%
D12*
%TO.N,GND*%
%TO.C,H3*%
X-45000000Y-86000000D03*
%TD*%
D10*
%TO.N,/N_V+*%
%TO.C,J12*%
X16129000Y-50800000D03*
D11*
%TO.N,GND*%
X12700000Y-54229000D03*
X19558000Y-54229000D03*
X12700000Y-47371000D03*
X19558000Y-47371000D03*
%TD*%
D10*
%TO.N,/E_V+*%
%TO.C,J8*%
X16129000Y-25400000D03*
D11*
%TO.N,GND*%
X12700000Y-28829000D03*
X19558000Y-28829000D03*
X12700000Y-21971000D03*
X19558000Y-21971000D03*
%TD*%
D10*
%TO.N,/E_V-*%
%TO.C,J9*%
X35179000Y-25400000D03*
D11*
%TO.N,GND*%
X31750000Y-28829000D03*
X38608000Y-28829000D03*
X31750000Y-21971000D03*
X38608000Y-21971000D03*
%TD*%
D10*
%TO.N,/N_V-*%
%TO.C,J13*%
X35179000Y-50800000D03*
D11*
%TO.N,GND*%
X31750000Y-54229000D03*
X38608000Y-54229000D03*
X31750000Y-47371000D03*
X38608000Y-47371000D03*
%TD*%
D10*
%TO.N,/W_V+*%
%TO.C,J16*%
X16129000Y-76200000D03*
D11*
%TO.N,GND*%
X12700000Y-79629000D03*
X19558000Y-79629000D03*
X12700000Y-72771000D03*
X19558000Y-72771000D03*
%TD*%
D12*
%TO.N,GND*%
%TO.C,H2*%
X-45000000Y10000000D03*
%TD*%
D15*
%TO.N,/Solder_Point_Breakout3/Sig_4*%
X-46199858Y-57080775D03*
%TO.N,/W_I-*%
X-46270000Y-55887586D03*
%TO.N,/Solder_Point_Breakout3/Sig_3*%
X-45477101Y-55222899D03*
%TO.N,/W_V-*%
X-44957102Y-53765274D03*
%TO.N,/Solder_Point_Breakout3/Sig_2*%
X-46363538Y-54234086D03*
%TO.N,/W_V+*%
X-46540000Y-53120000D03*
%TO.N,/Solder_Point_Breakout3/Sig_1*%
X-44770074Y-50176385D03*
%TO.N,/W_I+*%
X-45789628Y-50258314D03*
%TO.N,/Solder_Point_Breakout2/Sig_4*%
X-45791188Y-49258812D03*
%TO.N,/N_I-*%
X-45775779Y-47324501D03*
%TO.N,/Solder_Point_Breakout2/Sig_3*%
X-46571000Y-47930000D03*
%TO.N,/N_V-*%
X-50584523Y-43844014D03*
%TO.N,/Solder_Point_Breakout2/Sig_2*%
X-47234000Y-46790000D03*
%TO.N,/N_V+*%
X-47897000Y-45610937D03*
%TO.N,/Solder_Point_Breakout2/Sig_1*%
X-48740000Y-44680000D03*
%TO.N,/N_I+*%
X-49140000Y-43590000D03*
%TO.N,/Solder_Point_Breakout1/Sig_4*%
X-47530730Y-27490012D03*
%TO.N,/E_I-*%
X-46761644Y-26851644D03*
%TO.N,/Solder_Point_Breakout1/Sig_3*%
X-46982832Y-25692831D03*
%TO.N,/E_V-*%
X-45784177Y-25596631D03*
%TO.N,/Solder_Point_Breakout1/Sig_2*%
X-45827451Y-24598066D03*
%TO.N,/E_V+*%
X-46915796Y-23421464D03*
%TO.N,/Solder_Point_Breakout1/Sig_1*%
X-45927597Y-23271566D03*
%TO.N,/E_I+*%
X-46047480Y-22214059D03*
%TO.N,/Solder_Point_Breakout/Sig_4*%
X-50736502Y-21310000D03*
%TO.N,/S_I-*%
X-46260499Y-21237520D03*
%TO.N,/Solder_Point_Breakout/Sig_3*%
X-47260000Y-21239500D03*
%TO.N,/S_V-*%
X-45952268Y-20207008D03*
%TO.N,/Solder_Point_Breakout/Sig_2*%
X-46950565Y-19913000D03*
%TO.N,/S_V+*%
X-45963050Y-19207563D03*
%TO.N,/Solder_Point_Breakout/Sig_1*%
X-46443464Y-18331088D03*
%TO.N,/S_I+*%
X-46310000Y-17260000D03*
%TD*%
D16*
%TO.N,/Solder_Point_Breakout1/Sig_3*%
X-45271663Y-27404000D02*
X-46982832Y-25692831D01*
X-31183666Y-24154000D02*
X-34433666Y-27404000D01*
X-34433666Y-27404000D02*
X-45271663Y-27404000D01*
X39750000Y-24154000D02*
X-31183666Y-24154000D01*
X55000000Y-26680000D02*
X42276000Y-26680000D01*
X42276000Y-26680000D02*
X39750000Y-24154000D01*
%TO.N,/Solder_Point_Breakout1/Sig_4*%
X-18163500Y-26563500D02*
X41697052Y-26563500D01*
X41697052Y-26563500D02*
X44353552Y-29220000D01*
X-19000000Y-25727000D02*
X-18163500Y-26563500D01*
X-31831770Y-25727000D02*
X-19000000Y-25727000D01*
X-36681770Y-30577000D02*
X-31831770Y-25727000D01*
X-44443742Y-30577000D02*
X-36681770Y-30577000D01*
X44353552Y-29220000D02*
X55000000Y-29220000D01*
X-47530730Y-27490012D02*
X-44443742Y-30577000D01*
%TO.N,/E_I-*%
X-31967218Y-25400000D02*
X-15950000Y-25400000D01*
X-36817218Y-30250000D02*
X-31967218Y-25400000D01*
X-46761644Y-26851644D02*
X-43363288Y-30250000D01*
X-43363288Y-30250000D02*
X-36817218Y-30250000D01*
%TO.N,/Solder_Point_Breakout3/Sig_4*%
X-39842500Y-63438133D02*
X-46199858Y-57080775D01*
X-39842500Y-80214491D02*
X-39842500Y-63438133D01*
%TO.N,/Solder_Point_Breakout3/Sig_3*%
X-44160000Y-56540000D02*
X-45477101Y-55222899D01*
X-36817500Y-56540000D02*
X-36817500Y-77394948D01*
X-36817500Y-56540000D02*
X-44160000Y-56540000D01*
%TO.N,/Solder_Point_Breakout3/Sig_2*%
X-44944952Y-52815500D02*
X-46363538Y-54234086D01*
X-37069948Y-52815500D02*
X-44944952Y-52815500D01*
X-36490500Y-53394948D02*
X-37069948Y-52815500D01*
%TO.N,/Solder_Point_Breakout3/Sig_1*%
X-43616413Y-49022724D02*
X-44770074Y-50176385D01*
X-40362724Y-49022724D02*
X-43616413Y-49022724D01*
X-36163500Y-77086500D02*
X-36163500Y-53221948D01*
X-31750000Y-81500000D02*
X-36163500Y-77086500D01*
X40000000Y-81500000D02*
X-31750000Y-81500000D01*
X43750000Y-77750000D02*
X40000000Y-81500000D01*
X-36163500Y-53221948D02*
X-40362724Y-49022724D01*
X43750000Y-73750000D02*
X43750000Y-77750000D01*
X45100000Y-72400000D02*
X43750000Y-73750000D01*
X55000000Y-72400000D02*
X45100000Y-72400000D01*
%TO.N,/W_I+*%
X-43503262Y-47971948D02*
X-45789628Y-50258314D01*
X-35000000Y-76200000D02*
X-35000000Y-53923000D01*
X-35000000Y-53923000D02*
X-40951052Y-47971948D01*
X-40951052Y-47971948D02*
X-43503262Y-47971948D01*
%TO.N,/Solder_Point_Breakout2/Sig_4*%
X-44480000Y-47947624D02*
X-45791188Y-49258812D01*
X-44480000Y-39980000D02*
X-44480000Y-47947624D01*
X-42231000Y-37731000D02*
X-44480000Y-39980000D01*
%TO.N,/Solder_Point_Breakout2/Sig_3*%
X-42748508Y-37404000D02*
X-46571000Y-41226492D01*
X-46571000Y-41226492D02*
X-46571000Y-47930000D01*
X40324000Y-37404000D02*
X-42748508Y-37404000D01*
X55000000Y-52080000D02*
X40324000Y-37404000D01*
%TO.N,/Solder_Point_Breakout2/Sig_2*%
X-47234000Y-39357072D02*
X-47234000Y-46790000D01*
X-44953928Y-37077000D02*
X-47234000Y-39357072D01*
%TO.N,/Solder_Point_Breakout2/Sig_1*%
X-48988331Y-44680000D02*
X-48740000Y-44680000D01*
X-45393853Y-36656146D02*
X-49930000Y-41192293D01*
X-49930000Y-41192293D02*
X-49930000Y-43738331D01*
X-49930000Y-43738331D02*
X-48988331Y-44680000D01*
%TO.N,/Solder_Point_Breakout1/Sig_2*%
X-43348517Y-27077000D02*
X-45827451Y-24598066D01*
X-34569114Y-27077000D02*
X-43348517Y-27077000D01*
X41885448Y-23827000D02*
X-31319114Y-23827000D01*
X-31319114Y-23827000D02*
X-34569114Y-27077000D01*
X42198448Y-24140000D02*
X41885448Y-23827000D01*
X55000000Y-24140000D02*
X42198448Y-24140000D01*
%TO.N,/Solder_Point_Breakout1/Sig_1*%
X-42449163Y-26750000D02*
X-45927597Y-23271566D01*
X-41560000Y-26750000D02*
X-42449163Y-26750000D01*
X-34704562Y-26750000D02*
X-41560000Y-26750000D01*
%TO.N,/E_I+*%
X-42861539Y-25400000D02*
X-46047480Y-22214059D01*
X-35000000Y-25400000D02*
X-42861539Y-25400000D01*
%TO.N,/Solder_Point_Breakout/Sig_4*%
X-48936500Y-19509998D02*
X-50736502Y-21310000D01*
X56034896Y5810000D02*
X-39039792Y5810000D01*
X56807000Y-2013000D02*
X56807000Y5037896D01*
X56807000Y5037896D02*
X56034896Y5810000D01*
X-39039792Y5810000D02*
X-48936500Y-4086708D01*
X55000000Y-3820000D02*
X56807000Y-2013000D01*
X-48936500Y-4086708D02*
X-48936500Y-19509998D01*
%TO.N,/S_I-*%
X-45407520Y-21237520D02*
X-46260499Y-21237520D01*
X-44972550Y-20802550D02*
X-45407520Y-21237520D01*
X-44972550Y-3440794D02*
X-44972550Y-20802550D01*
X-45013000Y-3400344D02*
X-44972550Y-3440794D01*
%TO.N,/Solder_Point_Breakout/Sig_3*%
X-47627500Y-3240156D02*
X-47627500Y-20872000D01*
X-39146844Y5240500D02*
X-47627500Y-3240156D01*
X56480000Y4902448D02*
X56141948Y5240500D01*
X56141948Y5240500D02*
X-39146844Y5240500D01*
X56480000Y200000D02*
X56480000Y4902448D01*
X55000000Y-1280000D02*
X56480000Y200000D01*
X-47627500Y-20872000D02*
X-47260000Y-21239500D01*
%TO.N,/S_V-*%
X-45299550Y-16869671D02*
X-45299550Y-19554290D01*
X-45340000Y-16829221D02*
X-45299550Y-16869671D01*
X-45299550Y-19554290D02*
X-45952268Y-20207008D01*
X-45340000Y-3264896D02*
X-45340000Y-16829221D01*
%TO.N,/Solder_Point_Breakout/Sig_2*%
X-39011396Y4913500D02*
X-47300500Y-3375604D01*
X-47300500Y-3375604D02*
X-47300500Y-19563065D01*
X-47300500Y-19563065D02*
X-46950565Y-19913000D01*
X56006500Y4913500D02*
X-39011396Y4913500D01*
X56113500Y4806500D02*
X56006500Y4913500D01*
X56113500Y2373500D02*
X56113500Y4806500D01*
X55000000Y1260000D02*
X56113500Y2373500D01*
%TO.N,/S_V+*%
X-45646500Y-18891013D02*
X-45963050Y-19207563D01*
X-45646500Y-16985169D02*
X-45646500Y-18891013D01*
X-45673000Y-16958669D02*
X-45646500Y-16985169D01*
X-45673000Y-3135448D02*
X-45673000Y-16958669D01*
%TO.N,/Solder_Point_Breakout/Sig_1*%
X-41446948Y2015500D02*
X-46973500Y-3511052D01*
X-46973500Y-17801052D02*
X-46443464Y-18331088D01*
X53215500Y2015500D02*
X-41446948Y2015500D01*
X55000000Y3800000D02*
X53215500Y2015500D01*
X-46973500Y-3511052D02*
X-46973500Y-17801052D01*
%TO.N,/S_I+*%
X-46310000Y-3310000D02*
X-46310000Y-17260000D01*
X-43000000Y0D02*
X-46310000Y-3310000D01*
X-35000000Y0D02*
X-43000000Y0D01*
%TO.N,/S_V+*%
X-45673000Y-3135448D02*
X-43701052Y-1163500D01*
X-43701052Y-1163500D02*
X-34412000Y-1163500D01*
X14440500Y1688500D02*
X16129000Y0D01*
X-31560000Y1688500D02*
X14440500Y1688500D01*
X-34412000Y-1163500D02*
X-31560000Y1688500D01*
%TO.N,/S_V-*%
X13650000Y850000D02*
X13650000Y833562D01*
X-43565604Y-1490500D02*
X-34276552Y-1490500D01*
X33999000Y-1180000D02*
X35179000Y0D01*
X-31424552Y1361500D02*
X13138500Y1361500D01*
X15663562Y-1180000D02*
X33999000Y-1180000D01*
X-34276552Y-1490500D02*
X-31424552Y1361500D01*
X-45340000Y-3264896D02*
X-43565604Y-1490500D01*
X13138500Y1361500D02*
X13650000Y850000D01*
X13650000Y833562D02*
X15663562Y-1180000D01*
%TO.N,/S_I-*%
X-34141104Y-1817500D02*
X-43430156Y-1817500D01*
X-31289104Y1034500D02*
X-34141104Y-1817500D01*
X-43430156Y-1817500D02*
X-45013000Y-3400344D01*
X-15950000Y0D02*
X-16984500Y1034500D01*
X-16984500Y1034500D02*
X-31289104Y1034500D01*
%TO.N,/Solder_Point_Breakout1/Sig_1*%
X-31454562Y-23500000D02*
X-34704562Y-26750000D01*
X43650000Y-21600000D02*
X41750000Y-23500000D01*
X55000000Y-21600000D02*
X43650000Y-21600000D01*
X41750000Y-23500000D02*
X-31454562Y-23500000D01*
%TO.N,/Solder_Point_Breakout2/Sig_1*%
X44656146Y-36656146D02*
X-45393853Y-36656146D01*
X55000000Y-47000000D02*
X44656146Y-36656146D01*
%TO.N,/Solder_Point_Breakout2/Sig_2*%
X42537000Y-37077000D02*
X-44953928Y-37077000D01*
X55000000Y-49540000D02*
X42537000Y-37077000D01*
%TO.N,/Solder_Point_Breakout2/Sig_4*%
X55000000Y-54620000D02*
X38111000Y-37731000D01*
X38111000Y-37731000D02*
X-42231000Y-37731000D01*
%TO.N,/Solder_Point_Breakout3/Sig_2*%
X-36490500Y-53394948D02*
X-36490500Y-77259500D01*
X40135448Y-81827000D02*
X44077000Y-77885448D01*
X44077000Y-77885448D02*
X44077000Y-76500000D01*
X45637000Y-74940000D02*
X55000000Y-74940000D01*
X-36490500Y-77259500D02*
X-31923000Y-81827000D01*
X-31923000Y-81827000D02*
X40135448Y-81827000D01*
X44077000Y-76500000D02*
X45637000Y-74940000D01*
%TO.N,/Solder_Point_Breakout3/Sig_3*%
X44944896Y-77480000D02*
X55000000Y-77480000D01*
X-31962448Y-82250000D02*
X40174896Y-82250000D01*
X-36817500Y-77394948D02*
X-31962448Y-82250000D01*
X40174896Y-82250000D02*
X44944896Y-77480000D01*
%TO.N,/Solder_Point_Breakout3/Sig_4*%
X42867344Y-80020000D02*
X40310344Y-82577000D01*
X40310344Y-82577000D02*
X-37479991Y-82577000D01*
X55000000Y-80020000D02*
X42867344Y-80020000D01*
X-37479991Y-82577000D02*
X-39842500Y-80214491D01*
%TD*%
%TA.AperFunction,Conductor*%
%TO.N,GND*%
G36*
X-46107368Y-87019404D02*
G01*
X-45924477Y-87187768D01*
X-45869883Y-87223435D01*
X-47293148Y-88646701D01*
X-47293148Y-88646702D01*
X-47062597Y-88833399D01*
X-47057343Y-88837216D01*
X-46755129Y-89033476D01*
X-46749508Y-89036722D01*
X-46428424Y-89200323D01*
X-46422500Y-89202960D01*
X-46274596Y-89259736D01*
X-46219064Y-89302138D01*
X-46195271Y-89367832D01*
X-46210773Y-89435960D01*
X-46260646Y-89484893D01*
X-46319034Y-89499500D01*
X-48375500Y-89499500D01*
X-48442539Y-89479815D01*
X-48488294Y-89427011D01*
X-48499500Y-89375500D01*
X-48499500Y-87319033D01*
X-48479815Y-87251994D01*
X-48427011Y-87206239D01*
X-48357853Y-87196295D01*
X-48294297Y-87225320D01*
X-48259736Y-87274596D01*
X-48202963Y-87422494D01*
X-48200323Y-87428424D01*
X-48036722Y-87749508D01*
X-48033476Y-87755129D01*
X-47837216Y-88057343D01*
X-47833399Y-88062597D01*
X-47646702Y-88293148D01*
X-47646701Y-88293148D01*
X-46223610Y-86870057D01*
X-46107368Y-87019404D01*
G37*
%TD.AperFunction*%
%TA.AperFunction,Conductor*%
G36*
X-37436242Y-74182818D02*
G01*
X-37391628Y-74236590D01*
X-37381500Y-74285674D01*
X-37381500Y-77349852D01*
X-37382561Y-77366037D01*
X-37386367Y-77394947D01*
X-37386367Y-77394948D01*
X-37366983Y-77542182D01*
X-37310153Y-77679381D01*
X-37246118Y-77762835D01*
X-37244891Y-77764434D01*
X-37219750Y-77797198D01*
X-37196614Y-77814950D01*
X-37184424Y-77825639D01*
X-35164497Y-79845567D01*
X-33208745Y-81801319D01*
X-33175260Y-81862642D01*
X-33180244Y-81932334D01*
X-33222116Y-81988267D01*
X-33287580Y-82012684D01*
X-33296426Y-82013000D01*
X-37195013Y-82013000D01*
X-37262052Y-81993315D01*
X-37282694Y-81976681D01*
X-37884420Y-81374954D01*
X-37917905Y-81313631D01*
X-37912921Y-81243939D01*
X-37871049Y-81188006D01*
X-37844192Y-81172712D01*
X-37677597Y-81103705D01*
X-37456155Y-80968006D01*
X-37449354Y-80962198D01*
X-37449354Y-80962197D01*
X-38103052Y-80308498D01*
X-38090109Y-80303787D01*
X-37943627Y-80207445D01*
X-37823312Y-80079918D01*
X-37750552Y-79953893D01*
X-37095801Y-80608644D01*
X-37089993Y-80601843D01*
X-36954294Y-80380402D01*
X-36854903Y-80140455D01*
X-36794275Y-79887916D01*
X-36773898Y-79629000D01*
X-36794275Y-79370083D01*
X-36854903Y-79117544D01*
X-36954294Y-78877597D01*
X-37089992Y-78656156D01*
X-37095801Y-78649354D01*
X-37751804Y-79305356D01*
X-37775059Y-79251447D01*
X-37879756Y-79110815D01*
X-38014062Y-78998118D01*
X-38105665Y-78952112D01*
X-37449354Y-78295801D01*
X-37456156Y-78289992D01*
X-37677597Y-78154294D01*
X-37917544Y-78054903D01*
X-38170083Y-77994275D01*
X-38429000Y-77973898D01*
X-38687916Y-77994275D01*
X-38940455Y-78054903D01*
X-39107047Y-78123908D01*
X-39176517Y-78131377D01*
X-39238996Y-78100102D01*
X-39274648Y-78040013D01*
X-39278500Y-78009347D01*
X-39278500Y-74390652D01*
X-39258815Y-74323613D01*
X-39206011Y-74277858D01*
X-39136853Y-74267914D01*
X-39107047Y-74276091D01*
X-38940455Y-74345096D01*
X-38687916Y-74405724D01*
X-38428999Y-74426101D01*
X-38170083Y-74405724D01*
X-37917544Y-74345096D01*
X-37677597Y-74245706D01*
X-37570290Y-74179947D01*
X-37502845Y-74161702D01*
X-37436242Y-74182818D01*
G37*
%TD.AperFunction*%
%TA.AperFunction,Conductor*%
G36*
X-39981613Y-53399185D02*
G01*
X-39935858Y-53451989D01*
X-39925914Y-53521147D01*
X-39934091Y-53550953D01*
X-40003096Y-53717544D01*
X-40063724Y-53970083D01*
X-40084101Y-54228999D01*
X-40063724Y-54487916D01*
X-40003096Y-54740455D01*
X-39903707Y-54980397D01*
X-39768003Y-55201849D01*
X-39762198Y-55208645D01*
X-39106195Y-54552642D01*
X-39082941Y-54606553D01*
X-38978244Y-54747185D01*
X-38843938Y-54859882D01*
X-38752334Y-54905887D01*
X-39408645Y-55562198D01*
X-39401849Y-55568003D01*
X-39180397Y-55703708D01*
X-39098965Y-55737439D01*
X-39044561Y-55781281D01*
X-39022497Y-55847575D01*
X-39039777Y-55915274D01*
X-39090914Y-55962884D01*
X-39146418Y-55976000D01*
X-43875022Y-55976000D01*
X-43942061Y-55956315D01*
X-43962703Y-55939681D01*
X-44540075Y-55362306D01*
X-44573560Y-55300983D01*
X-44575715Y-55261665D01*
X-44571641Y-55222899D01*
X-44591427Y-55034641D01*
X-44649922Y-54854612D01*
X-44691470Y-54782649D01*
X-44707943Y-54714749D01*
X-44685090Y-54648722D01*
X-44634519Y-54607370D01*
X-44560746Y-54574524D01*
X-44504369Y-54549424D01*
X-44351231Y-54438163D01*
X-44224568Y-54297490D01*
X-44129922Y-54133558D01*
X-44071428Y-53953531D01*
X-44051642Y-53765273D01*
X-44071428Y-53577018D01*
X-44071427Y-53577018D01*
X-44082866Y-53541815D01*
X-44084861Y-53471978D01*
X-44048781Y-53412145D01*
X-43986081Y-53381316D01*
X-43964935Y-53379500D01*
X-40048652Y-53379500D01*
X-39981613Y-53399185D01*
G37*
%TD.AperFunction*%
%TA.AperFunction,Conductor*%
G36*
X-37090819Y-55213627D02*
G01*
X-37057334Y-55274950D01*
X-37054500Y-55301308D01*
X-37054500Y-55852000D01*
X-37074185Y-55919039D01*
X-37126989Y-55964794D01*
X-37178500Y-55976000D01*
X-37711582Y-55976000D01*
X-37778621Y-55956315D01*
X-37824376Y-55903511D01*
X-37834320Y-55834353D01*
X-37805295Y-55770797D01*
X-37759035Y-55737439D01*
X-37677597Y-55703705D01*
X-37456155Y-55568006D01*
X-37449354Y-55562198D01*
X-38103054Y-54908498D01*
X-38090109Y-54903787D01*
X-37943627Y-54807445D01*
X-37823312Y-54679918D01*
X-37750552Y-54553893D01*
X-37090819Y-55213627D01*
G37*
%TD.AperFunction*%
%TA.AperFunction,Conductor*%
G36*
X-46251995Y13479815D02*
G01*
X-46206240Y13427011D01*
X-46196296Y13357853D01*
X-46225321Y13294297D01*
X-46274596Y13259736D01*
X-46422500Y13202960D01*
X-46428424Y13200323D01*
X-46749507Y13036722D01*
X-46755128Y13033476D01*
X-47057343Y12837216D01*
X-47062597Y12833399D01*
X-47293148Y12646702D01*
X-45869882Y11223436D01*
X-45924477Y11187768D01*
X-46107368Y11019404D01*
X-46223610Y10870057D01*
X-47646701Y12293148D01*
X-47646702Y12293148D01*
X-47833399Y12062597D01*
X-47837216Y12057343D01*
X-48033476Y11755128D01*
X-48036722Y11749507D01*
X-48200323Y11428424D01*
X-48202960Y11422500D01*
X-48332106Y11086065D01*
X-48334103Y11079919D01*
X-48427373Y10731831D01*
X-48428724Y10725472D01*
X-48485095Y10369557D01*
X-48485772Y10363113D01*
X-48504633Y10003243D01*
X-48504633Y9996756D01*
X-48485772Y9636886D01*
X-48485095Y9630442D01*
X-48428724Y9274527D01*
X-48427373Y9268168D01*
X-48334103Y8920080D01*
X-48332106Y8913934D01*
X-48202960Y8577499D01*
X-48200323Y8571575D01*
X-48036722Y8250491D01*
X-48033476Y8244870D01*
X-47837216Y7942656D01*
X-47833399Y7937402D01*
X-47646701Y7706851D01*
X-46223609Y9129942D01*
X-46107368Y8980596D01*
X-45924477Y8812232D01*
X-45869882Y8776563D01*
X-47293148Y7353297D01*
X-47062597Y7166600D01*
X-47057343Y7162783D01*
X-46755129Y6966523D01*
X-46749508Y6963277D01*
X-46428424Y6799676D01*
X-46422500Y6797039D01*
X-46086065Y6667893D01*
X-46079919Y6665896D01*
X-45731831Y6572626D01*
X-45725472Y6571275D01*
X-45369557Y6514904D01*
X-45363113Y6514227D01*
X-45003244Y6495367D01*
X-44996756Y6495367D01*
X-44636886Y6514227D01*
X-44630442Y6514904D01*
X-44274527Y6571275D01*
X-44268168Y6572626D01*
X-43920080Y6665896D01*
X-43913934Y6667893D01*
X-43577499Y6797039D01*
X-43571575Y6799676D01*
X-43250491Y6963277D01*
X-43244870Y6966523D01*
X-42942656Y7162783D01*
X-42937402Y7166600D01*
X-42706851Y7353297D01*
X-44130117Y8776563D01*
X-44075523Y8812232D01*
X-43892632Y8980596D01*
X-43776389Y9129943D01*
X-42353297Y7706851D01*
X-42166600Y7937402D01*
X-42162783Y7942656D01*
X-41966523Y8244870D01*
X-41963277Y8250491D01*
X-41799676Y8571575D01*
X-41797039Y8577499D01*
X-41667893Y8913934D01*
X-41665896Y8920080D01*
X-41572626Y9268168D01*
X-41571275Y9274527D01*
X-41514904Y9630442D01*
X-41514227Y9636886D01*
X-41495367Y9996756D01*
X-41495367Y10003243D01*
X-41514227Y10363113D01*
X-41514904Y10369557D01*
X-41571275Y10725472D01*
X-41572626Y10731831D01*
X-41665896Y11079919D01*
X-41667893Y11086065D01*
X-41797039Y11422500D01*
X-41799676Y11428424D01*
X-41963277Y11749507D01*
X-41966523Y11755128D01*
X-42162783Y12057343D01*
X-42166600Y12062597D01*
X-42353297Y12293147D01*
X-43776389Y10870056D01*
X-43892632Y11019404D01*
X-44075523Y11187768D01*
X-44130115Y11223435D01*
X-42706850Y12646701D01*
X-42937402Y12833399D01*
X-42942656Y12837216D01*
X-43244870Y13033476D01*
X-43250491Y13036722D01*
X-43571575Y13200323D01*
X-43577499Y13202960D01*
X-43725404Y13259736D01*
X-43780936Y13302138D01*
X-43804729Y13367832D01*
X-43789227Y13435960D01*
X-43739354Y13484893D01*
X-43680966Y13499500D01*
X58680966Y13499500D01*
X58748005Y13479815D01*
X58793760Y13427011D01*
X58803704Y13357853D01*
X58774679Y13294297D01*
X58725404Y13259736D01*
X58577499Y13202960D01*
X58571575Y13200323D01*
X58250492Y13036722D01*
X58244871Y13033476D01*
X57942656Y12837216D01*
X57937402Y12833399D01*
X57706850Y12646701D01*
X59130115Y11223435D01*
X59075523Y11187768D01*
X58892632Y11019404D01*
X58776389Y10870056D01*
X57353297Y12293147D01*
X57166600Y12062597D01*
X57162783Y12057343D01*
X56966523Y11755128D01*
X56963277Y11749507D01*
X56799676Y11428424D01*
X56797039Y11422500D01*
X56667893Y11086065D01*
X56665896Y11079919D01*
X56572626Y10731831D01*
X56571275Y10725472D01*
X56514904Y10369557D01*
X56514227Y10363113D01*
X56495367Y10003243D01*
X56495367Y9996756D01*
X56514227Y9636886D01*
X56514904Y9630442D01*
X56571275Y9274527D01*
X56572626Y9268168D01*
X56665896Y8920080D01*
X56667893Y8913934D01*
X56797039Y8577499D01*
X56799676Y8571575D01*
X56963277Y8250491D01*
X56966523Y8244870D01*
X57162783Y7942656D01*
X57166600Y7937402D01*
X57353297Y7706851D01*
X58776389Y9129943D01*
X58892632Y8980596D01*
X59075523Y8812232D01*
X59130117Y8776563D01*
X57706851Y7353297D01*
X57937402Y7166600D01*
X57942656Y7162783D01*
X58244870Y6966523D01*
X58250491Y6963277D01*
X58571575Y6799676D01*
X58577499Y6797039D01*
X58913934Y6667893D01*
X58920080Y6665896D01*
X59268168Y6572626D01*
X59274527Y6571275D01*
X59630442Y6514904D01*
X59636886Y6514227D01*
X59996756Y6495367D01*
X60003244Y6495367D01*
X60363113Y6514227D01*
X60369557Y6514904D01*
X60725472Y6571275D01*
X60731831Y6572626D01*
X61079919Y6665896D01*
X61086065Y6667893D01*
X61422500Y6797039D01*
X61428424Y6799676D01*
X61749508Y6963277D01*
X61755129Y6966523D01*
X62057343Y7162783D01*
X62062597Y7166600D01*
X62293148Y7353297D01*
X60869882Y8776563D01*
X60924477Y8812232D01*
X61107368Y8980596D01*
X61223609Y9129942D01*
X62646701Y7706851D01*
X62833399Y7937402D01*
X62837216Y7942656D01*
X63033476Y8244870D01*
X63036722Y8250491D01*
X63200323Y8571575D01*
X63202960Y8577499D01*
X63259736Y8725404D01*
X63302138Y8780936D01*
X63367832Y8804729D01*
X63435960Y8789227D01*
X63484893Y8739354D01*
X63499500Y8680966D01*
X63499500Y-84680966D01*
X63479815Y-84748005D01*
X63427011Y-84793760D01*
X63357853Y-84803704D01*
X63294297Y-84774679D01*
X63259736Y-84725404D01*
X63202960Y-84577499D01*
X63200323Y-84571575D01*
X63036722Y-84250492D01*
X63033476Y-84244871D01*
X62837216Y-83942656D01*
X62833399Y-83937402D01*
X62646701Y-83706851D01*
X61223609Y-85129942D01*
X61107368Y-84980596D01*
X60924477Y-84812232D01*
X60869881Y-84776563D01*
X62293147Y-83353297D01*
X62062597Y-83166600D01*
X62057343Y-83162783D01*
X61755129Y-82966523D01*
X61749508Y-82963277D01*
X61428424Y-82799676D01*
X61422500Y-82797039D01*
X61086065Y-82667893D01*
X61079919Y-82665896D01*
X60731831Y-82572626D01*
X60725472Y-82571275D01*
X60369557Y-82514904D01*
X60363113Y-82514227D01*
X60003244Y-82495367D01*
X59996756Y-82495367D01*
X59636886Y-82514227D01*
X59630442Y-82514904D01*
X59274527Y-82571275D01*
X59268168Y-82572626D01*
X58920080Y-82665896D01*
X58913934Y-82667893D01*
X58577499Y-82797039D01*
X58571575Y-82799676D01*
X58250492Y-82963277D01*
X58244871Y-82966523D01*
X57942656Y-83162783D01*
X57937402Y-83166600D01*
X57706850Y-83353297D01*
X59130116Y-84776564D01*
X59075523Y-84812232D01*
X58892632Y-84980596D01*
X58776389Y-85129943D01*
X57353297Y-83706851D01*
X57166600Y-83937402D01*
X57162783Y-83942656D01*
X56966523Y-84244871D01*
X56963277Y-84250492D01*
X56799676Y-84571575D01*
X56797039Y-84577499D01*
X56667893Y-84913934D01*
X56665896Y-84920080D01*
X56572626Y-85268168D01*
X56571275Y-85274527D01*
X56514904Y-85630442D01*
X56514227Y-85636886D01*
X56495367Y-85996756D01*
X56495367Y-86003243D01*
X56514227Y-86363113D01*
X56514904Y-86369557D01*
X56571275Y-86725472D01*
X56572626Y-86731831D01*
X56665896Y-87079919D01*
X56667893Y-87086065D01*
X56797039Y-87422500D01*
X56799676Y-87428424D01*
X56963277Y-87749508D01*
X56966523Y-87755129D01*
X57162783Y-88057343D01*
X57166600Y-88062597D01*
X57353297Y-88293147D01*
X58776389Y-86870056D01*
X58892632Y-87019404D01*
X59075523Y-87187768D01*
X59130116Y-87223435D01*
X57706851Y-88646701D01*
X57937402Y-88833399D01*
X57942656Y-88837216D01*
X58244870Y-89033476D01*
X58250491Y-89036722D01*
X58571575Y-89200323D01*
X58577499Y-89202960D01*
X58725404Y-89259736D01*
X58780936Y-89302138D01*
X58804729Y-89367832D01*
X58789227Y-89435960D01*
X58739354Y-89484893D01*
X58680966Y-89499500D01*
X-43680966Y-89499500D01*
X-43748005Y-89479815D01*
X-43793760Y-89427011D01*
X-43803704Y-89357853D01*
X-43774679Y-89294297D01*
X-43725404Y-89259736D01*
X-43577499Y-89202960D01*
X-43571575Y-89200323D01*
X-43250491Y-89036722D01*
X-43244870Y-89033476D01*
X-42942656Y-88837216D01*
X-42937402Y-88833399D01*
X-42706851Y-88646701D01*
X-44130116Y-87223435D01*
X-44075523Y-87187768D01*
X-43892632Y-87019404D01*
X-43776389Y-86870056D01*
X-42353297Y-88293147D01*
X-42166600Y-88062597D01*
X-42162783Y-88057343D01*
X-41966523Y-87755129D01*
X-41963277Y-87749508D01*
X-41799676Y-87428424D01*
X-41797039Y-87422500D01*
X-41667893Y-87086065D01*
X-41665896Y-87079919D01*
X-41572626Y-86731831D01*
X-41571275Y-86725472D01*
X-41514904Y-86369557D01*
X-41514227Y-86363113D01*
X-41495367Y-86003243D01*
X-41495367Y-85996756D01*
X-41514227Y-85636886D01*
X-41514904Y-85630442D01*
X-41571275Y-85274527D01*
X-41572626Y-85268168D01*
X-41665896Y-84920080D01*
X-41667893Y-84913934D01*
X-41797039Y-84577499D01*
X-41799676Y-84571575D01*
X-41963277Y-84250492D01*
X-41966523Y-84244871D01*
X-42162783Y-83942656D01*
X-42166600Y-83937402D01*
X-42353297Y-83706851D01*
X-43776389Y-85129943D01*
X-43892632Y-84980596D01*
X-44075523Y-84812232D01*
X-44130116Y-84776564D01*
X-42706850Y-83353297D01*
X-42937402Y-83166600D01*
X-42942656Y-83162783D01*
X-43244870Y-82966523D01*
X-43250491Y-82963277D01*
X-43571575Y-82799676D01*
X-43577499Y-82797039D01*
X-43913934Y-82667893D01*
X-43920080Y-82665896D01*
X-44268168Y-82572626D01*
X-44274527Y-82571275D01*
X-44630442Y-82514904D01*
X-44636886Y-82514227D01*
X-44996756Y-82495367D01*
X-45003244Y-82495367D01*
X-45363113Y-82514227D01*
X-45369557Y-82514904D01*
X-45725472Y-82571275D01*
X-45731831Y-82572626D01*
X-46079919Y-82665896D01*
X-46086065Y-82667893D01*
X-46422500Y-82797039D01*
X-46428424Y-82799676D01*
X-46749507Y-82963277D01*
X-46755128Y-82966523D01*
X-47057343Y-83162783D01*
X-47062597Y-83166600D01*
X-47293147Y-83353297D01*
X-45869881Y-84776563D01*
X-45924477Y-84812232D01*
X-46107368Y-84980596D01*
X-46223609Y-85129942D01*
X-47646701Y-83706851D01*
X-47833399Y-83937402D01*
X-47837216Y-83942656D01*
X-48033476Y-84244871D01*
X-48036722Y-84250492D01*
X-48200323Y-84571575D01*
X-48202960Y-84577499D01*
X-48259736Y-84725404D01*
X-48302138Y-84780936D01*
X-48367832Y-84804729D01*
X-48435960Y-84789227D01*
X-48484893Y-84739354D01*
X-48499500Y-84680966D01*
X-48499500Y-61024759D01*
X-48499471Y-61024616D01*
X-48499476Y-61024616D01*
X-48499459Y-60999999D01*
X-48499615Y-60999618D01*
X-48499618Y-60999616D01*
X-48499903Y-60999499D01*
X-48500000Y-60999459D01*
X-48524554Y-60999459D01*
X-48524760Y-60999500D01*
X-55875500Y-60999500D01*
X-55942539Y-60979815D01*
X-55988294Y-60927011D01*
X-55999500Y-60875500D01*
X-55999500Y-43844014D01*
X-51489983Y-43844014D01*
X-51470197Y-44032270D01*
X-51462035Y-44057389D01*
X-51411702Y-44212298D01*
X-51317056Y-44376230D01*
X-51190393Y-44516903D01*
X-51132400Y-44559037D01*
X-51037253Y-44628165D01*
X-50864326Y-44705158D01*
X-50835138Y-44711362D01*
X-50679171Y-44744514D01*
X-50679169Y-44744514D01*
X-50489875Y-44744514D01*
X-50304720Y-44705158D01*
X-50131795Y-44628166D01*
X-50131794Y-44628165D01*
X-50131793Y-44628165D01*
X-50047181Y-44566691D01*
X-49981376Y-44543212D01*
X-49913323Y-44559037D01*
X-49886623Y-44579323D01*
X-49760788Y-44705158D01*
X-49660011Y-44805935D01*
X-49632290Y-44856701D01*
X-49629702Y-44855860D01*
X-49567179Y-45048284D01*
X-49472533Y-45212216D01*
X-49345870Y-45352889D01*
X-49192730Y-45464151D01*
X-49019806Y-45541143D01*
X-49019804Y-45541143D01*
X-49019803Y-45541144D01*
X-48893116Y-45568071D01*
X-48831638Y-45601263D01*
X-48797861Y-45662425D01*
X-48795581Y-45676387D01*
X-48782674Y-45799193D01*
X-48747428Y-45907669D01*
X-48724179Y-45979221D01*
X-48629533Y-46143153D01*
X-48502870Y-46283826D01*
X-48349732Y-46395087D01*
X-48349730Y-46395087D01*
X-48349730Y-46395088D01*
X-48191509Y-46465533D01*
X-48138273Y-46510783D01*
X-48117952Y-46577632D01*
X-48118625Y-46591774D01*
X-48119672Y-46601738D01*
X-48119674Y-46601744D01*
X-48139460Y-46790000D01*
X-48119674Y-46978256D01*
X-48061179Y-47158284D01*
X-47966533Y-47322216D01*
X-47893723Y-47403080D01*
X-47839870Y-47462889D01*
X-47686732Y-47574150D01*
X-47686730Y-47574150D01*
X-47686730Y-47574151D01*
X-47532432Y-47642849D01*
X-47479195Y-47688100D01*
X-47458874Y-47754949D01*
X-47459545Y-47769069D01*
X-47476460Y-47930000D01*
X-47456674Y-48118256D01*
X-47398179Y-48298284D01*
X-47303533Y-48462216D01*
X-47176871Y-48602888D01*
X-47023730Y-48714151D01*
X-46850803Y-48791144D01*
X-46737879Y-48815146D01*
X-46676402Y-48848336D01*
X-46642625Y-48909499D01*
X-46645732Y-48974751D01*
X-46676862Y-49070556D01*
X-46696648Y-49258812D01*
X-46676862Y-49447068D01*
X-46618367Y-49627096D01*
X-46618366Y-49627097D01*
X-46577481Y-49697912D01*
X-46561007Y-49765812D01*
X-46577480Y-49821913D01*
X-46616807Y-49890029D01*
X-46616807Y-49890030D01*
X-46675302Y-50070058D01*
X-46695088Y-50258314D01*
X-46675302Y-50446570D01*
X-46616807Y-50626598D01*
X-46522161Y-50790530D01*
X-46418223Y-50905965D01*
X-46395498Y-50931203D01*
X-46249152Y-51037529D01*
X-46242358Y-51042465D01*
X-46069431Y-51119458D01*
X-46007712Y-51132576D01*
X-45884276Y-51158814D01*
X-45884274Y-51158814D01*
X-45694980Y-51158814D01*
X-45509825Y-51119458D01*
X-45336900Y-51042467D01*
X-45281547Y-51002250D01*
X-45215741Y-50978770D01*
X-45158225Y-50989289D01*
X-45129114Y-51002250D01*
X-45049877Y-51037529D01*
X-45026645Y-51042467D01*
X-44864722Y-51076885D01*
X-44864720Y-51076885D01*
X-44675426Y-51076885D01*
X-44490271Y-51037529D01*
X-44317343Y-50960536D01*
X-44164203Y-50849274D01*
X-44037540Y-50708601D01*
X-43942894Y-50544669D01*
X-43884400Y-50364642D01*
X-43864614Y-50176383D01*
X-43868688Y-50137617D01*
X-43856118Y-50068887D01*
X-43833048Y-50036976D01*
X-43419115Y-49623043D01*
X-43357792Y-49589558D01*
X-43331434Y-49586724D01*
X-40647703Y-49586724D01*
X-40580664Y-49606409D01*
X-40560022Y-49623043D01*
X-38143246Y-52039819D01*
X-38109761Y-52101142D01*
X-38114745Y-52170834D01*
X-38156617Y-52226767D01*
X-38222081Y-52251184D01*
X-38230927Y-52251500D01*
X-44899851Y-52251500D01*
X-44916037Y-52250439D01*
X-44944952Y-52246632D01*
X-45075078Y-52263764D01*
X-45092184Y-52266016D01*
X-45092186Y-52266017D01*
X-45132370Y-52282661D01*
X-45211426Y-52315407D01*
X-45229385Y-52322846D01*
X-45283583Y-52364433D01*
X-45347201Y-52413248D01*
X-45364952Y-52436383D01*
X-45375648Y-52448579D01*
X-45586094Y-52659025D01*
X-45647417Y-52692510D01*
X-45717109Y-52687526D01*
X-45773042Y-52645654D01*
X-45781162Y-52633345D01*
X-45807467Y-52587782D01*
X-45934129Y-52447110D01*
X-46087269Y-52335848D01*
X-46260197Y-52258855D01*
X-46445352Y-52219500D01*
X-46445354Y-52219500D01*
X-46634646Y-52219500D01*
X-46634648Y-52219500D01*
X-46819802Y-52258855D01*
X-46992730Y-52335848D01*
X-47145870Y-52447110D01*
X-47272533Y-52587783D01*
X-47367179Y-52751715D01*
X-47367179Y-52751716D01*
X-47425674Y-52931744D01*
X-47445460Y-53120000D01*
X-47425674Y-53308256D01*
X-47378972Y-53451989D01*
X-47367179Y-53488284D01*
X-47286189Y-53628564D01*
X-47272533Y-53652216D01*
X-47207829Y-53724076D01*
X-47177599Y-53787068D01*
X-47186224Y-53856403D01*
X-47190282Y-53864462D01*
X-47215531Y-53942170D01*
X-47249212Y-54045830D01*
X-47268998Y-54234086D01*
X-47249212Y-54422342D01*
X-47190717Y-54602370D01*
X-47096071Y-54766302D01*
X-46969409Y-54906974D01*
X-46848940Y-54994498D01*
X-46806277Y-55049826D01*
X-46800298Y-55119439D01*
X-46832903Y-55181235D01*
X-46848943Y-55195133D01*
X-46875870Y-55214696D01*
X-47002533Y-55355369D01*
X-47097179Y-55519301D01*
X-47097179Y-55519302D01*
X-47155674Y-55699330D01*
X-47175460Y-55887586D01*
X-47155674Y-56075842D01*
X-47097179Y-56255870D01*
X-47002533Y-56419802D01*
X-46979637Y-56445230D01*
X-46974784Y-56450620D01*
X-46944554Y-56513611D01*
X-46953178Y-56582946D01*
X-46959546Y-56595593D01*
X-47027037Y-56712490D01*
X-47027037Y-56712491D01*
X-47085532Y-56892519D01*
X-47105318Y-57080775D01*
X-47085532Y-57269031D01*
X-47027037Y-57449059D01*
X-46932391Y-57612991D01*
X-46805729Y-57753663D01*
X-46652588Y-57864926D01*
X-46479661Y-57941919D01*
X-46417942Y-57955037D01*
X-46294506Y-57981275D01*
X-46148336Y-57981275D01*
X-46081297Y-58000960D01*
X-46060655Y-58017593D01*
X-40442817Y-63635432D01*
X-40409334Y-63696753D01*
X-40406500Y-63723111D01*
X-40406500Y-80169395D01*
X-40407561Y-80185580D01*
X-40411367Y-80214490D01*
X-40411367Y-80214491D01*
X-40406500Y-80251459D01*
X-40391983Y-80361725D01*
X-40335153Y-80498924D01*
X-40244750Y-80616741D01*
X-40225068Y-80631843D01*
X-40221614Y-80634493D01*
X-40209424Y-80645182D01*
X-37910689Y-82943917D01*
X-37899996Y-82956109D01*
X-37882241Y-82979250D01*
X-37780665Y-83057189D01*
X-37771888Y-83066560D01*
X-37764424Y-83069651D01*
X-37764424Y-83069652D01*
X-37764424Y-83069653D01*
X-37627225Y-83126483D01*
X-37479991Y-83145867D01*
X-37451080Y-83142060D01*
X-37434897Y-83141000D01*
X40265250Y-83141000D01*
X40281433Y-83142060D01*
X40310344Y-83145867D01*
X40457578Y-83126483D01*
X40594777Y-83069653D01*
X40683012Y-83001949D01*
X40683012Y-83001948D01*
X40692405Y-82994740D01*
X40712594Y-82979250D01*
X40730349Y-82956110D01*
X40741034Y-82943925D01*
X43064641Y-80620319D01*
X43125964Y-80586834D01*
X43152322Y-80584000D01*
X53693889Y-80584000D01*
X53760928Y-80603685D01*
X53806270Y-80655595D01*
X53825965Y-80697830D01*
X53961505Y-80891401D01*
X54128599Y-81058495D01*
X54322170Y-81194035D01*
X54536337Y-81293903D01*
X54764592Y-81355063D01*
X55000000Y-81375659D01*
X55235408Y-81355063D01*
X55463663Y-81293903D01*
X55677830Y-81194035D01*
X55871401Y-81058495D01*
X56038495Y-80891401D01*
X56174035Y-80697830D01*
X56273903Y-80483663D01*
X56335063Y-80255408D01*
X56355659Y-80020000D01*
X56335063Y-79784592D01*
X56273903Y-79556337D01*
X56174035Y-79342171D01*
X56038495Y-79148599D01*
X55871401Y-78981505D01*
X55685839Y-78851573D01*
X55642215Y-78796997D01*
X55635023Y-78727498D01*
X55666545Y-78665144D01*
X55685831Y-78648432D01*
X55871401Y-78518495D01*
X56038495Y-78351401D01*
X56174035Y-78157830D01*
X56273903Y-77943663D01*
X56335063Y-77715408D01*
X56355659Y-77480000D01*
X56354348Y-77465021D01*
X56335063Y-77244592D01*
X56332201Y-77233912D01*
X56273903Y-77016337D01*
X56174035Y-76802171D01*
X56038495Y-76608599D01*
X55871401Y-76441505D01*
X55685839Y-76311573D01*
X55642215Y-76256997D01*
X55635023Y-76187498D01*
X55666545Y-76125144D01*
X55685831Y-76108432D01*
X55871401Y-75978495D01*
X56038495Y-75811401D01*
X56174035Y-75617830D01*
X56273903Y-75403663D01*
X56335063Y-75175408D01*
X56355659Y-74940000D01*
X56335063Y-74704592D01*
X56273903Y-74476337D01*
X56174035Y-74262171D01*
X56038495Y-74068599D01*
X55916569Y-73946673D01*
X55883084Y-73885350D01*
X55888068Y-73815658D01*
X55929940Y-73759725D01*
X55960915Y-73742810D01*
X56092331Y-73693796D01*
X56207546Y-73607546D01*
X56293796Y-73492331D01*
X56344091Y-73357483D01*
X56350500Y-73297873D01*
X56350499Y-71502128D01*
X56344091Y-71442517D01*
X56293796Y-71307669D01*
X56207546Y-71192454D01*
X56092331Y-71106204D01*
X55957483Y-71055909D01*
X55897873Y-71049500D01*
X55894550Y-71049500D01*
X54105439Y-71049500D01*
X54105420Y-71049500D01*
X54102128Y-71049501D01*
X54098848Y-71049853D01*
X54098840Y-71049854D01*
X54042515Y-71055909D01*
X53907669Y-71106204D01*
X53792454Y-71192454D01*
X53706204Y-71307668D01*
X53655909Y-71442516D01*
X53653191Y-71467801D01*
X53649500Y-71502127D01*
X53649500Y-71505448D01*
X53649500Y-71505449D01*
X53649500Y-71712000D01*
X53629815Y-71779039D01*
X53577011Y-71824794D01*
X53525500Y-71836000D01*
X45145094Y-71836000D01*
X45128910Y-71834939D01*
X45100000Y-71831133D01*
X45099999Y-71831133D01*
X45081516Y-71833566D01*
X45063032Y-71836000D01*
X45007898Y-71843258D01*
X44952765Y-71850517D01*
X44815566Y-71907347D01*
X44697748Y-71997751D01*
X44679991Y-72020891D01*
X44669300Y-72033081D01*
X43383080Y-73319301D01*
X43370888Y-73329994D01*
X43347749Y-73347750D01*
X43312598Y-73393558D01*
X43312588Y-73393573D01*
X43257347Y-73465566D01*
X43200517Y-73602766D01*
X43181132Y-73749999D01*
X43184939Y-73778908D01*
X43186000Y-73795094D01*
X43186000Y-77465021D01*
X43166315Y-77532060D01*
X43149681Y-77552702D01*
X40375530Y-80326852D01*
X40314207Y-80360337D01*
X40244515Y-80355353D01*
X40188582Y-80313481D01*
X40164165Y-80248017D01*
X40173289Y-80191715D01*
X40182096Y-80170452D01*
X40242724Y-79917916D01*
X40263101Y-79658999D01*
X40242724Y-79400083D01*
X40182096Y-79147544D01*
X40082705Y-78907597D01*
X39947006Y-78686155D01*
X39941198Y-78679354D01*
X39941197Y-78679354D01*
X39285195Y-79335355D01*
X39261941Y-79281447D01*
X39157244Y-79140815D01*
X39022938Y-79028118D01*
X38931334Y-78982112D01*
X39587645Y-78325801D01*
X39580843Y-78319993D01*
X39359402Y-78184294D01*
X39119455Y-78084903D01*
X38866916Y-78024275D01*
X38608000Y-78003898D01*
X38349083Y-78024275D01*
X38096544Y-78084903D01*
X37856597Y-78184294D01*
X37635156Y-78319992D01*
X37628354Y-78325801D01*
X38282054Y-78979501D01*
X38269109Y-78984213D01*
X38122627Y-79080555D01*
X38002312Y-79208082D01*
X37929552Y-79334105D01*
X37274801Y-78679354D01*
X37268992Y-78686156D01*
X37133294Y-78907597D01*
X37033903Y-79147544D01*
X36973275Y-79400083D01*
X36952898Y-79659000D01*
X36973275Y-79917916D01*
X37033903Y-80170455D01*
X37133294Y-80410402D01*
X37268993Y-80631843D01*
X37354081Y-80731468D01*
X37382652Y-80795229D01*
X37372215Y-80864315D01*
X37326084Y-80916791D01*
X37259791Y-80936000D01*
X33098209Y-80936000D01*
X33031170Y-80916315D01*
X32985415Y-80863511D01*
X32975471Y-80794353D01*
X33003919Y-80731468D01*
X33089006Y-80631843D01*
X33224705Y-80410402D01*
X33324096Y-80170455D01*
X33384724Y-79917916D01*
X33405101Y-79658999D01*
X33384724Y-79400083D01*
X33324096Y-79147544D01*
X33224705Y-78907597D01*
X33089006Y-78686155D01*
X33083198Y-78679354D01*
X33083197Y-78679354D01*
X32427195Y-79335355D01*
X32403941Y-79281447D01*
X32299244Y-79140815D01*
X32164938Y-79028118D01*
X32073334Y-78982112D01*
X32729645Y-78325801D01*
X32722843Y-78319993D01*
X32501402Y-78184294D01*
X32261455Y-78084903D01*
X32008916Y-78024275D01*
X31750000Y-78003898D01*
X31491083Y-78024275D01*
X31238544Y-78084903D01*
X30998597Y-78184294D01*
X30777156Y-78319992D01*
X30770354Y-78325801D01*
X31424054Y-78979501D01*
X31411109Y-78984213D01*
X31264627Y-79080555D01*
X31144312Y-79208082D01*
X31071552Y-79334105D01*
X30416801Y-78679354D01*
X30410992Y-78686156D01*
X30275294Y-78907597D01*
X30175903Y-79147544D01*
X30115275Y-79400083D01*
X30094898Y-79659000D01*
X30115275Y-79917916D01*
X30175903Y-80170455D01*
X30275294Y-80410402D01*
X30410993Y-80631843D01*
X30496081Y-80731468D01*
X30524652Y-80795229D01*
X30514215Y-80864315D01*
X30468084Y-80916791D01*
X30401791Y-80936000D01*
X20562809Y-80936000D01*
X20495770Y-80916315D01*
X20475128Y-80899681D01*
X19883945Y-80308498D01*
X19896891Y-80303787D01*
X20043373Y-80207445D01*
X20163688Y-80079918D01*
X20236447Y-79953893D01*
X20891198Y-80608645D01*
X20897003Y-80601849D01*
X21032707Y-80380397D01*
X21132096Y-80140455D01*
X21192724Y-79887916D01*
X21213101Y-79629000D01*
X21192724Y-79370083D01*
X21132096Y-79117544D01*
X21032705Y-78877597D01*
X20897006Y-78656155D01*
X20891198Y-78649354D01*
X20891197Y-78649354D01*
X20235195Y-79305356D01*
X20211941Y-79251447D01*
X20107244Y-79110815D01*
X19972938Y-78998118D01*
X19881334Y-78952112D01*
X20537644Y-78295801D01*
X20530843Y-78289993D01*
X20309402Y-78154294D01*
X20069455Y-78054903D01*
X19816916Y-77994275D01*
X19557999Y-77973898D01*
X19299083Y-77994275D01*
X19046544Y-78054903D01*
X18806597Y-78154294D01*
X18585156Y-78289992D01*
X18578354Y-78295801D01*
X19232054Y-78949501D01*
X19219109Y-78954213D01*
X19072627Y-79050555D01*
X18952312Y-79178082D01*
X18879552Y-79304105D01*
X18224801Y-78649354D01*
X18218992Y-78656156D01*
X18083294Y-78877597D01*
X17983903Y-79117544D01*
X17923275Y-79370083D01*
X17902898Y-79629000D01*
X17923275Y-79887916D01*
X17983903Y-80140455D01*
X18083294Y-80380402D01*
X18218993Y-80601843D01*
X18224801Y-80608644D01*
X18880803Y-79952641D01*
X18904059Y-80006553D01*
X19008756Y-80147185D01*
X19143062Y-80259882D01*
X19234665Y-80305887D01*
X18640872Y-80899681D01*
X18579549Y-80933166D01*
X18553191Y-80936000D01*
X13704809Y-80936000D01*
X13637770Y-80916315D01*
X13617128Y-80899681D01*
X13025945Y-80308498D01*
X13038891Y-80303787D01*
X13185373Y-80207445D01*
X13305688Y-80079918D01*
X13378447Y-79953893D01*
X14033198Y-80608645D01*
X14039003Y-80601849D01*
X14174707Y-80380397D01*
X14274096Y-80140455D01*
X14334724Y-79887916D01*
X14355101Y-79629000D01*
X14334724Y-79370083D01*
X14274096Y-79117544D01*
X14174705Y-78877597D01*
X14039006Y-78656155D01*
X14033198Y-78649354D01*
X14033197Y-78649354D01*
X13377195Y-79305356D01*
X13353941Y-79251447D01*
X13249244Y-79110815D01*
X13114938Y-78998118D01*
X13023333Y-78952112D01*
X13679645Y-78295801D01*
X13672843Y-78289993D01*
X13451402Y-78154294D01*
X13211455Y-78054903D01*
X12958916Y-77994275D01*
X12700000Y-77973898D01*
X12441083Y-77994275D01*
X12188544Y-78054903D01*
X11948597Y-78154294D01*
X11727156Y-78289992D01*
X11720353Y-78295801D01*
X12374053Y-78949501D01*
X12361109Y-78954213D01*
X12214627Y-79050555D01*
X12094312Y-79178082D01*
X12021552Y-79304105D01*
X11366801Y-78649354D01*
X11360992Y-78656156D01*
X11225294Y-78877597D01*
X11125903Y-79117544D01*
X11065275Y-79370083D01*
X11044898Y-79629000D01*
X11065275Y-79887916D01*
X11125903Y-80140455D01*
X11225294Y-80380402D01*
X11360993Y-80601843D01*
X11366801Y-80608644D01*
X12022803Y-79952641D01*
X12046059Y-80006553D01*
X12150756Y-80147185D01*
X12285062Y-80259882D01*
X12376665Y-80305887D01*
X11782872Y-80899681D01*
X11721549Y-80933166D01*
X11695191Y-80936000D01*
X-11516191Y-80936000D01*
X-11583230Y-80916315D01*
X-11603872Y-80899681D01*
X-12195054Y-80308498D01*
X-12182109Y-80303787D01*
X-12035627Y-80207445D01*
X-11915312Y-80079918D01*
X-11842552Y-79953893D01*
X-11187801Y-80608644D01*
X-11181993Y-80601843D01*
X-11046294Y-80380402D01*
X-10946903Y-80140455D01*
X-10886275Y-79887916D01*
X-10865898Y-79629000D01*
X-10886275Y-79370083D01*
X-10946903Y-79117544D01*
X-11046294Y-78877597D01*
X-11181992Y-78656156D01*
X-11187801Y-78649354D01*
X-11843804Y-79305357D01*
X-11867059Y-79251447D01*
X-11971756Y-79110815D01*
X-12106062Y-78998118D01*
X-12197665Y-78952112D01*
X-11541354Y-78295801D01*
X-11548156Y-78289992D01*
X-11769597Y-78154294D01*
X-12009544Y-78054903D01*
X-12262083Y-77994275D01*
X-12520999Y-77973898D01*
X-12779916Y-77994275D01*
X-13032455Y-78054903D01*
X-13272402Y-78154294D01*
X-13493843Y-78289993D01*
X-13500645Y-78295801D01*
X-12846945Y-78949501D01*
X-12859891Y-78954213D01*
X-13006373Y-79050555D01*
X-13126688Y-79178082D01*
X-13199446Y-79304105D01*
X-13854198Y-78649354D01*
X-13860006Y-78656155D01*
X-13995705Y-78877597D01*
X-14095096Y-79117544D01*
X-14155724Y-79370083D01*
X-14176101Y-79629000D01*
X-14155724Y-79887916D01*
X-14095096Y-80140455D01*
X-13995707Y-80380397D01*
X-13860003Y-80601849D01*
X-13854198Y-80608645D01*
X-13198195Y-79952642D01*
X-13174941Y-80006553D01*
X-13070244Y-80147185D01*
X-12935938Y-80259882D01*
X-12844334Y-80305887D01*
X-13438128Y-80899681D01*
X-13499451Y-80933166D01*
X-13525809Y-80936000D01*
X-18374191Y-80936000D01*
X-18441230Y-80916315D01*
X-18461872Y-80899681D01*
X-19053054Y-80308498D01*
X-19040109Y-80303787D01*
X-18893627Y-80207445D01*
X-18773312Y-80079918D01*
X-18700552Y-79953893D01*
X-18045801Y-80608644D01*
X-18039993Y-80601843D01*
X-17904294Y-80380402D01*
X-17804903Y-80140455D01*
X-17744275Y-79887916D01*
X-17723898Y-79629000D01*
X-17744275Y-79370083D01*
X-17804903Y-79117544D01*
X-17904294Y-78877597D01*
X-18039992Y-78656156D01*
X-18045801Y-78649354D01*
X-18701804Y-79305357D01*
X-18725059Y-79251447D01*
X-18829756Y-79110815D01*
X-18964062Y-78998118D01*
X-19055665Y-78952112D01*
X-18399354Y-78295801D01*
X-18406156Y-78289992D01*
X-18627597Y-78154294D01*
X-18867544Y-78054903D01*
X-19120083Y-77994275D01*
X-19379000Y-77973898D01*
X-19637916Y-77994275D01*
X-19890455Y-78054903D01*
X-20130402Y-78154294D01*
X-20351843Y-78289993D01*
X-20358645Y-78295801D01*
X-19704945Y-78949501D01*
X-19717891Y-78954213D01*
X-19864373Y-79050555D01*
X-19984688Y-79178082D01*
X-20057446Y-79304105D01*
X-20712198Y-78649354D01*
X-20718006Y-78656155D01*
X-20853705Y-78877597D01*
X-20953096Y-79117544D01*
X-21013724Y-79370083D01*
X-21034101Y-79629000D01*
X-21013724Y-79887916D01*
X-20953096Y-80140455D01*
X-20853707Y-80380397D01*
X-20718003Y-80601849D01*
X-20712198Y-80608645D01*
X-20056195Y-79952642D01*
X-20032941Y-80006553D01*
X-19928244Y-80147185D01*
X-19793938Y-80259882D01*
X-19702334Y-80305887D01*
X-20296128Y-80899681D01*
X-20357451Y-80933166D01*
X-20383809Y-80936000D01*
X-30566191Y-80936000D01*
X-30633230Y-80916315D01*
X-30653872Y-80899681D01*
X-31245054Y-80308498D01*
X-31232109Y-80303787D01*
X-31085627Y-80207445D01*
X-30965312Y-80079918D01*
X-30892551Y-79953893D01*
X-30237801Y-80608644D01*
X-30231993Y-80601843D01*
X-30096294Y-80380402D01*
X-29996903Y-80140455D01*
X-29936275Y-79887916D01*
X-29915898Y-79629000D01*
X-29936275Y-79370083D01*
X-29996903Y-79117544D01*
X-30096294Y-78877597D01*
X-30231992Y-78656156D01*
X-30237801Y-78649354D01*
X-30893804Y-79305356D01*
X-30917059Y-79251447D01*
X-31021756Y-79110815D01*
X-31156062Y-78998118D01*
X-31247665Y-78952112D01*
X-30591354Y-78295801D01*
X-30598156Y-78289992D01*
X-30819597Y-78154294D01*
X-31059544Y-78054903D01*
X-31312083Y-77994275D01*
X-31571000Y-77973898D01*
X-31829916Y-77994275D01*
X-32082455Y-78054903D01*
X-32322402Y-78154294D01*
X-32543843Y-78289993D01*
X-32550645Y-78295801D01*
X-31896945Y-78949501D01*
X-31909891Y-78954213D01*
X-32056373Y-79050555D01*
X-32176688Y-79178082D01*
X-32249447Y-79304105D01*
X-32904198Y-78649354D01*
X-32910006Y-78656155D01*
X-33045705Y-78877597D01*
X-33129651Y-79080259D01*
X-33173492Y-79134662D01*
X-33239786Y-79156727D01*
X-33307485Y-79139448D01*
X-33331893Y-79120487D01*
X-34689546Y-77762835D01*
X-34723031Y-77701512D01*
X-34718047Y-77631820D01*
X-34676175Y-77575887D01*
X-34642128Y-77557873D01*
X-34521273Y-77516383D01*
X-34435497Y-77486936D01*
X-34231374Y-77376470D01*
X-34048216Y-77233913D01*
X-33891021Y-77063153D01*
X-33764076Y-76868849D01*
X-33734828Y-76802170D01*
X-33670844Y-76656303D01*
X-33670843Y-76656300D01*
X-33613866Y-76431305D01*
X-33613865Y-76431301D01*
X-33613865Y-76431299D01*
X-33594699Y-76200000D01*
X-17355300Y-76200000D01*
X-17336134Y-76431305D01*
X-17279157Y-76656300D01*
X-17185924Y-76868849D01*
X-17058979Y-77063153D01*
X-16901784Y-77233913D01*
X-16718626Y-77376470D01*
X-16514503Y-77486936D01*
X-16294981Y-77562298D01*
X-16066049Y-77600500D01*
X-16066048Y-77600500D01*
X-15833952Y-77600500D01*
X-15833951Y-77600500D01*
X-15605019Y-77562298D01*
X-15605017Y-77562297D01*
X-15605015Y-77562297D01*
X-15471273Y-77516383D01*
X-15385497Y-77486936D01*
X-15181374Y-77376470D01*
X-14998216Y-77233913D01*
X-14841021Y-77063153D01*
X-14714076Y-76868849D01*
X-14684828Y-76802170D01*
X-14620844Y-76656303D01*
X-14620843Y-76656300D01*
X-14563866Y-76431305D01*
X-14563865Y-76431301D01*
X-14563865Y-76431299D01*
X-14544699Y-76200000D01*
X14723699Y-76200000D01*
X14742865Y-76431299D01*
X14742865Y-76431301D01*
X14742866Y-76431305D01*
X14799843Y-76656300D01*
X14799844Y-76656303D01*
X14863828Y-76802170D01*
X14893076Y-76868849D01*
X15020021Y-77063153D01*
X15177216Y-77233913D01*
X15360374Y-77376470D01*
X15564497Y-77486936D01*
X15650273Y-77516383D01*
X15784015Y-77562297D01*
X15784017Y-77562297D01*
X15784019Y-77562298D01*
X16012951Y-77600500D01*
X16012952Y-77600500D01*
X16245048Y-77600500D01*
X16245049Y-77600500D01*
X16473981Y-77562298D01*
X16693503Y-77486936D01*
X16897626Y-77376470D01*
X17080784Y-77233913D01*
X17237979Y-77063153D01*
X17364924Y-76868849D01*
X17458157Y-76656300D01*
X17515134Y-76431305D01*
X17531814Y-76230000D01*
X33773699Y-76230000D01*
X33792865Y-76461299D01*
X33792865Y-76461301D01*
X33792866Y-76461305D01*
X33842246Y-76656300D01*
X33849844Y-76686303D01*
X33929917Y-76868849D01*
X33943076Y-76898849D01*
X34070021Y-77093153D01*
X34227216Y-77263913D01*
X34410374Y-77406470D01*
X34614497Y-77516936D01*
X34688036Y-77542182D01*
X34834015Y-77592297D01*
X34834017Y-77592297D01*
X34834019Y-77592298D01*
X35062951Y-77630500D01*
X35062952Y-77630500D01*
X35295048Y-77630500D01*
X35295049Y-77630500D01*
X35523981Y-77592298D01*
X35743503Y-77516936D01*
X35947626Y-77406470D01*
X36130784Y-77263913D01*
X36287979Y-77093153D01*
X36414924Y-76898849D01*
X36508157Y-76686300D01*
X36565134Y-76461305D01*
X36584300Y-76230000D01*
X36565134Y-75998695D01*
X36508157Y-75773700D01*
X36414924Y-75561151D01*
X36287979Y-75366847D01*
X36130784Y-75196087D01*
X35947626Y-75053530D01*
X35743503Y-74943064D01*
X35743499Y-74943062D01*
X35743498Y-74943062D01*
X35523984Y-74867702D01*
X35344201Y-74837702D01*
X35295049Y-74829500D01*
X35062951Y-74829500D01*
X35017164Y-74837140D01*
X34834015Y-74867702D01*
X34614501Y-74943062D01*
X34410372Y-75053531D01*
X34227215Y-75196087D01*
X34070020Y-75366848D01*
X33943076Y-75561150D01*
X33849844Y-75773696D01*
X33849842Y-75773700D01*
X33849843Y-75773700D01*
X33797982Y-75978495D01*
X33792865Y-75998700D01*
X33773699Y-76230000D01*
X17531814Y-76230000D01*
X17534300Y-76200000D01*
X17515134Y-75968695D01*
X17458157Y-75743700D01*
X17364924Y-75531151D01*
X17237979Y-75336847D01*
X17080784Y-75166087D01*
X16897626Y-75023530D01*
X16693503Y-74913064D01*
X16693499Y-74913062D01*
X16693498Y-74913062D01*
X16473984Y-74837702D01*
X16302281Y-74809050D01*
X16245049Y-74799500D01*
X16012951Y-74799500D01*
X15967164Y-74807140D01*
X15784015Y-74837702D01*
X15564501Y-74913062D01*
X15360372Y-75023531D01*
X15177215Y-75166087D01*
X15020020Y-75336848D01*
X14893076Y-75531150D01*
X14799844Y-75743696D01*
X14742865Y-75968700D01*
X14723699Y-76200000D01*
X-14544699Y-76200000D01*
X-14563865Y-75968700D01*
X-14620844Y-75743696D01*
X-14714076Y-75531150D01*
X-14841020Y-75336848D01*
X-14998215Y-75166087D01*
X-15181372Y-75023531D01*
X-15385501Y-74913062D01*
X-15605015Y-74837702D01*
X-15788164Y-74807140D01*
X-15833951Y-74799500D01*
X-16066049Y-74799500D01*
X-16123281Y-74809050D01*
X-16294984Y-74837702D01*
X-16514498Y-74913062D01*
X-16514499Y-74913062D01*
X-16514503Y-74913064D01*
X-16718626Y-75023530D01*
X-16901784Y-75166087D01*
X-17058979Y-75336847D01*
X-17185924Y-75531151D01*
X-17279157Y-75743700D01*
X-17336134Y-75968695D01*
X-17355300Y-76200000D01*
X-33594699Y-76200000D01*
X-33613865Y-75968700D01*
X-33670844Y-75743696D01*
X-33764076Y-75531150D01*
X-33891020Y-75336848D01*
X-34048215Y-75166087D01*
X-34231372Y-75023531D01*
X-34246847Y-75015156D01*
X-34371019Y-74947957D01*
X-34420608Y-74898739D01*
X-34436000Y-74838904D01*
X-34436000Y-72770999D01*
X-33226101Y-72770999D01*
X-33205724Y-73029916D01*
X-33145096Y-73282455D01*
X-33045707Y-73522397D01*
X-32910003Y-73743849D01*
X-32904198Y-73750645D01*
X-32248195Y-73094643D01*
X-32224941Y-73148553D01*
X-32120244Y-73289185D01*
X-31985938Y-73401882D01*
X-31894334Y-73447887D01*
X-32550645Y-74104198D01*
X-32543849Y-74110003D01*
X-32322397Y-74245707D01*
X-32082455Y-74345096D01*
X-31829916Y-74405724D01*
X-31571000Y-74426101D01*
X-31312083Y-74405724D01*
X-31059544Y-74345096D01*
X-30819597Y-74245705D01*
X-30598155Y-74110006D01*
X-30591354Y-74104198D01*
X-31245054Y-73450498D01*
X-31232109Y-73445787D01*
X-31085627Y-73349445D01*
X-30965312Y-73221918D01*
X-30892552Y-73095893D01*
X-30237801Y-73750644D01*
X-30231993Y-73743843D01*
X-30096294Y-73522402D01*
X-29996903Y-73282455D01*
X-29936275Y-73029916D01*
X-29915898Y-72771000D01*
X-21034101Y-72771000D01*
X-21013724Y-73029916D01*
X-20953096Y-73282455D01*
X-20853707Y-73522397D01*
X-20718003Y-73743849D01*
X-20712198Y-73750645D01*
X-20056195Y-73094642D01*
X-20032941Y-73148553D01*
X-19928244Y-73289185D01*
X-19793938Y-73401882D01*
X-19702334Y-73447887D01*
X-20358645Y-74104198D01*
X-20351849Y-74110003D01*
X-20130397Y-74245707D01*
X-19890455Y-74345096D01*
X-19637916Y-74405724D01*
X-19379000Y-74426101D01*
X-19120083Y-74405724D01*
X-18867544Y-74345096D01*
X-18627597Y-74245705D01*
X-18406155Y-74110006D01*
X-18399354Y-74104198D01*
X-19053054Y-73450498D01*
X-19040109Y-73445787D01*
X-18893627Y-73349445D01*
X-18773312Y-73221918D01*
X-18700552Y-73095893D01*
X-18045801Y-73750644D01*
X-18039993Y-73743843D01*
X-17904294Y-73522402D01*
X-17804903Y-73282455D01*
X-17744275Y-73029916D01*
X-17723898Y-72771000D01*
X-14176101Y-72771000D01*
X-14155724Y-73029916D01*
X-14095096Y-73282455D01*
X-13995707Y-73522397D01*
X-13860003Y-73743849D01*
X-13854198Y-73750645D01*
X-13198195Y-73094642D01*
X-13174941Y-73148553D01*
X-13070244Y-73289185D01*
X-12935938Y-73401882D01*
X-12844334Y-73447887D01*
X-13500645Y-74104198D01*
X-13493849Y-74110003D01*
X-13272397Y-74245707D01*
X-13032455Y-74345096D01*
X-12779916Y-74405724D01*
X-12521000Y-74426101D01*
X-12262083Y-74405724D01*
X-12009544Y-74345096D01*
X-11769597Y-74245705D01*
X-11548155Y-74110006D01*
X-11541354Y-74104198D01*
X-12195054Y-73450498D01*
X-12182109Y-73445787D01*
X-12035627Y-73349445D01*
X-11915312Y-73221918D01*
X-11842552Y-73095893D01*
X-11187801Y-73750644D01*
X-11181993Y-73743843D01*
X-11046294Y-73522402D01*
X-10946903Y-73282455D01*
X-10886275Y-73029916D01*
X-10865898Y-72771000D01*
X11044898Y-72771000D01*
X11065275Y-73029916D01*
X11125903Y-73282455D01*
X11225294Y-73522402D01*
X11360993Y-73743843D01*
X11366801Y-73750644D01*
X12022803Y-73094641D01*
X12046059Y-73148553D01*
X12150756Y-73289185D01*
X12285062Y-73401882D01*
X12376665Y-73447887D01*
X11720354Y-74104198D01*
X11727155Y-74110006D01*
X11948597Y-74245705D01*
X12188544Y-74345096D01*
X12441083Y-74405724D01*
X12700000Y-74426101D01*
X12958916Y-74405724D01*
X13211455Y-74345096D01*
X13451397Y-74245707D01*
X13672849Y-74110003D01*
X13679645Y-74104198D01*
X13025945Y-73450498D01*
X13038891Y-73445787D01*
X13185373Y-73349445D01*
X13305688Y-73221918D01*
X13378447Y-73095894D01*
X14033198Y-73750645D01*
X14039003Y-73743849D01*
X14174707Y-73522397D01*
X14274096Y-73282455D01*
X14334724Y-73029916D01*
X14355101Y-72771000D01*
X17902898Y-72771000D01*
X17923275Y-73029916D01*
X17983903Y-73282455D01*
X18083294Y-73522402D01*
X18218993Y-73743843D01*
X18224801Y-73750644D01*
X18880803Y-73094641D01*
X18904059Y-73148553D01*
X19008756Y-73289185D01*
X19143062Y-73401882D01*
X19234665Y-73447887D01*
X18578354Y-74104198D01*
X18585155Y-74110006D01*
X18806597Y-74245705D01*
X19046544Y-74345096D01*
X19299083Y-74405724D01*
X19558000Y-74426101D01*
X19816916Y-74405724D01*
X20069455Y-74345096D01*
X20309397Y-74245707D01*
X20530849Y-74110003D01*
X20537645Y-74104198D01*
X19883945Y-73450498D01*
X19896891Y-73445787D01*
X20043373Y-73349445D01*
X20163688Y-73221918D01*
X20236447Y-73095894D01*
X20891198Y-73750645D01*
X20897003Y-73743849D01*
X21032707Y-73522397D01*
X21132096Y-73282455D01*
X21192724Y-73029916D01*
X21210740Y-72800999D01*
X30094898Y-72800999D01*
X30115275Y-73059916D01*
X30175903Y-73312455D01*
X30275294Y-73552402D01*
X30410993Y-73773843D01*
X30416801Y-73780644D01*
X31072803Y-73124641D01*
X31096059Y-73178553D01*
X31200756Y-73319185D01*
X31335062Y-73431882D01*
X31426665Y-73477887D01*
X30770354Y-74134198D01*
X30777155Y-74140006D01*
X30998597Y-74275705D01*
X31238544Y-74375096D01*
X31491083Y-74435724D01*
X31750000Y-74456101D01*
X32008916Y-74435724D01*
X32261455Y-74375096D01*
X32501397Y-74275707D01*
X32722849Y-74140003D01*
X32729645Y-74134198D01*
X32075945Y-73480498D01*
X32088891Y-73475787D01*
X32235373Y-73379445D01*
X32355688Y-73251918D01*
X32428447Y-73125894D01*
X33083198Y-73780645D01*
X33089003Y-73773849D01*
X33224707Y-73552397D01*
X33324096Y-73312455D01*
X33384724Y-73059916D01*
X33405101Y-72801000D01*
X36952898Y-72801000D01*
X36973275Y-73059916D01*
X37033903Y-73312455D01*
X37133294Y-73552402D01*
X37268993Y-73773843D01*
X37274801Y-73780644D01*
X37930804Y-73124642D01*
X37954059Y-73178553D01*
X38058756Y-73319185D01*
X38193062Y-73431882D01*
X38284665Y-73477887D01*
X37628354Y-74134198D01*
X37635155Y-74140006D01*
X37856597Y-74275705D01*
X38096544Y-74375096D01*
X38349083Y-74435724D01*
X38608000Y-74456101D01*
X38866916Y-74435724D01*
X39119455Y-74375096D01*
X39359397Y-74275707D01*
X39580849Y-74140003D01*
X39587645Y-74134198D01*
X38933945Y-73480498D01*
X38946891Y-73475787D01*
X39093373Y-73379445D01*
X39213688Y-73251918D01*
X39286447Y-73125894D01*
X39941198Y-73780645D01*
X39947003Y-73773849D01*
X40082707Y-73552397D01*
X40182096Y-73312455D01*
X40242724Y-73059916D01*
X40263101Y-72800999D01*
X40242724Y-72542083D01*
X40182096Y-72289544D01*
X40082705Y-72049597D01*
X39947006Y-71828155D01*
X39941198Y-71821354D01*
X39285195Y-72477356D01*
X39261941Y-72423447D01*
X39157244Y-72282815D01*
X39022938Y-72170118D01*
X38931334Y-72124112D01*
X39587645Y-71467801D01*
X39580843Y-71461993D01*
X39359402Y-71326294D01*
X39119455Y-71226903D01*
X38866916Y-71166275D01*
X38608000Y-71145898D01*
X38349083Y-71166275D01*
X38096544Y-71226903D01*
X37856597Y-71326294D01*
X37635156Y-71461992D01*
X37628354Y-71467801D01*
X38282054Y-72121501D01*
X38269109Y-72126213D01*
X38122627Y-72222555D01*
X38002312Y-72350082D01*
X37929552Y-72476105D01*
X37274801Y-71821354D01*
X37268992Y-71828156D01*
X37133294Y-72049597D01*
X37033903Y-72289544D01*
X36973275Y-72542083D01*
X36952898Y-72801000D01*
X33405101Y-72801000D01*
X33384724Y-72542083D01*
X33324096Y-72289544D01*
X33224705Y-72049597D01*
X33089006Y-71828155D01*
X33083198Y-71821354D01*
X32427195Y-72477356D01*
X32403941Y-72423447D01*
X32299244Y-72282815D01*
X32164938Y-72170118D01*
X32073334Y-72124112D01*
X32729645Y-71467801D01*
X32722843Y-71461993D01*
X32501402Y-71326294D01*
X32261455Y-71226903D01*
X32008916Y-71166275D01*
X31750000Y-71145898D01*
X31491083Y-71166275D01*
X31238544Y-71226903D01*
X30998597Y-71326294D01*
X30777156Y-71461992D01*
X30770354Y-71467801D01*
X31424054Y-72121501D01*
X31411109Y-72126213D01*
X31264627Y-72222555D01*
X31144312Y-72350082D01*
X31071552Y-72476105D01*
X30416801Y-71821354D01*
X30410992Y-71828156D01*
X30275294Y-72049597D01*
X30175903Y-72289544D01*
X30115275Y-72542083D01*
X30094898Y-72800999D01*
X21210740Y-72800999D01*
X21213101Y-72770999D01*
X21192724Y-72512083D01*
X21132096Y-72259544D01*
X21032705Y-72019597D01*
X20897006Y-71798155D01*
X20891198Y-71791354D01*
X20891197Y-71791354D01*
X20235195Y-72447356D01*
X20211941Y-72393447D01*
X20107244Y-72252815D01*
X19972938Y-72140118D01*
X19881333Y-72094112D01*
X20537644Y-71437801D01*
X20530843Y-71431993D01*
X20309402Y-71296294D01*
X20069455Y-71196903D01*
X19816916Y-71136275D01*
X19558000Y-71115898D01*
X19299083Y-71136275D01*
X19046544Y-71196903D01*
X18806597Y-71296294D01*
X18585156Y-71431992D01*
X18578354Y-71437801D01*
X19232053Y-72091501D01*
X19219109Y-72096213D01*
X19072627Y-72192555D01*
X18952312Y-72320082D01*
X18879552Y-72446105D01*
X18224801Y-71791354D01*
X18218992Y-71798156D01*
X18083294Y-72019597D01*
X17983903Y-72259544D01*
X17923275Y-72512083D01*
X17902898Y-72771000D01*
X14355101Y-72771000D01*
X14334724Y-72512083D01*
X14274096Y-72259544D01*
X14174705Y-72019597D01*
X14039006Y-71798155D01*
X14033198Y-71791354D01*
X13377195Y-72447356D01*
X13353941Y-72393447D01*
X13249244Y-72252815D01*
X13114938Y-72140118D01*
X13023333Y-72094112D01*
X13679645Y-71437801D01*
X13672843Y-71431993D01*
X13451402Y-71296294D01*
X13211455Y-71196903D01*
X12958916Y-71136275D01*
X12700000Y-71115898D01*
X12441083Y-71136275D01*
X12188544Y-71196903D01*
X11948597Y-71296294D01*
X11727156Y-71431992D01*
X11720353Y-71437801D01*
X12374053Y-72091501D01*
X12361109Y-72096213D01*
X12214627Y-72192555D01*
X12094312Y-72320082D01*
X12021552Y-72446105D01*
X11366801Y-71791354D01*
X11360992Y-71798156D01*
X11225294Y-72019597D01*
X11125903Y-72259544D01*
X11065275Y-72512083D01*
X11044898Y-72771000D01*
X-10865898Y-72771000D01*
X-10886275Y-72512083D01*
X-10946903Y-72259544D01*
X-11046294Y-72019597D01*
X-11181992Y-71798156D01*
X-11187801Y-71791354D01*
X-11843804Y-72447357D01*
X-11867059Y-72393447D01*
X-11971756Y-72252815D01*
X-12106062Y-72140118D01*
X-12197665Y-72094112D01*
X-11541354Y-71437801D01*
X-11548156Y-71431992D01*
X-11769597Y-71296294D01*
X-12009544Y-71196903D01*
X-12262083Y-71136275D01*
X-12521000Y-71115898D01*
X-12779916Y-71136275D01*
X-13032455Y-71196903D01*
X-13272402Y-71296294D01*
X-13493843Y-71431993D01*
X-13500645Y-71437801D01*
X-12846945Y-72091501D01*
X-12859891Y-72096213D01*
X-13006373Y-72192555D01*
X-13126688Y-72320082D01*
X-13199446Y-72446105D01*
X-13854198Y-71791354D01*
X-13860006Y-71798155D01*
X-13995705Y-72019597D01*
X-14095096Y-72259544D01*
X-14155724Y-72512083D01*
X-14176101Y-72771000D01*
X-17723898Y-72771000D01*
X-17744275Y-72512083D01*
X-17804903Y-72259544D01*
X-17904294Y-72019597D01*
X-18039992Y-71798156D01*
X-18045801Y-71791354D01*
X-18701804Y-72447357D01*
X-18725059Y-72393447D01*
X-18829756Y-72252815D01*
X-18964062Y-72140118D01*
X-19055665Y-72094112D01*
X-18399354Y-71437801D01*
X-18406156Y-71431992D01*
X-18627597Y-71296294D01*
X-18867544Y-71196903D01*
X-19120083Y-71136275D01*
X-19379000Y-71115898D01*
X-19637916Y-71136275D01*
X-19890455Y-71196903D01*
X-20130402Y-71296294D01*
X-20351843Y-71431993D01*
X-20358645Y-71437801D01*
X-19704945Y-72091501D01*
X-19717891Y-72096213D01*
X-19864373Y-72192555D01*
X-19984688Y-72320082D01*
X-20057446Y-72446105D01*
X-20712198Y-71791354D01*
X-20718006Y-71798155D01*
X-20853705Y-72019597D01*
X-20953096Y-72259544D01*
X-21013724Y-72512083D01*
X-21034101Y-72771000D01*
X-29915898Y-72771000D01*
X-29936275Y-72512083D01*
X-29996903Y-72259544D01*
X-30096294Y-72019597D01*
X-30231992Y-71798156D01*
X-30237801Y-71791354D01*
X-30893804Y-72447357D01*
X-30917059Y-72393447D01*
X-31021756Y-72252815D01*
X-31156062Y-72140118D01*
X-31247664Y-72094113D01*
X-30591353Y-71437801D01*
X-30598156Y-71431992D01*
X-30819597Y-71296294D01*
X-31059544Y-71196903D01*
X-31312083Y-71136275D01*
X-31571000Y-71115898D01*
X-31829916Y-71136275D01*
X-32082455Y-71196903D01*
X-32322402Y-71296294D01*
X-32543843Y-71431993D01*
X-32550645Y-71437801D01*
X-31896944Y-72091501D01*
X-31909891Y-72096213D01*
X-32056373Y-72192555D01*
X-32176688Y-72320082D01*
X-32249446Y-72446104D01*
X-32904197Y-71791354D01*
X-32904198Y-71791354D01*
X-32910006Y-71798155D01*
X-33045705Y-72019597D01*
X-33145096Y-72259544D01*
X-33205724Y-72512083D01*
X-33226101Y-72770999D01*
X-34436000Y-72770999D01*
X-34436000Y-54228999D01*
X-33226101Y-54228999D01*
X-33205724Y-54487916D01*
X-33145096Y-54740455D01*
X-33045707Y-54980397D01*
X-32910003Y-55201849D01*
X-32904198Y-55208645D01*
X-32248195Y-54552643D01*
X-32224941Y-54606553D01*
X-32120244Y-54747185D01*
X-31985938Y-54859882D01*
X-31894334Y-54905887D01*
X-32550645Y-55562198D01*
X-32543849Y-55568003D01*
X-32322397Y-55703707D01*
X-32082455Y-55803096D01*
X-31829916Y-55863724D01*
X-31571000Y-55884101D01*
X-31312083Y-55863724D01*
X-31059544Y-55803096D01*
X-30819597Y-55703705D01*
X-30598155Y-55568006D01*
X-30591354Y-55562198D01*
X-31245054Y-54908498D01*
X-31232109Y-54903787D01*
X-31085627Y-54807445D01*
X-30965312Y-54679918D01*
X-30892552Y-54553893D01*
X-30237801Y-55208644D01*
X-30231993Y-55201843D01*
X-30096294Y-54980402D01*
X-29996903Y-54740455D01*
X-29936275Y-54487916D01*
X-29915898Y-54228999D01*
X-21034101Y-54228999D01*
X-21013724Y-54487916D01*
X-20953096Y-54740455D01*
X-20853707Y-54980397D01*
X-20718003Y-55201849D01*
X-20712198Y-55208645D01*
X-20056195Y-54552642D01*
X-20032941Y-54606553D01*
X-19928244Y-54747185D01*
X-19793938Y-54859882D01*
X-19702334Y-54905887D01*
X-20358645Y-55562198D01*
X-20351849Y-55568003D01*
X-20130397Y-55703707D01*
X-19890455Y-55803096D01*
X-19637916Y-55863724D01*
X-19379000Y-55884101D01*
X-19120083Y-55863724D01*
X-18867544Y-55803096D01*
X-18627597Y-55703705D01*
X-18406155Y-55568006D01*
X-18399354Y-55562198D01*
X-19053054Y-54908498D01*
X-19040109Y-54903787D01*
X-18893627Y-54807445D01*
X-18773312Y-54679918D01*
X-18700552Y-54553893D01*
X-18045801Y-55208644D01*
X-18039993Y-55201843D01*
X-17904294Y-54980402D01*
X-17804903Y-54740455D01*
X-17744275Y-54487916D01*
X-17723898Y-54229000D01*
X-14176101Y-54229000D01*
X-14155724Y-54487916D01*
X-14095096Y-54740455D01*
X-13995707Y-54980397D01*
X-13860003Y-55201849D01*
X-13854198Y-55208645D01*
X-13198195Y-54552642D01*
X-13174941Y-54606553D01*
X-13070244Y-54747185D01*
X-12935938Y-54859882D01*
X-12844334Y-54905887D01*
X-13500645Y-55562198D01*
X-13493849Y-55568003D01*
X-13272397Y-55703707D01*
X-13032455Y-55803096D01*
X-12779916Y-55863724D01*
X-12521000Y-55884101D01*
X-12262083Y-55863724D01*
X-12009544Y-55803096D01*
X-11769597Y-55703705D01*
X-11548155Y-55568006D01*
X-11541354Y-55562198D01*
X-12195054Y-54908498D01*
X-12182109Y-54903787D01*
X-12035627Y-54807445D01*
X-11915312Y-54679918D01*
X-11842552Y-54553893D01*
X-11187801Y-55208644D01*
X-11181993Y-55201843D01*
X-11046294Y-54980402D01*
X-10946903Y-54740455D01*
X-10886275Y-54487916D01*
X-10865898Y-54228999D01*
X11044898Y-54228999D01*
X11065275Y-54487916D01*
X11125903Y-54740455D01*
X11225294Y-54980402D01*
X11360993Y-55201843D01*
X11366801Y-55208644D01*
X12022803Y-54552641D01*
X12046059Y-54606553D01*
X12150756Y-54747185D01*
X12285062Y-54859882D01*
X12376665Y-54905887D01*
X11720354Y-55562198D01*
X11727155Y-55568006D01*
X11948597Y-55703705D01*
X12188544Y-55803096D01*
X12441083Y-55863724D01*
X12700000Y-55884101D01*
X12958916Y-55863724D01*
X13211455Y-55803096D01*
X13451397Y-55703707D01*
X13672849Y-55568003D01*
X13679645Y-55562198D01*
X13025945Y-54908498D01*
X13038891Y-54903787D01*
X13185373Y-54807445D01*
X13305688Y-54679918D01*
X13378447Y-54553894D01*
X14033198Y-55208645D01*
X14039003Y-55201849D01*
X14174707Y-54980397D01*
X14274096Y-54740455D01*
X14334724Y-54487916D01*
X14355101Y-54228999D01*
X17902898Y-54228999D01*
X17923275Y-54487916D01*
X17983903Y-54740455D01*
X18083294Y-54980402D01*
X18218993Y-55201843D01*
X18224801Y-55208644D01*
X18880804Y-54552642D01*
X18904059Y-54606553D01*
X19008756Y-54747185D01*
X19143062Y-54859882D01*
X19234665Y-54905887D01*
X18578354Y-55562198D01*
X18585155Y-55568006D01*
X18806597Y-55703705D01*
X19046544Y-55803096D01*
X19299083Y-55863724D01*
X19558000Y-55884101D01*
X19816916Y-55863724D01*
X20069455Y-55803096D01*
X20309397Y-55703707D01*
X20530849Y-55568003D01*
X20537645Y-55562198D01*
X19883945Y-54908498D01*
X19896891Y-54903787D01*
X20043373Y-54807445D01*
X20163688Y-54679918D01*
X20236447Y-54553894D01*
X20891198Y-55208645D01*
X20897003Y-55201849D01*
X21032707Y-54980397D01*
X21132096Y-54740455D01*
X21192724Y-54487916D01*
X21213101Y-54229000D01*
X30094898Y-54229000D01*
X30115275Y-54487916D01*
X30175903Y-54740455D01*
X30275294Y-54980402D01*
X30410993Y-55201843D01*
X30416801Y-55208644D01*
X31072804Y-54552642D01*
X31096059Y-54606553D01*
X31200756Y-54747185D01*
X31335062Y-54859882D01*
X31426665Y-54905886D01*
X30770353Y-55562198D01*
X30777155Y-55568006D01*
X30998597Y-55703705D01*
X31238544Y-55803096D01*
X31491083Y-55863724D01*
X31750000Y-55884101D01*
X32008916Y-55863724D01*
X32261455Y-55803096D01*
X32501397Y-55703707D01*
X32722849Y-55568003D01*
X32729645Y-55562198D01*
X32075945Y-54908498D01*
X32088891Y-54903787D01*
X32235373Y-54807445D01*
X32355688Y-54679918D01*
X32428447Y-54553894D01*
X33083198Y-55208645D01*
X33089003Y-55201849D01*
X33224707Y-54980397D01*
X33324096Y-54740455D01*
X33384724Y-54487916D01*
X33405101Y-54228999D01*
X36952898Y-54228999D01*
X36973275Y-54487916D01*
X37033903Y-54740455D01*
X37133294Y-54980402D01*
X37268993Y-55201843D01*
X37274801Y-55208644D01*
X37930803Y-54552641D01*
X37954059Y-54606553D01*
X38058756Y-54747185D01*
X38193062Y-54859882D01*
X38284665Y-54905886D01*
X37628353Y-55562198D01*
X37635155Y-55568006D01*
X37856597Y-55703705D01*
X38096544Y-55803096D01*
X38349083Y-55863724D01*
X38608000Y-55884101D01*
X38866916Y-55863724D01*
X39119455Y-55803096D01*
X39359397Y-55703707D01*
X39580849Y-55568003D01*
X39587645Y-55562198D01*
X38933945Y-54908498D01*
X38946891Y-54903787D01*
X39093373Y-54807445D01*
X39213688Y-54679918D01*
X39286447Y-54553894D01*
X39941198Y-55208645D01*
X39947003Y-55201849D01*
X40082707Y-54980397D01*
X40182096Y-54740455D01*
X40242724Y-54487916D01*
X40263101Y-54229000D01*
X40242724Y-53970083D01*
X40182096Y-53717544D01*
X40082705Y-53477597D01*
X39947006Y-53256155D01*
X39941198Y-53249354D01*
X39941197Y-53249354D01*
X39285195Y-53905355D01*
X39261941Y-53851447D01*
X39157244Y-53710815D01*
X39022938Y-53598118D01*
X38931332Y-53552112D01*
X39587644Y-52895801D01*
X39580843Y-52889993D01*
X39359402Y-52754294D01*
X39119455Y-52654903D01*
X38866916Y-52594275D01*
X38608000Y-52573898D01*
X38349083Y-52594275D01*
X38096544Y-52654903D01*
X37856597Y-52754294D01*
X37635156Y-52889992D01*
X37628354Y-52895801D01*
X38282054Y-53549501D01*
X38269109Y-53554213D01*
X38122627Y-53650555D01*
X38002312Y-53778082D01*
X37929552Y-53904105D01*
X37274801Y-53249354D01*
X37268992Y-53256156D01*
X37133294Y-53477597D01*
X37033903Y-53717544D01*
X36973275Y-53970083D01*
X36952898Y-54228999D01*
X33405101Y-54228999D01*
X33384724Y-53970083D01*
X33324096Y-53717544D01*
X33224705Y-53477597D01*
X33089006Y-53256155D01*
X33083198Y-53249354D01*
X33083197Y-53249354D01*
X32427194Y-53905354D01*
X32403941Y-53851447D01*
X32299244Y-53710815D01*
X32164938Y-53598118D01*
X32073334Y-53552112D01*
X32729644Y-52895801D01*
X32722843Y-52889993D01*
X32501402Y-52754294D01*
X32261455Y-52654903D01*
X32008916Y-52594275D01*
X31749999Y-52573898D01*
X31491083Y-52594275D01*
X31238544Y-52654903D01*
X30998597Y-52754294D01*
X30777156Y-52889992D01*
X30770354Y-52895801D01*
X31424054Y-53549501D01*
X31411109Y-53554213D01*
X31264627Y-53650555D01*
X31144312Y-53778082D01*
X31071552Y-53904105D01*
X30416801Y-53249354D01*
X30410992Y-53256156D01*
X30275294Y-53477597D01*
X30175903Y-53717544D01*
X30115275Y-53970083D01*
X30094898Y-54229000D01*
X21213101Y-54229000D01*
X21192724Y-53970083D01*
X21132096Y-53717544D01*
X21032705Y-53477597D01*
X20897006Y-53256155D01*
X20891198Y-53249354D01*
X20235195Y-53905356D01*
X20211941Y-53851447D01*
X20107244Y-53710815D01*
X19972938Y-53598118D01*
X19881334Y-53552112D01*
X20537645Y-52895801D01*
X20530843Y-52889993D01*
X20309402Y-52754294D01*
X20069455Y-52654903D01*
X19816916Y-52594275D01*
X19557999Y-52573898D01*
X19299083Y-52594275D01*
X19046544Y-52654903D01*
X18806597Y-52754294D01*
X18585156Y-52889992D01*
X18578354Y-52895801D01*
X19232054Y-53549501D01*
X19219109Y-53554213D01*
X19072627Y-53650555D01*
X18952312Y-53778082D01*
X18879552Y-53904105D01*
X18224801Y-53249354D01*
X18218992Y-53256156D01*
X18083294Y-53477597D01*
X17983903Y-53717544D01*
X17923275Y-53970083D01*
X17902898Y-54228999D01*
X14355101Y-54228999D01*
X14334724Y-53970083D01*
X14274096Y-53717544D01*
X14174705Y-53477597D01*
X14039006Y-53256155D01*
X14033198Y-53249354D01*
X13377195Y-53905356D01*
X13353941Y-53851447D01*
X13249244Y-53710815D01*
X13114938Y-53598118D01*
X13023333Y-53552112D01*
X13679645Y-52895801D01*
X13672843Y-52889993D01*
X13451402Y-52754294D01*
X13211455Y-52654903D01*
X12958916Y-52594275D01*
X12699999Y-52573898D01*
X12441083Y-52594275D01*
X12188544Y-52654903D01*
X11948597Y-52754294D01*
X11727156Y-52889992D01*
X11720353Y-52895801D01*
X12374053Y-53549501D01*
X12361109Y-53554213D01*
X12214627Y-53650555D01*
X12094312Y-53778082D01*
X12021553Y-53904104D01*
X11366801Y-53249354D01*
X11360992Y-53256156D01*
X11225294Y-53477597D01*
X11125903Y-53717544D01*
X11065275Y-53970083D01*
X11044898Y-54228999D01*
X-10865898Y-54228999D01*
X-10886275Y-53970083D01*
X-10946903Y-53717544D01*
X-11046294Y-53477597D01*
X-11181992Y-53256156D01*
X-11187801Y-53249354D01*
X-11843804Y-53905356D01*
X-11867059Y-53851447D01*
X-11971756Y-53710815D01*
X-12106062Y-53598118D01*
X-12197664Y-53552113D01*
X-11541354Y-52895801D01*
X-11548156Y-52889992D01*
X-11769597Y-52754294D01*
X-12009544Y-52654903D01*
X-12262083Y-52594275D01*
X-12520999Y-52573898D01*
X-12779916Y-52594275D01*
X-13032455Y-52654903D01*
X-13272402Y-52754294D01*
X-13493843Y-52889993D01*
X-13500645Y-52895801D01*
X-12846944Y-53549501D01*
X-12859891Y-53554213D01*
X-13006373Y-53650555D01*
X-13126688Y-53778082D01*
X-13199446Y-53904104D01*
X-13854198Y-53249354D01*
X-13860006Y-53256155D01*
X-13995705Y-53477597D01*
X-14095096Y-53717544D01*
X-14155724Y-53970083D01*
X-14176101Y-54229000D01*
X-17723898Y-54229000D01*
X-17744275Y-53970083D01*
X-17804903Y-53717544D01*
X-17904294Y-53477597D01*
X-18039992Y-53256156D01*
X-18045801Y-53249354D01*
X-18701804Y-53905357D01*
X-18725059Y-53851447D01*
X-18829756Y-53710815D01*
X-18964062Y-53598118D01*
X-19055665Y-53552112D01*
X-18399354Y-52895801D01*
X-18406156Y-52889992D01*
X-18627597Y-52754294D01*
X-18867544Y-52654903D01*
X-19120083Y-52594275D01*
X-19379000Y-52573898D01*
X-19637916Y-52594275D01*
X-19890455Y-52654903D01*
X-20130402Y-52754294D01*
X-20351843Y-52889993D01*
X-20358645Y-52895801D01*
X-19704945Y-53549501D01*
X-19717891Y-53554213D01*
X-19864373Y-53650555D01*
X-19984688Y-53778082D01*
X-20057446Y-53904105D01*
X-20712198Y-53249354D01*
X-20718006Y-53256155D01*
X-20853705Y-53477597D01*
X-20953096Y-53717544D01*
X-21013724Y-53970083D01*
X-21034101Y-54228999D01*
X-29915898Y-54228999D01*
X-29936275Y-53970083D01*
X-29996903Y-53717544D01*
X-30096294Y-53477597D01*
X-30231992Y-53256156D01*
X-30237801Y-53249354D01*
X-30893804Y-53905357D01*
X-30917059Y-53851447D01*
X-31021756Y-53710815D01*
X-31156062Y-53598118D01*
X-31247665Y-53552112D01*
X-30591354Y-52895801D01*
X-30598156Y-52889992D01*
X-30819597Y-52754294D01*
X-31059544Y-52654903D01*
X-31312083Y-52594275D01*
X-31571000Y-52573898D01*
X-31829916Y-52594275D01*
X-32082455Y-52654903D01*
X-32322402Y-52754294D01*
X-32543843Y-52889993D01*
X-32550645Y-52895801D01*
X-31896945Y-53549501D01*
X-31909891Y-53554213D01*
X-32056373Y-53650555D01*
X-32176688Y-53778082D01*
X-32249446Y-53904105D01*
X-32904198Y-53249354D01*
X-32910006Y-53256155D01*
X-33045705Y-53477597D01*
X-33145096Y-53717544D01*
X-33205724Y-53970083D01*
X-33226101Y-54228999D01*
X-34436000Y-54228999D01*
X-34436000Y-53968093D01*
X-34434939Y-53951906D01*
X-34431133Y-53922999D01*
X-34436000Y-53886033D01*
X-34450517Y-53775765D01*
X-34507347Y-53638566D01*
X-34597750Y-53520748D01*
X-34620889Y-53502993D01*
X-34633082Y-53492300D01*
X-36071906Y-52053476D01*
X-36105391Y-51992153D01*
X-36100407Y-51922461D01*
X-36058535Y-51866528D01*
X-35993071Y-51842111D01*
X-35924798Y-51856963D01*
X-35908065Y-51867940D01*
X-35768626Y-51976470D01*
X-35564503Y-52086936D01*
X-35344981Y-52162298D01*
X-35116049Y-52200500D01*
X-35116048Y-52200500D01*
X-34883952Y-52200500D01*
X-34883951Y-52200500D01*
X-34655019Y-52162298D01*
X-34655017Y-52162297D01*
X-34655015Y-52162297D01*
X-34476878Y-52101142D01*
X-34435497Y-52086936D01*
X-34231374Y-51976470D01*
X-34048216Y-51833913D01*
X-33891021Y-51663153D01*
X-33764076Y-51468849D01*
X-33670843Y-51256300D01*
X-33613866Y-51031305D01*
X-33613865Y-51031301D01*
X-33613865Y-51031299D01*
X-33594699Y-50800000D01*
X-17355300Y-50800000D01*
X-17336134Y-51031305D01*
X-17279157Y-51256300D01*
X-17185924Y-51468849D01*
X-17058979Y-51663153D01*
X-16901784Y-51833913D01*
X-16718626Y-51976470D01*
X-16514503Y-52086936D01*
X-16294981Y-52162298D01*
X-16066049Y-52200500D01*
X-16066048Y-52200500D01*
X-15833952Y-52200500D01*
X-15833951Y-52200500D01*
X-15605019Y-52162298D01*
X-15605017Y-52162297D01*
X-15605015Y-52162297D01*
X-15426878Y-52101142D01*
X-15385497Y-52086936D01*
X-15181374Y-51976470D01*
X-14998216Y-51833913D01*
X-14841021Y-51663153D01*
X-14714076Y-51468849D01*
X-14620843Y-51256300D01*
X-14563866Y-51031305D01*
X-14563865Y-51031301D01*
X-14563865Y-51031299D01*
X-14544699Y-50800000D01*
X14723699Y-50800000D01*
X14742865Y-51031299D01*
X14742865Y-51031301D01*
X14742866Y-51031305D01*
X14799843Y-51256300D01*
X14893076Y-51468849D01*
X15020021Y-51663153D01*
X15177216Y-51833913D01*
X15360374Y-51976470D01*
X15564497Y-52086936D01*
X15605878Y-52101142D01*
X15784015Y-52162297D01*
X15784017Y-52162297D01*
X15784019Y-52162298D01*
X16012951Y-52200500D01*
X16012952Y-52200500D01*
X16245048Y-52200500D01*
X16245049Y-52200500D01*
X16473981Y-52162298D01*
X16693503Y-52086936D01*
X16897626Y-51976470D01*
X17080784Y-51833913D01*
X17237979Y-51663153D01*
X17364924Y-51468849D01*
X17458157Y-51256300D01*
X17515134Y-51031305D01*
X17534300Y-50800000D01*
X17534300Y-50799999D01*
X33773699Y-50799999D01*
X33792865Y-51031299D01*
X33792865Y-51031301D01*
X33792866Y-51031305D01*
X33849843Y-51256300D01*
X33943076Y-51468849D01*
X34070021Y-51663153D01*
X34227216Y-51833913D01*
X34410374Y-51976470D01*
X34614497Y-52086936D01*
X34655878Y-52101142D01*
X34834015Y-52162297D01*
X34834017Y-52162297D01*
X34834019Y-52162298D01*
X35062951Y-52200500D01*
X35062952Y-52200500D01*
X35295048Y-52200500D01*
X35295049Y-52200500D01*
X35523981Y-52162298D01*
X35743503Y-52086936D01*
X35947626Y-51976470D01*
X36130784Y-51833913D01*
X36287979Y-51663153D01*
X36414924Y-51468849D01*
X36508157Y-51256300D01*
X36565134Y-51031305D01*
X36584300Y-50800000D01*
X36565134Y-50568695D01*
X36508157Y-50343700D01*
X36414924Y-50131151D01*
X36287979Y-49936847D01*
X36130784Y-49766087D01*
X35947626Y-49623530D01*
X35743503Y-49513064D01*
X35743499Y-49513062D01*
X35743498Y-49513062D01*
X35523984Y-49437702D01*
X35352281Y-49409050D01*
X35295049Y-49399500D01*
X35062951Y-49399500D01*
X35017164Y-49407140D01*
X34834015Y-49437702D01*
X34614501Y-49513062D01*
X34410372Y-49623531D01*
X34227215Y-49766087D01*
X34070020Y-49936848D01*
X33943076Y-50131150D01*
X33849844Y-50343696D01*
X33849842Y-50343700D01*
X33849843Y-50343700D01*
X33798951Y-50544669D01*
X33792865Y-50568700D01*
X33773699Y-50799999D01*
X17534300Y-50799999D01*
X17515134Y-50568695D01*
X17458157Y-50343700D01*
X17364924Y-50131151D01*
X17237979Y-49936847D01*
X17080784Y-49766087D01*
X16897626Y-49623530D01*
X16693503Y-49513064D01*
X16693499Y-49513062D01*
X16693498Y-49513062D01*
X16473984Y-49437702D01*
X16302281Y-49409050D01*
X16245049Y-49399500D01*
X16012951Y-49399500D01*
X15967164Y-49407140D01*
X15784015Y-49437702D01*
X15564501Y-49513062D01*
X15360372Y-49623531D01*
X15177215Y-49766087D01*
X15020020Y-49936848D01*
X14893076Y-50131150D01*
X14799844Y-50343696D01*
X14799842Y-50343700D01*
X14799843Y-50343700D01*
X14748951Y-50544669D01*
X14742865Y-50568700D01*
X14723699Y-50800000D01*
X-14544699Y-50800000D01*
X-14563865Y-50568700D01*
X-14569951Y-50544669D01*
X-14620843Y-50343700D01*
X-14620842Y-50343700D01*
X-14620844Y-50343696D01*
X-14714076Y-50131150D01*
X-14841020Y-49936848D01*
X-14998215Y-49766087D01*
X-15181372Y-49623531D01*
X-15385501Y-49513062D01*
X-15605015Y-49437702D01*
X-15788164Y-49407140D01*
X-15833951Y-49399500D01*
X-16066049Y-49399500D01*
X-16123281Y-49409050D01*
X-16294984Y-49437702D01*
X-16514498Y-49513062D01*
X-16514499Y-49513062D01*
X-16514503Y-49513064D01*
X-16718626Y-49623530D01*
X-16901784Y-49766087D01*
X-17058979Y-49936847D01*
X-17185924Y-50131151D01*
X-17279157Y-50343700D01*
X-17336134Y-50568695D01*
X-17355300Y-50800000D01*
X-33594699Y-50800000D01*
X-33613865Y-50568700D01*
X-33619951Y-50544669D01*
X-33670843Y-50343700D01*
X-33670842Y-50343700D01*
X-33670844Y-50343696D01*
X-33764076Y-50131150D01*
X-33891020Y-49936848D01*
X-34048215Y-49766087D01*
X-34231372Y-49623531D01*
X-34435501Y-49513062D01*
X-34655015Y-49437702D01*
X-34838164Y-49407140D01*
X-34883951Y-49399500D01*
X-35116049Y-49399500D01*
X-35173282Y-49409050D01*
X-35344984Y-49437702D01*
X-35564498Y-49513062D01*
X-35564499Y-49513062D01*
X-35564503Y-49513064D01*
X-35768626Y-49623530D01*
X-35951784Y-49766087D01*
X-36108979Y-49936847D01*
X-36235924Y-50131151D01*
X-36329157Y-50343700D01*
X-36386134Y-50568695D01*
X-36405300Y-50800000D01*
X-36386134Y-51031305D01*
X-36329157Y-51256300D01*
X-36235924Y-51468849D01*
X-36108979Y-51663153D01*
X-36077965Y-51696842D01*
X-36047044Y-51759492D01*
X-36054903Y-51828919D01*
X-36099049Y-51883075D01*
X-36165466Y-51904767D01*
X-36233068Y-51887108D01*
X-36256877Y-51868504D01*
X-38945161Y-49180220D01*
X-38978646Y-49118897D01*
X-38973662Y-49049205D01*
X-38931790Y-48993272D01*
X-38866326Y-48968855D01*
X-38828532Y-48971965D01*
X-38687914Y-49005724D01*
X-38428999Y-49026101D01*
X-38170083Y-49005724D01*
X-37917544Y-48945096D01*
X-37677597Y-48845705D01*
X-37456155Y-48710006D01*
X-37449354Y-48704198D01*
X-38103054Y-48050498D01*
X-38090109Y-48045787D01*
X-37943627Y-47949445D01*
X-37823312Y-47821918D01*
X-37750552Y-47695893D01*
X-37095801Y-48350644D01*
X-37089993Y-48343843D01*
X-36954294Y-48122402D01*
X-36854903Y-47882455D01*
X-36794275Y-47629916D01*
X-36773898Y-47371000D01*
X-33226101Y-47371000D01*
X-33205724Y-47629916D01*
X-33145096Y-47882455D01*
X-33045707Y-48122397D01*
X-32910003Y-48343849D01*
X-32904198Y-48350645D01*
X-32248195Y-47694643D01*
X-32224941Y-47748553D01*
X-32120244Y-47889185D01*
X-31985938Y-48001882D01*
X-31894334Y-48047887D01*
X-32550645Y-48704198D01*
X-32543849Y-48710003D01*
X-32322397Y-48845707D01*
X-32082455Y-48945096D01*
X-31829916Y-49005724D01*
X-31571000Y-49026101D01*
X-31312083Y-49005724D01*
X-31059544Y-48945096D01*
X-30819597Y-48845705D01*
X-30598155Y-48710006D01*
X-30591354Y-48704198D01*
X-31245054Y-48050498D01*
X-31232109Y-48045787D01*
X-31085627Y-47949445D01*
X-30965312Y-47821918D01*
X-30892552Y-47695893D01*
X-30237801Y-48350644D01*
X-30231993Y-48343843D01*
X-30096294Y-48122402D01*
X-29996903Y-47882455D01*
X-29936275Y-47629916D01*
X-29915898Y-47371000D01*
X-21034101Y-47371000D01*
X-21013724Y-47629916D01*
X-20953096Y-47882455D01*
X-20853707Y-48122397D01*
X-20718003Y-48343849D01*
X-20712198Y-48350645D01*
X-20056195Y-47694642D01*
X-20032941Y-47748553D01*
X-19928244Y-47889185D01*
X-19793938Y-48001882D01*
X-19702334Y-48047887D01*
X-20358645Y-48704198D01*
X-20351849Y-48710003D01*
X-20130397Y-48845707D01*
X-19890455Y-48945096D01*
X-19637916Y-49005724D01*
X-19379000Y-49026101D01*
X-19120083Y-49005724D01*
X-18867544Y-48945096D01*
X-18627597Y-48845705D01*
X-18406155Y-48710006D01*
X-18399354Y-48704198D01*
X-19053054Y-48050498D01*
X-19040109Y-48045787D01*
X-18893627Y-47949445D01*
X-18773312Y-47821918D01*
X-18700552Y-47695893D01*
X-18045801Y-48350644D01*
X-18039993Y-48343843D01*
X-17904294Y-48122402D01*
X-17804903Y-47882455D01*
X-17744275Y-47629916D01*
X-17723898Y-47371000D01*
X-17723898Y-47370999D01*
X-14176101Y-47370999D01*
X-14155724Y-47629916D01*
X-14095096Y-47882455D01*
X-13995707Y-48122397D01*
X-13860003Y-48343849D01*
X-13854198Y-48350645D01*
X-13198195Y-47694642D01*
X-13174941Y-47748553D01*
X-13070244Y-47889185D01*
X-12935938Y-48001882D01*
X-12844334Y-48047887D01*
X-13500645Y-48704198D01*
X-13493849Y-48710003D01*
X-13272397Y-48845707D01*
X-13032455Y-48945096D01*
X-12779916Y-49005724D01*
X-12521000Y-49026101D01*
X-12262083Y-49005724D01*
X-12009544Y-48945096D01*
X-11769597Y-48845705D01*
X-11548155Y-48710006D01*
X-11541354Y-48704198D01*
X-12195054Y-48050498D01*
X-12182109Y-48045787D01*
X-12035627Y-47949445D01*
X-11915312Y-47821918D01*
X-11842552Y-47695893D01*
X-11187801Y-48350644D01*
X-11181993Y-48343843D01*
X-11046294Y-48122402D01*
X-10946903Y-47882455D01*
X-10886275Y-47629916D01*
X-10865898Y-47370999D01*
X11044898Y-47370999D01*
X11065275Y-47629916D01*
X11125903Y-47882455D01*
X11225294Y-48122402D01*
X11360993Y-48343843D01*
X11366801Y-48350644D01*
X12022803Y-47694641D01*
X12046059Y-47748553D01*
X12150756Y-47889185D01*
X12285062Y-48001882D01*
X12376665Y-48047887D01*
X11720354Y-48704198D01*
X11727155Y-48710006D01*
X11948597Y-48845705D01*
X12188544Y-48945096D01*
X12441083Y-49005724D01*
X12700000Y-49026101D01*
X12958916Y-49005724D01*
X13211455Y-48945096D01*
X13451397Y-48845707D01*
X13672849Y-48710003D01*
X13679645Y-48704198D01*
X13025945Y-48050498D01*
X13038891Y-48045787D01*
X13185373Y-47949445D01*
X13305688Y-47821918D01*
X13378447Y-47695894D01*
X14033198Y-48350645D01*
X14039003Y-48343849D01*
X14174707Y-48122397D01*
X14274096Y-47882455D01*
X14334724Y-47629916D01*
X14355101Y-47371000D01*
X14355101Y-47370999D01*
X17902898Y-47370999D01*
X17923275Y-47629916D01*
X17983903Y-47882455D01*
X18083294Y-48122402D01*
X18218993Y-48343843D01*
X18224801Y-48350644D01*
X18880803Y-47694641D01*
X18904059Y-47748553D01*
X19008756Y-47889185D01*
X19143062Y-48001882D01*
X19234665Y-48047887D01*
X18578354Y-48704198D01*
X18585155Y-48710006D01*
X18806597Y-48845705D01*
X19046544Y-48945096D01*
X19299083Y-49005724D01*
X19558000Y-49026101D01*
X19816916Y-49005724D01*
X20069455Y-48945096D01*
X20309397Y-48845707D01*
X20530849Y-48710003D01*
X20537645Y-48704198D01*
X19883945Y-48050498D01*
X19896891Y-48045787D01*
X20043373Y-47949445D01*
X20163688Y-47821918D01*
X20236447Y-47695894D01*
X20891198Y-48350645D01*
X20897003Y-48343849D01*
X21032707Y-48122397D01*
X21132096Y-47882455D01*
X21192724Y-47629916D01*
X21213101Y-47371000D01*
X30094898Y-47371000D01*
X30115275Y-47629916D01*
X30175903Y-47882455D01*
X30275294Y-48122402D01*
X30410993Y-48343843D01*
X30416801Y-48350644D01*
X31072804Y-47694642D01*
X31096059Y-47748553D01*
X31200756Y-47889185D01*
X31335062Y-48001882D01*
X31426665Y-48047886D01*
X30770353Y-48704198D01*
X30777155Y-48710006D01*
X30998597Y-48845705D01*
X31238544Y-48945096D01*
X31491083Y-49005724D01*
X31750000Y-49026101D01*
X32008916Y-49005724D01*
X32261455Y-48945096D01*
X32501397Y-48845707D01*
X32722849Y-48710003D01*
X32729645Y-48704198D01*
X32075945Y-48050498D01*
X32088891Y-48045787D01*
X32235373Y-47949445D01*
X32355688Y-47821918D01*
X32428447Y-47695894D01*
X33083198Y-48350645D01*
X33089003Y-48343849D01*
X33224707Y-48122397D01*
X33324096Y-47882455D01*
X33384724Y-47629916D01*
X33405101Y-47371000D01*
X36952898Y-47371000D01*
X36973275Y-47629916D01*
X37033903Y-47882455D01*
X37133294Y-48122402D01*
X37268993Y-48343843D01*
X37274801Y-48350644D01*
X37930804Y-47694642D01*
X37954059Y-47748553D01*
X38058756Y-47889185D01*
X38193062Y-48001882D01*
X38284665Y-48047886D01*
X37628353Y-48704198D01*
X37635155Y-48710006D01*
X37856597Y-48845705D01*
X38096544Y-48945096D01*
X38349083Y-49005724D01*
X38608000Y-49026101D01*
X38866916Y-49005724D01*
X39119455Y-48945096D01*
X39359397Y-48845707D01*
X39580849Y-48710003D01*
X39587645Y-48704198D01*
X38933945Y-48050498D01*
X38946891Y-48045787D01*
X39093373Y-47949445D01*
X39213688Y-47821918D01*
X39286447Y-47695894D01*
X39941198Y-48350645D01*
X39947003Y-48343849D01*
X40082707Y-48122397D01*
X40182096Y-47882455D01*
X40242724Y-47629916D01*
X40263101Y-47370999D01*
X40242724Y-47112083D01*
X40182096Y-46859544D01*
X40082705Y-46619597D01*
X39947006Y-46398155D01*
X39941198Y-46391354D01*
X39285195Y-47047356D01*
X39261941Y-46993447D01*
X39157244Y-46852815D01*
X39022938Y-46740118D01*
X38931334Y-46694112D01*
X39587644Y-46037801D01*
X39580843Y-46031993D01*
X39359402Y-45896294D01*
X39119455Y-45796903D01*
X38866916Y-45736275D01*
X38608000Y-45715898D01*
X38349083Y-45736275D01*
X38096544Y-45796903D01*
X37856597Y-45896294D01*
X37635156Y-46031992D01*
X37628354Y-46037801D01*
X38282054Y-46691501D01*
X38269109Y-46696213D01*
X38122627Y-46792555D01*
X38002312Y-46920082D01*
X37929552Y-47046105D01*
X37274801Y-46391354D01*
X37268992Y-46398156D01*
X37133294Y-46619597D01*
X37033903Y-46859544D01*
X36973275Y-47112083D01*
X36952898Y-47371000D01*
X33405101Y-47371000D01*
X33405101Y-47370999D01*
X33384724Y-47112083D01*
X33324096Y-46859544D01*
X33224705Y-46619597D01*
X33089006Y-46398155D01*
X33083198Y-46391354D01*
X33083197Y-46391354D01*
X32427194Y-47047355D01*
X32403941Y-46993447D01*
X32299244Y-46852815D01*
X32164938Y-46740118D01*
X32073334Y-46694112D01*
X32729645Y-46037801D01*
X32722843Y-46031993D01*
X32501402Y-45896294D01*
X32261455Y-45796903D01*
X32008916Y-45736275D01*
X31750000Y-45715898D01*
X31491083Y-45736275D01*
X31238544Y-45796903D01*
X30998597Y-45896294D01*
X30777156Y-46031992D01*
X30770354Y-46037801D01*
X31424054Y-46691501D01*
X31411109Y-46696213D01*
X31264627Y-46792555D01*
X31144312Y-46920082D01*
X31071552Y-47046105D01*
X30416801Y-46391354D01*
X30410992Y-46398156D01*
X30275294Y-46619597D01*
X30175903Y-46859544D01*
X30115275Y-47112083D01*
X30094898Y-47371000D01*
X21213101Y-47371000D01*
X21213101Y-47370999D01*
X21192724Y-47112083D01*
X21132096Y-46859544D01*
X21032705Y-46619597D01*
X20897006Y-46398155D01*
X20891198Y-46391354D01*
X20235195Y-47047356D01*
X20211941Y-46993447D01*
X20107244Y-46852815D01*
X19972938Y-46740118D01*
X19881334Y-46694112D01*
X20537644Y-46037801D01*
X20530843Y-46031993D01*
X20309402Y-45896294D01*
X20069455Y-45796903D01*
X19816916Y-45736275D01*
X19558000Y-45715898D01*
X19299083Y-45736275D01*
X19046544Y-45796903D01*
X18806597Y-45896294D01*
X18585156Y-46031992D01*
X18578354Y-46037801D01*
X19232054Y-46691501D01*
X19219109Y-46696213D01*
X19072627Y-46792555D01*
X18952312Y-46920082D01*
X18879552Y-47046105D01*
X18224801Y-46391354D01*
X18218992Y-46398156D01*
X18083294Y-46619597D01*
X17983903Y-46859544D01*
X17923275Y-47112083D01*
X17902898Y-47370999D01*
X14355101Y-47370999D01*
X14334724Y-47112083D01*
X14274096Y-46859544D01*
X14174705Y-46619597D01*
X14039006Y-46398155D01*
X14033198Y-46391354D01*
X13377195Y-47047356D01*
X13353941Y-46993447D01*
X13249244Y-46852815D01*
X13114938Y-46740118D01*
X13023333Y-46694112D01*
X13679644Y-46037801D01*
X13679645Y-46037801D01*
X13672843Y-46031993D01*
X13451402Y-45896294D01*
X13211455Y-45796903D01*
X12958916Y-45736275D01*
X12699999Y-45715898D01*
X12441083Y-45736275D01*
X12188544Y-45796903D01*
X11948597Y-45896294D01*
X11727156Y-46031992D01*
X11720353Y-46037801D01*
X12374053Y-46691501D01*
X12361109Y-46696213D01*
X12214627Y-46792555D01*
X12094312Y-46920082D01*
X12021552Y-47046105D01*
X11366801Y-46391354D01*
X11360992Y-46398156D01*
X11225294Y-46619597D01*
X11125903Y-46859544D01*
X11065275Y-47112083D01*
X11044898Y-47370999D01*
X-10865898Y-47370999D01*
X-10886275Y-47112083D01*
X-10946903Y-46859544D01*
X-11046294Y-46619597D01*
X-11181992Y-46398156D01*
X-11187801Y-46391354D01*
X-11843804Y-47047357D01*
X-11867059Y-46993447D01*
X-11971756Y-46852815D01*
X-12106062Y-46740118D01*
X-12197664Y-46694113D01*
X-11541353Y-46037801D01*
X-11548156Y-46031992D01*
X-11769597Y-45896294D01*
X-12009544Y-45796903D01*
X-12262083Y-45736275D01*
X-12521000Y-45715898D01*
X-12779916Y-45736275D01*
X-13032455Y-45796903D01*
X-13272402Y-45896294D01*
X-13493843Y-46031993D01*
X-13500645Y-46037801D01*
X-12846944Y-46691501D01*
X-12859891Y-46696213D01*
X-13006373Y-46792555D01*
X-13126688Y-46920082D01*
X-13199446Y-47046104D01*
X-13854198Y-46391354D01*
X-13860006Y-46398155D01*
X-13995705Y-46619597D01*
X-14095096Y-46859544D01*
X-14155724Y-47112083D01*
X-14176101Y-47370999D01*
X-17723898Y-47370999D01*
X-17744275Y-47112083D01*
X-17804903Y-46859544D01*
X-17904294Y-46619597D01*
X-18039992Y-46398156D01*
X-18045801Y-46391354D01*
X-18701804Y-47047357D01*
X-18725059Y-46993447D01*
X-18829756Y-46852815D01*
X-18964062Y-46740118D01*
X-19055665Y-46694112D01*
X-18399354Y-46037801D01*
X-18406156Y-46031992D01*
X-18627597Y-45896294D01*
X-18867544Y-45796903D01*
X-19120083Y-45736275D01*
X-19379000Y-45715898D01*
X-19637916Y-45736275D01*
X-19890455Y-45796903D01*
X-20130402Y-45896294D01*
X-20351843Y-46031993D01*
X-20358645Y-46037801D01*
X-19704945Y-46691501D01*
X-19717891Y-46696213D01*
X-19864373Y-46792555D01*
X-19984688Y-46920082D01*
X-20057446Y-47046105D01*
X-20712198Y-46391354D01*
X-20718006Y-46398155D01*
X-20853705Y-46619597D01*
X-20953096Y-46859544D01*
X-21013724Y-47112083D01*
X-21034101Y-47371000D01*
X-29915898Y-47371000D01*
X-29915898Y-47370999D01*
X-29936275Y-47112083D01*
X-29996903Y-46859544D01*
X-30096294Y-46619597D01*
X-30231992Y-46398156D01*
X-30237801Y-46391354D01*
X-30893804Y-47047357D01*
X-30917059Y-46993447D01*
X-31021756Y-46852815D01*
X-31156062Y-46740118D01*
X-31247665Y-46694112D01*
X-30591354Y-46037801D01*
X-30598156Y-46031992D01*
X-30819597Y-45896294D01*
X-31059544Y-45796903D01*
X-31312083Y-45736275D01*
X-31571000Y-45715898D01*
X-31829916Y-45736275D01*
X-32082455Y-45796903D01*
X-32322402Y-45896294D01*
X-32543843Y-46031993D01*
X-32550645Y-46037801D01*
X-31896945Y-46691501D01*
X-31909891Y-46696213D01*
X-32056373Y-46792555D01*
X-32176688Y-46920082D01*
X-32249446Y-47046105D01*
X-32904198Y-46391354D01*
X-32910006Y-46398155D01*
X-33045705Y-46619597D01*
X-33145096Y-46859544D01*
X-33205724Y-47112083D01*
X-33226101Y-47371000D01*
X-36773898Y-47371000D01*
X-36794275Y-47112083D01*
X-36854903Y-46859544D01*
X-36954294Y-46619597D01*
X-37089992Y-46398156D01*
X-37095801Y-46391354D01*
X-37751804Y-47047357D01*
X-37775059Y-46993447D01*
X-37879756Y-46852815D01*
X-38014062Y-46740118D01*
X-38105665Y-46694112D01*
X-37449354Y-46037801D01*
X-37456156Y-46031992D01*
X-37677597Y-45896294D01*
X-37917544Y-45796903D01*
X-38170083Y-45736275D01*
X-38428999Y-45715898D01*
X-38687916Y-45736275D01*
X-38940455Y-45796903D01*
X-39180402Y-45896294D01*
X-39401843Y-46031993D01*
X-39408645Y-46037801D01*
X-38754945Y-46691501D01*
X-38767891Y-46696213D01*
X-38914373Y-46792555D01*
X-39034688Y-46920082D01*
X-39107447Y-47046105D01*
X-39762198Y-46391354D01*
X-39768006Y-46398155D01*
X-39903705Y-46619597D01*
X-40003096Y-46859544D01*
X-40063724Y-47112083D01*
X-40084101Y-47371000D01*
X-40063724Y-47629916D01*
X-40029966Y-47770532D01*
X-40033457Y-47840314D01*
X-40074121Y-47897132D01*
X-40139047Y-47922945D01*
X-40207622Y-47909559D01*
X-40238221Y-47887160D01*
X-40520353Y-47605028D01*
X-40531046Y-47592836D01*
X-40548801Y-47569697D01*
X-40666618Y-47479295D01*
X-40803817Y-47422465D01*
X-40858951Y-47415206D01*
X-40914084Y-47407948D01*
X-40932568Y-47405514D01*
X-40951051Y-47403081D01*
X-40951052Y-47403081D01*
X-40979962Y-47406887D01*
X-40996146Y-47407948D01*
X-43458161Y-47407948D01*
X-43474347Y-47406887D01*
X-43503261Y-47403080D01*
X-43503262Y-47403080D01*
X-43576878Y-47412772D01*
X-43650497Y-47422465D01*
X-43744548Y-47461422D01*
X-43814017Y-47468891D01*
X-43876496Y-47437616D01*
X-43912148Y-47377527D01*
X-43916000Y-47346861D01*
X-43916000Y-40264978D01*
X-43896315Y-40197939D01*
X-43879681Y-40177297D01*
X-42033703Y-38331319D01*
X-41972380Y-38297834D01*
X-41946022Y-38295000D01*
X37826021Y-38295000D01*
X37893060Y-38314685D01*
X37913702Y-38331319D01*
X53678141Y-54095758D01*
X53711626Y-54157081D01*
X53710235Y-54215532D01*
X53664936Y-54384592D01*
X53644340Y-54619999D01*
X53664936Y-54855407D01*
X53702205Y-54994496D01*
X53726097Y-55083663D01*
X53825965Y-55297830D01*
X53961505Y-55491401D01*
X54128599Y-55658495D01*
X54322170Y-55794035D01*
X54536337Y-55893903D01*
X54764592Y-55955063D01*
X55000000Y-55975659D01*
X55235408Y-55955063D01*
X55463663Y-55893903D01*
X55677830Y-55794035D01*
X55871401Y-55658495D01*
X56038495Y-55491401D01*
X56174035Y-55297830D01*
X56273903Y-55083663D01*
X56335063Y-54855408D01*
X56355659Y-54620000D01*
X56335063Y-54384592D01*
X56273903Y-54156337D01*
X56174035Y-53942171D01*
X56038495Y-53748599D01*
X55871401Y-53581505D01*
X55685839Y-53451573D01*
X55642216Y-53396998D01*
X55635022Y-53327500D01*
X55666545Y-53265145D01*
X55685837Y-53248428D01*
X55871401Y-53118495D01*
X56038495Y-52951401D01*
X56174035Y-52757830D01*
X56273903Y-52543663D01*
X56335063Y-52315408D01*
X56355659Y-52080000D01*
X56335063Y-51844592D01*
X56273903Y-51616337D01*
X56174035Y-51402171D01*
X56038495Y-51208599D01*
X55871401Y-51041505D01*
X55685839Y-50911573D01*
X55642216Y-50856998D01*
X55635022Y-50787500D01*
X55666545Y-50725145D01*
X55685837Y-50708428D01*
X55871401Y-50578495D01*
X56038495Y-50411401D01*
X56174035Y-50217830D01*
X56273903Y-50003663D01*
X56335063Y-49775408D01*
X56355659Y-49540000D01*
X56335063Y-49304592D01*
X56273903Y-49076337D01*
X56174035Y-48862171D01*
X56038495Y-48668599D01*
X55916569Y-48546673D01*
X55883084Y-48485350D01*
X55888068Y-48415658D01*
X55929940Y-48359725D01*
X55960915Y-48342810D01*
X56092331Y-48293796D01*
X56207546Y-48207546D01*
X56293796Y-48092331D01*
X56344091Y-47957483D01*
X56350500Y-47897873D01*
X56350499Y-46102128D01*
X56344091Y-46042517D01*
X56293796Y-45907669D01*
X56207546Y-45792454D01*
X56092331Y-45706204D01*
X55957483Y-45655909D01*
X55897873Y-45649500D01*
X55894551Y-45649500D01*
X54498479Y-45649500D01*
X54431440Y-45629815D01*
X54410798Y-45613181D01*
X45086842Y-36289225D01*
X45076146Y-36277029D01*
X45058395Y-36253895D01*
X44940579Y-36163493D01*
X44803380Y-36106663D01*
X44786267Y-36104410D01*
X44693114Y-36092146D01*
X44656146Y-36087279D01*
X44627235Y-36091085D01*
X44611052Y-36092146D01*
X-45348752Y-36092146D01*
X-45364938Y-36091085D01*
X-45393853Y-36087278D01*
X-45523979Y-36104410D01*
X-45541085Y-36106662D01*
X-45541087Y-36106663D01*
X-45581271Y-36123307D01*
X-45678286Y-36163492D01*
X-45766521Y-36231197D01*
X-45789219Y-36248613D01*
X-45796102Y-36253895D01*
X-45813853Y-36277029D01*
X-45824549Y-36289225D01*
X-50296919Y-40761595D01*
X-50309114Y-40772290D01*
X-50332250Y-40790043D01*
X-50354948Y-40819624D01*
X-50354949Y-40819625D01*
X-50422653Y-40907860D01*
X-50479483Y-41045059D01*
X-50498867Y-41192293D01*
X-50495058Y-41221219D01*
X-50494000Y-41237371D01*
X-50494000Y-42565500D01*
X-50494000Y-42819514D01*
X-50513685Y-42886554D01*
X-50566489Y-42932308D01*
X-50618000Y-42943514D01*
X-50679171Y-42943514D01*
X-50864325Y-42982869D01*
X-51037253Y-43059862D01*
X-51190393Y-43171124D01*
X-51317056Y-43311797D01*
X-51411702Y-43475729D01*
X-51411702Y-43475730D01*
X-51470197Y-43655758D01*
X-51489983Y-43844014D01*
X-55999500Y-43844014D01*
X-55999500Y-15124500D01*
X-55979815Y-15057461D01*
X-55927011Y-15011706D01*
X-55875500Y-15000500D01*
X-49624500Y-15000500D01*
X-49557461Y-15020185D01*
X-49511706Y-15072989D01*
X-49500500Y-15124500D01*
X-49500499Y-19225018D01*
X-49520184Y-19292057D01*
X-49536818Y-19312699D01*
X-50597300Y-20373181D01*
X-50658623Y-20406666D01*
X-50684981Y-20409500D01*
X-50831150Y-20409500D01*
X-51016304Y-20448855D01*
X-51189232Y-20525848D01*
X-51342372Y-20637110D01*
X-51469035Y-20777783D01*
X-51563681Y-20941715D01*
X-51582019Y-20998155D01*
X-51622176Y-21121744D01*
X-51641962Y-21310000D01*
X-51622176Y-21498256D01*
X-51615084Y-21520082D01*
X-51563681Y-21678284D01*
X-51469035Y-21842216D01*
X-51342372Y-21982889D01*
X-51205483Y-22082344D01*
X-51189232Y-22094151D01*
X-51016305Y-22171144D01*
X-50957304Y-22183685D01*
X-50831150Y-22210500D01*
X-50831148Y-22210500D01*
X-50641854Y-22210500D01*
X-50456699Y-22171144D01*
X-50283771Y-22094151D01*
X-50130631Y-21982889D01*
X-50003968Y-21842216D01*
X-49909322Y-21678284D01*
X-49850828Y-21498257D01*
X-49839719Y-21392555D01*
X-49831042Y-21310000D01*
X-49835116Y-21271232D01*
X-49822546Y-21202502D01*
X-49799476Y-21170591D01*
X-48569583Y-19940697D01*
X-48557387Y-19930001D01*
X-48534249Y-19912247D01*
X-48443847Y-19794431D01*
X-48430061Y-19761149D01*
X-48386220Y-19706746D01*
X-48319926Y-19684681D01*
X-48252227Y-19701960D01*
X-48204616Y-19753097D01*
X-48191500Y-19808602D01*
X-48191500Y-20826904D01*
X-48192561Y-20843089D01*
X-48196367Y-20872000D01*
X-48191500Y-20908968D01*
X-48176983Y-21019234D01*
X-48161378Y-21056906D01*
X-48152618Y-21117317D01*
X-48165460Y-21239500D01*
X-48145674Y-21427756D01*
X-48087179Y-21607784D01*
X-47992533Y-21771716D01*
X-47865871Y-21912388D01*
X-47712730Y-22023651D01*
X-47539803Y-22100644D01*
X-47478084Y-22113762D01*
X-47354648Y-22140000D01*
X-47354646Y-22140000D01*
X-47165353Y-22140000D01*
X-47099902Y-22126088D01*
X-47030235Y-22131404D01*
X-46974501Y-22173541D01*
X-46950800Y-22234414D01*
X-46934315Y-22391268D01*
X-46946883Y-22459993D01*
X-46994615Y-22511017D01*
X-47031854Y-22525515D01*
X-47195599Y-22560319D01*
X-47368526Y-22637312D01*
X-47521666Y-22748574D01*
X-47648329Y-22889247D01*
X-47742975Y-23053179D01*
X-47742975Y-23053180D01*
X-47801470Y-23233208D01*
X-47821256Y-23421464D01*
X-47801470Y-23609720D01*
X-47742975Y-23789748D01*
X-47648329Y-23953680D01*
X-47521667Y-24094352D01*
X-47368526Y-24205615D01*
X-47195599Y-24282608D01*
X-47157143Y-24290782D01*
X-47010444Y-24321964D01*
X-46841608Y-24321964D01*
X-46774569Y-24341649D01*
X-46728814Y-24394453D01*
X-46718287Y-24458924D01*
X-46732911Y-24598066D01*
X-46726317Y-24660796D01*
X-46738886Y-24729521D01*
X-46786617Y-24780545D01*
X-46854357Y-24797664D01*
X-46875417Y-24795045D01*
X-46888186Y-24792331D01*
X-47077478Y-24792331D01*
X-47077480Y-24792331D01*
X-47262634Y-24831686D01*
X-47435562Y-24908679D01*
X-47588702Y-25019941D01*
X-47715365Y-25160614D01*
X-47810011Y-25324546D01*
X-47822506Y-25363002D01*
X-47868506Y-25504575D01*
X-47888292Y-25692831D01*
X-47868506Y-25881087D01*
X-47810011Y-26061115D01*
X-47715365Y-26225047D01*
X-47607673Y-26344650D01*
X-47577445Y-26407638D01*
X-47585301Y-26470800D01*
X-47584796Y-26470965D01*
X-47585647Y-26473585D01*
X-47586069Y-26476974D01*
X-47587983Y-26480776D01*
X-47601038Y-26520953D01*
X-47640475Y-26578628D01*
X-47693188Y-26603925D01*
X-47810532Y-26628867D01*
X-47983460Y-26705860D01*
X-48136600Y-26817122D01*
X-48263263Y-26957795D01*
X-48357909Y-27121727D01*
X-48374860Y-27173898D01*
X-48416404Y-27301756D01*
X-48436190Y-27490012D01*
X-48416404Y-27678268D01*
X-48403333Y-27718495D01*
X-48357909Y-27858296D01*
X-48263263Y-28022228D01*
X-48136600Y-28162901D01*
X-48015954Y-28250555D01*
X-47983460Y-28274163D01*
X-47810533Y-28351156D01*
X-47748814Y-28364274D01*
X-47625378Y-28390512D01*
X-47479208Y-28390512D01*
X-47412169Y-28410197D01*
X-47391526Y-28426831D01*
X-44874438Y-30943919D01*
X-44863747Y-30956109D01*
X-44845992Y-30979250D01*
X-44744416Y-31057189D01*
X-44735639Y-31066560D01*
X-44728175Y-31069651D01*
X-44728175Y-31069652D01*
X-44728175Y-31069653D01*
X-44590976Y-31126483D01*
X-44443742Y-31145867D01*
X-44414831Y-31142060D01*
X-44398648Y-31141000D01*
X-36726864Y-31141000D01*
X-36710680Y-31142060D01*
X-36681770Y-31145867D01*
X-36681769Y-31145866D01*
X-36681769Y-31145867D01*
X-36664640Y-31143611D01*
X-36534536Y-31126483D01*
X-36397337Y-31069653D01*
X-36309102Y-31001949D01*
X-36309101Y-31001948D01*
X-36279520Y-30979250D01*
X-36261767Y-30956114D01*
X-36251072Y-30943919D01*
X-33246768Y-27939615D01*
X-33185445Y-27906130D01*
X-33115753Y-27911114D01*
X-33059820Y-27952986D01*
X-33035403Y-28018450D01*
X-33044526Y-28074749D01*
X-33145096Y-28317544D01*
X-33205724Y-28570083D01*
X-33226101Y-28829000D01*
X-33205724Y-29087916D01*
X-33145096Y-29340455D01*
X-33045707Y-29580397D01*
X-32910003Y-29801849D01*
X-32904198Y-29808645D01*
X-32248195Y-29152642D01*
X-32224941Y-29206553D01*
X-32120244Y-29347185D01*
X-31985938Y-29459882D01*
X-31894334Y-29505887D01*
X-32550645Y-30162198D01*
X-32543849Y-30168003D01*
X-32322397Y-30303707D01*
X-32082455Y-30403096D01*
X-31829916Y-30463724D01*
X-31571000Y-30484101D01*
X-31312083Y-30463724D01*
X-31059544Y-30403096D01*
X-30819597Y-30303705D01*
X-30598155Y-30168006D01*
X-30591354Y-30162198D01*
X-31245054Y-29508498D01*
X-31232109Y-29503787D01*
X-31085627Y-29407445D01*
X-30965312Y-29279918D01*
X-30892552Y-29153893D01*
X-30237801Y-29808644D01*
X-30231993Y-29801843D01*
X-30096294Y-29580402D01*
X-29996903Y-29340455D01*
X-29936275Y-29087916D01*
X-29915898Y-28828999D01*
X-21034101Y-28828999D01*
X-21013724Y-29087916D01*
X-20953096Y-29340455D01*
X-20853707Y-29580397D01*
X-20718003Y-29801849D01*
X-20712198Y-29808645D01*
X-20056195Y-29152643D01*
X-20032941Y-29206553D01*
X-19928244Y-29347185D01*
X-19793938Y-29459882D01*
X-19702334Y-29505887D01*
X-20358645Y-30162198D01*
X-20351849Y-30168003D01*
X-20130397Y-30303707D01*
X-19890455Y-30403096D01*
X-19637916Y-30463724D01*
X-19379000Y-30484101D01*
X-19120083Y-30463724D01*
X-18867544Y-30403096D01*
X-18627597Y-30303705D01*
X-18406155Y-30168006D01*
X-18399354Y-30162198D01*
X-19053054Y-29508498D01*
X-19040109Y-29503787D01*
X-18893627Y-29407445D01*
X-18773312Y-29279918D01*
X-18700552Y-29153893D01*
X-18045801Y-29808644D01*
X-18039993Y-29801843D01*
X-17904294Y-29580402D01*
X-17804903Y-29340455D01*
X-17744275Y-29087916D01*
X-17723898Y-28828999D01*
X-17744275Y-28570083D01*
X-17804903Y-28317544D01*
X-17904294Y-28077597D01*
X-18039992Y-27856156D01*
X-18045801Y-27849354D01*
X-18701804Y-28505357D01*
X-18725059Y-28451447D01*
X-18829756Y-28310815D01*
X-18964062Y-28198118D01*
X-19055665Y-28152112D01*
X-18399354Y-27495801D01*
X-18406156Y-27489992D01*
X-18627597Y-27354294D01*
X-18867544Y-27254903D01*
X-19120083Y-27194275D01*
X-19378999Y-27173898D01*
X-19637916Y-27194275D01*
X-19890455Y-27254903D01*
X-20130402Y-27354294D01*
X-20351843Y-27489993D01*
X-20358645Y-27495801D01*
X-19704945Y-28149501D01*
X-19717891Y-28154213D01*
X-19864373Y-28250555D01*
X-19984688Y-28378082D01*
X-20057446Y-28504104D01*
X-20712197Y-27849354D01*
X-20712198Y-27849354D01*
X-20718006Y-27856155D01*
X-20853705Y-28077597D01*
X-20953096Y-28317544D01*
X-21013724Y-28570083D01*
X-21034101Y-28828999D01*
X-29915898Y-28828999D01*
X-29936275Y-28570083D01*
X-29996903Y-28317544D01*
X-30096294Y-28077597D01*
X-30231992Y-27856156D01*
X-30237801Y-27849354D01*
X-30893804Y-28505357D01*
X-30917059Y-28451447D01*
X-31021756Y-28310815D01*
X-31156062Y-28198118D01*
X-31247665Y-28152112D01*
X-30591354Y-27495801D01*
X-30598156Y-27489992D01*
X-30819597Y-27354294D01*
X-31059544Y-27254903D01*
X-31312083Y-27194275D01*
X-31570999Y-27173898D01*
X-31829916Y-27194275D01*
X-32082455Y-27254903D01*
X-32325250Y-27355473D01*
X-32394719Y-27362942D01*
X-32457199Y-27331667D01*
X-32492851Y-27271578D01*
X-32490357Y-27201753D01*
X-32460384Y-27153231D01*
X-31634472Y-26327319D01*
X-31573149Y-26293834D01*
X-31546791Y-26291000D01*
X-19284979Y-26291000D01*
X-19217940Y-26310685D01*
X-19197297Y-26327319D01*
X-18594190Y-26930425D01*
X-18583503Y-26942612D01*
X-18565750Y-26965750D01*
X-18536168Y-26988448D01*
X-18536168Y-26988449D01*
X-18447933Y-27056154D01*
X-18310734Y-27112983D01*
X-18163500Y-27132368D01*
X-18134583Y-27128560D01*
X-18118398Y-27127500D01*
X-13341979Y-27127500D01*
X-13274940Y-27147185D01*
X-13229185Y-27199989D01*
X-13219241Y-27269147D01*
X-13248266Y-27332703D01*
X-13277189Y-27357227D01*
X-13493843Y-27489993D01*
X-13500645Y-27495801D01*
X-12846945Y-28149501D01*
X-12859891Y-28154213D01*
X-13006373Y-28250555D01*
X-13126688Y-28378082D01*
X-13199446Y-28504103D01*
X-13854197Y-27849354D01*
X-13854198Y-27849354D01*
X-13860006Y-27856155D01*
X-13995705Y-28077597D01*
X-14095096Y-28317544D01*
X-14155724Y-28570083D01*
X-14176101Y-28829000D01*
X-14155724Y-29087916D01*
X-14095096Y-29340455D01*
X-13995707Y-29580397D01*
X-13860003Y-29801849D01*
X-13854198Y-29808645D01*
X-13198195Y-29152642D01*
X-13174941Y-29206553D01*
X-13070244Y-29347185D01*
X-12935938Y-29459882D01*
X-12844334Y-29505887D01*
X-13500645Y-30162198D01*
X-13493849Y-30168003D01*
X-13272397Y-30303707D01*
X-13032455Y-30403096D01*
X-12779916Y-30463724D01*
X-12521000Y-30484101D01*
X-12262083Y-30463724D01*
X-12009544Y-30403096D01*
X-11769597Y-30303705D01*
X-11548155Y-30168006D01*
X-11541354Y-30162198D01*
X-12195054Y-29508498D01*
X-12182109Y-29503787D01*
X-12035627Y-29407445D01*
X-11915312Y-29279918D01*
X-11842552Y-29153893D01*
X-11187801Y-29808644D01*
X-11181993Y-29801843D01*
X-11046294Y-29580402D01*
X-10946903Y-29340455D01*
X-10886275Y-29087916D01*
X-10865898Y-28829000D01*
X-10886275Y-28570083D01*
X-10946903Y-28317544D01*
X-11046294Y-28077597D01*
X-11181992Y-27856156D01*
X-11187801Y-27849354D01*
X-11843804Y-28505357D01*
X-11867059Y-28451447D01*
X-11971756Y-28310815D01*
X-12106062Y-28198118D01*
X-12197665Y-28152112D01*
X-11541354Y-27495801D01*
X-11548156Y-27489992D01*
X-11764811Y-27357227D01*
X-11811686Y-27305416D01*
X-11823109Y-27236486D01*
X-11795452Y-27172323D01*
X-11737496Y-27133298D01*
X-11700021Y-27127500D01*
X11879021Y-27127500D01*
X11946060Y-27147185D01*
X11991815Y-27199989D01*
X12001759Y-27269147D01*
X11972734Y-27332703D01*
X11943811Y-27357227D01*
X11727156Y-27489992D01*
X11720354Y-27495801D01*
X12374054Y-28149501D01*
X12361109Y-28154213D01*
X12214627Y-28250555D01*
X12094312Y-28378082D01*
X12021552Y-28504105D01*
X11366801Y-27849354D01*
X11360992Y-27856156D01*
X11225294Y-28077597D01*
X11125903Y-28317544D01*
X11065275Y-28570083D01*
X11044898Y-28829000D01*
X11065275Y-29087916D01*
X11125903Y-29340455D01*
X11225294Y-29580402D01*
X11360993Y-29801843D01*
X11366801Y-29808644D01*
X12022804Y-29152642D01*
X12046059Y-29206553D01*
X12150756Y-29347185D01*
X12285062Y-29459882D01*
X12376665Y-29505887D01*
X11720354Y-30162198D01*
X11727155Y-30168006D01*
X11948597Y-30303705D01*
X12188544Y-30403096D01*
X12441083Y-30463724D01*
X12700000Y-30484101D01*
X12958916Y-30463724D01*
X13211455Y-30403096D01*
X13451397Y-30303707D01*
X13672849Y-30168003D01*
X13679645Y-30162198D01*
X13025945Y-29508498D01*
X13038891Y-29503787D01*
X13185373Y-29407445D01*
X13305688Y-29279918D01*
X13378447Y-29153893D01*
X14033198Y-29808645D01*
X14039003Y-29801849D01*
X14174707Y-29580397D01*
X14274096Y-29340455D01*
X14334724Y-29087916D01*
X14355101Y-28828999D01*
X14334724Y-28570083D01*
X14274096Y-28317544D01*
X14174705Y-28077597D01*
X14039006Y-27856155D01*
X14033198Y-27849354D01*
X14033197Y-27849354D01*
X13377195Y-28505356D01*
X13353941Y-28451447D01*
X13249244Y-28310815D01*
X13114938Y-28198118D01*
X13023334Y-28152112D01*
X13679645Y-27495801D01*
X13672843Y-27489993D01*
X13456189Y-27357227D01*
X13409314Y-27305415D01*
X13397891Y-27236486D01*
X13425548Y-27172323D01*
X13483504Y-27133298D01*
X13520979Y-27127500D01*
X18737021Y-27127500D01*
X18804060Y-27147185D01*
X18849815Y-27199989D01*
X18859759Y-27269147D01*
X18830734Y-27332703D01*
X18801811Y-27357227D01*
X18585156Y-27489992D01*
X18578354Y-27495801D01*
X19232054Y-28149501D01*
X19219109Y-28154213D01*
X19072627Y-28250555D01*
X18952312Y-28378082D01*
X18879552Y-28504105D01*
X18224801Y-27849354D01*
X18218992Y-27856156D01*
X18083294Y-28077597D01*
X17983903Y-28317544D01*
X17923275Y-28570083D01*
X17902898Y-28828999D01*
X17923275Y-29087916D01*
X17983903Y-29340455D01*
X18083294Y-29580402D01*
X18218993Y-29801843D01*
X18224801Y-29808644D01*
X18880804Y-29152642D01*
X18904059Y-29206553D01*
X19008756Y-29347185D01*
X19143062Y-29459882D01*
X19234665Y-29505887D01*
X18578354Y-30162198D01*
X18585155Y-30168006D01*
X18806597Y-30303705D01*
X19046544Y-30403096D01*
X19299083Y-30463724D01*
X19558000Y-30484101D01*
X19816916Y-30463724D01*
X20069455Y-30403096D01*
X20309397Y-30303707D01*
X20530849Y-30168003D01*
X20537645Y-30162198D01*
X19883945Y-29508498D01*
X19896891Y-29503787D01*
X20043373Y-29407445D01*
X20163688Y-29279918D01*
X20236447Y-29153893D01*
X20891198Y-29808645D01*
X20897003Y-29801849D01*
X21032707Y-29580397D01*
X21132096Y-29340455D01*
X21192724Y-29087916D01*
X21213101Y-28829000D01*
X21192724Y-28570083D01*
X21132096Y-28317544D01*
X21032705Y-28077597D01*
X20897006Y-27856155D01*
X20891198Y-27849354D01*
X20891197Y-27849354D01*
X20235195Y-28505356D01*
X20211941Y-28451447D01*
X20107244Y-28310815D01*
X19972938Y-28198118D01*
X19881334Y-28152112D01*
X20537644Y-27495801D01*
X20530843Y-27489993D01*
X20314189Y-27357227D01*
X20267314Y-27305415D01*
X20255891Y-27236486D01*
X20283548Y-27172323D01*
X20341504Y-27133298D01*
X20378979Y-27127500D01*
X30929021Y-27127500D01*
X30996060Y-27147185D01*
X31041815Y-27199989D01*
X31051759Y-27269147D01*
X31022734Y-27332703D01*
X30993811Y-27357227D01*
X30777156Y-27489992D01*
X30770354Y-27495801D01*
X31424054Y-28149501D01*
X31411109Y-28154213D01*
X31264627Y-28250555D01*
X31144312Y-28378082D01*
X31071552Y-28504105D01*
X30416801Y-27849354D01*
X30410992Y-27856156D01*
X30275294Y-28077597D01*
X30175903Y-28317544D01*
X30115275Y-28570083D01*
X30094898Y-28828999D01*
X30115275Y-29087916D01*
X30175903Y-29340455D01*
X30275294Y-29580402D01*
X30410993Y-29801843D01*
X30416801Y-29808644D01*
X31072804Y-29152642D01*
X31096059Y-29206553D01*
X31200756Y-29347185D01*
X31335062Y-29459882D01*
X31426665Y-29505887D01*
X30770354Y-30162198D01*
X30777155Y-30168006D01*
X30998597Y-30303705D01*
X31238544Y-30403096D01*
X31491083Y-30463724D01*
X31750000Y-30484101D01*
X32008916Y-30463724D01*
X32261455Y-30403096D01*
X32501397Y-30303707D01*
X32722849Y-30168003D01*
X32729645Y-30162198D01*
X32075945Y-29508498D01*
X32088891Y-29503787D01*
X32235373Y-29407445D01*
X32355688Y-29279918D01*
X32428447Y-29153893D01*
X33083198Y-29808645D01*
X33089003Y-29801849D01*
X33224707Y-29580397D01*
X33324096Y-29340455D01*
X33384724Y-29087916D01*
X33405101Y-28828999D01*
X33384724Y-28570083D01*
X33324096Y-28317544D01*
X33224705Y-28077597D01*
X33089006Y-27856155D01*
X33083198Y-27849354D01*
X33083197Y-27849354D01*
X32427195Y-28505356D01*
X32403941Y-28451447D01*
X32299244Y-28310815D01*
X32164938Y-28198118D01*
X32073334Y-28152112D01*
X32729645Y-27495801D01*
X32722843Y-27489993D01*
X32506189Y-27357227D01*
X32459314Y-27305415D01*
X32447891Y-27236486D01*
X32475548Y-27172323D01*
X32533504Y-27133298D01*
X32570979Y-27127500D01*
X37787021Y-27127500D01*
X37854060Y-27147185D01*
X37899815Y-27199989D01*
X37909759Y-27269147D01*
X37880734Y-27332703D01*
X37851811Y-27357227D01*
X37635156Y-27489992D01*
X37628354Y-27495801D01*
X38282054Y-28149501D01*
X38269109Y-28154213D01*
X38122627Y-28250555D01*
X38002312Y-28378082D01*
X37929553Y-28504104D01*
X37274801Y-27849354D01*
X37268992Y-27856156D01*
X37133294Y-28077597D01*
X37033903Y-28317544D01*
X36973275Y-28570083D01*
X36952898Y-28829000D01*
X36973275Y-29087916D01*
X37033903Y-29340455D01*
X37133294Y-29580402D01*
X37268993Y-29801843D01*
X37274801Y-29808644D01*
X37930803Y-29152641D01*
X37954059Y-29206553D01*
X38058756Y-29347185D01*
X38193062Y-29459882D01*
X38284665Y-29505886D01*
X37628353Y-30162198D01*
X37635155Y-30168006D01*
X37856597Y-30303705D01*
X38096544Y-30403096D01*
X38349083Y-30463724D01*
X38608000Y-30484101D01*
X38866916Y-30463724D01*
X39119455Y-30403096D01*
X39359397Y-30303707D01*
X39580849Y-30168003D01*
X39587645Y-30162198D01*
X38933945Y-29508498D01*
X38946891Y-29503787D01*
X39093373Y-29407445D01*
X39213688Y-29279918D01*
X39286447Y-29153894D01*
X39941198Y-29808645D01*
X39947003Y-29801849D01*
X40082707Y-29580397D01*
X40182096Y-29340455D01*
X40242724Y-29087916D01*
X40263101Y-28828999D01*
X40242724Y-28570083D01*
X40182096Y-28317544D01*
X40082705Y-28077597D01*
X39947006Y-27856155D01*
X39941198Y-27849354D01*
X39285195Y-28505356D01*
X39261941Y-28451447D01*
X39157244Y-28310815D01*
X39022938Y-28198118D01*
X38931334Y-28152112D01*
X39587645Y-27495801D01*
X39580843Y-27489993D01*
X39364189Y-27357227D01*
X39317314Y-27305415D01*
X39305891Y-27236486D01*
X39333548Y-27172323D01*
X39391504Y-27133298D01*
X39428979Y-27127500D01*
X41412073Y-27127500D01*
X41479112Y-27147185D01*
X41499754Y-27163819D01*
X43922851Y-29586915D01*
X43933546Y-29599110D01*
X43951301Y-29622250D01*
X43987051Y-29649681D01*
X44031338Y-29683663D01*
X44069119Y-29712653D01*
X44206318Y-29769483D01*
X44336422Y-29786611D01*
X44353551Y-29788867D01*
X44353551Y-29788866D01*
X44353552Y-29788867D01*
X44382462Y-29785060D01*
X44398646Y-29784000D01*
X53693889Y-29784000D01*
X53760928Y-29803685D01*
X53806270Y-29855595D01*
X53825965Y-29897830D01*
X53961505Y-30091401D01*
X54128599Y-30258495D01*
X54322170Y-30394035D01*
X54536337Y-30493903D01*
X54764592Y-30555063D01*
X54999999Y-30575659D01*
X54999999Y-30575658D01*
X55000000Y-30575659D01*
X55235408Y-30555063D01*
X55463663Y-30493903D01*
X55677830Y-30394035D01*
X55871401Y-30258495D01*
X56038495Y-30091401D01*
X56174035Y-29897830D01*
X56273903Y-29683663D01*
X56335063Y-29455408D01*
X56355659Y-29220000D01*
X56335063Y-28984592D01*
X56273903Y-28756337D01*
X56174035Y-28542171D01*
X56038495Y-28348599D01*
X55871401Y-28181505D01*
X55685839Y-28051573D01*
X55642217Y-27996998D01*
X55635024Y-27927499D01*
X55666546Y-27865145D01*
X55685837Y-27848428D01*
X55871401Y-27718495D01*
X56038495Y-27551401D01*
X56174035Y-27357830D01*
X56273903Y-27143663D01*
X56335063Y-26915408D01*
X56355659Y-26680000D01*
X56335063Y-26444592D01*
X56273903Y-26216337D01*
X56174035Y-26002171D01*
X56038495Y-25808599D01*
X55871401Y-25641505D01*
X55685839Y-25511573D01*
X55642216Y-25456998D01*
X55635022Y-25387500D01*
X55666545Y-25325145D01*
X55685837Y-25308428D01*
X55871401Y-25178495D01*
X56038495Y-25011401D01*
X56174035Y-24817830D01*
X56273903Y-24603663D01*
X56335063Y-24375408D01*
X56355659Y-24140000D01*
X56335063Y-23904592D01*
X56273903Y-23676337D01*
X56174035Y-23462171D01*
X56038495Y-23268599D01*
X55916569Y-23146673D01*
X55883084Y-23085350D01*
X55888068Y-23015658D01*
X55929940Y-22959725D01*
X55960915Y-22942810D01*
X56092331Y-22893796D01*
X56207546Y-22807546D01*
X56293796Y-22692331D01*
X56344091Y-22557483D01*
X56350500Y-22497873D01*
X56350499Y-20702128D01*
X56344091Y-20642517D01*
X56293796Y-20507669D01*
X56207546Y-20392454D01*
X56092331Y-20306204D01*
X55957483Y-20255909D01*
X55897873Y-20249500D01*
X55894550Y-20249500D01*
X54105439Y-20249500D01*
X54105420Y-20249500D01*
X54102128Y-20249501D01*
X54098848Y-20249853D01*
X54098840Y-20249854D01*
X54042515Y-20255909D01*
X53907669Y-20306204D01*
X53792454Y-20392454D01*
X53706204Y-20507668D01*
X53655910Y-20642515D01*
X53655909Y-20642517D01*
X53649500Y-20702127D01*
X53649500Y-20705448D01*
X53649500Y-20705449D01*
X53649500Y-20912000D01*
X53629815Y-20979039D01*
X53577011Y-21024794D01*
X53525500Y-21036000D01*
X43695101Y-21036000D01*
X43678915Y-21034939D01*
X43650000Y-21031132D01*
X43502766Y-21050517D01*
X43365566Y-21107347D01*
X43293343Y-21162766D01*
X43247749Y-21197750D01*
X43229994Y-21220888D01*
X43219301Y-21233080D01*
X41552702Y-22899681D01*
X41491379Y-22933166D01*
X41465021Y-22936000D01*
X40173231Y-22936000D01*
X40106192Y-22916315D01*
X40060437Y-22863511D01*
X40050493Y-22794353D01*
X40067503Y-22747210D01*
X40082707Y-22722397D01*
X40182096Y-22482455D01*
X40242724Y-22229916D01*
X40263101Y-21971000D01*
X40242724Y-21712083D01*
X40182096Y-21459544D01*
X40082705Y-21219597D01*
X39947006Y-20998155D01*
X39941198Y-20991354D01*
X39941197Y-20991354D01*
X39285195Y-21647355D01*
X39261941Y-21593447D01*
X39157244Y-21452815D01*
X39022938Y-21340118D01*
X38931334Y-21294112D01*
X39587645Y-20637801D01*
X39580843Y-20631993D01*
X39359402Y-20496294D01*
X39119455Y-20396903D01*
X38866916Y-20336275D01*
X38608000Y-20315898D01*
X38349083Y-20336275D01*
X38096544Y-20396903D01*
X37856597Y-20496294D01*
X37635156Y-20631992D01*
X37628354Y-20637801D01*
X38282054Y-21291501D01*
X38269109Y-21296213D01*
X38122627Y-21392555D01*
X38002312Y-21520082D01*
X37929552Y-21646105D01*
X37274801Y-20991354D01*
X37268992Y-20998156D01*
X37133294Y-21219597D01*
X37033903Y-21459544D01*
X36973275Y-21712083D01*
X36952898Y-21970999D01*
X36973275Y-22229916D01*
X37033903Y-22482455D01*
X37133292Y-22722397D01*
X37148497Y-22747210D01*
X37166741Y-22814656D01*
X37145624Y-22881259D01*
X37091853Y-22925872D01*
X37042769Y-22936000D01*
X33315231Y-22936000D01*
X33248192Y-22916315D01*
X33202437Y-22863511D01*
X33192493Y-22794353D01*
X33209503Y-22747210D01*
X33224707Y-22722397D01*
X33324096Y-22482455D01*
X33384724Y-22229916D01*
X33405101Y-21971000D01*
X33384724Y-21712083D01*
X33324096Y-21459544D01*
X33224705Y-21219597D01*
X33089006Y-20998155D01*
X33083198Y-20991354D01*
X33083197Y-20991354D01*
X32427195Y-21647355D01*
X32403941Y-21593447D01*
X32299244Y-21452815D01*
X32164938Y-21340118D01*
X32073334Y-21294112D01*
X32729644Y-20637801D01*
X32722843Y-20631993D01*
X32501402Y-20496294D01*
X32261455Y-20396903D01*
X32008916Y-20336275D01*
X31750000Y-20315898D01*
X31491083Y-20336275D01*
X31238544Y-20396903D01*
X30998597Y-20496294D01*
X30777156Y-20631992D01*
X30770354Y-20637801D01*
X31424054Y-21291501D01*
X31411109Y-21296213D01*
X31264627Y-21392555D01*
X31144312Y-21520082D01*
X31071552Y-21646105D01*
X30416801Y-20991354D01*
X30410992Y-20998156D01*
X30275294Y-21219597D01*
X30175903Y-21459544D01*
X30115275Y-21712083D01*
X30094898Y-21971000D01*
X30115275Y-22229916D01*
X30175903Y-22482455D01*
X30275292Y-22722397D01*
X30290497Y-22747210D01*
X30308741Y-22814656D01*
X30287624Y-22881259D01*
X30233853Y-22925872D01*
X30184769Y-22936000D01*
X21123231Y-22936000D01*
X21056192Y-22916315D01*
X21010437Y-22863511D01*
X21000493Y-22794353D01*
X21017503Y-22747210D01*
X21032707Y-22722397D01*
X21132096Y-22482455D01*
X21192724Y-22229916D01*
X21213101Y-21970999D01*
X21192724Y-21712083D01*
X21132096Y-21459544D01*
X21032705Y-21219597D01*
X20897006Y-20998155D01*
X20891198Y-20991354D01*
X20891197Y-20991354D01*
X20235195Y-21647355D01*
X20211941Y-21593447D01*
X20107244Y-21452815D01*
X19972938Y-21340118D01*
X19881334Y-21294112D01*
X20537645Y-20637801D01*
X20530843Y-20631993D01*
X20309402Y-20496294D01*
X20069455Y-20396903D01*
X19816916Y-20336275D01*
X19558000Y-20315898D01*
X19299083Y-20336275D01*
X19046544Y-20396903D01*
X18806597Y-20496294D01*
X18585156Y-20631992D01*
X18578354Y-20637801D01*
X19232054Y-21291501D01*
X19219109Y-21296213D01*
X19072627Y-21392555D01*
X18952312Y-21520082D01*
X18879552Y-21646105D01*
X18224801Y-20991354D01*
X18218992Y-20998156D01*
X18083294Y-21219597D01*
X17983903Y-21459544D01*
X17923275Y-21712083D01*
X17902898Y-21971000D01*
X17923275Y-22229916D01*
X17983903Y-22482455D01*
X18083292Y-22722397D01*
X18098497Y-22747210D01*
X18116741Y-22814656D01*
X18095624Y-22881259D01*
X18041853Y-22925872D01*
X17992769Y-22936000D01*
X14265231Y-22936000D01*
X14198192Y-22916315D01*
X14152437Y-22863511D01*
X14142493Y-22794353D01*
X14159503Y-22747210D01*
X14174707Y-22722397D01*
X14274096Y-22482455D01*
X14334724Y-22229916D01*
X14355101Y-21971000D01*
X14334724Y-21712083D01*
X14274096Y-21459544D01*
X14174705Y-21219597D01*
X14039006Y-20998155D01*
X14033198Y-20991354D01*
X14033197Y-20991354D01*
X13377195Y-21647355D01*
X13353941Y-21593447D01*
X13249244Y-21452815D01*
X13114938Y-21340118D01*
X13023334Y-21294112D01*
X13679644Y-20637801D01*
X13672843Y-20631993D01*
X13451402Y-20496294D01*
X13211455Y-20396903D01*
X12958916Y-20336275D01*
X12700000Y-20315898D01*
X12441083Y-20336275D01*
X12188544Y-20396903D01*
X11948597Y-20496294D01*
X11727156Y-20631992D01*
X11720354Y-20637801D01*
X12374054Y-21291501D01*
X12361109Y-21296213D01*
X12214627Y-21392555D01*
X12094312Y-21520082D01*
X12021552Y-21646105D01*
X11366801Y-20991354D01*
X11360992Y-20998156D01*
X11225294Y-21219597D01*
X11125903Y-21459544D01*
X11065275Y-21712083D01*
X11044898Y-21970999D01*
X11065275Y-22229916D01*
X11125903Y-22482455D01*
X11225292Y-22722397D01*
X11240497Y-22747210D01*
X11258741Y-22814656D01*
X11237624Y-22881259D01*
X11183853Y-22925872D01*
X11134769Y-22936000D01*
X-10955769Y-22936000D01*
X-11022808Y-22916315D01*
X-11068563Y-22863511D01*
X-11078507Y-22794353D01*
X-11061497Y-22747210D01*
X-11046292Y-22722397D01*
X-10946903Y-22482455D01*
X-10886275Y-22229916D01*
X-10865898Y-21970999D01*
X-10886275Y-21712083D01*
X-10946903Y-21459544D01*
X-11046294Y-21219597D01*
X-11181992Y-20998156D01*
X-11187801Y-20991354D01*
X-11843804Y-21647357D01*
X-11867059Y-21593447D01*
X-11971756Y-21452815D01*
X-12106062Y-21340118D01*
X-12197665Y-21294112D01*
X-11541354Y-20637801D01*
X-11548156Y-20631992D01*
X-11769597Y-20496294D01*
X-12009544Y-20396903D01*
X-12262083Y-20336275D01*
X-12520999Y-20315898D01*
X-12779916Y-20336275D01*
X-13032455Y-20396903D01*
X-13272402Y-20496294D01*
X-13493843Y-20631993D01*
X-13500645Y-20637801D01*
X-12846945Y-21291501D01*
X-12859891Y-21296213D01*
X-13006373Y-21392555D01*
X-13126688Y-21520082D01*
X-13199446Y-21646104D01*
X-13854197Y-20991354D01*
X-13854198Y-20991354D01*
X-13860006Y-20998155D01*
X-13995705Y-21219597D01*
X-14095096Y-21459544D01*
X-14155724Y-21712083D01*
X-14176101Y-21970999D01*
X-14155724Y-22229916D01*
X-14095096Y-22482455D01*
X-13995707Y-22722397D01*
X-13980503Y-22747210D01*
X-13962259Y-22814656D01*
X-13983376Y-22881259D01*
X-14037147Y-22925872D01*
X-14086231Y-22936000D01*
X-17813769Y-22936000D01*
X-17880808Y-22916315D01*
X-17926563Y-22863511D01*
X-17936507Y-22794353D01*
X-17919497Y-22747210D01*
X-17904292Y-22722397D01*
X-17804903Y-22482455D01*
X-17744275Y-22229916D01*
X-17723898Y-21971000D01*
X-17744275Y-21712083D01*
X-17804903Y-21459544D01*
X-17904294Y-21219597D01*
X-18039992Y-20998156D01*
X-18045801Y-20991354D01*
X-18701804Y-21647357D01*
X-18725059Y-21593447D01*
X-18829756Y-21452815D01*
X-18964062Y-21340118D01*
X-19055665Y-21294112D01*
X-18399354Y-20637801D01*
X-18406156Y-20631992D01*
X-18627597Y-20496294D01*
X-18867544Y-20396903D01*
X-19120083Y-20336275D01*
X-19379000Y-20315898D01*
X-19637916Y-20336275D01*
X-19890455Y-20396903D01*
X-20130402Y-20496294D01*
X-20351843Y-20631993D01*
X-20358645Y-20637801D01*
X-19704945Y-21291501D01*
X-19717891Y-21296213D01*
X-19864373Y-21392555D01*
X-19984688Y-21520082D01*
X-20057446Y-21646104D01*
X-20712197Y-20991354D01*
X-20712198Y-20991354D01*
X-20718006Y-20998155D01*
X-20853705Y-21219597D01*
X-20953096Y-21459544D01*
X-21013724Y-21712083D01*
X-21034101Y-21971000D01*
X-21013724Y-22229916D01*
X-20953096Y-22482455D01*
X-20853707Y-22722397D01*
X-20838503Y-22747210D01*
X-20820259Y-22814656D01*
X-20841376Y-22881259D01*
X-20895147Y-22925872D01*
X-20944231Y-22936000D01*
X-30005769Y-22936000D01*
X-30072808Y-22916315D01*
X-30118563Y-22863511D01*
X-30128507Y-22794353D01*
X-30111497Y-22747210D01*
X-30096292Y-22722397D01*
X-29996903Y-22482455D01*
X-29936275Y-22229916D01*
X-29915898Y-21971000D01*
X-29936275Y-21712083D01*
X-29996903Y-21459544D01*
X-30096294Y-21219597D01*
X-30231992Y-20998156D01*
X-30237801Y-20991354D01*
X-30893804Y-21647357D01*
X-30917059Y-21593447D01*
X-31021756Y-21452815D01*
X-31156062Y-21340118D01*
X-31247665Y-21294112D01*
X-30591354Y-20637801D01*
X-30598156Y-20631992D01*
X-30819597Y-20496294D01*
X-31059544Y-20396903D01*
X-31312083Y-20336275D01*
X-31571000Y-20315898D01*
X-31829916Y-20336275D01*
X-32082455Y-20396903D01*
X-32322402Y-20496294D01*
X-32543843Y-20631993D01*
X-32550645Y-20637801D01*
X-31896945Y-21291501D01*
X-31909891Y-21296213D01*
X-32056373Y-21392555D01*
X-32176688Y-21520082D01*
X-32249446Y-21646104D01*
X-32904197Y-20991354D01*
X-32904198Y-20991354D01*
X-32910006Y-20998155D01*
X-33045705Y-21219597D01*
X-33145096Y-21459544D01*
X-33205724Y-21712083D01*
X-33226101Y-21970999D01*
X-33205724Y-22229916D01*
X-33145096Y-22482455D01*
X-33045707Y-22722397D01*
X-32910003Y-22943849D01*
X-32904198Y-22950645D01*
X-32248195Y-22294643D01*
X-32224941Y-22348553D01*
X-32120244Y-22489185D01*
X-31985938Y-22601882D01*
X-31894334Y-22647887D01*
X-32550645Y-23304198D01*
X-32543846Y-23310005D01*
X-32379311Y-23410831D01*
X-32332435Y-23462643D01*
X-32321012Y-23531572D01*
X-32348669Y-23595735D01*
X-32356419Y-23604240D01*
X-33550143Y-24797964D01*
X-33611466Y-24831449D01*
X-33681158Y-24826465D01*
X-33737091Y-24784593D01*
X-33751379Y-24760096D01*
X-33764076Y-24731150D01*
X-33891020Y-24536848D01*
X-34048215Y-24366087D01*
X-34231372Y-24223531D01*
X-34435501Y-24113062D01*
X-34655015Y-24037702D01*
X-34838164Y-24007140D01*
X-34883951Y-23999500D01*
X-35116049Y-23999500D01*
X-35173282Y-24009050D01*
X-35344984Y-24037702D01*
X-35564498Y-24113062D01*
X-35564499Y-24113062D01*
X-35564503Y-24113064D01*
X-35768626Y-24223530D01*
X-35951784Y-24366087D01*
X-36108979Y-24536847D01*
X-36227332Y-24718000D01*
X-36235925Y-24731153D01*
X-36249373Y-24761810D01*
X-36294329Y-24815296D01*
X-36361065Y-24835986D01*
X-36362929Y-24836000D01*
X-42576560Y-24836000D01*
X-42643599Y-24816315D01*
X-42664241Y-24799681D01*
X-45110454Y-22353466D01*
X-45143939Y-22292143D01*
X-45146094Y-22252825D01*
X-45142020Y-22214059D01*
X-45161806Y-22025801D01*
X-45179612Y-21971000D01*
X-40084101Y-21971000D01*
X-40063724Y-22229916D01*
X-40003096Y-22482455D01*
X-39903707Y-22722397D01*
X-39768003Y-22943849D01*
X-39762198Y-22950645D01*
X-39106195Y-22294642D01*
X-39082941Y-22348553D01*
X-38978244Y-22489185D01*
X-38843938Y-22601882D01*
X-38752334Y-22647887D01*
X-39408645Y-23304198D01*
X-39401849Y-23310003D01*
X-39180397Y-23445707D01*
X-38940455Y-23545096D01*
X-38687916Y-23605724D01*
X-38428999Y-23626101D01*
X-38170083Y-23605724D01*
X-37917544Y-23545096D01*
X-37677597Y-23445705D01*
X-37456155Y-23310006D01*
X-37449354Y-23304198D01*
X-38103054Y-22650498D01*
X-38090109Y-22645787D01*
X-37943627Y-22549445D01*
X-37823312Y-22421918D01*
X-37750552Y-22295893D01*
X-37095801Y-22950644D01*
X-37089993Y-22943843D01*
X-36954294Y-22722402D01*
X-36854903Y-22482455D01*
X-36794275Y-22229916D01*
X-36773898Y-21971000D01*
X-36794275Y-21712083D01*
X-36854903Y-21459544D01*
X-36954294Y-21219597D01*
X-37089992Y-20998156D01*
X-37095801Y-20991354D01*
X-37751804Y-21647356D01*
X-37775059Y-21593447D01*
X-37879756Y-21452815D01*
X-38014062Y-21340118D01*
X-38105665Y-21294112D01*
X-37449354Y-20637801D01*
X-37456156Y-20631992D01*
X-37677597Y-20496294D01*
X-37917544Y-20396903D01*
X-38170083Y-20336275D01*
X-38428999Y-20315898D01*
X-38687916Y-20336275D01*
X-38940455Y-20396903D01*
X-39180402Y-20496294D01*
X-39401843Y-20631993D01*
X-39408645Y-20637801D01*
X-38754945Y-21291501D01*
X-38767891Y-21296213D01*
X-38914373Y-21392555D01*
X-39034688Y-21520082D01*
X-39107446Y-21646105D01*
X-39762198Y-20991354D01*
X-39768006Y-20998155D01*
X-39903705Y-21219597D01*
X-40003096Y-21459544D01*
X-40063724Y-21712083D01*
X-40084101Y-21971000D01*
X-45179612Y-21971000D01*
X-45206454Y-21888390D01*
X-45208449Y-21818549D01*
X-45172368Y-21758716D01*
X-45135978Y-21735512D01*
X-45123087Y-21730173D01*
X-45034852Y-21662469D01*
X-45034851Y-21662468D01*
X-45005270Y-21639770D01*
X-44993488Y-21624415D01*
X-44987512Y-21616628D01*
X-44976819Y-21604436D01*
X-44605633Y-21233249D01*
X-44593437Y-21222553D01*
X-44591267Y-21220888D01*
X-44570300Y-21204800D01*
X-44568536Y-21202502D01*
X-44479897Y-21086983D01*
X-44423067Y-20949784D01*
X-44408550Y-20839517D01*
X-44408550Y-20839516D01*
X-44408550Y-20839515D01*
X-44403683Y-20802550D01*
X-44407489Y-20773640D01*
X-44408550Y-20757455D01*
X-44408550Y-3644871D01*
X-44388865Y-3577832D01*
X-44372235Y-3557195D01*
X-43232859Y-2417819D01*
X-43171536Y-2384334D01*
X-43145178Y-2381500D01*
X-39943675Y-2381500D01*
X-39876636Y-2401185D01*
X-39830881Y-2453989D01*
X-39820937Y-2523147D01*
X-39837948Y-2570290D01*
X-39903705Y-2677597D01*
X-40003096Y-2917544D01*
X-40063724Y-3170083D01*
X-40084101Y-3428999D01*
X-40063724Y-3687916D01*
X-40003096Y-3940455D01*
X-39903707Y-4180397D01*
X-39768003Y-4401849D01*
X-39762198Y-4408645D01*
X-39106195Y-3752642D01*
X-39082941Y-3806553D01*
X-38978244Y-3947185D01*
X-38843938Y-4059882D01*
X-38752334Y-4105887D01*
X-39408645Y-4762198D01*
X-39401849Y-4768003D01*
X-39180397Y-4903707D01*
X-38940455Y-5003096D01*
X-38687916Y-5063724D01*
X-38429000Y-5084101D01*
X-38170083Y-5063724D01*
X-37917544Y-5003096D01*
X-37677597Y-4903705D01*
X-37456155Y-4768006D01*
X-37449354Y-4762198D01*
X-38103054Y-4108498D01*
X-38090109Y-4103787D01*
X-37943627Y-4007445D01*
X-37823312Y-3879918D01*
X-37750551Y-3753893D01*
X-37095801Y-4408644D01*
X-37089993Y-4401843D01*
X-36954294Y-4180402D01*
X-36854903Y-3940455D01*
X-36794275Y-3687916D01*
X-36773898Y-3428999D01*
X-33226101Y-3428999D01*
X-33205724Y-3687916D01*
X-33145096Y-3940455D01*
X-33045707Y-4180397D01*
X-32910003Y-4401849D01*
X-32904198Y-4408645D01*
X-32248195Y-3752642D01*
X-32224941Y-3806553D01*
X-32120244Y-3947185D01*
X-31985938Y-4059882D01*
X-31894334Y-4105887D01*
X-32550645Y-4762198D01*
X-32543849Y-4768003D01*
X-32322397Y-4903707D01*
X-32082455Y-5003096D01*
X-31829916Y-5063724D01*
X-31571000Y-5084101D01*
X-31312083Y-5063724D01*
X-31059544Y-5003096D01*
X-30819597Y-4903705D01*
X-30598155Y-4768006D01*
X-30591354Y-4762198D01*
X-31245054Y-4108498D01*
X-31232109Y-4103787D01*
X-31085627Y-4007445D01*
X-30965312Y-3879918D01*
X-30892551Y-3753893D01*
X-30237801Y-4408644D01*
X-30231993Y-4401843D01*
X-30096294Y-4180402D01*
X-29996903Y-3940455D01*
X-29936275Y-3687916D01*
X-29915898Y-3428999D01*
X-21034101Y-3428999D01*
X-21013724Y-3687916D01*
X-20953096Y-3940455D01*
X-20853707Y-4180397D01*
X-20718003Y-4401849D01*
X-20712198Y-4408645D01*
X-20056195Y-3752642D01*
X-20032941Y-3806553D01*
X-19928244Y-3947185D01*
X-19793938Y-4059882D01*
X-19702334Y-4105887D01*
X-20358645Y-4762198D01*
X-20351849Y-4768003D01*
X-20130397Y-4903707D01*
X-19890455Y-5003096D01*
X-19637916Y-5063724D01*
X-19379000Y-5084101D01*
X-19120083Y-5063724D01*
X-18867544Y-5003096D01*
X-18627597Y-4903705D01*
X-18406155Y-4768006D01*
X-18399354Y-4762198D01*
X-19053054Y-4108498D01*
X-19040109Y-4103787D01*
X-18893627Y-4007445D01*
X-18773312Y-3879918D01*
X-18700552Y-3753893D01*
X-18045801Y-4408644D01*
X-18039993Y-4401843D01*
X-17904294Y-4180402D01*
X-17804903Y-3940455D01*
X-17744275Y-3687916D01*
X-17723898Y-3428999D01*
X-14176101Y-3428999D01*
X-14155724Y-3687916D01*
X-14095096Y-3940455D01*
X-13995707Y-4180397D01*
X-13860003Y-4401849D01*
X-13854198Y-4408645D01*
X-13198195Y-3752642D01*
X-13174941Y-3806553D01*
X-13070244Y-3947185D01*
X-12935938Y-4059882D01*
X-12844334Y-4105887D01*
X-13500645Y-4762198D01*
X-13493849Y-4768003D01*
X-13272397Y-4903707D01*
X-13032455Y-5003096D01*
X-12779916Y-5063724D01*
X-12521000Y-5084101D01*
X-12262083Y-5063724D01*
X-12009544Y-5003096D01*
X-11769597Y-4903705D01*
X-11548155Y-4768006D01*
X-11541354Y-4762198D01*
X-12195054Y-4108498D01*
X-12182109Y-4103787D01*
X-12035627Y-4007445D01*
X-11915312Y-3879918D01*
X-11842552Y-3753893D01*
X-11187801Y-4408644D01*
X-11181993Y-4401843D01*
X-11046294Y-4180402D01*
X-10946903Y-3940455D01*
X-10886275Y-3687916D01*
X-10865898Y-3429000D01*
X11044898Y-3429000D01*
X11065275Y-3687916D01*
X11125903Y-3940455D01*
X11225294Y-4180402D01*
X11360993Y-4401843D01*
X11366801Y-4408644D01*
X12022803Y-3752641D01*
X12046059Y-3806553D01*
X12150756Y-3947185D01*
X12285062Y-4059882D01*
X12376665Y-4105887D01*
X11720354Y-4762198D01*
X11727155Y-4768006D01*
X11948597Y-4903705D01*
X12188544Y-5003096D01*
X12441083Y-5063724D01*
X12700000Y-5084101D01*
X12958916Y-5063724D01*
X13211455Y-5003096D01*
X13451397Y-4903707D01*
X13672849Y-4768003D01*
X13679645Y-4762198D01*
X13025945Y-4108498D01*
X13038891Y-4103787D01*
X13185373Y-4007445D01*
X13305688Y-3879918D01*
X13378447Y-3753894D01*
X14033198Y-4408645D01*
X14039003Y-4401849D01*
X14174707Y-4180397D01*
X14274096Y-3940455D01*
X14334724Y-3687916D01*
X14355101Y-3428999D01*
X14334724Y-3170083D01*
X14274096Y-2917544D01*
X14174705Y-2677597D01*
X14039006Y-2456155D01*
X14033198Y-2449354D01*
X13377195Y-3105356D01*
X13353941Y-3051447D01*
X13249244Y-2910815D01*
X13114938Y-2798118D01*
X13023333Y-2752112D01*
X13679645Y-2095801D01*
X13672843Y-2089993D01*
X13451402Y-1954294D01*
X13211455Y-1854903D01*
X12958916Y-1794275D01*
X12700000Y-1773898D01*
X12441083Y-1794275D01*
X12188544Y-1854903D01*
X11948597Y-1954294D01*
X11727156Y-2089992D01*
X11720354Y-2095801D01*
X12374054Y-2749501D01*
X12361109Y-2754213D01*
X12214627Y-2850555D01*
X12094312Y-2978082D01*
X12021553Y-3104104D01*
X11366801Y-2449354D01*
X11360992Y-2456156D01*
X11225294Y-2677597D01*
X11125903Y-2917544D01*
X11065275Y-3170083D01*
X11044898Y-3429000D01*
X-10865898Y-3429000D01*
X-10886275Y-3170083D01*
X-10946903Y-2917544D01*
X-11046294Y-2677597D01*
X-11181992Y-2456156D01*
X-11187801Y-2449354D01*
X-11843804Y-3105357D01*
X-11867059Y-3051447D01*
X-11971756Y-2910815D01*
X-12106062Y-2798118D01*
X-12197664Y-2752113D01*
X-11541353Y-2095801D01*
X-11548156Y-2089992D01*
X-11769597Y-1954294D01*
X-12009544Y-1854903D01*
X-12262083Y-1794275D01*
X-12521000Y-1773898D01*
X-12779916Y-1794275D01*
X-13032455Y-1854903D01*
X-13272402Y-1954294D01*
X-13493843Y-2089993D01*
X-13500644Y-2095801D01*
X-12846944Y-2749500D01*
X-12859891Y-2754213D01*
X-13006373Y-2850555D01*
X-13126688Y-2978082D01*
X-13199446Y-3104104D01*
X-13854197Y-2449354D01*
X-13854198Y-2449354D01*
X-13860006Y-2456155D01*
X-13995705Y-2677597D01*
X-14095096Y-2917544D01*
X-14155724Y-3170083D01*
X-14176101Y-3428999D01*
X-17723898Y-3428999D01*
X-17744275Y-3170083D01*
X-17804903Y-2917544D01*
X-17904294Y-2677597D01*
X-18039992Y-2456156D01*
X-18045801Y-2449354D01*
X-18701804Y-3105356D01*
X-18725059Y-3051447D01*
X-18829756Y-2910815D01*
X-18964062Y-2798118D01*
X-19055665Y-2752112D01*
X-18399354Y-2095801D01*
X-18406156Y-2089992D01*
X-18627597Y-1954294D01*
X-18867544Y-1854903D01*
X-19120083Y-1794275D01*
X-19379000Y-1773898D01*
X-19637916Y-1794275D01*
X-19890455Y-1854903D01*
X-20130402Y-1954294D01*
X-20351843Y-2089993D01*
X-20358645Y-2095801D01*
X-19704945Y-2749501D01*
X-19717891Y-2754213D01*
X-19864373Y-2850555D01*
X-19984688Y-2978082D01*
X-20057446Y-3104103D01*
X-20712197Y-2449354D01*
X-20712198Y-2449354D01*
X-20718006Y-2456155D01*
X-20853705Y-2677597D01*
X-20953096Y-2917544D01*
X-21013724Y-3170083D01*
X-21034101Y-3428999D01*
X-29915898Y-3428999D01*
X-29936275Y-3170083D01*
X-29996903Y-2917544D01*
X-30096294Y-2677597D01*
X-30231992Y-2456156D01*
X-30237801Y-2449354D01*
X-30893804Y-3105356D01*
X-30917059Y-3051447D01*
X-31021756Y-2910815D01*
X-31156062Y-2798118D01*
X-31247665Y-2752112D01*
X-30591354Y-2095801D01*
X-30598156Y-2089992D01*
X-30819597Y-1954294D01*
X-31059544Y-1854903D01*
X-31312083Y-1794275D01*
X-31571000Y-1773898D01*
X-31829916Y-1794275D01*
X-32082455Y-1854903D01*
X-32322402Y-1954294D01*
X-32543843Y-2089993D01*
X-32550645Y-2095801D01*
X-31896944Y-2749500D01*
X-31909891Y-2754213D01*
X-32056373Y-2850555D01*
X-32176688Y-2978082D01*
X-32249446Y-3104104D01*
X-32904197Y-2449354D01*
X-32904198Y-2449354D01*
X-32910006Y-2456155D01*
X-33045705Y-2677597D01*
X-33145096Y-2917544D01*
X-33205724Y-3170083D01*
X-33226101Y-3428999D01*
X-36773898Y-3428999D01*
X-36794275Y-3170083D01*
X-36854903Y-2917544D01*
X-36954294Y-2677597D01*
X-37020052Y-2570290D01*
X-37038297Y-2502844D01*
X-37017181Y-2436242D01*
X-36963409Y-2391628D01*
X-36914325Y-2381500D01*
X-34186198Y-2381500D01*
X-34170014Y-2382560D01*
X-34141104Y-2386367D01*
X-34141103Y-2386366D01*
X-34141103Y-2386367D01*
X-34123974Y-2384111D01*
X-33993870Y-2366983D01*
X-33856671Y-2310153D01*
X-33768436Y-2242449D01*
X-33768435Y-2242448D01*
X-33738854Y-2219750D01*
X-33721101Y-2196614D01*
X-33710406Y-2184419D01*
X-32559899Y-1033912D01*
X-31091806Y434181D01*
X-31030484Y467666D01*
X-31004126Y470500D01*
X-17434877Y470500D01*
X-17367838Y450815D01*
X-17322083Y398011D01*
X-17312139Y328853D01*
X-17314671Y316060D01*
X-17336134Y231305D01*
X-17355300Y0D01*
X-17336134Y-231305D01*
X-17279157Y-456300D01*
X-17185924Y-668849D01*
X-17058979Y-863153D01*
X-16901784Y-1033913D01*
X-16718626Y-1176470D01*
X-16514503Y-1286936D01*
X-16294981Y-1362298D01*
X-16066049Y-1400500D01*
X-16066048Y-1400500D01*
X-15833952Y-1400500D01*
X-15833951Y-1400500D01*
X-15605019Y-1362298D01*
X-15605017Y-1362297D01*
X-15605015Y-1362297D01*
X-15495257Y-1324617D01*
X-15385497Y-1286936D01*
X-15181374Y-1176470D01*
X-14998216Y-1033913D01*
X-14841021Y-863153D01*
X-14714076Y-668849D01*
X-14684828Y-602170D01*
X-14620844Y-456303D01*
X-14618750Y-448034D01*
X-14563866Y-231305D01*
X-14563865Y-231301D01*
X-14563865Y-231299D01*
X-14544699Y0D01*
X-14563865Y231299D01*
X-14563865Y231301D01*
X-14563866Y231305D01*
X-14620843Y456300D01*
X-14694268Y623692D01*
X-14703171Y692989D01*
X-14673194Y756102D01*
X-14613855Y792989D01*
X-14580712Y797500D01*
X12853521Y797500D01*
X12920560Y777815D01*
X12941202Y761181D01*
X13165092Y537290D01*
X13175786Y525096D01*
X13247748Y431313D01*
X13270890Y413555D01*
X13283080Y402863D01*
X15232864Y-1546919D01*
X15243559Y-1559114D01*
X15261311Y-1582249D01*
X15290892Y-1604947D01*
X15290901Y-1604955D01*
X15379129Y-1672654D01*
X15516328Y-1729483D01*
X15663562Y-1748868D01*
X15692478Y-1745060D01*
X15708664Y-1744000D01*
X18710096Y-1744000D01*
X18777135Y-1763685D01*
X18822890Y-1816489D01*
X18832834Y-1885647D01*
X18803809Y-1949203D01*
X18774886Y-1973728D01*
X18585152Y-2089996D01*
X18578354Y-2095801D01*
X19232054Y-2749501D01*
X19219109Y-2754213D01*
X19072627Y-2850555D01*
X18952312Y-2978082D01*
X18879552Y-3104105D01*
X18224801Y-2449354D01*
X18218992Y-2456156D01*
X18083294Y-2677597D01*
X17983903Y-2917544D01*
X17923275Y-3170083D01*
X17902898Y-3428999D01*
X17923275Y-3687916D01*
X17983903Y-3940455D01*
X18083294Y-4180402D01*
X18218993Y-4401843D01*
X18224801Y-4408644D01*
X18880803Y-3752641D01*
X18904059Y-3806553D01*
X19008756Y-3947185D01*
X19143062Y-4059882D01*
X19234665Y-4105887D01*
X18578354Y-4762198D01*
X18585155Y-4768006D01*
X18806597Y-4903705D01*
X19046544Y-5003096D01*
X19299083Y-5063724D01*
X19558000Y-5084101D01*
X19816916Y-5063724D01*
X20069455Y-5003096D01*
X20309397Y-4903707D01*
X20530849Y-4768003D01*
X20537645Y-4762198D01*
X19883945Y-4108498D01*
X19896891Y-4103787D01*
X20043373Y-4007445D01*
X20163688Y-3879918D01*
X20236447Y-3753894D01*
X20891198Y-4408645D01*
X20897003Y-4401849D01*
X21032707Y-4180397D01*
X21132096Y-3940455D01*
X21192724Y-3687916D01*
X21213101Y-3429000D01*
X21192724Y-3170083D01*
X21132096Y-2917544D01*
X21032705Y-2677597D01*
X20897006Y-2456155D01*
X20891198Y-2449354D01*
X20235195Y-3105356D01*
X20211941Y-3051447D01*
X20107244Y-2910815D01*
X19972938Y-2798118D01*
X19881333Y-2752112D01*
X20537645Y-2095801D01*
X20530843Y-2089993D01*
X20341114Y-1973727D01*
X20294239Y-1921915D01*
X20282816Y-1852986D01*
X20310473Y-1788823D01*
X20368429Y-1749798D01*
X20405904Y-1744000D01*
X30902096Y-1744000D01*
X30969135Y-1763685D01*
X31014890Y-1816489D01*
X31024834Y-1885647D01*
X30995809Y-1949203D01*
X30966886Y-1973728D01*
X30777152Y-2089996D01*
X30770354Y-2095801D01*
X31424054Y-2749501D01*
X31411109Y-2754213D01*
X31264627Y-2850555D01*
X31144312Y-2978082D01*
X31071552Y-3104105D01*
X30416801Y-2449354D01*
X30410992Y-2456156D01*
X30275294Y-2677597D01*
X30175903Y-2917544D01*
X30115275Y-3170083D01*
X30094898Y-3428999D01*
X30115275Y-3687916D01*
X30175903Y-3940455D01*
X30275294Y-4180402D01*
X30410993Y-4401843D01*
X30416801Y-4408644D01*
X31072803Y-3752640D01*
X31096059Y-3806553D01*
X31200756Y-3947185D01*
X31335062Y-4059882D01*
X31426665Y-4105887D01*
X30770354Y-4762198D01*
X30777155Y-4768006D01*
X30998597Y-4903705D01*
X31238544Y-5003096D01*
X31491083Y-5063724D01*
X31750000Y-5084101D01*
X32008916Y-5063724D01*
X32261455Y-5003096D01*
X32501397Y-4903707D01*
X32722849Y-4768003D01*
X32729645Y-4762198D01*
X32075945Y-4108498D01*
X32088891Y-4103787D01*
X32235373Y-4007445D01*
X32355688Y-3879918D01*
X32428447Y-3753893D01*
X33083198Y-4408645D01*
X33089003Y-4401849D01*
X33224707Y-4180397D01*
X33324096Y-3940455D01*
X33384724Y-3687916D01*
X33405101Y-3428999D01*
X36952898Y-3428999D01*
X36973275Y-3687916D01*
X37033903Y-3940455D01*
X37133294Y-4180402D01*
X37268993Y-4401843D01*
X37274801Y-4408644D01*
X37930804Y-3752642D01*
X37954059Y-3806553D01*
X38058756Y-3947185D01*
X38193062Y-4059882D01*
X38284665Y-4105886D01*
X37628353Y-4762198D01*
X37635155Y-4768006D01*
X37856597Y-4903705D01*
X38096544Y-5003096D01*
X38349083Y-5063724D01*
X38608000Y-5084101D01*
X38866916Y-5063724D01*
X39119455Y-5003096D01*
X39359397Y-4903707D01*
X39580849Y-4768003D01*
X39587645Y-4762198D01*
X38933945Y-4108498D01*
X38946891Y-4103787D01*
X39093373Y-4007445D01*
X39213688Y-3879918D01*
X39286447Y-3753894D01*
X39941198Y-4408645D01*
X39947003Y-4401849D01*
X40082707Y-4180397D01*
X40182096Y-3940455D01*
X40242724Y-3687916D01*
X40263101Y-3429000D01*
X40242724Y-3170083D01*
X40182096Y-2917544D01*
X40082705Y-2677597D01*
X39947006Y-2456155D01*
X39941198Y-2449354D01*
X39285195Y-3105356D01*
X39261941Y-3051447D01*
X39157244Y-2910815D01*
X39022938Y-2798118D01*
X38931332Y-2752112D01*
X39587644Y-2095801D01*
X39580843Y-2089993D01*
X39359402Y-1954294D01*
X39119455Y-1854903D01*
X38866916Y-1794275D01*
X38608000Y-1773898D01*
X38349083Y-1794275D01*
X38096544Y-1854903D01*
X37856597Y-1954294D01*
X37635156Y-2089992D01*
X37628354Y-2095801D01*
X38282054Y-2749501D01*
X38269109Y-2754213D01*
X38122627Y-2850555D01*
X38002312Y-2978082D01*
X37929552Y-3104105D01*
X37274801Y-2449354D01*
X37268992Y-2456156D01*
X37133294Y-2677597D01*
X37033903Y-2917544D01*
X36973275Y-3170083D01*
X36952898Y-3428999D01*
X33405101Y-3428999D01*
X33384724Y-3170083D01*
X33324096Y-2917544D01*
X33224705Y-2677597D01*
X33089006Y-2456155D01*
X33083198Y-2449354D01*
X32427195Y-3105356D01*
X32403941Y-3051447D01*
X32299244Y-2910815D01*
X32164938Y-2798118D01*
X32073332Y-2752112D01*
X32729644Y-2095801D01*
X32722843Y-2089993D01*
X32533114Y-1973727D01*
X32486239Y-1921915D01*
X32474816Y-1852986D01*
X32502473Y-1788823D01*
X32560429Y-1749798D01*
X32597904Y-1744000D01*
X33953906Y-1744000D01*
X33970089Y-1745060D01*
X33999000Y-1748867D01*
X34146234Y-1729483D01*
X34283433Y-1672653D01*
X34371668Y-1604949D01*
X34371668Y-1604948D01*
X34371670Y-1604947D01*
X34377726Y-1600299D01*
X34401250Y-1582250D01*
X34419003Y-1559112D01*
X34429690Y-1546925D01*
X34615734Y-1360881D01*
X34677055Y-1327398D01*
X34743675Y-1331282D01*
X34794947Y-1348884D01*
X34834018Y-1362298D01*
X34948484Y-1381399D01*
X35062951Y-1400500D01*
X35062952Y-1400500D01*
X35295048Y-1400500D01*
X35295049Y-1400500D01*
X35523981Y-1362298D01*
X35743503Y-1286936D01*
X35947626Y-1176470D01*
X36130784Y-1033913D01*
X36287979Y-863153D01*
X36414924Y-668849D01*
X36508157Y-456300D01*
X36565134Y-231305D01*
X36584300Y0D01*
X36565134Y231305D01*
X36508157Y456300D01*
X36414924Y668849D01*
X36287979Y863153D01*
X36130784Y1033913D01*
X35947626Y1176470D01*
X35870060Y1218446D01*
X35820472Y1267665D01*
X35805364Y1335882D01*
X35829535Y1401437D01*
X35885311Y1443518D01*
X35929080Y1451500D01*
X53170406Y1451500D01*
X53186589Y1450439D01*
X53190019Y1449987D01*
X53215500Y1446632D01*
X53345604Y1463761D01*
X53362734Y1466017D01*
X53440018Y1498029D01*
X53484840Y1516595D01*
X53554310Y1524064D01*
X53616789Y1492789D01*
X53652441Y1432700D01*
X53655821Y1391227D01*
X53644340Y1260000D01*
X53664936Y1024592D01*
X53726097Y796337D01*
X53825258Y583685D01*
X53825965Y582170D01*
X53961505Y388599D01*
X53961508Y388595D01*
X54128595Y221508D01*
X54128598Y221505D01*
X54128599Y221505D01*
X54314160Y91573D01*
X54357783Y36998D01*
X54364976Y-32501D01*
X54333454Y-94855D01*
X54314158Y-111575D01*
X54143174Y-231300D01*
X54128595Y-241508D01*
X53961505Y-408598D01*
X53825965Y-602170D01*
X53726097Y-816336D01*
X53664936Y-1044592D01*
X53644340Y-1280000D01*
X53664936Y-1515407D01*
X53688929Y-1604948D01*
X53726097Y-1743663D01*
X53825965Y-1957830D01*
X53961505Y-2151401D01*
X54128599Y-2318495D01*
X54314160Y-2448426D01*
X54357783Y-2503002D01*
X54364976Y-2572501D01*
X54333454Y-2634855D01*
X54314159Y-2651575D01*
X54128595Y-2781508D01*
X53961505Y-2948598D01*
X53825965Y-3142170D01*
X53726097Y-3356336D01*
X53664936Y-3584592D01*
X53644340Y-3820000D01*
X53664936Y-4055407D01*
X53709709Y-4222501D01*
X53726097Y-4283663D01*
X53825965Y-4497830D01*
X53961505Y-4691401D01*
X54128599Y-4858495D01*
X54322170Y-4994035D01*
X54536337Y-5093903D01*
X54764592Y-5155063D01*
X55000000Y-5175659D01*
X55235408Y-5155063D01*
X55463663Y-5093903D01*
X55677830Y-4994035D01*
X55871401Y-4858495D01*
X56038495Y-4691401D01*
X56174035Y-4497830D01*
X56273903Y-4283663D01*
X56335063Y-4055408D01*
X56355659Y-3820000D01*
X56346388Y-3714040D01*
X56335063Y-3584592D01*
X56289764Y-3415531D01*
X56291427Y-3345681D01*
X56321856Y-3295759D01*
X57173924Y-2443691D01*
X57186114Y-2433002D01*
X57209250Y-2415250D01*
X57299653Y-2297433D01*
X57356483Y-2160234D01*
X57371000Y-2049968D01*
X57375867Y-2013000D01*
X57372061Y-1984089D01*
X57371000Y-1967904D01*
X57371000Y4992800D01*
X57372061Y5008985D01*
X57375867Y5037896D01*
X57356483Y5185130D01*
X57299653Y5322329D01*
X57231949Y5410564D01*
X57214348Y5433502D01*
X57213805Y5434209D01*
X57209250Y5440146D01*
X57186112Y5457899D01*
X57173925Y5468586D01*
X56465587Y6176924D01*
X56454898Y6189114D01*
X56454897Y6189115D01*
X56437146Y6212250D01*
X56319329Y6302653D01*
X56182130Y6359483D01*
X56071864Y6374000D01*
X56034896Y6378867D01*
X56005985Y6375060D01*
X55989802Y6374000D01*
X-38994691Y6374000D01*
X-39010877Y6375061D01*
X-39039792Y6378868D01*
X-39187026Y6359483D01*
X-39324225Y6302654D01*
X-39412460Y6234949D01*
X-39442042Y6212250D01*
X-39459802Y6189103D01*
X-39470482Y6176925D01*
X-46463745Y-816336D01*
X-48787819Y-3140410D01*
X-48849142Y-3173895D01*
X-48918834Y-3168911D01*
X-48974767Y-3127039D01*
X-48999184Y-3061575D01*
X-48999500Y-3052729D01*
X-48999500Y13375500D01*
X-48979815Y13442539D01*
X-48927011Y13488294D01*
X-48875500Y13499500D01*
X-46319034Y13499500D01*
X-46251995Y13479815D01*
G37*
%TD.AperFunction*%
%TA.AperFunction,Conductor*%
G36*
X62646701Y-88293148D02*
G01*
X62646702Y-88293148D01*
X62833399Y-88062597D01*
X62837216Y-88057343D01*
X63033476Y-87755129D01*
X63036722Y-87749508D01*
X63200323Y-87428424D01*
X63202963Y-87422494D01*
X63259736Y-87274596D01*
X63302138Y-87219063D01*
X63367832Y-87195270D01*
X63435960Y-87210771D01*
X63484893Y-87260645D01*
X63499500Y-87319033D01*
X63499500Y-89375500D01*
X63479815Y-89442539D01*
X63427011Y-89488294D01*
X63375500Y-89499500D01*
X61319034Y-89499500D01*
X61251995Y-89479815D01*
X61206240Y-89427011D01*
X61196296Y-89357853D01*
X61225321Y-89294297D01*
X61274596Y-89259736D01*
X61422500Y-89202960D01*
X61428424Y-89200323D01*
X61749508Y-89036722D01*
X61755129Y-89033476D01*
X62057343Y-88837216D01*
X62062597Y-88833399D01*
X62293148Y-88646702D01*
X62293148Y-88646701D01*
X60869883Y-87223435D01*
X60924477Y-87187768D01*
X61107368Y-87019404D01*
X61223610Y-86870057D01*
X62646701Y-88293148D01*
G37*
%TD.AperFunction*%
%TA.AperFunction,Conductor*%
G36*
X63442539Y13479815D02*
G01*
X63488294Y13427011D01*
X63499500Y13375500D01*
X63499500Y11319033D01*
X63479815Y11251994D01*
X63427011Y11206239D01*
X63357853Y11196295D01*
X63294297Y11225320D01*
X63259736Y11274596D01*
X63202963Y11422494D01*
X63200323Y11428424D01*
X63036722Y11749507D01*
X63033476Y11755128D01*
X62837216Y12057343D01*
X62833399Y12062597D01*
X62646702Y12293148D01*
X62646701Y12293148D01*
X61223610Y10870057D01*
X61107368Y11019404D01*
X60924477Y11187768D01*
X60869882Y11223436D01*
X62293148Y12646702D01*
X62062597Y12833399D01*
X62057343Y12837216D01*
X61755129Y13033476D01*
X61749508Y13036722D01*
X61428424Y13200323D01*
X61422500Y13202960D01*
X61274596Y13259736D01*
X61219064Y13302138D01*
X61195271Y13367832D01*
X61210773Y13435960D01*
X61260646Y13484893D01*
X61319034Y13499500D01*
X63375500Y13499500D01*
X63442539Y13479815D01*
G37*
%TD.AperFunction*%
%TD*%
M02*
