M48
; DRILL file {KiCad 7.0.2} date Thu Oct 26 19:02:48 2023
; FORMAT={-:-/ absolute / inch / decimal}
; #@! TF.CreationDate,2023-10-26T19:02:48-06:00
; #@! TF.GenerationSoftware,Kicad,Pcbnew,7.0.2
; #@! TF.FileFunction,Plated,1,4,PTH
FMAT,2
INCH
; #@! TA.AperFunction,Plated,PTH,ViaDrill
T1C0.0157
; #@! TA.AperFunction,Plated,PTH,ComponentDrill
T2C0.0394
; #@! TA.AperFunction,Plated,PTH,ComponentDrill
T3C0.0433
; #@! TA.AperFunction,Plated,PTH,ComponentDrill
T4C0.0591
; #@! TA.AperFunction,Plated,PTH,ComponentDrill
T5C0.1181
%
G90
G05
T1
X-1.9975Y-0.839
X-1.9915Y-1.7261
X-1.9346Y-1.7161
X-1.9189Y-1.7591
X-1.8857Y-1.7957
X-1.8713Y-1.0823
X-1.8606Y-0.8362
X-1.8596Y-1.8421
X-1.8497Y-1.0115
X-1.8484Y-0.784
X-1.8471Y-0.9221
X-1.841Y-1.0572
X-1.8335Y-1.887
X-1.8323Y-2.0913
X-1.8285Y-0.7217
X-1.8253Y-2.1352
X-1.8232Y-0.6795
X-1.8217Y-2.2003
X-1.8213Y-0.8361
X-1.8189Y-2.2473
X-1.8129Y-0.8746
X-1.8096Y-0.7562
X-1.8091Y-0.7956
X-1.8082Y-0.9162
X-1.8042Y-0.9684
X-1.8028Y-1.9393
X-1.8027Y-1.9787
X-1.8025Y-1.0077
X-1.8022Y-1.8632
X-1.7904Y-2.1741
X-1.77Y-2.1167
X-1.7626Y-1.9754
T2
X2.1654Y0.1496
X2.1654Y0.0496
X2.1654Y-0.0504
X2.1654Y-0.1504
X2.1654Y-0.8504
X2.1654Y-0.9504
X2.1654Y-1.0504
X2.1654Y-1.1504
X2.1654Y-1.8504
X2.1654Y-1.9504
X2.1654Y-2.0504
X2.1654Y-2.1504
X2.1654Y-2.8504
X2.1654Y-2.9504
X2.1654Y-3.0504
X2.1654Y-3.1504
T3
X-1.378Y0.0
X-1.378Y-1.0
X-1.378Y-2.0
X-1.378Y-3.0
X-0.628Y0.0
X-0.628Y-1.0
X-0.628Y-2.0
X-0.628Y-3.0
X0.635Y0.0
X0.635Y-1.0
X0.635Y-2.0
X0.635Y-3.0
X1.385Y0.0
X1.385Y-1.0
X1.385Y-2.0
X1.385Y-3.0012
T4
X-1.513Y0.135
X-1.513Y-0.135
X-1.513Y-0.865
X-1.513Y-1.135
X-1.513Y-1.865
X-1.513Y-2.135
X-1.513Y-2.865
X-1.513Y-3.135
X-1.243Y0.135
X-1.243Y-0.135
X-1.243Y-0.865
X-1.243Y-1.135
X-1.243Y-1.865
X-1.243Y-2.135
X-1.243Y-2.865
X-1.243Y-3.135
X-0.763Y0.135
X-0.763Y-0.135
X-0.763Y-0.865
X-0.763Y-1.135
X-0.763Y-1.865
X-0.763Y-2.135
X-0.763Y-2.865
X-0.763Y-3.135
X-0.493Y0.135
X-0.493Y-0.135
X-0.493Y-0.865
X-0.493Y-1.135
X-0.493Y-1.865
X-0.493Y-2.135
X-0.493Y-2.865
X-0.493Y-3.135
X0.5Y0.135
X0.5Y-0.135
X0.5Y-0.865
X0.5Y-1.135
X0.5Y-1.865
X0.5Y-2.135
X0.5Y-2.865
X0.5Y-3.135
X0.77Y0.135
X0.77Y-0.135
X0.77Y-0.865
X0.77Y-1.135
X0.77Y-1.865
X0.77Y-2.135
X0.77Y-2.865
X0.77Y-3.135
X1.25Y0.135
X1.25Y-0.135
X1.25Y-0.865
X1.25Y-1.135
X1.25Y-1.865
X1.25Y-2.135
X1.25Y-2.8662
X1.25Y-3.1362
X1.52Y0.135
X1.52Y-0.135
X1.52Y-0.865
X1.52Y-1.135
X1.52Y-1.865
X1.52Y-2.135
X1.52Y-2.8662
X1.52Y-3.1362
T5
X-1.7717Y0.3937
X-1.7717Y-3.3858
X2.3622Y0.3937
X2.3622Y-3.3858
T0
M30
