M48
; DRILL file {KiCad 7.0.2} date Mon Dec  4 15:43:02 2023
; FORMAT={-:-/ absolute / inch / decimal}
; #@! TF.CreationDate,2023-12-04T15:43:02-07:00
; #@! TF.GenerationSoftware,Kicad,Pcbnew,7.0.2
; #@! TF.FileFunction,Plated,1,4,PTH
FMAT,2
INCH
; #@! TA.AperFunction,Plated,PTH,ViaDrill
T1C0.0157
; #@! TA.AperFunction,Plated,PTH,ComponentDrill
T2C0.0394
; #@! TA.AperFunction,Plated,PTH,ComponentDrill
T3C0.0433
; #@! TA.AperFunction,Plated,PTH,ComponentDrill
T4C0.0591
; #@! TA.AperFunction,Plated,PTH,ComponentDrill
T5C0.1181
%
G90
G05
T1
X-3.2491Y-1.6609
X-3.2479Y-1.7002
X-3.2455Y-1.6217
X-3.2407Y-1.5827
X-3.2402Y-1.5433
X-2.9134Y-1.6417
X-2.7497Y-1.5878
X-2.748Y-1.5485
X-2.7461Y-1.6283
X-2.7428Y-1.5095
X-2.7398Y-1.4106
X-2.7253Y-1.3138
X-2.7253Y-1.3531
X-2.7064Y-1.465
X-2.7038Y-1.5046
X-2.6992Y-1.4043
X-2.2525Y-1.3857
X-2.2292Y-1.647
X-2.2274Y-1.6863
X-2.2272Y-1.6077
X-2.2248Y-1.7256
X-2.2089Y-1.386
X-2.2062Y-1.3468
X-2.1707Y-1.3207
X-2.1315Y-1.3173
X-1.9669Y-1.3547
X-1.9638Y-1.7862
X-1.9492Y-1.5116
X-1.9406Y-1.3953
X-1.9374Y-1.5634
X-1.8571Y-1.5201
X-1.8524Y-1.5591
T2
X2.1654Y0.1496
X2.1654Y0.0496
X2.1654Y-0.0504
X2.1654Y-0.1504
X2.1654Y-0.8504
X2.1654Y-0.9504
X2.1654Y-1.0504
X2.1654Y-1.1504
X2.1654Y-1.8504
X2.1654Y-1.9504
X2.1654Y-2.0504
X2.1654Y-2.1504
X2.1654Y-2.8504
X2.1654Y-2.9504
X2.1654Y-3.0504
X2.1654Y-3.1504
T3
X-1.378Y0.0
X-1.378Y-1.0
X-1.378Y-2.0
X-1.378Y-3.0
X-0.628Y0.0
X-0.628Y-1.0
X-0.628Y-2.0
X-0.628Y-3.0
X0.635Y0.0
X0.635Y-1.0
X0.635Y-2.0
X0.635Y-3.0
X1.385Y0.0
X1.385Y-1.0
X1.385Y-2.0
X1.385Y-3.0012
T4
X-1.513Y0.135
X-1.513Y-0.135
X-1.513Y-0.865
X-1.513Y-1.135
X-1.513Y-1.865
X-1.513Y-2.135
X-1.513Y-2.865
X-1.513Y-3.135
X-1.243Y0.135
X-1.243Y-0.135
X-1.243Y-0.865
X-1.243Y-1.135
X-1.243Y-1.865
X-1.243Y-2.135
X-1.243Y-2.865
X-1.243Y-3.135
X-0.763Y0.135
X-0.763Y-0.135
X-0.763Y-0.865
X-0.763Y-1.135
X-0.763Y-1.865
X-0.763Y-2.135
X-0.763Y-2.865
X-0.763Y-3.135
X-0.493Y0.135
X-0.493Y-0.135
X-0.493Y-0.865
X-0.493Y-1.135
X-0.493Y-1.865
X-0.493Y-2.135
X-0.493Y-2.865
X-0.493Y-3.135
X0.5Y0.135
X0.5Y-0.135
X0.5Y-0.865
X0.5Y-1.135
X0.5Y-1.865
X0.5Y-2.135
X0.5Y-2.865
X0.5Y-3.135
X0.77Y0.135
X0.77Y-0.135
X0.77Y-0.865
X0.77Y-1.135
X0.77Y-1.865
X0.77Y-2.135
X0.77Y-2.865
X0.77Y-3.135
X1.25Y0.135
X1.25Y-0.135
X1.25Y-0.865
X1.25Y-1.135
X1.25Y-1.865
X1.25Y-2.135
X1.25Y-2.8662
X1.25Y-3.1362
X1.52Y0.135
X1.52Y-0.135
X1.52Y-0.865
X1.52Y-1.135
X1.52Y-1.865
X1.52Y-2.135
X1.52Y-2.8662
X1.52Y-3.1362
T5
X-1.7717Y0.3937
X-1.7717Y-3.3858
X2.3622Y0.3937
X2.3622Y-3.3858
T0
M30
