%TF.GenerationSoftware,KiCad,Pcbnew,7.0.2*%
%TF.CreationDate,2023-10-18T16:00:00-06:00*%
%TF.ProjectId,LED_Probe_Breakout,4c45445f-5072-46f6-9265-5f427265616b,rev?*%
%TF.SameCoordinates,Original*%
%TF.FileFunction,Paste,Top*%
%TF.FilePolarity,Positive*%
%FSLAX46Y46*%
G04 Gerber Fmt 4.6, Leading zero omitted, Abs format (unit mm)*
G04 Created by KiCad (PCBNEW 7.0.2) date 2023-10-18 16:00:00*
%MOMM*%
%LPD*%
G01*
G04 APERTURE LIST*
%ADD10R,1.300000X0.300000*%
%ADD11R,1.600000X2.000000*%
G04 APERTURE END LIST*
D10*
%TO.C,J1*%
X-49500000Y-28250000D03*
X-49500000Y-28750000D03*
X-49500000Y-29250000D03*
X-49500000Y-29750000D03*
X-49500000Y-30250000D03*
X-49500000Y-30750000D03*
X-49500000Y-31250000D03*
X-49500000Y-31750000D03*
X-49500000Y-32250000D03*
X-49500000Y-32750000D03*
X-49500000Y-33250000D03*
X-49500000Y-33750000D03*
X-49500000Y-34250000D03*
X-49500000Y-34750000D03*
X-49500000Y-35250000D03*
X-49500000Y-35750000D03*
X-49500000Y-36250000D03*
X-49500000Y-36750000D03*
X-49500000Y-37250000D03*
X-49500000Y-37750000D03*
X-49500000Y-38250000D03*
X-49500000Y-38750000D03*
X-49500000Y-39250000D03*
X-49500000Y-39750000D03*
X-49500000Y-40250000D03*
X-49500000Y-40750000D03*
X-49500000Y-41250000D03*
X-49500000Y-41750000D03*
X-49500000Y-42250000D03*
X-49500000Y-42750000D03*
X-49500000Y-43250000D03*
X-49500000Y-43750000D03*
X-49500000Y-44250000D03*
X-49500000Y-44750000D03*
X-49500000Y-45250000D03*
X-49500000Y-45750000D03*
X-49500000Y-46250000D03*
X-49500000Y-46750000D03*
X-49500000Y-47250000D03*
X-49500000Y-47750000D03*
D11*
X-52100000Y-49450000D03*
X-52100000Y-26550000D03*
%TD*%
M02*
