%TF.GenerationSoftware,KiCad,Pcbnew,7.0.2*%
%TF.CreationDate,2023-10-26T19:02:47-06:00*%
%TF.ProjectId,LED_Probe_Breakout,4c45445f-5072-46f6-9265-5f427265616b,rev?*%
%TF.SameCoordinates,Original*%
%TF.FileFunction,Copper,L3,Inr*%
%TF.FilePolarity,Positive*%
%FSLAX46Y46*%
G04 Gerber Fmt 4.6, Leading zero omitted, Abs format (unit mm)*
G04 Created by KiCad (PCBNEW 7.0.2) date 2023-10-26 19:02:47*
%MOMM*%
%LPD*%
G01*
G04 APERTURE LIST*
%TA.AperFunction,ComponentPad*%
%ADD10C,1.800000*%
%TD*%
%TA.AperFunction,ComponentPad*%
%ADD11C,2.300000*%
%TD*%
%TA.AperFunction,ComponentPad*%
%ADD12C,6.000000*%
%TD*%
%TA.AperFunction,ComponentPad*%
%ADD13R,1.700000X1.700000*%
%TD*%
%TA.AperFunction,ComponentPad*%
%ADD14O,1.700000X1.700000*%
%TD*%
%TA.AperFunction,ViaPad*%
%ADD15C,0.800000*%
%TD*%
%TA.AperFunction,Conductor*%
%ADD16C,0.127000*%
%TD*%
G04 APERTURE END LIST*
D10*
%TO.N,/W_I-*%
%TO.C,J14*%
X-15950000Y-76200000D03*
D11*
%TO.N,GND*%
X-19379000Y-79629000D03*
X-12521000Y-79629000D03*
X-19379000Y-72771000D03*
X-12521000Y-72771000D03*
%TD*%
D10*
%TO.N,/S_V-*%
%TO.C,J4*%
X35179000Y0D03*
D11*
%TO.N,GND*%
X31750000Y-3429000D03*
X38608000Y-3429000D03*
X31750000Y3429000D03*
X38608000Y3429000D03*
%TD*%
D10*
%TO.N,/W_V-*%
%TO.C,J17*%
X35179000Y-76230000D03*
D11*
%TO.N,GND*%
X31750000Y-79659000D03*
X38608000Y-79659000D03*
X31750000Y-72801000D03*
X38608000Y-72801000D03*
%TD*%
D10*
%TO.N,/N_I-*%
%TO.C,J10*%
X-15950000Y-50800000D03*
D11*
%TO.N,GND*%
X-19379000Y-54229000D03*
X-12521000Y-54229000D03*
X-19379000Y-47371000D03*
X-12521000Y-47371000D03*
%TD*%
D10*
%TO.N,/E_I-*%
%TO.C,J6*%
X-15950000Y-25400000D03*
D11*
%TO.N,GND*%
X-19379000Y-28829000D03*
X-12521000Y-28829000D03*
X-19379000Y-21971000D03*
X-12521000Y-21971000D03*
%TD*%
D12*
%TO.N,GND*%
%TO.C,H4*%
X60000000Y10000000D03*
%TD*%
D13*
%TO.N,/Solder_Point_Breakout3/Sig_1*%
%TO.C,J21*%
X55000000Y-72400000D03*
D14*
%TO.N,/Solder_Point_Breakout3/Sig_2*%
X55000000Y-74940000D03*
%TO.N,/Solder_Point_Breakout3/Sig_3*%
X55000000Y-77480000D03*
%TO.N,/Solder_Point_Breakout3/Sig_4*%
X55000000Y-80020000D03*
%TD*%
D10*
%TO.N,/S_V+*%
%TO.C,J3*%
X16129000Y0D03*
D11*
%TO.N,GND*%
X12700000Y-3429000D03*
X19558000Y-3429000D03*
X12700000Y3429000D03*
X19558000Y3429000D03*
%TD*%
D10*
%TO.N,/N_I+*%
%TO.C,J11*%
X-35000000Y-50800000D03*
D11*
%TO.N,GND*%
X-38429000Y-54229000D03*
X-31571000Y-54229000D03*
X-38429000Y-47371000D03*
X-31571000Y-47371000D03*
%TD*%
D13*
%TO.N,/Solder_Point_Breakout1/Sig_1*%
%TO.C,J19*%
X55000000Y-21600000D03*
D14*
%TO.N,/Solder_Point_Breakout1/Sig_2*%
X55000000Y-24140000D03*
%TO.N,/Solder_Point_Breakout1/Sig_3*%
X55000000Y-26680000D03*
%TO.N,/Solder_Point_Breakout1/Sig_4*%
X55000000Y-29220000D03*
%TD*%
D13*
%TO.N,/Solder_Point_Breakout2/Sig_1*%
%TO.C,J20*%
X55000000Y-47000000D03*
D14*
%TO.N,/Solder_Point_Breakout2/Sig_2*%
X55000000Y-49540000D03*
%TO.N,/Solder_Point_Breakout2/Sig_3*%
X55000000Y-52080000D03*
%TO.N,/Solder_Point_Breakout2/Sig_4*%
X55000000Y-54620000D03*
%TD*%
D10*
%TO.N,/E_I+*%
%TO.C,J7*%
X-35000000Y-25400000D03*
D11*
%TO.N,GND*%
X-38429000Y-28829000D03*
X-31571000Y-28829000D03*
X-38429000Y-21971000D03*
X-31571000Y-21971000D03*
%TD*%
D12*
%TO.N,GND*%
%TO.C,H1*%
X60000000Y-86000000D03*
%TD*%
D13*
%TO.N,/Solder_Point_Breakout/Sig_1*%
%TO.C,J18*%
X55000000Y3800000D03*
D14*
%TO.N,/Solder_Point_Breakout/Sig_2*%
X55000000Y1260000D03*
%TO.N,/Solder_Point_Breakout/Sig_3*%
X55000000Y-1280000D03*
%TO.N,/Solder_Point_Breakout/Sig_4*%
X55000000Y-3820000D03*
%TD*%
D10*
%TO.N,/W_I+*%
%TO.C,J15*%
X-35000000Y-76200000D03*
D11*
%TO.N,GND*%
X-38429000Y-79629000D03*
X-31571000Y-79629000D03*
X-38429000Y-72771000D03*
X-31571000Y-72771000D03*
%TD*%
D10*
%TO.N,/S_I-*%
%TO.C,J5*%
X-15950000Y0D03*
D11*
%TO.N,GND*%
X-19379000Y-3429000D03*
X-12521000Y-3429000D03*
X-19379000Y3429000D03*
X-12521000Y3429000D03*
%TD*%
D10*
%TO.N,/S_I+*%
%TO.C,J2*%
X-35000000Y0D03*
D11*
%TO.N,GND*%
X-38429000Y-3429000D03*
X-31571000Y-3429000D03*
X-38429000Y3429000D03*
X-31571000Y3429000D03*
%TD*%
D12*
%TO.N,GND*%
%TO.C,H3*%
X-45000000Y-86000000D03*
%TD*%
D10*
%TO.N,/N_V+*%
%TO.C,J12*%
X16129000Y-50800000D03*
D11*
%TO.N,GND*%
X12700000Y-54229000D03*
X19558000Y-54229000D03*
X12700000Y-47371000D03*
X19558000Y-47371000D03*
%TD*%
D10*
%TO.N,/E_V+*%
%TO.C,J8*%
X16129000Y-25400000D03*
D11*
%TO.N,GND*%
X12700000Y-28829000D03*
X19558000Y-28829000D03*
X12700000Y-21971000D03*
X19558000Y-21971000D03*
%TD*%
D10*
%TO.N,/E_V-*%
%TO.C,J9*%
X35179000Y-25400000D03*
D11*
%TO.N,GND*%
X31750000Y-28829000D03*
X38608000Y-28829000D03*
X31750000Y-21971000D03*
X38608000Y-21971000D03*
%TD*%
D10*
%TO.N,/N_V-*%
%TO.C,J13*%
X35179000Y-50800000D03*
D11*
%TO.N,GND*%
X31750000Y-54229000D03*
X38608000Y-54229000D03*
X31750000Y-47371000D03*
X38608000Y-47371000D03*
%TD*%
D10*
%TO.N,/W_V+*%
%TO.C,J16*%
X16129000Y-76200000D03*
D11*
%TO.N,GND*%
X12700000Y-79629000D03*
X19558000Y-79629000D03*
X12700000Y-72771000D03*
X19558000Y-72771000D03*
%TD*%
D12*
%TO.N,GND*%
%TO.C,H2*%
X-45000000Y10000000D03*
%TD*%
D15*
%TO.N,/Solder_Point_Breakout3/Sig_4*%
X-46199858Y-57080775D03*
%TO.N,/W_I-*%
X-46270000Y-55887586D03*
%TO.N,/Solder_Point_Breakout3/Sig_3*%
X-45477101Y-55222899D03*
%TO.N,/W_V-*%
X-44957102Y-53765274D03*
%TO.N,/Solder_Point_Breakout3/Sig_2*%
X-46363538Y-54234086D03*
%TO.N,/W_V+*%
X-46540000Y-53120000D03*
%TO.N,/Solder_Point_Breakout3/Sig_1*%
X-44770074Y-50176385D03*
%TO.N,/W_I+*%
X-45789628Y-50258314D03*
%TO.N,/Solder_Point_Breakout2/Sig_4*%
X-45791188Y-49258812D03*
%TO.N,/N_I-*%
X-45775779Y-47324501D03*
%TO.N,/Solder_Point_Breakout2/Sig_3*%
X-46571000Y-47930000D03*
%TO.N,/N_V-*%
X-50584523Y-43844014D03*
%TO.N,/Solder_Point_Breakout2/Sig_2*%
X-47234000Y-46790000D03*
%TO.N,/N_V+*%
X-47897000Y-45610937D03*
%TO.N,/Solder_Point_Breakout2/Sig_1*%
X-48740000Y-44680000D03*
%TO.N,/N_I+*%
X-49140000Y-43590000D03*
%TO.N,/Solder_Point_Breakout1/Sig_4*%
X-47530730Y-27490012D03*
%TO.N,/E_I-*%
X-46761644Y-26851644D03*
%TO.N,/Solder_Point_Breakout1/Sig_3*%
X-46982832Y-25692831D03*
%TO.N,/E_V-*%
X-45784177Y-25596631D03*
%TO.N,/Solder_Point_Breakout1/Sig_2*%
X-45827451Y-24598066D03*
%TO.N,/E_V+*%
X-46915796Y-23421464D03*
%TO.N,/Solder_Point_Breakout1/Sig_1*%
X-45927597Y-23271566D03*
%TO.N,/E_I+*%
X-46047480Y-22214059D03*
%TO.N,/Solder_Point_Breakout/Sig_4*%
X-50736502Y-21310000D03*
%TO.N,/S_I-*%
X-46260499Y-21237520D03*
%TO.N,/Solder_Point_Breakout/Sig_3*%
X-47260000Y-21239500D03*
%TO.N,/S_V-*%
X-45952268Y-20207008D03*
%TO.N,/Solder_Point_Breakout/Sig_2*%
X-46950565Y-19913000D03*
%TO.N,/S_V+*%
X-45963050Y-19207563D03*
%TO.N,/Solder_Point_Breakout/Sig_1*%
X-46443464Y-18331088D03*
%TO.N,/S_I+*%
X-46310000Y-17260000D03*
%TD*%
D16*
%TO.N,/W_I-*%
X-46270000Y-56073009D02*
X-46270000Y-55887586D01*
X-26143009Y-76200000D02*
X-46270000Y-56073009D01*
%TO.N,/W_V-*%
X-42805470Y-55916906D02*
X-44957102Y-53765274D01*
X-42805470Y-58612643D02*
X-42805470Y-55916906D01*
%TO.N,/W_V+*%
X-44324246Y-55335754D02*
X-46540000Y-53120000D01*
X-44324246Y-57556315D02*
X-44324246Y-55335754D01*
%TO.N,/N_I-*%
X-41136780Y-51963500D02*
X-45775779Y-47324501D01*
X-24883500Y-51963500D02*
X-41136780Y-51963500D01*
X-23720000Y-50800000D02*
X-24883500Y-51963500D01*
X-15950000Y-50800000D02*
X-23720000Y-50800000D01*
%TO.N,/N_V-*%
X-44899508Y-37651246D02*
X-50584523Y-43336261D01*
X16358991Y-42173000D02*
X-39077000Y-42173000D01*
X-39077000Y-42173000D02*
X-43598754Y-37651246D01*
X-43598754Y-37651246D02*
X-44899508Y-37651246D01*
X-50584523Y-43336261D02*
X-50584523Y-43844014D01*
X24985991Y-50800000D02*
X16358991Y-42173000D01*
X35179000Y-50800000D02*
X24985991Y-50800000D01*
%TO.N,/N_V+*%
X-49803500Y-44556500D02*
X-48749063Y-45610937D01*
X-49803500Y-43017686D02*
X-49803500Y-44556500D01*
X-48749063Y-45610937D02*
X-47897000Y-45610937D01*
X-45024407Y-38238593D02*
X-49803500Y-43017686D01*
%TO.N,/N_I+*%
X-45050000Y-39500000D02*
X-49140000Y-43590000D01*
X-44301009Y-39500000D02*
X-45050000Y-39500000D01*
%TO.N,/E_V-*%
X-44064584Y-27316224D02*
X-45784177Y-25596631D01*
X-41023776Y-27316224D02*
X-44064584Y-27316224D01*
X-41023776Y-27316224D02*
X-34034552Y-20327000D01*
%TO.N,/E_V+*%
X12727991Y-20000000D02*
X-41717700Y-20000000D01*
X-41717700Y-20000000D02*
X-45652766Y-23935066D01*
X-46402194Y-23935066D02*
X-46915796Y-23421464D01*
X16129000Y-23401009D02*
X12727991Y-20000000D01*
X-45652766Y-23935066D02*
X-46402194Y-23935066D01*
X16129000Y-25400000D02*
X16129000Y-23401009D01*
%TO.N,/E_V-*%
X9057009Y-20327000D02*
X15293509Y-26563500D01*
X34015500Y-26563500D02*
X35179000Y-25400000D01*
X15293509Y-26563500D02*
X34015500Y-26563500D01*
X-34034552Y-20327000D02*
X9057009Y-20327000D01*
%TO.N,/N_I+*%
X-35000000Y-48801009D02*
X-35000000Y-50800000D01*
X-44301009Y-39500000D02*
X-35000000Y-48801009D01*
%TO.N,/N_V+*%
X6550000Y-50800000D02*
X16129000Y-50800000D01*
X-45024407Y-38238593D02*
X-43511407Y-38238593D01*
X-39250000Y-42500000D02*
X-1750000Y-42500000D01*
X-43511407Y-38238593D02*
X-39250000Y-42500000D01*
X-1750000Y-42500000D02*
X6550000Y-50800000D01*
%TO.N,/W_V+*%
X-44324246Y-57556315D02*
X-31630561Y-70250000D01*
X12950000Y-76200000D02*
X16129000Y-76200000D01*
X-31630561Y-70250000D02*
X7000000Y-70250000D01*
X7000000Y-70250000D02*
X12950000Y-76200000D01*
%TO.N,/W_V-*%
X-31495113Y-69923000D02*
X30870991Y-69923000D01*
X35179000Y-74231009D02*
X35179000Y-76230000D01*
X30870991Y-69923000D02*
X35179000Y-74231009D01*
X-42805470Y-58612643D02*
X-31495113Y-69923000D01*
%TO.N,/W_I-*%
X-15950000Y-76200000D02*
X-26143009Y-76200000D01*
%TD*%
%TA.AperFunction,Conductor*%
%TO.N,GND*%
G36*
X-46107368Y-87019404D02*
G01*
X-45924477Y-87187768D01*
X-45869883Y-87223435D01*
X-47293148Y-88646701D01*
X-47293148Y-88646702D01*
X-47062597Y-88833399D01*
X-47057343Y-88837216D01*
X-46755129Y-89033476D01*
X-46749508Y-89036722D01*
X-46428424Y-89200323D01*
X-46422500Y-89202960D01*
X-46274596Y-89259736D01*
X-46219064Y-89302138D01*
X-46195271Y-89367832D01*
X-46210773Y-89435960D01*
X-46260646Y-89484893D01*
X-46319034Y-89499500D01*
X-48375500Y-89499500D01*
X-48442539Y-89479815D01*
X-48488294Y-89427011D01*
X-48499500Y-89375500D01*
X-48499500Y-87319033D01*
X-48479815Y-87251994D01*
X-48427011Y-87206239D01*
X-48357853Y-87196295D01*
X-48294297Y-87225320D01*
X-48259736Y-87274596D01*
X-48202963Y-87422494D01*
X-48200323Y-87428424D01*
X-48036722Y-87749508D01*
X-48033476Y-87755129D01*
X-47837216Y-88057343D01*
X-47833399Y-88062597D01*
X-47646702Y-88293148D01*
X-47646701Y-88293148D01*
X-46223610Y-86870057D01*
X-46107368Y-87019404D01*
G37*
%TD.AperFunction*%
%TA.AperFunction,Conductor*%
G36*
X-44518949Y-40083685D02*
G01*
X-44498306Y-40100319D01*
X-38973575Y-45625050D01*
X-38940093Y-45686368D01*
X-38945077Y-45756060D01*
X-38986949Y-45811993D01*
X-39013806Y-45827287D01*
X-39180402Y-45896294D01*
X-39401843Y-46031993D01*
X-39408645Y-46037801D01*
X-38754945Y-46691501D01*
X-38767891Y-46696213D01*
X-38914373Y-46792555D01*
X-39034688Y-46920082D01*
X-39107446Y-47046105D01*
X-39762198Y-46391354D01*
X-39768006Y-46398155D01*
X-39903705Y-46619597D01*
X-40003096Y-46859544D01*
X-40063724Y-47112083D01*
X-40084101Y-47371000D01*
X-40063724Y-47629916D01*
X-40003096Y-47882455D01*
X-39903707Y-48122397D01*
X-39768003Y-48343849D01*
X-39762198Y-48350645D01*
X-39106195Y-47694642D01*
X-39082941Y-47748553D01*
X-38978244Y-47889185D01*
X-38843938Y-48001882D01*
X-38752334Y-48047887D01*
X-39408645Y-48704198D01*
X-39401849Y-48710003D01*
X-39180397Y-48845707D01*
X-38940455Y-48945096D01*
X-38687916Y-49005724D01*
X-38428999Y-49026101D01*
X-38170083Y-49005724D01*
X-37917544Y-48945096D01*
X-37677597Y-48845705D01*
X-37456155Y-48710006D01*
X-37449354Y-48704198D01*
X-38103054Y-48050498D01*
X-38090109Y-48045787D01*
X-37943627Y-47949445D01*
X-37823312Y-47821918D01*
X-37750552Y-47695893D01*
X-37095801Y-48350644D01*
X-37089993Y-48343843D01*
X-36954294Y-48122402D01*
X-36885287Y-47955806D01*
X-36841446Y-47901403D01*
X-36775152Y-47879338D01*
X-36707452Y-47896617D01*
X-36683054Y-47915570D01*
X-35600317Y-48998307D01*
X-35566834Y-49059628D01*
X-35564000Y-49085986D01*
X-35564000Y-49438904D01*
X-35583685Y-49505943D01*
X-35628980Y-49547957D01*
X-35768626Y-49623530D01*
X-35951784Y-49766087D01*
X-36108979Y-49936847D01*
X-36235924Y-50131151D01*
X-36329157Y-50343700D01*
X-36386134Y-50568695D01*
X-36405300Y-50800000D01*
X-36386134Y-51031305D01*
X-36332003Y-51245061D01*
X-36334628Y-51314880D01*
X-36374584Y-51372197D01*
X-36439185Y-51398814D01*
X-36452209Y-51399500D01*
X-40851802Y-51399500D01*
X-40918841Y-51379815D01*
X-40939483Y-51363181D01*
X-44838753Y-47463908D01*
X-44872238Y-47402585D01*
X-44874393Y-47363267D01*
X-44870319Y-47324501D01*
X-44890105Y-47136243D01*
X-44948599Y-46956216D01*
X-45043245Y-46792284D01*
X-45169908Y-46651611D01*
X-45323048Y-46540349D01*
X-45495976Y-46463356D01*
X-45681131Y-46424001D01*
X-45681133Y-46424001D01*
X-45870425Y-46424001D01*
X-45870427Y-46424001D01*
X-46055579Y-46463355D01*
X-46224801Y-46538698D01*
X-46294051Y-46547982D01*
X-46357327Y-46518354D01*
X-46393167Y-46463737D01*
X-46406821Y-46421714D01*
X-46501466Y-46257783D01*
X-46628129Y-46117110D01*
X-46781265Y-46005850D01*
X-46893878Y-45955711D01*
X-46939490Y-45935403D01*
X-46992726Y-45890154D01*
X-47013047Y-45823305D01*
X-47012374Y-45809164D01*
X-46991540Y-45610937D01*
X-47011326Y-45422679D01*
X-47069820Y-45242652D01*
X-47164466Y-45078720D01*
X-47291129Y-44938047D01*
X-47444269Y-44826785D01*
X-47617197Y-44749792D01*
X-47743880Y-44722865D01*
X-47805362Y-44689673D01*
X-47839138Y-44628510D01*
X-47841420Y-44614537D01*
X-47854326Y-44491742D01*
X-47912820Y-44311715D01*
X-48007466Y-44147783D01*
X-48134127Y-44007112D01*
X-48218644Y-43945708D01*
X-48261309Y-43890378D01*
X-48267288Y-43820765D01*
X-48263689Y-43807073D01*
X-48254326Y-43778259D01*
X-48234540Y-43589998D01*
X-48238614Y-43551232D01*
X-48226044Y-43482502D01*
X-48202974Y-43450591D01*
X-44852703Y-40100319D01*
X-44791380Y-40066834D01*
X-44765022Y-40064000D01*
X-44585988Y-40064000D01*
X-44518949Y-40083685D01*
G37*
%TD.AperFunction*%
%TA.AperFunction,Conductor*%
G36*
X-39466769Y-20583685D02*
G01*
X-39446127Y-20600319D01*
X-38754945Y-21291501D01*
X-38767891Y-21296213D01*
X-38914373Y-21392555D01*
X-39034688Y-21520082D01*
X-39107446Y-21646105D01*
X-39762198Y-20991354D01*
X-39768006Y-20998155D01*
X-39903705Y-21219597D01*
X-40003096Y-21459544D01*
X-40063724Y-21712083D01*
X-40084101Y-21971000D01*
X-40063724Y-22229916D01*
X-40003096Y-22482455D01*
X-39903707Y-22722397D01*
X-39768003Y-22943849D01*
X-39762198Y-22950645D01*
X-39106195Y-22294642D01*
X-39082941Y-22348553D01*
X-38978244Y-22489185D01*
X-38843938Y-22601882D01*
X-38752334Y-22647887D01*
X-39408645Y-23304198D01*
X-39401849Y-23310003D01*
X-39180397Y-23445707D01*
X-38940455Y-23545096D01*
X-38687916Y-23605724D01*
X-38421140Y-23626719D01*
X-38355851Y-23651603D01*
X-38314380Y-23707833D01*
X-38309893Y-23777559D01*
X-38343187Y-23838018D01*
X-41221074Y-26715905D01*
X-41282397Y-26749390D01*
X-41308755Y-26752224D01*
X-43779605Y-26752224D01*
X-43846644Y-26732539D01*
X-43867286Y-26715905D01*
X-44847151Y-25736038D01*
X-44880636Y-25674715D01*
X-44882791Y-25635397D01*
X-44878717Y-25596631D01*
X-44898503Y-25408373D01*
X-44956997Y-25228347D01*
X-45018471Y-25121871D01*
X-45034943Y-25053971D01*
X-45018471Y-24997873D01*
X-45000271Y-24966349D01*
X-44941777Y-24786323D01*
X-44921991Y-24598066D01*
X-44941777Y-24409808D01*
X-45000272Y-24229779D01*
X-45007453Y-24217342D01*
X-45023924Y-24149441D01*
X-45001071Y-24083415D01*
X-44987746Y-24067663D01*
X-41520402Y-20600319D01*
X-41459079Y-20566834D01*
X-41432721Y-20564000D01*
X-39533808Y-20564000D01*
X-39466769Y-20583685D01*
G37*
%TD.AperFunction*%
%TA.AperFunction,Conductor*%
G36*
X14033198Y-22950645D02*
G01*
X14039003Y-22943849D01*
X14174707Y-22722397D01*
X14243712Y-22555808D01*
X14287553Y-22501405D01*
X14353847Y-22479340D01*
X14421547Y-22496619D01*
X14445954Y-22515580D01*
X15528681Y-23598307D01*
X15562166Y-23659630D01*
X15565000Y-23685988D01*
X15565000Y-24038904D01*
X15545315Y-24105943D01*
X15500019Y-24147957D01*
X15393478Y-24205615D01*
X15360372Y-24223531D01*
X15177215Y-24366087D01*
X15020020Y-24536848D01*
X14893076Y-24731150D01*
X14799842Y-24943701D01*
X14787033Y-24994282D01*
X14751493Y-25054437D01*
X14689072Y-25085829D01*
X14619589Y-25078489D01*
X14579147Y-25051521D01*
X13244580Y-23716954D01*
X13211095Y-23655631D01*
X13216079Y-23585939D01*
X13257951Y-23530006D01*
X13284808Y-23514712D01*
X13451397Y-23445707D01*
X13672849Y-23310003D01*
X13679645Y-23304198D01*
X13025945Y-22650498D01*
X13038891Y-22645787D01*
X13185373Y-22549445D01*
X13305688Y-22421918D01*
X13378447Y-22295894D01*
X14033198Y-22950645D01*
G37*
%TD.AperFunction*%
%TA.AperFunction,Conductor*%
G36*
X-35301491Y-20583685D02*
G01*
X-35255736Y-20636489D01*
X-35245792Y-20705647D01*
X-35274817Y-20769203D01*
X-35280849Y-20775681D01*
X-36561981Y-22056813D01*
X-36623304Y-22090298D01*
X-36692996Y-22085314D01*
X-36748929Y-22043442D01*
X-36773280Y-21978861D01*
X-36794275Y-21712083D01*
X-36854903Y-21459544D01*
X-36954294Y-21219597D01*
X-37089992Y-20998156D01*
X-37095801Y-20991354D01*
X-37751804Y-21647357D01*
X-37775059Y-21593447D01*
X-37879756Y-21452815D01*
X-38014062Y-21340118D01*
X-38105665Y-21294112D01*
X-37411872Y-20600319D01*
X-37350549Y-20566834D01*
X-37324191Y-20564000D01*
X-35368530Y-20564000D01*
X-35301491Y-20583685D01*
G37*
%TD.AperFunction*%
%TA.AperFunction,Conductor*%
G36*
X11662230Y-20583685D02*
G01*
X11682872Y-20600319D01*
X12374054Y-21291501D01*
X12361109Y-21296213D01*
X12214627Y-21392555D01*
X12094312Y-21520082D01*
X12021552Y-21646105D01*
X11366801Y-20991354D01*
X11360992Y-20998156D01*
X11225295Y-21219595D01*
X11156287Y-21386192D01*
X11112445Y-21440595D01*
X11046151Y-21462659D01*
X10978452Y-21445379D01*
X10954045Y-21426419D01*
X10303307Y-20775681D01*
X10269822Y-20714358D01*
X10274806Y-20644666D01*
X10316678Y-20588733D01*
X10382142Y-20564316D01*
X10390988Y-20564000D01*
X11595191Y-20564000D01*
X11662230Y-20583685D01*
G37*
%TD.AperFunction*%
%TA.AperFunction,Conductor*%
G36*
X-46251995Y13479815D02*
G01*
X-46206240Y13427011D01*
X-46196296Y13357853D01*
X-46225321Y13294297D01*
X-46274596Y13259736D01*
X-46422500Y13202960D01*
X-46428424Y13200323D01*
X-46749507Y13036722D01*
X-46755128Y13033476D01*
X-47057343Y12837216D01*
X-47062597Y12833399D01*
X-47293148Y12646702D01*
X-45869882Y11223436D01*
X-45924477Y11187768D01*
X-46107368Y11019404D01*
X-46223610Y10870057D01*
X-47646701Y12293148D01*
X-47646702Y12293148D01*
X-47833399Y12062597D01*
X-47837216Y12057343D01*
X-48033476Y11755128D01*
X-48036722Y11749507D01*
X-48200323Y11428424D01*
X-48202960Y11422500D01*
X-48332106Y11086065D01*
X-48334103Y11079919D01*
X-48427373Y10731831D01*
X-48428724Y10725472D01*
X-48485095Y10369557D01*
X-48485772Y10363113D01*
X-48504633Y10003243D01*
X-48504633Y9996756D01*
X-48485772Y9636886D01*
X-48485095Y9630442D01*
X-48428724Y9274527D01*
X-48427373Y9268168D01*
X-48334103Y8920080D01*
X-48332106Y8913934D01*
X-48202960Y8577499D01*
X-48200323Y8571575D01*
X-48036722Y8250491D01*
X-48033476Y8244870D01*
X-47837216Y7942656D01*
X-47833399Y7937402D01*
X-47646701Y7706851D01*
X-46223609Y9129942D01*
X-46107368Y8980596D01*
X-45924477Y8812232D01*
X-45869882Y8776563D01*
X-47293148Y7353297D01*
X-47062597Y7166600D01*
X-47057343Y7162783D01*
X-46755129Y6966523D01*
X-46749508Y6963277D01*
X-46428424Y6799676D01*
X-46422500Y6797039D01*
X-46086065Y6667893D01*
X-46079919Y6665896D01*
X-45731831Y6572626D01*
X-45725472Y6571275D01*
X-45369557Y6514904D01*
X-45363113Y6514227D01*
X-45003244Y6495367D01*
X-44996756Y6495367D01*
X-44636886Y6514227D01*
X-44630442Y6514904D01*
X-44274527Y6571275D01*
X-44268168Y6572626D01*
X-43920080Y6665896D01*
X-43913934Y6667893D01*
X-43577499Y6797039D01*
X-43571575Y6799676D01*
X-43250491Y6963277D01*
X-43244870Y6966523D01*
X-42942656Y7162783D01*
X-42937402Y7166600D01*
X-42706851Y7353297D01*
X-44130117Y8776563D01*
X-44075523Y8812232D01*
X-43892632Y8980596D01*
X-43776389Y9129943D01*
X-42353297Y7706851D01*
X-42166600Y7937402D01*
X-42162783Y7942656D01*
X-41966523Y8244870D01*
X-41963277Y8250491D01*
X-41799676Y8571575D01*
X-41797039Y8577499D01*
X-41667893Y8913934D01*
X-41665896Y8920080D01*
X-41572626Y9268168D01*
X-41571275Y9274527D01*
X-41514904Y9630442D01*
X-41514227Y9636886D01*
X-41495367Y9996756D01*
X-41495367Y10003243D01*
X-41514227Y10363113D01*
X-41514904Y10369557D01*
X-41571275Y10725472D01*
X-41572626Y10731831D01*
X-41665896Y11079919D01*
X-41667893Y11086065D01*
X-41797039Y11422500D01*
X-41799676Y11428424D01*
X-41963277Y11749507D01*
X-41966523Y11755128D01*
X-42162783Y12057343D01*
X-42166600Y12062597D01*
X-42353297Y12293147D01*
X-43776389Y10870056D01*
X-43892632Y11019404D01*
X-44075523Y11187768D01*
X-44130115Y11223435D01*
X-42706850Y12646701D01*
X-42937402Y12833399D01*
X-42942656Y12837216D01*
X-43244870Y13033476D01*
X-43250491Y13036722D01*
X-43571575Y13200323D01*
X-43577499Y13202960D01*
X-43725404Y13259736D01*
X-43780936Y13302138D01*
X-43804729Y13367832D01*
X-43789227Y13435960D01*
X-43739354Y13484893D01*
X-43680966Y13499500D01*
X58680966Y13499500D01*
X58748005Y13479815D01*
X58793760Y13427011D01*
X58803704Y13357853D01*
X58774679Y13294297D01*
X58725404Y13259736D01*
X58577499Y13202960D01*
X58571575Y13200323D01*
X58250492Y13036722D01*
X58244871Y13033476D01*
X57942656Y12837216D01*
X57937402Y12833399D01*
X57706850Y12646701D01*
X59130115Y11223435D01*
X59075523Y11187768D01*
X58892632Y11019404D01*
X58776389Y10870056D01*
X57353297Y12293147D01*
X57166600Y12062597D01*
X57162783Y12057343D01*
X56966523Y11755128D01*
X56963277Y11749507D01*
X56799676Y11428424D01*
X56797039Y11422500D01*
X56667893Y11086065D01*
X56665896Y11079919D01*
X56572626Y10731831D01*
X56571275Y10725472D01*
X56514904Y10369557D01*
X56514227Y10363113D01*
X56495367Y10003243D01*
X56495367Y9996756D01*
X56514227Y9636886D01*
X56514904Y9630442D01*
X56571275Y9274527D01*
X56572626Y9268168D01*
X56665896Y8920080D01*
X56667893Y8913934D01*
X56797039Y8577499D01*
X56799676Y8571575D01*
X56963277Y8250491D01*
X56966523Y8244870D01*
X57162783Y7942656D01*
X57166600Y7937402D01*
X57353297Y7706851D01*
X58776389Y9129943D01*
X58892632Y8980596D01*
X59075523Y8812232D01*
X59130117Y8776563D01*
X57706851Y7353297D01*
X57937402Y7166600D01*
X57942656Y7162783D01*
X58244870Y6966523D01*
X58250491Y6963277D01*
X58571575Y6799676D01*
X58577499Y6797039D01*
X58913934Y6667893D01*
X58920080Y6665896D01*
X59268168Y6572626D01*
X59274527Y6571275D01*
X59630442Y6514904D01*
X59636886Y6514227D01*
X59996756Y6495367D01*
X60003244Y6495367D01*
X60363113Y6514227D01*
X60369557Y6514904D01*
X60725472Y6571275D01*
X60731831Y6572626D01*
X61079919Y6665896D01*
X61086065Y6667893D01*
X61422500Y6797039D01*
X61428424Y6799676D01*
X61749508Y6963277D01*
X61755129Y6966523D01*
X62057343Y7162783D01*
X62062597Y7166600D01*
X62293148Y7353297D01*
X60869882Y8776563D01*
X60924477Y8812232D01*
X61107368Y8980596D01*
X61223609Y9129942D01*
X62646701Y7706851D01*
X62833399Y7937402D01*
X62837216Y7942656D01*
X63033476Y8244870D01*
X63036722Y8250491D01*
X63200323Y8571575D01*
X63202960Y8577499D01*
X63259736Y8725404D01*
X63302138Y8780936D01*
X63367832Y8804729D01*
X63435960Y8789227D01*
X63484893Y8739354D01*
X63499500Y8680966D01*
X63499500Y-84680966D01*
X63479815Y-84748005D01*
X63427011Y-84793760D01*
X63357853Y-84803704D01*
X63294297Y-84774679D01*
X63259736Y-84725404D01*
X63202960Y-84577499D01*
X63200323Y-84571575D01*
X63036722Y-84250492D01*
X63033476Y-84244871D01*
X62837216Y-83942656D01*
X62833399Y-83937402D01*
X62646701Y-83706851D01*
X61223609Y-85129942D01*
X61107368Y-84980596D01*
X60924477Y-84812232D01*
X60869881Y-84776563D01*
X62293147Y-83353297D01*
X62062597Y-83166600D01*
X62057343Y-83162783D01*
X61755129Y-82966523D01*
X61749508Y-82963277D01*
X61428424Y-82799676D01*
X61422500Y-82797039D01*
X61086065Y-82667893D01*
X61079919Y-82665896D01*
X60731831Y-82572626D01*
X60725472Y-82571275D01*
X60369557Y-82514904D01*
X60363113Y-82514227D01*
X60003244Y-82495367D01*
X59996756Y-82495367D01*
X59636886Y-82514227D01*
X59630442Y-82514904D01*
X59274527Y-82571275D01*
X59268168Y-82572626D01*
X58920080Y-82665896D01*
X58913934Y-82667893D01*
X58577499Y-82797039D01*
X58571575Y-82799676D01*
X58250492Y-82963277D01*
X58244871Y-82966523D01*
X57942656Y-83162783D01*
X57937402Y-83166600D01*
X57706850Y-83353297D01*
X59130116Y-84776564D01*
X59075523Y-84812232D01*
X58892632Y-84980596D01*
X58776389Y-85129943D01*
X57353297Y-83706851D01*
X57166600Y-83937402D01*
X57162783Y-83942656D01*
X56966523Y-84244871D01*
X56963277Y-84250492D01*
X56799676Y-84571575D01*
X56797039Y-84577499D01*
X56667893Y-84913934D01*
X56665896Y-84920080D01*
X56572626Y-85268168D01*
X56571275Y-85274527D01*
X56514904Y-85630442D01*
X56514227Y-85636886D01*
X56495367Y-85996756D01*
X56495367Y-86003243D01*
X56514227Y-86363113D01*
X56514904Y-86369557D01*
X56571275Y-86725472D01*
X56572626Y-86731831D01*
X56665896Y-87079919D01*
X56667893Y-87086065D01*
X56797039Y-87422500D01*
X56799676Y-87428424D01*
X56963277Y-87749508D01*
X56966523Y-87755129D01*
X57162783Y-88057343D01*
X57166600Y-88062597D01*
X57353297Y-88293147D01*
X58776389Y-86870056D01*
X58892632Y-87019404D01*
X59075523Y-87187768D01*
X59130116Y-87223435D01*
X57706851Y-88646701D01*
X57937402Y-88833399D01*
X57942656Y-88837216D01*
X58244870Y-89033476D01*
X58250491Y-89036722D01*
X58571575Y-89200323D01*
X58577499Y-89202960D01*
X58725404Y-89259736D01*
X58780936Y-89302138D01*
X58804729Y-89367832D01*
X58789227Y-89435960D01*
X58739354Y-89484893D01*
X58680966Y-89499500D01*
X-43680966Y-89499500D01*
X-43748005Y-89479815D01*
X-43793760Y-89427011D01*
X-43803704Y-89357853D01*
X-43774679Y-89294297D01*
X-43725404Y-89259736D01*
X-43577499Y-89202960D01*
X-43571575Y-89200323D01*
X-43250491Y-89036722D01*
X-43244870Y-89033476D01*
X-42942656Y-88837216D01*
X-42937402Y-88833399D01*
X-42706851Y-88646701D01*
X-44130116Y-87223435D01*
X-44075523Y-87187768D01*
X-43892632Y-87019404D01*
X-43776389Y-86870056D01*
X-42353297Y-88293147D01*
X-42166600Y-88062597D01*
X-42162783Y-88057343D01*
X-41966523Y-87755129D01*
X-41963277Y-87749508D01*
X-41799676Y-87428424D01*
X-41797039Y-87422500D01*
X-41667893Y-87086065D01*
X-41665896Y-87079919D01*
X-41572626Y-86731831D01*
X-41571275Y-86725472D01*
X-41514904Y-86369557D01*
X-41514227Y-86363113D01*
X-41495367Y-86003243D01*
X-41495367Y-85996756D01*
X-41514227Y-85636886D01*
X-41514904Y-85630442D01*
X-41571275Y-85274527D01*
X-41572626Y-85268168D01*
X-41665896Y-84920080D01*
X-41667893Y-84913934D01*
X-41797039Y-84577499D01*
X-41799676Y-84571575D01*
X-41963277Y-84250492D01*
X-41966523Y-84244871D01*
X-42162783Y-83942656D01*
X-42166600Y-83937402D01*
X-42353297Y-83706851D01*
X-43776389Y-85129943D01*
X-43892632Y-84980596D01*
X-44075523Y-84812232D01*
X-44130116Y-84776564D01*
X-42706850Y-83353297D01*
X-42937402Y-83166600D01*
X-42942656Y-83162783D01*
X-43244870Y-82966523D01*
X-43250491Y-82963277D01*
X-43571575Y-82799676D01*
X-43577499Y-82797039D01*
X-43913934Y-82667893D01*
X-43920080Y-82665896D01*
X-44268168Y-82572626D01*
X-44274527Y-82571275D01*
X-44630442Y-82514904D01*
X-44636886Y-82514227D01*
X-44996756Y-82495367D01*
X-45003244Y-82495367D01*
X-45363113Y-82514227D01*
X-45369557Y-82514904D01*
X-45725472Y-82571275D01*
X-45731831Y-82572626D01*
X-46079919Y-82665896D01*
X-46086065Y-82667893D01*
X-46422500Y-82797039D01*
X-46428424Y-82799676D01*
X-46749507Y-82963277D01*
X-46755128Y-82966523D01*
X-47057343Y-83162783D01*
X-47062597Y-83166600D01*
X-47293147Y-83353297D01*
X-45869881Y-84776563D01*
X-45924477Y-84812232D01*
X-46107368Y-84980596D01*
X-46223609Y-85129942D01*
X-47646701Y-83706851D01*
X-47833399Y-83937402D01*
X-47837216Y-83942656D01*
X-48033476Y-84244871D01*
X-48036722Y-84250492D01*
X-48200323Y-84571575D01*
X-48202960Y-84577499D01*
X-48259736Y-84725404D01*
X-48302138Y-84780936D01*
X-48367832Y-84804729D01*
X-48435960Y-84789227D01*
X-48484893Y-84739354D01*
X-48499500Y-84680966D01*
X-48499500Y-79629000D01*
X-40084101Y-79629000D01*
X-40063724Y-79887916D01*
X-40003096Y-80140455D01*
X-39903707Y-80380397D01*
X-39768003Y-80601849D01*
X-39762198Y-80608645D01*
X-39106195Y-79952642D01*
X-39082941Y-80006553D01*
X-38978244Y-80147185D01*
X-38843938Y-80259882D01*
X-38752334Y-80305887D01*
X-39408645Y-80962198D01*
X-39401849Y-80968003D01*
X-39180397Y-81103707D01*
X-38940455Y-81203096D01*
X-38687916Y-81263724D01*
X-38428999Y-81284101D01*
X-38170083Y-81263724D01*
X-37917544Y-81203096D01*
X-37677597Y-81103705D01*
X-37456155Y-80968006D01*
X-37449354Y-80962198D01*
X-38103054Y-80308498D01*
X-38090109Y-80303787D01*
X-37943627Y-80207445D01*
X-37823312Y-80079918D01*
X-37750552Y-79953893D01*
X-37095801Y-80608644D01*
X-37089993Y-80601843D01*
X-36954294Y-80380402D01*
X-36854903Y-80140455D01*
X-36794275Y-79887916D01*
X-36773898Y-79629000D01*
X-33226101Y-79629000D01*
X-33205724Y-79887916D01*
X-33145096Y-80140455D01*
X-33045707Y-80380397D01*
X-32910003Y-80601849D01*
X-32904198Y-80608645D01*
X-32248195Y-79952642D01*
X-32224941Y-80006553D01*
X-32120244Y-80147185D01*
X-31985938Y-80259882D01*
X-31894334Y-80305887D01*
X-32550645Y-80962198D01*
X-32543849Y-80968003D01*
X-32322397Y-81103707D01*
X-32082455Y-81203096D01*
X-31829916Y-81263724D01*
X-31571000Y-81284101D01*
X-31312083Y-81263724D01*
X-31059544Y-81203096D01*
X-30819597Y-81103705D01*
X-30598155Y-80968006D01*
X-30591354Y-80962198D01*
X-31245054Y-80308498D01*
X-31232109Y-80303787D01*
X-31085627Y-80207445D01*
X-30965312Y-80079918D01*
X-30892551Y-79953893D01*
X-30237801Y-80608644D01*
X-30231993Y-80601843D01*
X-30096294Y-80380402D01*
X-29996903Y-80140455D01*
X-29936275Y-79887916D01*
X-29915898Y-79629000D01*
X-21034101Y-79629000D01*
X-21013724Y-79887916D01*
X-20953096Y-80140455D01*
X-20853707Y-80380397D01*
X-20718003Y-80601849D01*
X-20712198Y-80608645D01*
X-20056195Y-79952642D01*
X-20032941Y-80006553D01*
X-19928244Y-80147185D01*
X-19793938Y-80259882D01*
X-19702334Y-80305887D01*
X-20358645Y-80962198D01*
X-20351849Y-80968003D01*
X-20130397Y-81103707D01*
X-19890455Y-81203096D01*
X-19637916Y-81263724D01*
X-19379000Y-81284101D01*
X-19120083Y-81263724D01*
X-18867544Y-81203096D01*
X-18627597Y-81103705D01*
X-18406155Y-80968006D01*
X-18399354Y-80962198D01*
X-19053054Y-80308498D01*
X-19040109Y-80303787D01*
X-18893627Y-80207445D01*
X-18773312Y-80079918D01*
X-18700552Y-79953893D01*
X-18045801Y-80608644D01*
X-18039993Y-80601843D01*
X-17904294Y-80380402D01*
X-17804903Y-80140455D01*
X-17744275Y-79887916D01*
X-17723898Y-79629000D01*
X-14176101Y-79629000D01*
X-14155724Y-79887916D01*
X-14095096Y-80140455D01*
X-13995707Y-80380397D01*
X-13860003Y-80601849D01*
X-13854198Y-80608645D01*
X-13198195Y-79952642D01*
X-13174941Y-80006553D01*
X-13070244Y-80147185D01*
X-12935938Y-80259882D01*
X-12844334Y-80305887D01*
X-13500645Y-80962198D01*
X-13493849Y-80968003D01*
X-13272397Y-81103707D01*
X-13032455Y-81203096D01*
X-12779916Y-81263724D01*
X-12521000Y-81284101D01*
X-12262083Y-81263724D01*
X-12009544Y-81203096D01*
X-11769597Y-81103705D01*
X-11548155Y-80968006D01*
X-11541354Y-80962198D01*
X-12195054Y-80308498D01*
X-12182109Y-80303787D01*
X-12035627Y-80207445D01*
X-11915312Y-80079918D01*
X-11842552Y-79953893D01*
X-11187801Y-80608644D01*
X-11181993Y-80601843D01*
X-11046294Y-80380402D01*
X-10946903Y-80140455D01*
X-10886275Y-79887916D01*
X-10865898Y-79629000D01*
X11044898Y-79629000D01*
X11065275Y-79887916D01*
X11125903Y-80140455D01*
X11225294Y-80380402D01*
X11360993Y-80601843D01*
X11366801Y-80608644D01*
X12022803Y-79952641D01*
X12046059Y-80006553D01*
X12150756Y-80147185D01*
X12285062Y-80259882D01*
X12376665Y-80305887D01*
X11720354Y-80962198D01*
X11727155Y-80968006D01*
X11948597Y-81103705D01*
X12188544Y-81203096D01*
X12441083Y-81263724D01*
X12700000Y-81284101D01*
X12958916Y-81263724D01*
X13211455Y-81203096D01*
X13451397Y-81103707D01*
X13672849Y-80968003D01*
X13679645Y-80962198D01*
X13025945Y-80308498D01*
X13038891Y-80303787D01*
X13185373Y-80207445D01*
X13305688Y-80079918D01*
X13378447Y-79953893D01*
X14033198Y-80608645D01*
X14039003Y-80601849D01*
X14174707Y-80380397D01*
X14274096Y-80140455D01*
X14334724Y-79887916D01*
X14355101Y-79629000D01*
X17902898Y-79629000D01*
X17923275Y-79887916D01*
X17983903Y-80140455D01*
X18083294Y-80380402D01*
X18218993Y-80601843D01*
X18224801Y-80608644D01*
X18880803Y-79952641D01*
X18904059Y-80006553D01*
X19008756Y-80147185D01*
X19143062Y-80259882D01*
X19234665Y-80305887D01*
X18578354Y-80962198D01*
X18585155Y-80968006D01*
X18806597Y-81103705D01*
X19046544Y-81203096D01*
X19299083Y-81263724D01*
X19558000Y-81284101D01*
X19816916Y-81263724D01*
X20069455Y-81203096D01*
X20309397Y-81103707D01*
X20530849Y-80968003D01*
X20537645Y-80962198D01*
X19883945Y-80308498D01*
X19896891Y-80303787D01*
X20043373Y-80207445D01*
X20163688Y-80079918D01*
X20236447Y-79953894D01*
X20891198Y-80608645D01*
X20897003Y-80601849D01*
X21032707Y-80380397D01*
X21132096Y-80140455D01*
X21192724Y-79887916D01*
X21210740Y-79659000D01*
X30094898Y-79659000D01*
X30115275Y-79917916D01*
X30175903Y-80170455D01*
X30275294Y-80410402D01*
X30410993Y-80631843D01*
X30416801Y-80638644D01*
X31072803Y-79982641D01*
X31096059Y-80036553D01*
X31200756Y-80177185D01*
X31335062Y-80289882D01*
X31426665Y-80335887D01*
X30770354Y-80992198D01*
X30777155Y-80998006D01*
X30998597Y-81133705D01*
X31238544Y-81233096D01*
X31491083Y-81293724D01*
X31750000Y-81314101D01*
X32008916Y-81293724D01*
X32261455Y-81233096D01*
X32501397Y-81133707D01*
X32722849Y-80998003D01*
X32729645Y-80992198D01*
X32075945Y-80338498D01*
X32088891Y-80333787D01*
X32235373Y-80237445D01*
X32355688Y-80109918D01*
X32428447Y-79983894D01*
X33083198Y-80638645D01*
X33089003Y-80631849D01*
X33224707Y-80410397D01*
X33324096Y-80170455D01*
X33384724Y-79917916D01*
X33405101Y-79659000D01*
X36952898Y-79659000D01*
X36973275Y-79917916D01*
X37033903Y-80170455D01*
X37133294Y-80410402D01*
X37268993Y-80631843D01*
X37274801Y-80638644D01*
X37930804Y-79982642D01*
X37954059Y-80036553D01*
X38058756Y-80177185D01*
X38193062Y-80289882D01*
X38284665Y-80335887D01*
X37628354Y-80992198D01*
X37635155Y-80998006D01*
X37856597Y-81133705D01*
X38096544Y-81233096D01*
X38349083Y-81293724D01*
X38608000Y-81314101D01*
X38866916Y-81293724D01*
X39119455Y-81233096D01*
X39359397Y-81133707D01*
X39580849Y-80998003D01*
X39587645Y-80992198D01*
X38933945Y-80338498D01*
X38946891Y-80333787D01*
X39093373Y-80237445D01*
X39213688Y-80109918D01*
X39286447Y-79983894D01*
X39941198Y-80638645D01*
X39947003Y-80631849D01*
X40082707Y-80410397D01*
X40182096Y-80170455D01*
X40218216Y-80020000D01*
X53644340Y-80020000D01*
X53664936Y-80255407D01*
X53702006Y-80393752D01*
X53726097Y-80483663D01*
X53825965Y-80697830D01*
X53961505Y-80891401D01*
X54128599Y-81058495D01*
X54322170Y-81194035D01*
X54536337Y-81293903D01*
X54764592Y-81355063D01*
X55000000Y-81375659D01*
X55235408Y-81355063D01*
X55463663Y-81293903D01*
X55677830Y-81194035D01*
X55871401Y-81058495D01*
X56038495Y-80891401D01*
X56174035Y-80697830D01*
X56273903Y-80483663D01*
X56335063Y-80255408D01*
X56355659Y-80020000D01*
X56335063Y-79784592D01*
X56273903Y-79556337D01*
X56174035Y-79342171D01*
X56038495Y-79148599D01*
X55871401Y-78981505D01*
X55685839Y-78851573D01*
X55642215Y-78796997D01*
X55635023Y-78727498D01*
X55666545Y-78665144D01*
X55685831Y-78648432D01*
X55871401Y-78518495D01*
X56038495Y-78351401D01*
X56174035Y-78157830D01*
X56273903Y-77943663D01*
X56335063Y-77715408D01*
X56355659Y-77480000D01*
X56335063Y-77244592D01*
X56273903Y-77016337D01*
X56174035Y-76802171D01*
X56038495Y-76608599D01*
X55871401Y-76441505D01*
X55685839Y-76311573D01*
X55642215Y-76256997D01*
X55635023Y-76187498D01*
X55666545Y-76125144D01*
X55685831Y-76108432D01*
X55871401Y-75978495D01*
X56038495Y-75811401D01*
X56174035Y-75617830D01*
X56273903Y-75403663D01*
X56335063Y-75175408D01*
X56355659Y-74940000D01*
X56335063Y-74704592D01*
X56273903Y-74476337D01*
X56174035Y-74262171D01*
X56038495Y-74068599D01*
X55916569Y-73946673D01*
X55883084Y-73885350D01*
X55888068Y-73815658D01*
X55929940Y-73759725D01*
X55960915Y-73742810D01*
X56092331Y-73693796D01*
X56207546Y-73607546D01*
X56293796Y-73492331D01*
X56344091Y-73357483D01*
X56350500Y-73297873D01*
X56350499Y-71502128D01*
X56344091Y-71442517D01*
X56293796Y-71307669D01*
X56207546Y-71192454D01*
X56092331Y-71106204D01*
X55957483Y-71055909D01*
X55897873Y-71049500D01*
X55894550Y-71049500D01*
X54105439Y-71049500D01*
X54105420Y-71049500D01*
X54102128Y-71049501D01*
X54098848Y-71049853D01*
X54098840Y-71049854D01*
X54042515Y-71055909D01*
X53907669Y-71106204D01*
X53792454Y-71192454D01*
X53706204Y-71307668D01*
X53655909Y-71442516D01*
X53653191Y-71467801D01*
X53649500Y-71502127D01*
X53649500Y-71505448D01*
X53649500Y-71505449D01*
X53649500Y-73294560D01*
X53649500Y-73294578D01*
X53649501Y-73297872D01*
X53649853Y-73301152D01*
X53649854Y-73301159D01*
X53655909Y-73357484D01*
X53670513Y-73396638D01*
X53706204Y-73492331D01*
X53792454Y-73607546D01*
X53907669Y-73693796D01*
X54019907Y-73735658D01*
X54039082Y-73742810D01*
X54095016Y-73784681D01*
X54119433Y-73850146D01*
X54104581Y-73918419D01*
X54083431Y-73946673D01*
X53961503Y-74068601D01*
X53825965Y-74262170D01*
X53726097Y-74476336D01*
X53664936Y-74704592D01*
X53644340Y-74939999D01*
X53664936Y-75175407D01*
X53708194Y-75336846D01*
X53726097Y-75403663D01*
X53825965Y-75617830D01*
X53961505Y-75811401D01*
X54128599Y-75978495D01*
X54314160Y-76108426D01*
X54357783Y-76163002D01*
X54364976Y-76232501D01*
X54333454Y-76294855D01*
X54314159Y-76311575D01*
X54128595Y-76441508D01*
X53961505Y-76608598D01*
X53825965Y-76802170D01*
X53726097Y-77016336D01*
X53664936Y-77244592D01*
X53644340Y-77479999D01*
X53664936Y-77715407D01*
X53709709Y-77882501D01*
X53726097Y-77943663D01*
X53825965Y-78157830D01*
X53961505Y-78351401D01*
X54128599Y-78518495D01*
X54314160Y-78648426D01*
X54357783Y-78703002D01*
X54364976Y-78772501D01*
X54333454Y-78834855D01*
X54314159Y-78851575D01*
X54128595Y-78981508D01*
X53961505Y-79148598D01*
X53825965Y-79342170D01*
X53726097Y-79556336D01*
X53664936Y-79784592D01*
X53644340Y-80020000D01*
X40218216Y-80020000D01*
X40242724Y-79917916D01*
X40263101Y-79658999D01*
X40242724Y-79400083D01*
X40182096Y-79147544D01*
X40082705Y-78907597D01*
X39947006Y-78686155D01*
X39941198Y-78679354D01*
X39285195Y-79335356D01*
X39261941Y-79281447D01*
X39157244Y-79140815D01*
X39022938Y-79028118D01*
X38931334Y-78982112D01*
X39587645Y-78325801D01*
X39580843Y-78319993D01*
X39359402Y-78184294D01*
X39119455Y-78084903D01*
X38866916Y-78024275D01*
X38608000Y-78003898D01*
X38349083Y-78024275D01*
X38096544Y-78084903D01*
X37856597Y-78184294D01*
X37635156Y-78319992D01*
X37628354Y-78325801D01*
X38282054Y-78979501D01*
X38269109Y-78984213D01*
X38122627Y-79080555D01*
X38002312Y-79208082D01*
X37929552Y-79334105D01*
X37274801Y-78679354D01*
X37268992Y-78686156D01*
X37133294Y-78907597D01*
X37033903Y-79147544D01*
X36973275Y-79400083D01*
X36952898Y-79659000D01*
X33405101Y-79659000D01*
X33405101Y-79658999D01*
X33384724Y-79400083D01*
X33324096Y-79147544D01*
X33224705Y-78907597D01*
X33089006Y-78686155D01*
X33083198Y-78679354D01*
X32427195Y-79335356D01*
X32403941Y-79281447D01*
X32299244Y-79140815D01*
X32164938Y-79028118D01*
X32073334Y-78982112D01*
X32729645Y-78325801D01*
X32722843Y-78319993D01*
X32501402Y-78184294D01*
X32261455Y-78084903D01*
X32008916Y-78024275D01*
X31750000Y-78003898D01*
X31491083Y-78024275D01*
X31238544Y-78084903D01*
X30998597Y-78184294D01*
X30777156Y-78319992D01*
X30770354Y-78325801D01*
X31424054Y-78979501D01*
X31411109Y-78984213D01*
X31264627Y-79080555D01*
X31144312Y-79208082D01*
X31071552Y-79334105D01*
X30416801Y-78679354D01*
X30410992Y-78686156D01*
X30275294Y-78907597D01*
X30175903Y-79147544D01*
X30115275Y-79400083D01*
X30094898Y-79659000D01*
X21210740Y-79659000D01*
X21213101Y-79629000D01*
X21192724Y-79370083D01*
X21132096Y-79117544D01*
X21032705Y-78877597D01*
X20897006Y-78656155D01*
X20891198Y-78649354D01*
X20891197Y-78649354D01*
X20235195Y-79305355D01*
X20211941Y-79251447D01*
X20107244Y-79110815D01*
X19972938Y-78998118D01*
X19881334Y-78952112D01*
X20537644Y-78295801D01*
X20530843Y-78289993D01*
X20309402Y-78154294D01*
X20069455Y-78054903D01*
X19816916Y-77994275D01*
X19557999Y-77973898D01*
X19299083Y-77994275D01*
X19046544Y-78054903D01*
X18806597Y-78154294D01*
X18585156Y-78289992D01*
X18578354Y-78295801D01*
X19232054Y-78949501D01*
X19219109Y-78954213D01*
X19072627Y-79050555D01*
X18952312Y-79178082D01*
X18879552Y-79304105D01*
X18224801Y-78649354D01*
X18218992Y-78656156D01*
X18083294Y-78877597D01*
X17983903Y-79117544D01*
X17923275Y-79370083D01*
X17902898Y-79629000D01*
X14355101Y-79629000D01*
X14334724Y-79370083D01*
X14274096Y-79117544D01*
X14174705Y-78877597D01*
X14039006Y-78656155D01*
X14033198Y-78649354D01*
X14033197Y-78649354D01*
X13377195Y-79305356D01*
X13353941Y-79251447D01*
X13249244Y-79110815D01*
X13114938Y-78998118D01*
X13023333Y-78952112D01*
X13679645Y-78295801D01*
X13672843Y-78289993D01*
X13451402Y-78154294D01*
X13211455Y-78054903D01*
X12958916Y-77994275D01*
X12700000Y-77973898D01*
X12441083Y-77994275D01*
X12188544Y-78054903D01*
X11948597Y-78154294D01*
X11727156Y-78289992D01*
X11720353Y-78295801D01*
X12374053Y-78949501D01*
X12361109Y-78954213D01*
X12214627Y-79050555D01*
X12094312Y-79178082D01*
X12021552Y-79304105D01*
X11366801Y-78649354D01*
X11360992Y-78656156D01*
X11225294Y-78877597D01*
X11125903Y-79117544D01*
X11065275Y-79370083D01*
X11044898Y-79629000D01*
X-10865898Y-79629000D01*
X-10886275Y-79370083D01*
X-10946903Y-79117544D01*
X-11046294Y-78877597D01*
X-11181992Y-78656156D01*
X-11187801Y-78649354D01*
X-11843804Y-79305357D01*
X-11867059Y-79251447D01*
X-11971756Y-79110815D01*
X-12106062Y-78998118D01*
X-12197665Y-78952112D01*
X-11541354Y-78295801D01*
X-11548156Y-78289992D01*
X-11769597Y-78154294D01*
X-12009544Y-78054903D01*
X-12262083Y-77994275D01*
X-12520999Y-77973898D01*
X-12779916Y-77994275D01*
X-13032455Y-78054903D01*
X-13272402Y-78154294D01*
X-13493843Y-78289993D01*
X-13500645Y-78295801D01*
X-12846945Y-78949501D01*
X-12859891Y-78954213D01*
X-13006373Y-79050555D01*
X-13126688Y-79178082D01*
X-13199446Y-79304105D01*
X-13854198Y-78649354D01*
X-13860006Y-78656155D01*
X-13995705Y-78877597D01*
X-14095096Y-79117544D01*
X-14155724Y-79370083D01*
X-14176101Y-79629000D01*
X-17723898Y-79629000D01*
X-17744275Y-79370083D01*
X-17804903Y-79117544D01*
X-17904294Y-78877597D01*
X-18039992Y-78656156D01*
X-18045801Y-78649354D01*
X-18701804Y-79305357D01*
X-18725059Y-79251447D01*
X-18829756Y-79110815D01*
X-18964062Y-78998118D01*
X-19055665Y-78952112D01*
X-18399354Y-78295801D01*
X-18406156Y-78289992D01*
X-18627597Y-78154294D01*
X-18867544Y-78054903D01*
X-19120083Y-77994275D01*
X-19379000Y-77973898D01*
X-19637916Y-77994275D01*
X-19890455Y-78054903D01*
X-20130402Y-78154294D01*
X-20351843Y-78289993D01*
X-20358645Y-78295801D01*
X-19704945Y-78949501D01*
X-19717891Y-78954213D01*
X-19864373Y-79050555D01*
X-19984688Y-79178082D01*
X-20057446Y-79304105D01*
X-20712198Y-78649354D01*
X-20718006Y-78656155D01*
X-20853705Y-78877597D01*
X-20953096Y-79117544D01*
X-21013724Y-79370083D01*
X-21034101Y-79629000D01*
X-29915898Y-79629000D01*
X-29936275Y-79370083D01*
X-29996903Y-79117544D01*
X-30096294Y-78877597D01*
X-30231992Y-78656156D01*
X-30237801Y-78649354D01*
X-30893804Y-79305356D01*
X-30917059Y-79251447D01*
X-31021756Y-79110815D01*
X-31156062Y-78998118D01*
X-31247665Y-78952112D01*
X-30591354Y-78295801D01*
X-30598156Y-78289992D01*
X-30819597Y-78154294D01*
X-31059544Y-78054903D01*
X-31312083Y-77994275D01*
X-31571000Y-77973898D01*
X-31829916Y-77994275D01*
X-32082455Y-78054903D01*
X-32322402Y-78154294D01*
X-32543843Y-78289993D01*
X-32550645Y-78295801D01*
X-31896945Y-78949501D01*
X-31909891Y-78954213D01*
X-32056373Y-79050555D01*
X-32176688Y-79178082D01*
X-32249446Y-79304104D01*
X-32904197Y-78649354D01*
X-32904198Y-78649354D01*
X-32910006Y-78656155D01*
X-33045705Y-78877597D01*
X-33145096Y-79117544D01*
X-33205724Y-79370083D01*
X-33226101Y-79629000D01*
X-36773898Y-79629000D01*
X-36794275Y-79370083D01*
X-36854903Y-79117544D01*
X-36954294Y-78877597D01*
X-37089992Y-78656156D01*
X-37095801Y-78649354D01*
X-37751804Y-79305356D01*
X-37775059Y-79251447D01*
X-37879756Y-79110815D01*
X-38014062Y-78998118D01*
X-38105665Y-78952112D01*
X-37449354Y-78295801D01*
X-37456156Y-78289992D01*
X-37677597Y-78154294D01*
X-37917544Y-78054903D01*
X-38170083Y-77994275D01*
X-38429000Y-77973898D01*
X-38687916Y-77994275D01*
X-38940455Y-78054903D01*
X-39180402Y-78154294D01*
X-39401843Y-78289993D01*
X-39408645Y-78295801D01*
X-38754945Y-78949501D01*
X-38767891Y-78954213D01*
X-38914373Y-79050555D01*
X-39034688Y-79178082D01*
X-39107446Y-79304105D01*
X-39762198Y-78649354D01*
X-39768006Y-78656155D01*
X-39903705Y-78877597D01*
X-40003096Y-79117544D01*
X-40063724Y-79370083D01*
X-40084101Y-79629000D01*
X-48499500Y-79629000D01*
X-48499500Y-76200000D01*
X-36405300Y-76200000D01*
X-36386134Y-76431305D01*
X-36329157Y-76656300D01*
X-36235924Y-76868849D01*
X-36108979Y-77063153D01*
X-35951784Y-77233913D01*
X-35768626Y-77376470D01*
X-35564503Y-77486936D01*
X-35344981Y-77562298D01*
X-35116049Y-77600500D01*
X-35116048Y-77600500D01*
X-34883952Y-77600500D01*
X-34883951Y-77600500D01*
X-34655019Y-77562298D01*
X-34655017Y-77562297D01*
X-34655015Y-77562297D01*
X-34522884Y-77516936D01*
X-34435497Y-77486936D01*
X-34231374Y-77376470D01*
X-34048216Y-77233913D01*
X-33891021Y-77063153D01*
X-33764076Y-76868849D01*
X-33750628Y-76838190D01*
X-33670844Y-76656303D01*
X-33670843Y-76656300D01*
X-33613866Y-76431305D01*
X-33613865Y-76431301D01*
X-33613865Y-76431299D01*
X-33594699Y-76200000D01*
X-33613865Y-75968700D01*
X-33670844Y-75743696D01*
X-33764076Y-75531150D01*
X-33891020Y-75336848D01*
X-34048215Y-75166087D01*
X-34231372Y-75023531D01*
X-34385726Y-74939999D01*
X-34435497Y-74913064D01*
X-34435497Y-74913063D01*
X-34435501Y-74913062D01*
X-34655015Y-74837702D01*
X-34838164Y-74807140D01*
X-34883951Y-74799500D01*
X-35116049Y-74799500D01*
X-35173282Y-74809050D01*
X-35344984Y-74837702D01*
X-35564498Y-74913062D01*
X-35564499Y-74913062D01*
X-35564503Y-74913064D01*
X-35768626Y-75023530D01*
X-35951784Y-75166087D01*
X-36108979Y-75336847D01*
X-36235924Y-75531151D01*
X-36329157Y-75743700D01*
X-36386134Y-75968695D01*
X-36405300Y-76200000D01*
X-48499500Y-76200000D01*
X-48499500Y-72771000D01*
X-40084101Y-72771000D01*
X-40063724Y-73029916D01*
X-40003096Y-73282455D01*
X-39903707Y-73522397D01*
X-39768003Y-73743849D01*
X-39762198Y-73750645D01*
X-39106195Y-73094642D01*
X-39082941Y-73148553D01*
X-38978244Y-73289185D01*
X-38843938Y-73401882D01*
X-38752334Y-73447887D01*
X-39408645Y-74104198D01*
X-39401849Y-74110003D01*
X-39180397Y-74245707D01*
X-38940455Y-74345096D01*
X-38687916Y-74405724D01*
X-38428999Y-74426101D01*
X-38170083Y-74405724D01*
X-37917544Y-74345096D01*
X-37677597Y-74245705D01*
X-37456155Y-74110006D01*
X-37449354Y-74104198D01*
X-38103054Y-73450498D01*
X-38090109Y-73445787D01*
X-37943627Y-73349445D01*
X-37823312Y-73221918D01*
X-37750552Y-73095893D01*
X-37095801Y-73750644D01*
X-37089993Y-73743843D01*
X-36954294Y-73522402D01*
X-36854903Y-73282455D01*
X-36794275Y-73029916D01*
X-36773898Y-72771000D01*
X-36794275Y-72512083D01*
X-36854903Y-72259544D01*
X-36954294Y-72019597D01*
X-37089992Y-71798156D01*
X-37095801Y-71791354D01*
X-37751804Y-72447357D01*
X-37775059Y-72393447D01*
X-37879756Y-72252815D01*
X-38014062Y-72140118D01*
X-38105665Y-72094112D01*
X-37449354Y-71437801D01*
X-37456156Y-71431992D01*
X-37677597Y-71296294D01*
X-37917544Y-71196903D01*
X-38170083Y-71136275D01*
X-38428999Y-71115898D01*
X-38687916Y-71136275D01*
X-38940455Y-71196903D01*
X-39180402Y-71296294D01*
X-39401843Y-71431993D01*
X-39408645Y-71437801D01*
X-38754945Y-72091501D01*
X-38767891Y-72096213D01*
X-38914373Y-72192555D01*
X-39034688Y-72320082D01*
X-39107446Y-72446105D01*
X-39762198Y-71791354D01*
X-39768006Y-71798155D01*
X-39903705Y-72019597D01*
X-40003096Y-72259544D01*
X-40063724Y-72512083D01*
X-40084101Y-72771000D01*
X-48499500Y-72771000D01*
X-48499500Y-61024759D01*
X-48499471Y-61024616D01*
X-48499476Y-61024616D01*
X-48499459Y-60999999D01*
X-48499615Y-60999618D01*
X-48499618Y-60999616D01*
X-48499903Y-60999499D01*
X-48500000Y-60999459D01*
X-48524554Y-60999459D01*
X-48524760Y-60999500D01*
X-55875500Y-60999500D01*
X-55942539Y-60979815D01*
X-55988294Y-60927011D01*
X-55999500Y-60875500D01*
X-55999500Y-53120000D01*
X-47445460Y-53120000D01*
X-47425674Y-53308256D01*
X-47370651Y-53477597D01*
X-47367179Y-53488284D01*
X-47303767Y-53598118D01*
X-47272533Y-53652216D01*
X-47207829Y-53724076D01*
X-47177599Y-53787068D01*
X-47186224Y-53856403D01*
X-47190282Y-53864462D01*
X-47190717Y-53865802D01*
X-47249212Y-54045830D01*
X-47268998Y-54234086D01*
X-47249212Y-54422342D01*
X-47190717Y-54602370D01*
X-47096071Y-54766302D01*
X-46969409Y-54906974D01*
X-46848940Y-54994498D01*
X-46806277Y-55049826D01*
X-46800298Y-55119439D01*
X-46832903Y-55181235D01*
X-46848943Y-55195133D01*
X-46875870Y-55214696D01*
X-47002533Y-55355369D01*
X-47097179Y-55519301D01*
X-47097179Y-55519302D01*
X-47155674Y-55699330D01*
X-47175460Y-55887586D01*
X-47155674Y-56075842D01*
X-47097179Y-56255870D01*
X-47002533Y-56419802D01*
X-46974784Y-56450620D01*
X-46944554Y-56513611D01*
X-46953178Y-56582946D01*
X-46959546Y-56595593D01*
X-47027037Y-56712490D01*
X-47027037Y-56712491D01*
X-47085532Y-56892519D01*
X-47105318Y-57080775D01*
X-47085532Y-57269031D01*
X-47027037Y-57449059D01*
X-46932391Y-57612991D01*
X-46805729Y-57753663D01*
X-46652588Y-57864926D01*
X-46479661Y-57941919D01*
X-46417942Y-57955037D01*
X-46294506Y-57981275D01*
X-46294504Y-57981275D01*
X-46105210Y-57981275D01*
X-45920055Y-57941919D01*
X-45747127Y-57864926D01*
X-45593987Y-57753664D01*
X-45583333Y-57741831D01*
X-45523846Y-57705182D01*
X-45453989Y-57706513D01*
X-45403504Y-57737120D01*
X-32115575Y-71025049D01*
X-32082093Y-71086368D01*
X-32087077Y-71156060D01*
X-32128949Y-71211993D01*
X-32155806Y-71227287D01*
X-32322402Y-71296294D01*
X-32543843Y-71431993D01*
X-32550645Y-71437801D01*
X-31896945Y-72091501D01*
X-31909891Y-72096213D01*
X-32056373Y-72192555D01*
X-32176688Y-72320082D01*
X-32249446Y-72446104D01*
X-32904197Y-71791354D01*
X-32904198Y-71791354D01*
X-32910006Y-71798155D01*
X-33045705Y-72019597D01*
X-33145096Y-72259544D01*
X-33205724Y-72512083D01*
X-33226101Y-72770999D01*
X-33205724Y-73029916D01*
X-33145096Y-73282455D01*
X-33045707Y-73522397D01*
X-32910003Y-73743849D01*
X-32904198Y-73750645D01*
X-32248195Y-73094643D01*
X-32224941Y-73148553D01*
X-32120244Y-73289185D01*
X-31985938Y-73401882D01*
X-31894334Y-73447887D01*
X-32550645Y-74104198D01*
X-32543849Y-74110003D01*
X-32322397Y-74245707D01*
X-32082455Y-74345096D01*
X-31829916Y-74405724D01*
X-31571000Y-74426101D01*
X-31312083Y-74405724D01*
X-31059544Y-74345096D01*
X-30819597Y-74245705D01*
X-30598155Y-74110006D01*
X-30591354Y-74104198D01*
X-31245054Y-73450498D01*
X-31232109Y-73445787D01*
X-31085627Y-73349445D01*
X-30965312Y-73221918D01*
X-30892552Y-73095893D01*
X-30237801Y-73750644D01*
X-30231993Y-73743843D01*
X-30096294Y-73522402D01*
X-30027287Y-73355806D01*
X-29983446Y-73301403D01*
X-29917152Y-73279338D01*
X-29849452Y-73296617D01*
X-29825053Y-73315571D01*
X-26573699Y-76566925D01*
X-26563012Y-76579112D01*
X-26545259Y-76602250D01*
X-26515677Y-76624948D01*
X-26515677Y-76624949D01*
X-26427442Y-76692654D01*
X-26290243Y-76749483D01*
X-26143009Y-76768868D01*
X-26114092Y-76765060D01*
X-26097907Y-76764000D01*
X-17312929Y-76764000D01*
X-17245890Y-76783685D01*
X-17200135Y-76836489D01*
X-17199373Y-76838190D01*
X-17190002Y-76859551D01*
X-17185924Y-76868849D01*
X-17058979Y-77063153D01*
X-16901784Y-77233913D01*
X-16718626Y-77376470D01*
X-16514503Y-77486936D01*
X-16294981Y-77562298D01*
X-16066049Y-77600500D01*
X-16066048Y-77600500D01*
X-15833952Y-77600500D01*
X-15833951Y-77600500D01*
X-15605019Y-77562298D01*
X-15605017Y-77562297D01*
X-15605015Y-77562297D01*
X-15472884Y-77516936D01*
X-15385497Y-77486936D01*
X-15181374Y-77376470D01*
X-14998216Y-77233913D01*
X-14841021Y-77063153D01*
X-14714076Y-76868849D01*
X-14700628Y-76838190D01*
X-14620844Y-76656303D01*
X-14620843Y-76656300D01*
X-14563866Y-76431305D01*
X-14563865Y-76431301D01*
X-14563865Y-76431299D01*
X-14544699Y-76200000D01*
X-14563865Y-75968700D01*
X-14620844Y-75743696D01*
X-14714076Y-75531150D01*
X-14841020Y-75336848D01*
X-14998215Y-75166087D01*
X-15181372Y-75023531D01*
X-15335726Y-74939999D01*
X-15385497Y-74913064D01*
X-15385497Y-74913063D01*
X-15385501Y-74913062D01*
X-15605015Y-74837702D01*
X-15788164Y-74807140D01*
X-15833951Y-74799500D01*
X-16066049Y-74799500D01*
X-16123281Y-74809050D01*
X-16294984Y-74837702D01*
X-16514498Y-74913062D01*
X-16514499Y-74913062D01*
X-16514503Y-74913064D01*
X-16718626Y-75023530D01*
X-16901784Y-75166087D01*
X-17058979Y-75336847D01*
X-17185923Y-75531150D01*
X-17185925Y-75531153D01*
X-17199373Y-75561810D01*
X-17244329Y-75615296D01*
X-17311065Y-75635986D01*
X-17312929Y-75636000D01*
X-25858030Y-75636000D01*
X-25925069Y-75616315D01*
X-25945711Y-75599681D01*
X-28774392Y-72771000D01*
X-21034101Y-72771000D01*
X-21013724Y-73029916D01*
X-20953096Y-73282455D01*
X-20853707Y-73522397D01*
X-20718003Y-73743849D01*
X-20712198Y-73750645D01*
X-20056195Y-73094642D01*
X-20032941Y-73148553D01*
X-19928244Y-73289185D01*
X-19793938Y-73401882D01*
X-19702334Y-73447887D01*
X-20358645Y-74104198D01*
X-20351849Y-74110003D01*
X-20130397Y-74245707D01*
X-19890455Y-74345096D01*
X-19637916Y-74405724D01*
X-19379000Y-74426101D01*
X-19120083Y-74405724D01*
X-18867544Y-74345096D01*
X-18627597Y-74245705D01*
X-18406155Y-74110006D01*
X-18399354Y-74104198D01*
X-19053054Y-73450498D01*
X-19040109Y-73445787D01*
X-18893627Y-73349445D01*
X-18773312Y-73221918D01*
X-18700552Y-73095893D01*
X-18045801Y-73750644D01*
X-18039993Y-73743843D01*
X-17904294Y-73522402D01*
X-17804903Y-73282455D01*
X-17744275Y-73029916D01*
X-17723898Y-72771000D01*
X-14176101Y-72771000D01*
X-14155724Y-73029916D01*
X-14095096Y-73282455D01*
X-13995707Y-73522397D01*
X-13860003Y-73743849D01*
X-13854198Y-73750645D01*
X-13198195Y-73094642D01*
X-13174941Y-73148553D01*
X-13070244Y-73289185D01*
X-12935938Y-73401882D01*
X-12844334Y-73447887D01*
X-13500645Y-74104198D01*
X-13493849Y-74110003D01*
X-13272397Y-74245707D01*
X-13032455Y-74345096D01*
X-12779916Y-74405724D01*
X-12521000Y-74426101D01*
X-12262083Y-74405724D01*
X-12009544Y-74345096D01*
X-11769597Y-74245705D01*
X-11548155Y-74110006D01*
X-11541354Y-74104198D01*
X-12195054Y-73450498D01*
X-12182109Y-73445787D01*
X-12035627Y-73349445D01*
X-11915312Y-73221918D01*
X-11842552Y-73095893D01*
X-11187801Y-73750644D01*
X-11181993Y-73743843D01*
X-11046294Y-73522402D01*
X-10946903Y-73282455D01*
X-10886275Y-73029916D01*
X-10865898Y-72771000D01*
X-10886275Y-72512083D01*
X-10946903Y-72259544D01*
X-11046294Y-72019597D01*
X-11181992Y-71798156D01*
X-11187801Y-71791354D01*
X-11843804Y-72447357D01*
X-11867059Y-72393447D01*
X-11971756Y-72252815D01*
X-12106062Y-72140118D01*
X-12197665Y-72094112D01*
X-11541354Y-71437801D01*
X-11548156Y-71431992D01*
X-11769597Y-71296294D01*
X-12009544Y-71196903D01*
X-12262083Y-71136275D01*
X-12521000Y-71115898D01*
X-12779916Y-71136275D01*
X-13032455Y-71196903D01*
X-13272402Y-71296294D01*
X-13493843Y-71431993D01*
X-13500645Y-71437801D01*
X-12846945Y-72091501D01*
X-12859891Y-72096213D01*
X-13006373Y-72192555D01*
X-13126688Y-72320082D01*
X-13199446Y-72446105D01*
X-13854198Y-71791354D01*
X-13860006Y-71798155D01*
X-13995705Y-72019597D01*
X-14095096Y-72259544D01*
X-14155724Y-72512083D01*
X-14176101Y-72771000D01*
X-17723898Y-72771000D01*
X-17744275Y-72512083D01*
X-17804903Y-72259544D01*
X-17904294Y-72019597D01*
X-18039992Y-71798156D01*
X-18045801Y-71791354D01*
X-18701804Y-72447357D01*
X-18725059Y-72393447D01*
X-18829756Y-72252815D01*
X-18964062Y-72140118D01*
X-19055665Y-72094112D01*
X-18399354Y-71437801D01*
X-18406156Y-71431992D01*
X-18627597Y-71296294D01*
X-18867544Y-71196903D01*
X-19120083Y-71136275D01*
X-19379000Y-71115898D01*
X-19637916Y-71136275D01*
X-19890455Y-71196903D01*
X-20130402Y-71296294D01*
X-20351843Y-71431993D01*
X-20358645Y-71437801D01*
X-19704945Y-72091501D01*
X-19717891Y-72096213D01*
X-19864373Y-72192555D01*
X-19984688Y-72320082D01*
X-20057446Y-72446105D01*
X-20712198Y-71791354D01*
X-20718006Y-71798155D01*
X-20853705Y-72019597D01*
X-20953096Y-72259544D01*
X-21013724Y-72512083D01*
X-21034101Y-72771000D01*
X-28774392Y-72771000D01*
X-30519711Y-71025681D01*
X-30553196Y-70964358D01*
X-30548212Y-70894666D01*
X-30506340Y-70838733D01*
X-30440876Y-70814316D01*
X-30432030Y-70814000D01*
X6715021Y-70814000D01*
X6782060Y-70833685D01*
X6802702Y-70850319D01*
X12519302Y-76566919D01*
X12529997Y-76579114D01*
X12547750Y-76602250D01*
X12556025Y-76608599D01*
X12577330Y-76624947D01*
X12577339Y-76624955D01*
X12665567Y-76692654D01*
X12802766Y-76749483D01*
X12950000Y-76768868D01*
X12978916Y-76765060D01*
X12995102Y-76764000D01*
X14766071Y-76764000D01*
X14833110Y-76783685D01*
X14878865Y-76836489D01*
X14879627Y-76838190D01*
X14893074Y-76868846D01*
X14893076Y-76868849D01*
X15020021Y-77063153D01*
X15177216Y-77233913D01*
X15360374Y-77376470D01*
X15564497Y-77486936D01*
X15651884Y-77516936D01*
X15784015Y-77562297D01*
X15784017Y-77562297D01*
X15784019Y-77562298D01*
X16012951Y-77600500D01*
X16012952Y-77600500D01*
X16245048Y-77600500D01*
X16245049Y-77600500D01*
X16473981Y-77562298D01*
X16693503Y-77486936D01*
X16897626Y-77376470D01*
X17080784Y-77233913D01*
X17237979Y-77063153D01*
X17364924Y-76868849D01*
X17458157Y-76656300D01*
X17515134Y-76431305D01*
X17534300Y-76200000D01*
X17515134Y-75968695D01*
X17458157Y-75743700D01*
X17364924Y-75531151D01*
X17237979Y-75336847D01*
X17080784Y-75166087D01*
X16897626Y-75023530D01*
X16693503Y-74913064D01*
X16693499Y-74913062D01*
X16693498Y-74913062D01*
X16473984Y-74837702D01*
X16302281Y-74809050D01*
X16245049Y-74799500D01*
X16012951Y-74799500D01*
X15967164Y-74807140D01*
X15784015Y-74837702D01*
X15564501Y-74913062D01*
X15564497Y-74913063D01*
X15564497Y-74913064D01*
X15514726Y-74939999D01*
X15360372Y-75023531D01*
X15177215Y-75166087D01*
X15031590Y-75324279D01*
X15020021Y-75336847D01*
X14977706Y-75401615D01*
X14893074Y-75531153D01*
X14879627Y-75561810D01*
X14834671Y-75615296D01*
X14767935Y-75635986D01*
X14766071Y-75636000D01*
X13234979Y-75636000D01*
X13167940Y-75616315D01*
X13147298Y-75599681D01*
X12110146Y-74562529D01*
X12076661Y-74501206D01*
X12081645Y-74431514D01*
X12123517Y-74375581D01*
X12188981Y-74351164D01*
X12226774Y-74354274D01*
X12441083Y-74405724D01*
X12700000Y-74426101D01*
X12958916Y-74405724D01*
X13211455Y-74345096D01*
X13451397Y-74245707D01*
X13672849Y-74110003D01*
X13679645Y-74104198D01*
X13025945Y-73450498D01*
X13038891Y-73445787D01*
X13185373Y-73349445D01*
X13305688Y-73221918D01*
X13378447Y-73095894D01*
X14033198Y-73750645D01*
X14039003Y-73743849D01*
X14174707Y-73522397D01*
X14274096Y-73282455D01*
X14334724Y-73029916D01*
X14355101Y-72771000D01*
X17902898Y-72771000D01*
X17923275Y-73029916D01*
X17983903Y-73282455D01*
X18083294Y-73522402D01*
X18218993Y-73743843D01*
X18224801Y-73750644D01*
X18880803Y-73094641D01*
X18904059Y-73148553D01*
X19008756Y-73289185D01*
X19143062Y-73401882D01*
X19234665Y-73447887D01*
X18578354Y-74104198D01*
X18585155Y-74110006D01*
X18806597Y-74245705D01*
X19046544Y-74345096D01*
X19299083Y-74405724D01*
X19558000Y-74426101D01*
X19816916Y-74405724D01*
X20069455Y-74345096D01*
X20309397Y-74245707D01*
X20530849Y-74110003D01*
X20537645Y-74104198D01*
X19883945Y-73450498D01*
X19896891Y-73445787D01*
X20043373Y-73349445D01*
X20163688Y-73221918D01*
X20236447Y-73095894D01*
X20891198Y-73750645D01*
X20897003Y-73743849D01*
X21032707Y-73522397D01*
X21132096Y-73282455D01*
X21192724Y-73029916D01*
X21213101Y-72770999D01*
X21192724Y-72512083D01*
X21132096Y-72259544D01*
X21032705Y-72019597D01*
X20897006Y-71798155D01*
X20891198Y-71791354D01*
X20891197Y-71791354D01*
X20235195Y-72447356D01*
X20211941Y-72393447D01*
X20107244Y-72252815D01*
X19972938Y-72140118D01*
X19881333Y-72094112D01*
X20537645Y-71437801D01*
X20530843Y-71431993D01*
X20309402Y-71296294D01*
X20069455Y-71196903D01*
X19816916Y-71136275D01*
X19558000Y-71115898D01*
X19299083Y-71136275D01*
X19046544Y-71196903D01*
X18806597Y-71296294D01*
X18585156Y-71431992D01*
X18578353Y-71437801D01*
X19232053Y-72091501D01*
X19219109Y-72096213D01*
X19072627Y-72192555D01*
X18952312Y-72320082D01*
X18879552Y-72446105D01*
X18224801Y-71791354D01*
X18218992Y-71798156D01*
X18083294Y-72019597D01*
X17983903Y-72259544D01*
X17923275Y-72512083D01*
X17902898Y-72771000D01*
X14355101Y-72771000D01*
X14334724Y-72512083D01*
X14274096Y-72259544D01*
X14174705Y-72019597D01*
X14039006Y-71798155D01*
X14033198Y-71791354D01*
X13377195Y-72447356D01*
X13353941Y-72393447D01*
X13249244Y-72252815D01*
X13114938Y-72140118D01*
X13023333Y-72094112D01*
X13679645Y-71437801D01*
X13672843Y-71431993D01*
X13451402Y-71296294D01*
X13211455Y-71196903D01*
X12958916Y-71136275D01*
X12700000Y-71115898D01*
X12441083Y-71136275D01*
X12188544Y-71196903D01*
X11948597Y-71296294D01*
X11727156Y-71431992D01*
X11720353Y-71437801D01*
X12374053Y-72091501D01*
X12361109Y-72096213D01*
X12214627Y-72192555D01*
X12094312Y-72320082D01*
X12021552Y-72446105D01*
X11366801Y-71791354D01*
X11360992Y-71798156D01*
X11225294Y-72019597D01*
X11125903Y-72259544D01*
X11065275Y-72512083D01*
X11044898Y-72771000D01*
X11065275Y-73029916D01*
X11116725Y-73244225D01*
X11113234Y-73314008D01*
X11072570Y-73370825D01*
X11007643Y-73396638D01*
X10939068Y-73383252D01*
X10908470Y-73360853D01*
X8246298Y-70698681D01*
X8212813Y-70637358D01*
X8217797Y-70567666D01*
X8259669Y-70511733D01*
X8325133Y-70487316D01*
X8333979Y-70487000D01*
X30586012Y-70487000D01*
X30653051Y-70506685D01*
X30673693Y-70523319D01*
X31205419Y-71055045D01*
X31238904Y-71116368D01*
X31233920Y-71186060D01*
X31192048Y-71241993D01*
X31165192Y-71257287D01*
X30998595Y-71326295D01*
X30777156Y-71461992D01*
X30770354Y-71467801D01*
X31424054Y-72121501D01*
X31411109Y-72126213D01*
X31264627Y-72222555D01*
X31144312Y-72350082D01*
X31071552Y-72476105D01*
X30416801Y-71821354D01*
X30410992Y-71828156D01*
X30275294Y-72049597D01*
X30175903Y-72289544D01*
X30115275Y-72542083D01*
X30094898Y-72800999D01*
X30115275Y-73059916D01*
X30175903Y-73312455D01*
X30275294Y-73552402D01*
X30410993Y-73773843D01*
X30416801Y-73780644D01*
X31072803Y-73124641D01*
X31096059Y-73178553D01*
X31200756Y-73319185D01*
X31335062Y-73431882D01*
X31426665Y-73477887D01*
X30770354Y-74134198D01*
X30777155Y-74140006D01*
X30998597Y-74275705D01*
X31238544Y-74375096D01*
X31491083Y-74435724D01*
X31750000Y-74456101D01*
X32008916Y-74435724D01*
X32261455Y-74375096D01*
X32501397Y-74275707D01*
X32722849Y-74140003D01*
X32729645Y-74134198D01*
X32075945Y-73480498D01*
X32088891Y-73475787D01*
X32235373Y-73379445D01*
X32355688Y-73251918D01*
X32428447Y-73125894D01*
X33083198Y-73780645D01*
X33089003Y-73773849D01*
X33224707Y-73552397D01*
X33293712Y-73385808D01*
X33337553Y-73331405D01*
X33403847Y-73309340D01*
X33471547Y-73326619D01*
X33495954Y-73345580D01*
X34578681Y-74428307D01*
X34612166Y-74489630D01*
X34615000Y-74515988D01*
X34615000Y-74868904D01*
X34595315Y-74935943D01*
X34550019Y-74977957D01*
X34425847Y-75045156D01*
X34410372Y-75053531D01*
X34227215Y-75196087D01*
X34070020Y-75366848D01*
X33943076Y-75561150D01*
X33849844Y-75773696D01*
X33849842Y-75773700D01*
X33849843Y-75773700D01*
X33797982Y-75978495D01*
X33792865Y-75998700D01*
X33773699Y-76230000D01*
X33792865Y-76461299D01*
X33792865Y-76461301D01*
X33792866Y-76461305D01*
X33834307Y-76624949D01*
X33849844Y-76686303D01*
X33884391Y-76765061D01*
X33943076Y-76898849D01*
X34070021Y-77093153D01*
X34227216Y-77263913D01*
X34410374Y-77406470D01*
X34614497Y-77516936D01*
X34724258Y-77554616D01*
X34834015Y-77592297D01*
X34834017Y-77592297D01*
X34834019Y-77592298D01*
X35062951Y-77630500D01*
X35062952Y-77630500D01*
X35295048Y-77630500D01*
X35295049Y-77630500D01*
X35523981Y-77592298D01*
X35743503Y-77516936D01*
X35947626Y-77406470D01*
X36130784Y-77263913D01*
X36287979Y-77093153D01*
X36414924Y-76898849D01*
X36508157Y-76686300D01*
X36565134Y-76461305D01*
X36584300Y-76230000D01*
X36565134Y-75998695D01*
X36508157Y-75773700D01*
X36414924Y-75561151D01*
X36287979Y-75366847D01*
X36130784Y-75196087D01*
X35947626Y-75053530D01*
X35807980Y-74977957D01*
X35758392Y-74928739D01*
X35743000Y-74868904D01*
X35743000Y-74276110D01*
X35744061Y-74259924D01*
X35744257Y-74258433D01*
X35747868Y-74231009D01*
X35728483Y-74083775D01*
X35671653Y-73946576D01*
X35603949Y-73858341D01*
X35603948Y-73858340D01*
X35581250Y-73828759D01*
X35564176Y-73815658D01*
X35558114Y-73811006D01*
X35545919Y-73800311D01*
X34546608Y-72801000D01*
X36952898Y-72801000D01*
X36973275Y-73059916D01*
X37033903Y-73312455D01*
X37133294Y-73552402D01*
X37268993Y-73773843D01*
X37274801Y-73780644D01*
X37930804Y-73124642D01*
X37954059Y-73178553D01*
X38058756Y-73319185D01*
X38193062Y-73431882D01*
X38284665Y-73477887D01*
X37628354Y-74134198D01*
X37635155Y-74140006D01*
X37856597Y-74275705D01*
X38096544Y-74375096D01*
X38349083Y-74435724D01*
X38608000Y-74456101D01*
X38866916Y-74435724D01*
X39119455Y-74375096D01*
X39359397Y-74275707D01*
X39580849Y-74140003D01*
X39587645Y-74134198D01*
X38933945Y-73480498D01*
X38946891Y-73475787D01*
X39093373Y-73379445D01*
X39213688Y-73251918D01*
X39286447Y-73125894D01*
X39941198Y-73780645D01*
X39947003Y-73773849D01*
X40082707Y-73552397D01*
X40182096Y-73312455D01*
X40242724Y-73059916D01*
X40263101Y-72800999D01*
X40242724Y-72542083D01*
X40182096Y-72289544D01*
X40082705Y-72049597D01*
X39947006Y-71828155D01*
X39941198Y-71821354D01*
X39285195Y-72477356D01*
X39261941Y-72423447D01*
X39157244Y-72282815D01*
X39022938Y-72170118D01*
X38931334Y-72124112D01*
X39587645Y-71467801D01*
X39580843Y-71461993D01*
X39359402Y-71326294D01*
X39119455Y-71226903D01*
X38866916Y-71166275D01*
X38608000Y-71145898D01*
X38349083Y-71166275D01*
X38096544Y-71226903D01*
X37856597Y-71326294D01*
X37635156Y-71461992D01*
X37628354Y-71467801D01*
X38282054Y-72121501D01*
X38269109Y-72126213D01*
X38122627Y-72222555D01*
X38002312Y-72350082D01*
X37929552Y-72476105D01*
X37274801Y-71821354D01*
X37268992Y-71828156D01*
X37133294Y-72049597D01*
X37033903Y-72289544D01*
X36973275Y-72542083D01*
X36952898Y-72801000D01*
X34546608Y-72801000D01*
X31301687Y-69556079D01*
X31290991Y-69543883D01*
X31273240Y-69520749D01*
X31155424Y-69430347D01*
X31018225Y-69373517D01*
X31018225Y-69373516D01*
X30907959Y-69359000D01*
X30870991Y-69354133D01*
X30842080Y-69357939D01*
X30825897Y-69359000D01*
X-31210135Y-69359000D01*
X-31277174Y-69339315D01*
X-31297816Y-69322681D01*
X-42205151Y-58415345D01*
X-42238636Y-58354022D01*
X-42241470Y-58327664D01*
X-42241470Y-55962000D01*
X-42240409Y-55945814D01*
X-42236602Y-55916905D01*
X-42255987Y-55769672D01*
X-42312817Y-55632472D01*
X-42344500Y-55591182D01*
X-42403220Y-55514654D01*
X-42426359Y-55496899D01*
X-42438552Y-55486206D01*
X-44020076Y-53904681D01*
X-44053561Y-53843358D01*
X-44055716Y-53804040D01*
X-44051642Y-53765274D01*
X-44071428Y-53577016D01*
X-44129922Y-53396989D01*
X-44224568Y-53233057D01*
X-44351231Y-53092384D01*
X-44504371Y-52981122D01*
X-44677299Y-52904129D01*
X-44862454Y-52864774D01*
X-44862456Y-52864774D01*
X-45051748Y-52864774D01*
X-45051750Y-52864774D01*
X-45236904Y-52904129D01*
X-45409829Y-52981121D01*
X-45458402Y-53016411D01*
X-45524209Y-53039891D01*
X-45592263Y-53024066D01*
X-45640958Y-52973960D01*
X-45650048Y-52944057D01*
X-45650299Y-52944139D01*
X-45712820Y-52751715D01*
X-45807466Y-52587783D01*
X-45934129Y-52447110D01*
X-46087269Y-52335848D01*
X-46260197Y-52258855D01*
X-46445352Y-52219500D01*
X-46445354Y-52219500D01*
X-46634646Y-52219500D01*
X-46634648Y-52219500D01*
X-46819802Y-52258855D01*
X-46992730Y-52335848D01*
X-47145870Y-52447110D01*
X-47272533Y-52587783D01*
X-47367179Y-52751715D01*
X-47367179Y-52751716D01*
X-47425674Y-52931744D01*
X-47445460Y-53120000D01*
X-55999500Y-53120000D01*
X-55999500Y-43844014D01*
X-51489983Y-43844014D01*
X-51470197Y-44032270D01*
X-51411702Y-44212298D01*
X-51317056Y-44376230D01*
X-51190394Y-44516902D01*
X-51037253Y-44628165D01*
X-50864326Y-44705158D01*
X-50820511Y-44714471D01*
X-50679171Y-44744514D01*
X-50679169Y-44744514D01*
X-50489879Y-44744514D01*
X-50489877Y-44744514D01*
X-50449408Y-44735912D01*
X-50379746Y-44741227D01*
X-50324012Y-44783363D01*
X-50309071Y-44809744D01*
X-50296153Y-44840933D01*
X-50242822Y-44910437D01*
X-50205750Y-44958750D01*
X-50182614Y-44976502D01*
X-50170424Y-44987191D01*
X-49179757Y-45977857D01*
X-49169068Y-45990046D01*
X-49151313Y-46013187D01*
X-49035403Y-46102127D01*
X-49033496Y-46103590D01*
X-48896297Y-46160420D01*
X-48749063Y-46179804D01*
X-48720152Y-46175997D01*
X-48703969Y-46174937D01*
X-48656122Y-46174937D01*
X-48589083Y-46194622D01*
X-48563973Y-46215963D01*
X-48502871Y-46283825D01*
X-48426300Y-46339456D01*
X-48349732Y-46395087D01*
X-48349730Y-46395087D01*
X-48349730Y-46395088D01*
X-48191509Y-46465533D01*
X-48138273Y-46510783D01*
X-48117952Y-46577632D01*
X-48118625Y-46591774D01*
X-48119672Y-46601738D01*
X-48119674Y-46601744D01*
X-48139460Y-46790000D01*
X-48119674Y-46978256D01*
X-48089241Y-47071918D01*
X-48061179Y-47158284D01*
X-47966533Y-47322216D01*
X-47839870Y-47462889D01*
X-47686732Y-47574150D01*
X-47686730Y-47574150D01*
X-47686730Y-47574151D01*
X-47532432Y-47642849D01*
X-47479195Y-47688100D01*
X-47458874Y-47754949D01*
X-47459545Y-47769069D01*
X-47476460Y-47930000D01*
X-47456674Y-48118256D01*
X-47422459Y-48223557D01*
X-47398179Y-48298284D01*
X-47303533Y-48462216D01*
X-47176870Y-48602889D01*
X-47037429Y-48704198D01*
X-47023730Y-48714151D01*
X-46850803Y-48791144D01*
X-46737879Y-48815146D01*
X-46676402Y-48848336D01*
X-46642625Y-48909499D01*
X-46645732Y-48974751D01*
X-46676862Y-49070556D01*
X-46696648Y-49258812D01*
X-46676862Y-49447068D01*
X-46618367Y-49627096D01*
X-46618366Y-49627097D01*
X-46577481Y-49697912D01*
X-46561007Y-49765812D01*
X-46577480Y-49821913D01*
X-46616807Y-49890029D01*
X-46616807Y-49890030D01*
X-46675302Y-50070058D01*
X-46695088Y-50258314D01*
X-46675302Y-50446570D01*
X-46616807Y-50626598D01*
X-46522161Y-50790530D01*
X-46418223Y-50905965D01*
X-46395498Y-50931203D01*
X-46249152Y-51037529D01*
X-46242358Y-51042465D01*
X-46069431Y-51119458D01*
X-46007712Y-51132576D01*
X-45884276Y-51158814D01*
X-45884274Y-51158814D01*
X-45694980Y-51158814D01*
X-45509825Y-51119458D01*
X-45336900Y-51042467D01*
X-45281547Y-51002250D01*
X-45215741Y-50978770D01*
X-45158225Y-50989289D01*
X-45129114Y-51002250D01*
X-45049877Y-51037529D01*
X-45026645Y-51042467D01*
X-44864722Y-51076885D01*
X-44864720Y-51076885D01*
X-44675426Y-51076885D01*
X-44490271Y-51037529D01*
X-44317343Y-50960536D01*
X-44164203Y-50849274D01*
X-44037540Y-50708601D01*
X-43942894Y-50544669D01*
X-43884400Y-50364642D01*
X-43882199Y-50343696D01*
X-43878177Y-50305435D01*
X-43851593Y-50240823D01*
X-43794296Y-50200838D01*
X-43724477Y-50198178D01*
X-43667178Y-50230716D01*
X-41567474Y-52330420D01*
X-41556787Y-52342608D01*
X-41539030Y-52365750D01*
X-41437454Y-52443689D01*
X-41428677Y-52453060D01*
X-41421213Y-52456151D01*
X-41421213Y-52456152D01*
X-41421213Y-52456153D01*
X-41284014Y-52512983D01*
X-41136780Y-52532367D01*
X-41107869Y-52528560D01*
X-41091686Y-52527500D01*
X-39249979Y-52527500D01*
X-39182940Y-52547185D01*
X-39137185Y-52599989D01*
X-39127241Y-52669147D01*
X-39156266Y-52732703D01*
X-39185189Y-52757227D01*
X-39401843Y-52889993D01*
X-39408645Y-52895801D01*
X-38754945Y-53549501D01*
X-38767891Y-53554213D01*
X-38914373Y-53650555D01*
X-39034688Y-53778082D01*
X-39107446Y-53904105D01*
X-39762198Y-53249354D01*
X-39768006Y-53256155D01*
X-39903705Y-53477597D01*
X-40003096Y-53717544D01*
X-40063724Y-53970083D01*
X-40084101Y-54228999D01*
X-40063724Y-54487916D01*
X-40003096Y-54740455D01*
X-39903707Y-54980397D01*
X-39768003Y-55201849D01*
X-39762198Y-55208645D01*
X-39106195Y-54552642D01*
X-39082941Y-54606553D01*
X-38978244Y-54747185D01*
X-38843938Y-54859882D01*
X-38752334Y-54905887D01*
X-39408645Y-55562198D01*
X-39401849Y-55568003D01*
X-39180397Y-55703707D01*
X-38940455Y-55803096D01*
X-38687916Y-55863724D01*
X-38428999Y-55884101D01*
X-38170083Y-55863724D01*
X-37917544Y-55803096D01*
X-37677597Y-55703705D01*
X-37456155Y-55568006D01*
X-37449354Y-55562198D01*
X-38103054Y-54908498D01*
X-38090109Y-54903787D01*
X-37943627Y-54807445D01*
X-37823312Y-54679918D01*
X-37750552Y-54553893D01*
X-37095801Y-55208644D01*
X-37089993Y-55201843D01*
X-36954294Y-54980402D01*
X-36854903Y-54740455D01*
X-36794275Y-54487916D01*
X-36773898Y-54228999D01*
X-36794275Y-53970083D01*
X-36854903Y-53717544D01*
X-36954294Y-53477597D01*
X-37089992Y-53256156D01*
X-37095801Y-53249354D01*
X-37751804Y-53905357D01*
X-37775059Y-53851447D01*
X-37879756Y-53710815D01*
X-38014062Y-53598118D01*
X-38105665Y-53552112D01*
X-37449354Y-52895801D01*
X-37456156Y-52889992D01*
X-37672811Y-52757227D01*
X-37719686Y-52705416D01*
X-37731109Y-52636486D01*
X-37703452Y-52572323D01*
X-37645496Y-52533298D01*
X-37608021Y-52527500D01*
X-32391979Y-52527500D01*
X-32324940Y-52547185D01*
X-32279185Y-52599989D01*
X-32269241Y-52669147D01*
X-32298266Y-52732703D01*
X-32327189Y-52757227D01*
X-32543843Y-52889993D01*
X-32550645Y-52895801D01*
X-31896945Y-53549501D01*
X-31909891Y-53554213D01*
X-32056373Y-53650555D01*
X-32176688Y-53778082D01*
X-32249446Y-53904105D01*
X-32904198Y-53249354D01*
X-32910006Y-53256155D01*
X-33045705Y-53477597D01*
X-33145096Y-53717544D01*
X-33205724Y-53970083D01*
X-33226101Y-54228999D01*
X-33205724Y-54487916D01*
X-33145096Y-54740455D01*
X-33045707Y-54980397D01*
X-32910003Y-55201849D01*
X-32904198Y-55208645D01*
X-32248195Y-54552643D01*
X-32224941Y-54606553D01*
X-32120244Y-54747185D01*
X-31985938Y-54859882D01*
X-31894334Y-54905887D01*
X-32550645Y-55562198D01*
X-32543849Y-55568003D01*
X-32322397Y-55703707D01*
X-32082455Y-55803096D01*
X-31829916Y-55863724D01*
X-31571000Y-55884101D01*
X-31312083Y-55863724D01*
X-31059544Y-55803096D01*
X-30819597Y-55703705D01*
X-30598155Y-55568006D01*
X-30591354Y-55562198D01*
X-31245054Y-54908498D01*
X-31232109Y-54903787D01*
X-31085627Y-54807445D01*
X-30965312Y-54679918D01*
X-30892552Y-54553893D01*
X-30237801Y-55208644D01*
X-30231993Y-55201843D01*
X-30096294Y-54980402D01*
X-29996903Y-54740455D01*
X-29936275Y-54487916D01*
X-29915898Y-54228999D01*
X-21034101Y-54228999D01*
X-21013724Y-54487916D01*
X-20953096Y-54740455D01*
X-20853707Y-54980397D01*
X-20718003Y-55201849D01*
X-20712198Y-55208645D01*
X-20056195Y-54552642D01*
X-20032941Y-54606553D01*
X-19928244Y-54747185D01*
X-19793938Y-54859882D01*
X-19702334Y-54905887D01*
X-20358645Y-55562198D01*
X-20351849Y-55568003D01*
X-20130397Y-55703707D01*
X-19890455Y-55803096D01*
X-19637916Y-55863724D01*
X-19379000Y-55884101D01*
X-19120083Y-55863724D01*
X-18867544Y-55803096D01*
X-18627597Y-55703705D01*
X-18406155Y-55568006D01*
X-18399354Y-55562198D01*
X-19053054Y-54908498D01*
X-19040109Y-54903787D01*
X-18893627Y-54807445D01*
X-18773312Y-54679918D01*
X-18700552Y-54553893D01*
X-18045801Y-55208644D01*
X-18039993Y-55201843D01*
X-17904294Y-54980402D01*
X-17804903Y-54740455D01*
X-17744275Y-54487916D01*
X-17723898Y-54229000D01*
X-14176101Y-54229000D01*
X-14155724Y-54487916D01*
X-14095096Y-54740455D01*
X-13995707Y-54980397D01*
X-13860003Y-55201849D01*
X-13854198Y-55208645D01*
X-13198195Y-54552642D01*
X-13174941Y-54606553D01*
X-13070244Y-54747185D01*
X-12935938Y-54859882D01*
X-12844334Y-54905887D01*
X-13500645Y-55562198D01*
X-13493849Y-55568003D01*
X-13272397Y-55703707D01*
X-13032455Y-55803096D01*
X-12779916Y-55863724D01*
X-12521000Y-55884101D01*
X-12262083Y-55863724D01*
X-12009544Y-55803096D01*
X-11769597Y-55703705D01*
X-11548155Y-55568006D01*
X-11541354Y-55562198D01*
X-12195054Y-54908498D01*
X-12182109Y-54903787D01*
X-12035627Y-54807445D01*
X-11915312Y-54679918D01*
X-11842552Y-54553893D01*
X-11187801Y-55208644D01*
X-11181993Y-55201843D01*
X-11046294Y-54980402D01*
X-10946903Y-54740455D01*
X-10886275Y-54487916D01*
X-10865898Y-54228999D01*
X11044898Y-54228999D01*
X11065275Y-54487916D01*
X11125903Y-54740455D01*
X11225294Y-54980402D01*
X11360993Y-55201843D01*
X11366801Y-55208644D01*
X12022803Y-54552641D01*
X12046059Y-54606553D01*
X12150756Y-54747185D01*
X12285062Y-54859882D01*
X12376665Y-54905887D01*
X11720354Y-55562198D01*
X11727155Y-55568006D01*
X11948597Y-55703705D01*
X12188544Y-55803096D01*
X12441083Y-55863724D01*
X12700000Y-55884101D01*
X12958916Y-55863724D01*
X13211455Y-55803096D01*
X13451397Y-55703707D01*
X13672849Y-55568003D01*
X13679645Y-55562198D01*
X13025945Y-54908498D01*
X13038891Y-54903787D01*
X13185373Y-54807445D01*
X13305688Y-54679918D01*
X13378447Y-54553894D01*
X14033198Y-55208645D01*
X14039003Y-55201849D01*
X14174707Y-54980397D01*
X14274096Y-54740455D01*
X14334724Y-54487916D01*
X14355101Y-54228999D01*
X17902898Y-54228999D01*
X17923275Y-54487916D01*
X17983903Y-54740455D01*
X18083294Y-54980402D01*
X18218993Y-55201843D01*
X18224801Y-55208644D01*
X18880804Y-54552642D01*
X18904059Y-54606553D01*
X19008756Y-54747185D01*
X19143062Y-54859882D01*
X19234665Y-54905886D01*
X18578353Y-55562198D01*
X18585155Y-55568006D01*
X18806597Y-55703705D01*
X19046544Y-55803096D01*
X19299083Y-55863724D01*
X19558000Y-55884101D01*
X19816916Y-55863724D01*
X20069455Y-55803096D01*
X20309397Y-55703707D01*
X20530849Y-55568003D01*
X20537645Y-55562198D01*
X19883945Y-54908498D01*
X19896891Y-54903787D01*
X20043373Y-54807445D01*
X20163688Y-54679918D01*
X20236447Y-54553894D01*
X20891198Y-55208645D01*
X20897003Y-55201849D01*
X21032707Y-54980397D01*
X21132096Y-54740455D01*
X21192724Y-54487916D01*
X21213101Y-54229000D01*
X30094898Y-54229000D01*
X30115275Y-54487916D01*
X30175903Y-54740455D01*
X30275294Y-54980402D01*
X30410993Y-55201843D01*
X30416801Y-55208644D01*
X31072804Y-54552642D01*
X31096059Y-54606553D01*
X31200756Y-54747185D01*
X31335062Y-54859882D01*
X31426665Y-54905886D01*
X30770353Y-55562198D01*
X30777155Y-55568006D01*
X30998597Y-55703705D01*
X31238544Y-55803096D01*
X31491083Y-55863724D01*
X31750000Y-55884101D01*
X32008916Y-55863724D01*
X32261455Y-55803096D01*
X32501397Y-55703707D01*
X32722849Y-55568003D01*
X32729645Y-55562198D01*
X32075945Y-54908498D01*
X32088891Y-54903787D01*
X32235373Y-54807445D01*
X32355688Y-54679918D01*
X32428447Y-54553893D01*
X33083198Y-55208645D01*
X33089003Y-55201849D01*
X33224707Y-54980397D01*
X33324096Y-54740455D01*
X33384724Y-54487916D01*
X33405101Y-54228999D01*
X36952898Y-54228999D01*
X36973275Y-54487916D01*
X37033903Y-54740455D01*
X37133294Y-54980402D01*
X37268993Y-55201843D01*
X37274801Y-55208644D01*
X37930803Y-54552641D01*
X37954059Y-54606553D01*
X38058756Y-54747185D01*
X38193062Y-54859882D01*
X38284665Y-54905887D01*
X37628354Y-55562198D01*
X37635155Y-55568006D01*
X37856597Y-55703705D01*
X38096544Y-55803096D01*
X38349083Y-55863724D01*
X38608000Y-55884101D01*
X38866916Y-55863724D01*
X39119455Y-55803096D01*
X39359397Y-55703707D01*
X39580849Y-55568003D01*
X39587645Y-55562198D01*
X38933945Y-54908498D01*
X38946891Y-54903787D01*
X39093373Y-54807445D01*
X39213688Y-54679918D01*
X39286447Y-54553893D01*
X39941198Y-55208645D01*
X39947003Y-55201849D01*
X40082707Y-54980397D01*
X40182096Y-54740455D01*
X40211014Y-54619999D01*
X53644340Y-54619999D01*
X53664936Y-54855407D01*
X53702205Y-54994496D01*
X53726097Y-55083663D01*
X53825965Y-55297830D01*
X53961505Y-55491401D01*
X54128599Y-55658495D01*
X54322170Y-55794035D01*
X54536337Y-55893903D01*
X54764592Y-55955063D01*
X55000000Y-55975659D01*
X55235408Y-55955063D01*
X55463663Y-55893903D01*
X55677830Y-55794035D01*
X55871401Y-55658495D01*
X56038495Y-55491401D01*
X56174035Y-55297830D01*
X56273903Y-55083663D01*
X56335063Y-54855408D01*
X56355659Y-54620000D01*
X56335063Y-54384592D01*
X56273903Y-54156337D01*
X56174035Y-53942171D01*
X56038495Y-53748599D01*
X55871401Y-53581505D01*
X55685839Y-53451573D01*
X55642216Y-53396998D01*
X55635022Y-53327500D01*
X55666545Y-53265145D01*
X55685837Y-53248428D01*
X55871401Y-53118495D01*
X56038495Y-52951401D01*
X56174035Y-52757830D01*
X56273903Y-52543663D01*
X56335063Y-52315408D01*
X56355659Y-52080000D01*
X56335063Y-51844592D01*
X56273903Y-51616337D01*
X56174035Y-51402171D01*
X56038495Y-51208599D01*
X55871401Y-51041505D01*
X55685839Y-50911573D01*
X55642216Y-50856998D01*
X55635022Y-50787500D01*
X55666545Y-50725145D01*
X55685837Y-50708428D01*
X55871401Y-50578495D01*
X56038495Y-50411401D01*
X56174035Y-50217830D01*
X56273903Y-50003663D01*
X56335063Y-49775408D01*
X56355659Y-49540000D01*
X56335063Y-49304592D01*
X56273903Y-49076337D01*
X56174035Y-48862171D01*
X56038495Y-48668599D01*
X55916569Y-48546673D01*
X55883084Y-48485350D01*
X55888068Y-48415658D01*
X55929940Y-48359725D01*
X55960915Y-48342810D01*
X56092331Y-48293796D01*
X56207546Y-48207546D01*
X56293796Y-48092331D01*
X56344091Y-47957483D01*
X56350500Y-47897873D01*
X56350499Y-46102128D01*
X56344091Y-46042517D01*
X56293796Y-45907669D01*
X56207546Y-45792454D01*
X56092331Y-45706204D01*
X55957483Y-45655909D01*
X55897873Y-45649500D01*
X55894550Y-45649500D01*
X54105439Y-45649500D01*
X54105420Y-45649500D01*
X54102128Y-45649501D01*
X54098848Y-45649853D01*
X54098840Y-45649854D01*
X54042515Y-45655909D01*
X53907669Y-45706204D01*
X53792454Y-45792454D01*
X53706204Y-45907668D01*
X53655910Y-46042515D01*
X53655909Y-46042517D01*
X53649500Y-46102127D01*
X53649500Y-46105448D01*
X53649500Y-46105449D01*
X53649500Y-47894560D01*
X53649500Y-47894578D01*
X53649501Y-47897872D01*
X53649853Y-47901152D01*
X53649854Y-47901159D01*
X53655045Y-47949445D01*
X53655909Y-47957483D01*
X53706204Y-48092331D01*
X53792454Y-48207546D01*
X53907669Y-48293796D01*
X54019907Y-48335658D01*
X54039082Y-48342810D01*
X54095016Y-48384681D01*
X54119433Y-48450146D01*
X54104581Y-48518419D01*
X54083431Y-48546673D01*
X53961503Y-48668601D01*
X53825965Y-48862170D01*
X53726097Y-49076336D01*
X53664936Y-49304592D01*
X53644340Y-49540000D01*
X53664936Y-49775407D01*
X53695649Y-49890029D01*
X53726097Y-50003663D01*
X53825965Y-50217830D01*
X53961505Y-50411401D01*
X54128599Y-50578495D01*
X54314160Y-50708426D01*
X54357783Y-50763002D01*
X54364976Y-50832501D01*
X54333454Y-50894855D01*
X54314158Y-50911575D01*
X54134278Y-51037529D01*
X54128595Y-51041508D01*
X53961505Y-51208598D01*
X53825965Y-51402170D01*
X53726097Y-51616336D01*
X53664936Y-51844592D01*
X53644340Y-52079999D01*
X53664936Y-52315407D01*
X53701820Y-52453060D01*
X53726097Y-52543663D01*
X53825965Y-52757830D01*
X53961505Y-52951401D01*
X54128599Y-53118495D01*
X54314160Y-53248426D01*
X54357783Y-53303002D01*
X54364976Y-53372501D01*
X54333454Y-53434855D01*
X54314159Y-53451575D01*
X54128595Y-53581508D01*
X53961505Y-53748598D01*
X53825965Y-53942170D01*
X53726097Y-54156336D01*
X53664936Y-54384592D01*
X53644340Y-54619999D01*
X40211014Y-54619999D01*
X40242724Y-54487916D01*
X40263101Y-54229000D01*
X40242724Y-53970083D01*
X40182096Y-53717544D01*
X40082705Y-53477597D01*
X39947006Y-53256155D01*
X39941198Y-53249354D01*
X39941197Y-53249354D01*
X39285195Y-53905356D01*
X39261941Y-53851447D01*
X39157244Y-53710815D01*
X39022938Y-53598118D01*
X38931332Y-53552112D01*
X39587644Y-52895801D01*
X39580843Y-52889993D01*
X39359402Y-52754294D01*
X39119455Y-52654903D01*
X38866916Y-52594275D01*
X38608000Y-52573898D01*
X38349083Y-52594275D01*
X38096544Y-52654903D01*
X37856597Y-52754294D01*
X37635156Y-52889992D01*
X37628354Y-52895801D01*
X38282054Y-53549501D01*
X38269109Y-53554213D01*
X38122627Y-53650555D01*
X38002312Y-53778082D01*
X37929552Y-53904105D01*
X37274801Y-53249354D01*
X37268992Y-53256156D01*
X37133294Y-53477597D01*
X37033903Y-53717544D01*
X36973275Y-53970083D01*
X36952898Y-54228999D01*
X33405101Y-54228999D01*
X33384724Y-53970083D01*
X33324096Y-53717544D01*
X33224705Y-53477597D01*
X33089006Y-53256155D01*
X33083198Y-53249354D01*
X33083197Y-53249354D01*
X32427194Y-53905355D01*
X32403941Y-53851447D01*
X32299244Y-53710815D01*
X32164938Y-53598118D01*
X32073334Y-53552112D01*
X32729645Y-52895801D01*
X32722843Y-52889993D01*
X32501402Y-52754294D01*
X32261455Y-52654903D01*
X32008916Y-52594275D01*
X31749999Y-52573898D01*
X31491083Y-52594275D01*
X31238544Y-52654903D01*
X30998597Y-52754294D01*
X30777156Y-52889992D01*
X30770354Y-52895801D01*
X31424054Y-53549501D01*
X31411109Y-53554213D01*
X31264627Y-53650555D01*
X31144312Y-53778082D01*
X31071552Y-53904105D01*
X30416801Y-53249354D01*
X30410992Y-53256156D01*
X30275294Y-53477597D01*
X30175903Y-53717544D01*
X30115275Y-53970083D01*
X30094898Y-54229000D01*
X21213101Y-54229000D01*
X21192724Y-53970083D01*
X21132096Y-53717544D01*
X21032705Y-53477597D01*
X20897006Y-53256155D01*
X20891198Y-53249354D01*
X20235195Y-53905356D01*
X20211941Y-53851447D01*
X20107244Y-53710815D01*
X19972938Y-53598118D01*
X19881334Y-53552112D01*
X20537645Y-52895801D01*
X20530843Y-52889993D01*
X20309402Y-52754294D01*
X20069455Y-52654903D01*
X19816916Y-52594275D01*
X19557999Y-52573898D01*
X19299083Y-52594275D01*
X19046544Y-52654903D01*
X18806597Y-52754294D01*
X18585156Y-52889992D01*
X18578354Y-52895801D01*
X19232054Y-53549501D01*
X19219109Y-53554213D01*
X19072627Y-53650555D01*
X18952312Y-53778082D01*
X18879552Y-53904105D01*
X18224801Y-53249354D01*
X18218992Y-53256156D01*
X18083294Y-53477597D01*
X17983903Y-53717544D01*
X17923275Y-53970083D01*
X17902898Y-54228999D01*
X14355101Y-54228999D01*
X14334724Y-53970083D01*
X14274096Y-53717544D01*
X14174705Y-53477597D01*
X14039006Y-53256155D01*
X14033198Y-53249354D01*
X13377195Y-53905356D01*
X13353941Y-53851447D01*
X13249244Y-53710815D01*
X13114938Y-53598118D01*
X13023333Y-53552112D01*
X13679645Y-52895801D01*
X13672843Y-52889993D01*
X13451402Y-52754294D01*
X13211455Y-52654903D01*
X12958916Y-52594275D01*
X12699999Y-52573898D01*
X12441083Y-52594275D01*
X12188544Y-52654903D01*
X11948597Y-52754294D01*
X11727156Y-52889992D01*
X11720353Y-52895801D01*
X12374053Y-53549501D01*
X12361109Y-53554213D01*
X12214627Y-53650555D01*
X12094312Y-53778082D01*
X12021553Y-53904104D01*
X11366801Y-53249354D01*
X11360992Y-53256156D01*
X11225294Y-53477597D01*
X11125903Y-53717544D01*
X11065275Y-53970083D01*
X11044898Y-54228999D01*
X-10865898Y-54228999D01*
X-10886275Y-53970083D01*
X-10946903Y-53717544D01*
X-11046294Y-53477597D01*
X-11181992Y-53256156D01*
X-11187801Y-53249354D01*
X-11843804Y-53905356D01*
X-11867059Y-53851447D01*
X-11971756Y-53710815D01*
X-12106062Y-53598118D01*
X-12197664Y-53552113D01*
X-11541353Y-52895801D01*
X-11548156Y-52889992D01*
X-11769597Y-52754294D01*
X-12009544Y-52654903D01*
X-12262083Y-52594275D01*
X-12520999Y-52573898D01*
X-12779916Y-52594275D01*
X-13032455Y-52654903D01*
X-13272402Y-52754294D01*
X-13493843Y-52889993D01*
X-13500644Y-52895801D01*
X-12846944Y-53549500D01*
X-12859891Y-53554213D01*
X-13006373Y-53650555D01*
X-13126688Y-53778082D01*
X-13199446Y-53904104D01*
X-13854198Y-53249354D01*
X-13860006Y-53256155D01*
X-13995705Y-53477597D01*
X-14095096Y-53717544D01*
X-14155724Y-53970083D01*
X-14176101Y-54229000D01*
X-17723898Y-54229000D01*
X-17744275Y-53970083D01*
X-17804903Y-53717544D01*
X-17904294Y-53477597D01*
X-18039992Y-53256156D01*
X-18045801Y-53249354D01*
X-18701804Y-53905357D01*
X-18725059Y-53851447D01*
X-18829756Y-53710815D01*
X-18964062Y-53598118D01*
X-19055665Y-53552112D01*
X-18399354Y-52895801D01*
X-18406156Y-52889992D01*
X-18627597Y-52754294D01*
X-18867544Y-52654903D01*
X-19120083Y-52594275D01*
X-19379000Y-52573898D01*
X-19637916Y-52594275D01*
X-19890455Y-52654903D01*
X-20130402Y-52754294D01*
X-20351843Y-52889993D01*
X-20358644Y-52895801D01*
X-19704945Y-53549501D01*
X-19717891Y-53554213D01*
X-19864373Y-53650555D01*
X-19984688Y-53778082D01*
X-20057446Y-53904105D01*
X-20712198Y-53249354D01*
X-20718006Y-53256155D01*
X-20853705Y-53477597D01*
X-20953096Y-53717544D01*
X-21013724Y-53970083D01*
X-21034101Y-54228999D01*
X-29915898Y-54228999D01*
X-29936275Y-53970083D01*
X-29996903Y-53717544D01*
X-30096294Y-53477597D01*
X-30231992Y-53256156D01*
X-30237801Y-53249354D01*
X-30893804Y-53905357D01*
X-30917059Y-53851447D01*
X-31021756Y-53710815D01*
X-31156062Y-53598118D01*
X-31247665Y-53552112D01*
X-30591354Y-52895801D01*
X-30598156Y-52889992D01*
X-30814811Y-52757227D01*
X-30861686Y-52705416D01*
X-30873109Y-52636486D01*
X-30845452Y-52572323D01*
X-30787496Y-52533298D01*
X-30750021Y-52527500D01*
X-24928594Y-52527500D01*
X-24912410Y-52528560D01*
X-24883500Y-52532367D01*
X-24883499Y-52532366D01*
X-24883499Y-52532367D01*
X-24866370Y-52530111D01*
X-24736266Y-52512983D01*
X-24599067Y-52456153D01*
X-24510832Y-52388449D01*
X-24510831Y-52388448D01*
X-24481250Y-52365750D01*
X-24463492Y-52342608D01*
X-24452799Y-52330416D01*
X-23522703Y-51400319D01*
X-23461380Y-51366834D01*
X-23435022Y-51364000D01*
X-17312929Y-51364000D01*
X-17245890Y-51383685D01*
X-17200135Y-51436489D01*
X-17199373Y-51438190D01*
X-17190002Y-51459551D01*
X-17185924Y-51468849D01*
X-17058979Y-51663153D01*
X-16901784Y-51833913D01*
X-16718626Y-51976470D01*
X-16514503Y-52086936D01*
X-16294981Y-52162298D01*
X-16066049Y-52200500D01*
X-16066048Y-52200500D01*
X-15833952Y-52200500D01*
X-15833951Y-52200500D01*
X-15605019Y-52162298D01*
X-15605017Y-52162297D01*
X-15605015Y-52162297D01*
X-15495257Y-52124616D01*
X-15385497Y-52086936D01*
X-15181374Y-51976470D01*
X-14998216Y-51833913D01*
X-14841021Y-51663153D01*
X-14714076Y-51468849D01*
X-14700628Y-51438190D01*
X-14620844Y-51256303D01*
X-14620843Y-51256300D01*
X-14563866Y-51031305D01*
X-14563865Y-51031301D01*
X-14563865Y-51031299D01*
X-14544699Y-50800000D01*
X-14563865Y-50568700D01*
X-14569951Y-50544669D01*
X-14620843Y-50343700D01*
X-14620842Y-50343700D01*
X-14620844Y-50343696D01*
X-14714076Y-50131150D01*
X-14841020Y-49936848D01*
X-14998215Y-49766087D01*
X-15181372Y-49623531D01*
X-15385501Y-49513062D01*
X-15605015Y-49437702D01*
X-15788164Y-49407140D01*
X-15833951Y-49399500D01*
X-16066049Y-49399500D01*
X-16123281Y-49409050D01*
X-16294984Y-49437702D01*
X-16514498Y-49513062D01*
X-16514499Y-49513062D01*
X-16514503Y-49513064D01*
X-16718626Y-49623530D01*
X-16901784Y-49766087D01*
X-17058979Y-49936847D01*
X-17185923Y-50131150D01*
X-17185925Y-50131153D01*
X-17199373Y-50161810D01*
X-17244329Y-50215296D01*
X-17311065Y-50235986D01*
X-17312929Y-50236000D01*
X-23674907Y-50236000D01*
X-23691093Y-50234939D01*
X-23720002Y-50231132D01*
X-23756961Y-50235998D01*
X-23756967Y-50236000D01*
X-23756968Y-50236000D01*
X-23867233Y-50250516D01*
X-23867234Y-50250517D01*
X-24004433Y-50307347D01*
X-24122248Y-50397748D01*
X-24140007Y-50420891D01*
X-24150701Y-50433084D01*
X-25080798Y-51363181D01*
X-25142121Y-51396666D01*
X-25168479Y-51399500D01*
X-33547791Y-51399500D01*
X-33614830Y-51379815D01*
X-33660585Y-51327011D01*
X-33670529Y-51257853D01*
X-33667999Y-51245070D01*
X-33613866Y-51031305D01*
X-33613865Y-51031301D01*
X-33613865Y-51031299D01*
X-33594699Y-50800000D01*
X-33613865Y-50568700D01*
X-33619951Y-50544669D01*
X-33670843Y-50343700D01*
X-33670842Y-50343700D01*
X-33670844Y-50343696D01*
X-33764076Y-50131150D01*
X-33891020Y-49936848D01*
X-34048215Y-49766087D01*
X-34231372Y-49623531D01*
X-34246847Y-49615156D01*
X-34371019Y-49547957D01*
X-34420608Y-49498739D01*
X-34436000Y-49438904D01*
X-34436000Y-48846103D01*
X-34434939Y-48829917D01*
X-34431132Y-48801008D01*
X-34450517Y-48653775D01*
X-34507347Y-48516575D01*
X-34539509Y-48474661D01*
X-34597752Y-48398755D01*
X-34620889Y-48381002D01*
X-34633082Y-48370309D01*
X-35632391Y-47371000D01*
X-33226101Y-47371000D01*
X-33205724Y-47629916D01*
X-33145096Y-47882455D01*
X-33045707Y-48122397D01*
X-32910003Y-48343849D01*
X-32904198Y-48350645D01*
X-32248195Y-47694643D01*
X-32224941Y-47748553D01*
X-32120244Y-47889185D01*
X-31985938Y-48001882D01*
X-31894334Y-48047887D01*
X-32550645Y-48704198D01*
X-32543849Y-48710003D01*
X-32322397Y-48845707D01*
X-32082455Y-48945096D01*
X-31829916Y-49005724D01*
X-31571000Y-49026101D01*
X-31312083Y-49005724D01*
X-31059544Y-48945096D01*
X-30819597Y-48845705D01*
X-30598155Y-48710006D01*
X-30591354Y-48704198D01*
X-31245054Y-48050498D01*
X-31232109Y-48045787D01*
X-31085627Y-47949445D01*
X-30965312Y-47821918D01*
X-30892552Y-47695893D01*
X-30237801Y-48350644D01*
X-30231993Y-48343843D01*
X-30096294Y-48122402D01*
X-29996903Y-47882455D01*
X-29936275Y-47629916D01*
X-29915898Y-47371000D01*
X-21034101Y-47371000D01*
X-21013724Y-47629916D01*
X-20953096Y-47882455D01*
X-20853707Y-48122397D01*
X-20718003Y-48343849D01*
X-20712198Y-48350645D01*
X-20056195Y-47694642D01*
X-20032941Y-47748553D01*
X-19928244Y-47889185D01*
X-19793938Y-48001882D01*
X-19702334Y-48047887D01*
X-20358645Y-48704198D01*
X-20351849Y-48710003D01*
X-20130397Y-48845707D01*
X-19890455Y-48945096D01*
X-19637916Y-49005724D01*
X-19379000Y-49026101D01*
X-19120083Y-49005724D01*
X-18867544Y-48945096D01*
X-18627597Y-48845705D01*
X-18406155Y-48710006D01*
X-18399354Y-48704198D01*
X-19053054Y-48050498D01*
X-19040109Y-48045787D01*
X-18893627Y-47949445D01*
X-18773312Y-47821918D01*
X-18700552Y-47695893D01*
X-18045801Y-48350644D01*
X-18039993Y-48343843D01*
X-17904294Y-48122402D01*
X-17804903Y-47882455D01*
X-17744275Y-47629916D01*
X-17723898Y-47371000D01*
X-17723898Y-47370999D01*
X-14176101Y-47370999D01*
X-14155724Y-47629916D01*
X-14095096Y-47882455D01*
X-13995707Y-48122397D01*
X-13860003Y-48343849D01*
X-13854198Y-48350645D01*
X-13198195Y-47694642D01*
X-13174941Y-47748553D01*
X-13070244Y-47889185D01*
X-12935938Y-48001882D01*
X-12844334Y-48047887D01*
X-13500645Y-48704198D01*
X-13493849Y-48710003D01*
X-13272397Y-48845707D01*
X-13032455Y-48945096D01*
X-12779916Y-49005724D01*
X-12521000Y-49026101D01*
X-12262083Y-49005724D01*
X-12009544Y-48945096D01*
X-11769597Y-48845705D01*
X-11548155Y-48710006D01*
X-11541354Y-48704198D01*
X-12195054Y-48050498D01*
X-12182109Y-48045787D01*
X-12035627Y-47949445D01*
X-11915312Y-47821918D01*
X-11842552Y-47695893D01*
X-11187801Y-48350644D01*
X-11181993Y-48343843D01*
X-11046294Y-48122402D01*
X-10946903Y-47882455D01*
X-10886275Y-47629916D01*
X-10865898Y-47370999D01*
X-10886275Y-47112083D01*
X-10946903Y-46859544D01*
X-11046294Y-46619597D01*
X-11181992Y-46398156D01*
X-11187801Y-46391354D01*
X-11843804Y-47047357D01*
X-11867059Y-46993447D01*
X-11971756Y-46852815D01*
X-12106062Y-46740118D01*
X-12197664Y-46694113D01*
X-11541353Y-46037801D01*
X-11548156Y-46031992D01*
X-11769597Y-45896294D01*
X-12009544Y-45796903D01*
X-12262083Y-45736275D01*
X-12521000Y-45715898D01*
X-12779916Y-45736275D01*
X-13032455Y-45796903D01*
X-13272402Y-45896294D01*
X-13493843Y-46031993D01*
X-13500645Y-46037801D01*
X-12846944Y-46691501D01*
X-12859891Y-46696213D01*
X-13006373Y-46792555D01*
X-13126688Y-46920082D01*
X-13199446Y-47046104D01*
X-13854198Y-46391354D01*
X-13860006Y-46398155D01*
X-13995705Y-46619597D01*
X-14095096Y-46859544D01*
X-14155724Y-47112083D01*
X-14176101Y-47370999D01*
X-17723898Y-47370999D01*
X-17744275Y-47112083D01*
X-17804903Y-46859544D01*
X-17904294Y-46619597D01*
X-18039992Y-46398156D01*
X-18045801Y-46391354D01*
X-18701804Y-47047357D01*
X-18725059Y-46993447D01*
X-18829756Y-46852815D01*
X-18964062Y-46740118D01*
X-19055665Y-46694112D01*
X-18399354Y-46037801D01*
X-18406156Y-46031992D01*
X-18627597Y-45896294D01*
X-18867544Y-45796903D01*
X-19120083Y-45736275D01*
X-19379000Y-45715898D01*
X-19637916Y-45736275D01*
X-19890455Y-45796903D01*
X-20130402Y-45896294D01*
X-20351843Y-46031993D01*
X-20358645Y-46037801D01*
X-19704945Y-46691501D01*
X-19717891Y-46696213D01*
X-19864373Y-46792555D01*
X-19984688Y-46920082D01*
X-20057446Y-47046105D01*
X-20712198Y-46391354D01*
X-20718006Y-46398155D01*
X-20853705Y-46619597D01*
X-20953096Y-46859544D01*
X-21013724Y-47112083D01*
X-21034101Y-47371000D01*
X-29915898Y-47371000D01*
X-29915898Y-47370999D01*
X-29936275Y-47112083D01*
X-29996903Y-46859544D01*
X-30096294Y-46619597D01*
X-30231992Y-46398156D01*
X-30237801Y-46391354D01*
X-30893804Y-47047357D01*
X-30917059Y-46993447D01*
X-31021756Y-46852815D01*
X-31156062Y-46740118D01*
X-31247665Y-46694112D01*
X-30591354Y-46037801D01*
X-30598156Y-46031992D01*
X-30819597Y-45896294D01*
X-31059544Y-45796903D01*
X-31312083Y-45736275D01*
X-31571000Y-45715898D01*
X-31829916Y-45736275D01*
X-32082455Y-45796903D01*
X-32322402Y-45896294D01*
X-32543843Y-46031993D01*
X-32550645Y-46037801D01*
X-31896945Y-46691501D01*
X-31909891Y-46696213D01*
X-32056373Y-46792555D01*
X-32176688Y-46920082D01*
X-32249446Y-47046105D01*
X-32904198Y-46391354D01*
X-32910006Y-46398155D01*
X-33045705Y-46619597D01*
X-33145096Y-46859544D01*
X-33205724Y-47112083D01*
X-33226101Y-47371000D01*
X-35632391Y-47371000D01*
X-43870310Y-39133080D01*
X-43881003Y-39120888D01*
X-43898758Y-39097749D01*
X-43993610Y-39024969D01*
X-44034813Y-38968542D01*
X-44038968Y-38898796D01*
X-44004756Y-38837875D01*
X-43943039Y-38805122D01*
X-43918124Y-38802593D01*
X-43796386Y-38802593D01*
X-43729347Y-38822278D01*
X-43708704Y-38838912D01*
X-39680690Y-42866925D01*
X-39670003Y-42879112D01*
X-39652250Y-42902250D01*
X-39622668Y-42924948D01*
X-39622668Y-42924949D01*
X-39534433Y-42992654D01*
X-39437418Y-43032838D01*
X-39397234Y-43049483D01*
X-39380126Y-43051735D01*
X-39250000Y-43068868D01*
X-39224379Y-43065494D01*
X-39221083Y-43065061D01*
X-39204898Y-43064000D01*
X-2034979Y-43064000D01*
X-1967940Y-43083685D01*
X-1947298Y-43100319D01*
X6119302Y-51166919D01*
X6129997Y-51179114D01*
X6147750Y-51202250D01*
X6156025Y-51208599D01*
X6177330Y-51224947D01*
X6177339Y-51224955D01*
X6265567Y-51292654D01*
X6362581Y-51332838D01*
X6402766Y-51349483D01*
X6419873Y-51351735D01*
X6550000Y-51368868D01*
X6578916Y-51365060D01*
X6595102Y-51364000D01*
X14766071Y-51364000D01*
X14833110Y-51383685D01*
X14878865Y-51436489D01*
X14879627Y-51438190D01*
X14893074Y-51468846D01*
X14893076Y-51468849D01*
X15020021Y-51663153D01*
X15177216Y-51833913D01*
X15360374Y-51976470D01*
X15564497Y-52086936D01*
X15674258Y-52124616D01*
X15784015Y-52162297D01*
X15784017Y-52162297D01*
X15784019Y-52162298D01*
X16012951Y-52200500D01*
X16012952Y-52200500D01*
X16245048Y-52200500D01*
X16245049Y-52200500D01*
X16473981Y-52162298D01*
X16693503Y-52086936D01*
X16897626Y-51976470D01*
X17080784Y-51833913D01*
X17237979Y-51663153D01*
X17364924Y-51468849D01*
X17458157Y-51256300D01*
X17515134Y-51031305D01*
X17534300Y-50800000D01*
X17515134Y-50568695D01*
X17458157Y-50343700D01*
X17364924Y-50131151D01*
X17237979Y-49936847D01*
X17080784Y-49766087D01*
X16897626Y-49623530D01*
X16693503Y-49513064D01*
X16693499Y-49513062D01*
X16693498Y-49513062D01*
X16473984Y-49437702D01*
X16302281Y-49409050D01*
X16245049Y-49399500D01*
X16012951Y-49399500D01*
X15967164Y-49407140D01*
X15784015Y-49437702D01*
X15564501Y-49513062D01*
X15360372Y-49623531D01*
X15177215Y-49766087D01*
X15063120Y-49890029D01*
X15020021Y-49936847D01*
X14977706Y-50001614D01*
X14893074Y-50131153D01*
X14879627Y-50161810D01*
X14834671Y-50215296D01*
X14767935Y-50235986D01*
X14766071Y-50236000D01*
X6834979Y-50236000D01*
X6767940Y-50216315D01*
X6747298Y-50199681D01*
X3918616Y-47370999D01*
X11044898Y-47370999D01*
X11065275Y-47629916D01*
X11125903Y-47882455D01*
X11225294Y-48122402D01*
X11360993Y-48343843D01*
X11366801Y-48350644D01*
X12022803Y-47694641D01*
X12046059Y-47748553D01*
X12150756Y-47889185D01*
X12285062Y-48001882D01*
X12376665Y-48047887D01*
X11720354Y-48704198D01*
X11727155Y-48710006D01*
X11948597Y-48845705D01*
X12188544Y-48945096D01*
X12441083Y-49005724D01*
X12700000Y-49026101D01*
X12958916Y-49005724D01*
X13211455Y-48945096D01*
X13451397Y-48845707D01*
X13672849Y-48710003D01*
X13679645Y-48704198D01*
X13025945Y-48050498D01*
X13038891Y-48045787D01*
X13185373Y-47949445D01*
X13305688Y-47821918D01*
X13378447Y-47695894D01*
X14033198Y-48350645D01*
X14039003Y-48343849D01*
X14174707Y-48122397D01*
X14274096Y-47882455D01*
X14334724Y-47629916D01*
X14355101Y-47371000D01*
X14334724Y-47112083D01*
X14274096Y-46859544D01*
X14174705Y-46619597D01*
X14039006Y-46398155D01*
X14033198Y-46391354D01*
X13377195Y-47047356D01*
X13353941Y-46993447D01*
X13249244Y-46852815D01*
X13114938Y-46740118D01*
X13023333Y-46694112D01*
X13679644Y-46037801D01*
X13679645Y-46037801D01*
X13672843Y-46031993D01*
X13451402Y-45896294D01*
X13211455Y-45796903D01*
X12958916Y-45736275D01*
X12699999Y-45715898D01*
X12441083Y-45736275D01*
X12188544Y-45796903D01*
X11948597Y-45896294D01*
X11727156Y-46031992D01*
X11720353Y-46037801D01*
X12374053Y-46691501D01*
X12361109Y-46696213D01*
X12214627Y-46792555D01*
X12094312Y-46920082D01*
X12021552Y-47046105D01*
X11366801Y-46391354D01*
X11360992Y-46398156D01*
X11225294Y-46619597D01*
X11125903Y-46859544D01*
X11065275Y-47112083D01*
X11044898Y-47370999D01*
X3918616Y-47370999D01*
X-503702Y-42948681D01*
X-537187Y-42887358D01*
X-532203Y-42817666D01*
X-490331Y-42761733D01*
X-424867Y-42737316D01*
X-416021Y-42737000D01*
X16074012Y-42737000D01*
X16141051Y-42756685D01*
X16161693Y-42773319D01*
X19013419Y-45625045D01*
X19046904Y-45686368D01*
X19041920Y-45756060D01*
X19000048Y-45811993D01*
X18973192Y-45827287D01*
X18806595Y-45896295D01*
X18585156Y-46031992D01*
X18578354Y-46037801D01*
X19232054Y-46691501D01*
X19219109Y-46696213D01*
X19072627Y-46792555D01*
X18952312Y-46920082D01*
X18879552Y-47046105D01*
X18224801Y-46391354D01*
X18218992Y-46398156D01*
X18083294Y-46619597D01*
X17983903Y-46859544D01*
X17923275Y-47112083D01*
X17902898Y-47370999D01*
X17923275Y-47629916D01*
X17983903Y-47882455D01*
X18083294Y-48122402D01*
X18218993Y-48343843D01*
X18224801Y-48350644D01*
X18880803Y-47694641D01*
X18904059Y-47748553D01*
X19008756Y-47889185D01*
X19143062Y-48001882D01*
X19234665Y-48047887D01*
X18578354Y-48704198D01*
X18585155Y-48710006D01*
X18806597Y-48845705D01*
X19046544Y-48945096D01*
X19299083Y-49005724D01*
X19558000Y-49026101D01*
X19816916Y-49005724D01*
X20069455Y-48945096D01*
X20309397Y-48845707D01*
X20530849Y-48710003D01*
X20537645Y-48704198D01*
X19883945Y-48050498D01*
X19896891Y-48045787D01*
X20043373Y-47949445D01*
X20163688Y-47821918D01*
X20236447Y-47695894D01*
X20891198Y-48350645D01*
X20897003Y-48343849D01*
X21032707Y-48122397D01*
X21101712Y-47955807D01*
X21145553Y-47901404D01*
X21211847Y-47879339D01*
X21279546Y-47896618D01*
X21303954Y-47915579D01*
X24555290Y-51166915D01*
X24565985Y-51179110D01*
X24583740Y-51202250D01*
X24613323Y-51224949D01*
X24701558Y-51292653D01*
X24838757Y-51349483D01*
X24949023Y-51364000D01*
X24949025Y-51364000D01*
X24985991Y-51368867D01*
X25014901Y-51365060D01*
X25031085Y-51364000D01*
X33816071Y-51364000D01*
X33883110Y-51383685D01*
X33928865Y-51436489D01*
X33929627Y-51438190D01*
X33943074Y-51468846D01*
X33943076Y-51468849D01*
X34070021Y-51663153D01*
X34227216Y-51833913D01*
X34410374Y-51976470D01*
X34614497Y-52086936D01*
X34724258Y-52124616D01*
X34834015Y-52162297D01*
X34834017Y-52162297D01*
X34834019Y-52162298D01*
X35062951Y-52200500D01*
X35062952Y-52200500D01*
X35295048Y-52200500D01*
X35295049Y-52200500D01*
X35523981Y-52162298D01*
X35743503Y-52086936D01*
X35947626Y-51976470D01*
X36130784Y-51833913D01*
X36287979Y-51663153D01*
X36414924Y-51468849D01*
X36508157Y-51256300D01*
X36565134Y-51031305D01*
X36584300Y-50800000D01*
X36565134Y-50568695D01*
X36508157Y-50343700D01*
X36414924Y-50131151D01*
X36287979Y-49936847D01*
X36130784Y-49766087D01*
X35947626Y-49623530D01*
X35743503Y-49513064D01*
X35743499Y-49513062D01*
X35743498Y-49513062D01*
X35523984Y-49437702D01*
X35352281Y-49409050D01*
X35295049Y-49399500D01*
X35062951Y-49399500D01*
X35017164Y-49407140D01*
X34834015Y-49437702D01*
X34614501Y-49513062D01*
X34410372Y-49623531D01*
X34227215Y-49766087D01*
X34113120Y-49890029D01*
X34070021Y-49936847D01*
X34027706Y-50001614D01*
X33943074Y-50131153D01*
X33929627Y-50161810D01*
X33884671Y-50215296D01*
X33817935Y-50235986D01*
X33816071Y-50236000D01*
X25270969Y-50236000D01*
X25203930Y-50216315D01*
X25183288Y-50199681D01*
X22354607Y-47371000D01*
X30094898Y-47371000D01*
X30115275Y-47629916D01*
X30175903Y-47882455D01*
X30275294Y-48122402D01*
X30410993Y-48343843D01*
X30416801Y-48350644D01*
X31072804Y-47694642D01*
X31096059Y-47748553D01*
X31200756Y-47889185D01*
X31335062Y-48001882D01*
X31426665Y-48047886D01*
X30770353Y-48704198D01*
X30777155Y-48710006D01*
X30998597Y-48845705D01*
X31238544Y-48945096D01*
X31491083Y-49005724D01*
X31750000Y-49026101D01*
X32008916Y-49005724D01*
X32261455Y-48945096D01*
X32501397Y-48845707D01*
X32722849Y-48710003D01*
X32729645Y-48704198D01*
X32075945Y-48050498D01*
X32088891Y-48045787D01*
X32235373Y-47949445D01*
X32355688Y-47821918D01*
X32428447Y-47695894D01*
X33083198Y-48350645D01*
X33089003Y-48343849D01*
X33224707Y-48122397D01*
X33324096Y-47882455D01*
X33384724Y-47629916D01*
X33405101Y-47371000D01*
X36952898Y-47371000D01*
X36973275Y-47629916D01*
X37033903Y-47882455D01*
X37133294Y-48122402D01*
X37268993Y-48343843D01*
X37274801Y-48350644D01*
X37930804Y-47694642D01*
X37954059Y-47748553D01*
X38058756Y-47889185D01*
X38193062Y-48001882D01*
X38284665Y-48047886D01*
X37628353Y-48704198D01*
X37635155Y-48710006D01*
X37856597Y-48845705D01*
X38096544Y-48945096D01*
X38349083Y-49005724D01*
X38608000Y-49026101D01*
X38866916Y-49005724D01*
X39119455Y-48945096D01*
X39359397Y-48845707D01*
X39580849Y-48710003D01*
X39587645Y-48704198D01*
X38933945Y-48050498D01*
X38946891Y-48045787D01*
X39093373Y-47949445D01*
X39213688Y-47821918D01*
X39286447Y-47695894D01*
X39941198Y-48350645D01*
X39947003Y-48343849D01*
X40082707Y-48122397D01*
X40182096Y-47882455D01*
X40242724Y-47629916D01*
X40263101Y-47370999D01*
X40242724Y-47112083D01*
X40182096Y-46859544D01*
X40082705Y-46619597D01*
X39947006Y-46398155D01*
X39941198Y-46391354D01*
X39285195Y-47047356D01*
X39261941Y-46993447D01*
X39157244Y-46852815D01*
X39022938Y-46740118D01*
X38931334Y-46694112D01*
X39587644Y-46037801D01*
X39580843Y-46031993D01*
X39359402Y-45896294D01*
X39119455Y-45796903D01*
X38866916Y-45736275D01*
X38608000Y-45715898D01*
X38349083Y-45736275D01*
X38096544Y-45796903D01*
X37856597Y-45896294D01*
X37635156Y-46031992D01*
X37628354Y-46037801D01*
X38282054Y-46691501D01*
X38269109Y-46696213D01*
X38122627Y-46792555D01*
X38002312Y-46920082D01*
X37929552Y-47046105D01*
X37274801Y-46391354D01*
X37268992Y-46398156D01*
X37133294Y-46619597D01*
X37033903Y-46859544D01*
X36973275Y-47112083D01*
X36952898Y-47371000D01*
X33405101Y-47371000D01*
X33405101Y-47370999D01*
X33384724Y-47112083D01*
X33324096Y-46859544D01*
X33224705Y-46619597D01*
X33089006Y-46398155D01*
X33083198Y-46391354D01*
X33083197Y-46391354D01*
X32427194Y-47047355D01*
X32403941Y-46993447D01*
X32299244Y-46852815D01*
X32164938Y-46740118D01*
X32073334Y-46694112D01*
X32729645Y-46037801D01*
X32722843Y-46031993D01*
X32501402Y-45896294D01*
X32261455Y-45796903D01*
X32008916Y-45736275D01*
X31750000Y-45715898D01*
X31491083Y-45736275D01*
X31238544Y-45796903D01*
X30998597Y-45896294D01*
X30777156Y-46031992D01*
X30770354Y-46037801D01*
X31424054Y-46691501D01*
X31411109Y-46696213D01*
X31264627Y-46792555D01*
X31144312Y-46920082D01*
X31071552Y-47046105D01*
X30416801Y-46391354D01*
X30410992Y-46398156D01*
X30275294Y-46619597D01*
X30175903Y-46859544D01*
X30115275Y-47112083D01*
X30094898Y-47371000D01*
X22354607Y-47371000D01*
X20996794Y-46013187D01*
X16789687Y-41806079D01*
X16778991Y-41793883D01*
X16761240Y-41770749D01*
X16643424Y-41680347D01*
X16506225Y-41623517D01*
X16506225Y-41623516D01*
X16395959Y-41609000D01*
X16358991Y-41604133D01*
X16330080Y-41607939D01*
X16313897Y-41609000D01*
X-38792021Y-41609000D01*
X-38859060Y-41589315D01*
X-38879702Y-41572681D01*
X-43168055Y-37284326D01*
X-43178748Y-37272134D01*
X-43196503Y-37248995D01*
X-43314320Y-37158593D01*
X-43451519Y-37101763D01*
X-43506652Y-37094504D01*
X-43561786Y-37087246D01*
X-43580270Y-37084812D01*
X-43598753Y-37082379D01*
X-43598754Y-37082379D01*
X-43627664Y-37086185D01*
X-43643848Y-37087246D01*
X-44854414Y-37087246D01*
X-44870597Y-37086185D01*
X-44899508Y-37082379D01*
X-44936476Y-37087246D01*
X-45046742Y-37101763D01*
X-45183941Y-37158593D01*
X-45301757Y-37248995D01*
X-45319512Y-37272134D01*
X-45330208Y-37284330D01*
X-50951442Y-42905563D01*
X-50963637Y-42916258D01*
X-50986773Y-42934011D01*
X-51009471Y-42963592D01*
X-51009472Y-42963593D01*
X-51077176Y-43051828D01*
X-51084234Y-43068868D01*
X-51085740Y-43072504D01*
X-51127416Y-43125369D01*
X-51190393Y-43171124D01*
X-51317056Y-43311797D01*
X-51411702Y-43475729D01*
X-51417123Y-43492413D01*
X-51470197Y-43655758D01*
X-51489983Y-43844014D01*
X-55999500Y-43844014D01*
X-55999500Y-28828999D01*
X-40084101Y-28828999D01*
X-40063724Y-29087916D01*
X-40003096Y-29340455D01*
X-39903707Y-29580397D01*
X-39768003Y-29801849D01*
X-39762198Y-29808645D01*
X-39106195Y-29152642D01*
X-39082941Y-29206553D01*
X-38978244Y-29347185D01*
X-38843938Y-29459882D01*
X-38752334Y-29505887D01*
X-39408645Y-30162198D01*
X-39401849Y-30168003D01*
X-39180397Y-30303707D01*
X-38940455Y-30403096D01*
X-38687916Y-30463724D01*
X-38428999Y-30484101D01*
X-38170083Y-30463724D01*
X-37917544Y-30403096D01*
X-37677597Y-30303705D01*
X-37456155Y-30168006D01*
X-37449354Y-30162198D01*
X-38103054Y-29508498D01*
X-38090109Y-29503787D01*
X-37943627Y-29407445D01*
X-37823312Y-29279918D01*
X-37750552Y-29153893D01*
X-37095801Y-29808644D01*
X-37089993Y-29801843D01*
X-36954294Y-29580402D01*
X-36854903Y-29340455D01*
X-36794275Y-29087916D01*
X-36773898Y-28829000D01*
X-33226101Y-28829000D01*
X-33205724Y-29087916D01*
X-33145096Y-29340455D01*
X-33045707Y-29580397D01*
X-32910003Y-29801849D01*
X-32904198Y-29808645D01*
X-32248195Y-29152643D01*
X-32224941Y-29206553D01*
X-32120244Y-29347185D01*
X-31985938Y-29459882D01*
X-31894334Y-29505887D01*
X-32550645Y-30162198D01*
X-32543849Y-30168003D01*
X-32322397Y-30303707D01*
X-32082455Y-30403096D01*
X-31829916Y-30463724D01*
X-31571000Y-30484101D01*
X-31312083Y-30463724D01*
X-31059544Y-30403096D01*
X-30819597Y-30303705D01*
X-30598155Y-30168006D01*
X-30591354Y-30162198D01*
X-31245054Y-29508498D01*
X-31232109Y-29503787D01*
X-31085627Y-29407445D01*
X-30965312Y-29279918D01*
X-30892552Y-29153893D01*
X-30237801Y-29808644D01*
X-30231993Y-29801843D01*
X-30096294Y-29580402D01*
X-29996903Y-29340455D01*
X-29936275Y-29087916D01*
X-29915898Y-28828999D01*
X-21034101Y-28828999D01*
X-21013724Y-29087916D01*
X-20953096Y-29340455D01*
X-20853707Y-29580397D01*
X-20718003Y-29801849D01*
X-20712198Y-29808645D01*
X-20056195Y-29152643D01*
X-20032941Y-29206553D01*
X-19928244Y-29347185D01*
X-19793938Y-29459882D01*
X-19702334Y-29505887D01*
X-20358645Y-30162198D01*
X-20351849Y-30168003D01*
X-20130397Y-30303707D01*
X-19890455Y-30403096D01*
X-19637916Y-30463724D01*
X-19379000Y-30484101D01*
X-19120083Y-30463724D01*
X-18867544Y-30403096D01*
X-18627597Y-30303705D01*
X-18406155Y-30168006D01*
X-18399354Y-30162198D01*
X-19053054Y-29508498D01*
X-19040109Y-29503787D01*
X-18893627Y-29407445D01*
X-18773312Y-29279918D01*
X-18700552Y-29153893D01*
X-18045801Y-29808644D01*
X-18039993Y-29801843D01*
X-17904294Y-29580402D01*
X-17804903Y-29340455D01*
X-17744275Y-29087916D01*
X-17723898Y-28829000D01*
X-14176101Y-28829000D01*
X-14155724Y-29087916D01*
X-14095096Y-29340455D01*
X-13995707Y-29580397D01*
X-13860003Y-29801849D01*
X-13854198Y-29808645D01*
X-13198195Y-29152642D01*
X-13174941Y-29206553D01*
X-13070244Y-29347185D01*
X-12935938Y-29459882D01*
X-12844334Y-29505887D01*
X-13500645Y-30162198D01*
X-13493849Y-30168003D01*
X-13272397Y-30303707D01*
X-13032455Y-30403096D01*
X-12779916Y-30463724D01*
X-12521000Y-30484101D01*
X-12262083Y-30463724D01*
X-12009544Y-30403096D01*
X-11769597Y-30303705D01*
X-11548155Y-30168006D01*
X-11541354Y-30162198D01*
X-12195054Y-29508498D01*
X-12182109Y-29503787D01*
X-12035627Y-29407445D01*
X-11915312Y-29279918D01*
X-11842552Y-29153893D01*
X-11187801Y-29808644D01*
X-11181993Y-29801843D01*
X-11046294Y-29580402D01*
X-10946903Y-29340455D01*
X-10886275Y-29087916D01*
X-10865898Y-28829000D01*
X11044898Y-28829000D01*
X11065275Y-29087916D01*
X11125903Y-29340455D01*
X11225294Y-29580402D01*
X11360993Y-29801843D01*
X11366801Y-29808644D01*
X12022804Y-29152642D01*
X12046059Y-29206553D01*
X12150756Y-29347185D01*
X12285062Y-29459882D01*
X12376665Y-29505887D01*
X11720354Y-30162198D01*
X11727155Y-30168006D01*
X11948597Y-30303705D01*
X12188544Y-30403096D01*
X12441083Y-30463724D01*
X12700000Y-30484101D01*
X12958916Y-30463724D01*
X13211455Y-30403096D01*
X13451397Y-30303707D01*
X13672849Y-30168003D01*
X13679645Y-30162198D01*
X13025945Y-29508498D01*
X13038891Y-29503787D01*
X13185373Y-29407445D01*
X13305688Y-29279918D01*
X13378447Y-29153893D01*
X14033198Y-29808645D01*
X14039003Y-29801849D01*
X14174707Y-29580397D01*
X14274096Y-29340455D01*
X14334724Y-29087916D01*
X14355101Y-28828999D01*
X14334724Y-28570083D01*
X14274096Y-28317544D01*
X14174705Y-28077597D01*
X14039006Y-27856155D01*
X14033198Y-27849354D01*
X14033197Y-27849354D01*
X13377195Y-28505356D01*
X13353941Y-28451447D01*
X13249244Y-28310815D01*
X13114938Y-28198118D01*
X13023334Y-28152112D01*
X13679644Y-27495801D01*
X13672843Y-27489993D01*
X13451402Y-27354294D01*
X13211455Y-27254903D01*
X12958916Y-27194275D01*
X12700000Y-27173898D01*
X12441083Y-27194275D01*
X12188544Y-27254903D01*
X11948597Y-27354294D01*
X11727156Y-27489992D01*
X11720354Y-27495801D01*
X12374054Y-28149501D01*
X12361109Y-28154213D01*
X12214627Y-28250555D01*
X12094312Y-28378082D01*
X12021552Y-28504105D01*
X11366801Y-27849354D01*
X11360992Y-27856156D01*
X11225294Y-28077597D01*
X11125903Y-28317544D01*
X11065275Y-28570083D01*
X11044898Y-28829000D01*
X-10865898Y-28829000D01*
X-10886275Y-28570083D01*
X-10946903Y-28317544D01*
X-11046294Y-28077597D01*
X-11181992Y-27856156D01*
X-11187801Y-27849354D01*
X-11843804Y-28505357D01*
X-11867059Y-28451447D01*
X-11971756Y-28310815D01*
X-12106062Y-28198118D01*
X-12197665Y-28152112D01*
X-11541354Y-27495801D01*
X-11548156Y-27489992D01*
X-11769597Y-27354294D01*
X-12009544Y-27254903D01*
X-12262083Y-27194275D01*
X-12520999Y-27173898D01*
X-12779916Y-27194275D01*
X-13032455Y-27254903D01*
X-13272402Y-27354294D01*
X-13493843Y-27489993D01*
X-13500645Y-27495801D01*
X-12846945Y-28149501D01*
X-12859891Y-28154213D01*
X-13006373Y-28250555D01*
X-13126688Y-28378082D01*
X-13199446Y-28504103D01*
X-13854197Y-27849354D01*
X-13854198Y-27849354D01*
X-13860006Y-27856155D01*
X-13995705Y-28077597D01*
X-14095096Y-28317544D01*
X-14155724Y-28570083D01*
X-14176101Y-28829000D01*
X-17723898Y-28829000D01*
X-17723898Y-28828999D01*
X-17744275Y-28570083D01*
X-17804903Y-28317544D01*
X-17904294Y-28077597D01*
X-18039992Y-27856156D01*
X-18045801Y-27849354D01*
X-18701804Y-28505357D01*
X-18725059Y-28451447D01*
X-18829756Y-28310815D01*
X-18964062Y-28198118D01*
X-19055665Y-28152112D01*
X-18399354Y-27495801D01*
X-18406156Y-27489992D01*
X-18627597Y-27354294D01*
X-18867544Y-27254903D01*
X-19120083Y-27194275D01*
X-19378999Y-27173898D01*
X-19637916Y-27194275D01*
X-19890455Y-27254903D01*
X-20130402Y-27354294D01*
X-20351843Y-27489993D01*
X-20358645Y-27495801D01*
X-19704945Y-28149501D01*
X-19717891Y-28154213D01*
X-19864373Y-28250555D01*
X-19984688Y-28378082D01*
X-20057446Y-28504104D01*
X-20712197Y-27849354D01*
X-20712198Y-27849354D01*
X-20718006Y-27856155D01*
X-20853705Y-28077597D01*
X-20953096Y-28317544D01*
X-21013724Y-28570083D01*
X-21034101Y-28828999D01*
X-29915898Y-28828999D01*
X-29936275Y-28570083D01*
X-29996903Y-28317544D01*
X-30096294Y-28077597D01*
X-30231992Y-27856156D01*
X-30237801Y-27849354D01*
X-30893804Y-28505357D01*
X-30917059Y-28451447D01*
X-31021756Y-28310815D01*
X-31156062Y-28198118D01*
X-31247665Y-28152112D01*
X-30591354Y-27495801D01*
X-30598156Y-27489992D01*
X-30819597Y-27354294D01*
X-31059544Y-27254903D01*
X-31312083Y-27194275D01*
X-31570999Y-27173898D01*
X-31829916Y-27194275D01*
X-32082455Y-27254903D01*
X-32322402Y-27354294D01*
X-32543843Y-27489993D01*
X-32550645Y-27495801D01*
X-31896945Y-28149501D01*
X-31909891Y-28154213D01*
X-32056373Y-28250555D01*
X-32176688Y-28378082D01*
X-32249446Y-28504104D01*
X-32904197Y-27849354D01*
X-32904198Y-27849354D01*
X-32910006Y-27856155D01*
X-33045705Y-28077597D01*
X-33145096Y-28317544D01*
X-33205724Y-28570083D01*
X-33226101Y-28829000D01*
X-36773898Y-28829000D01*
X-36773898Y-28828999D01*
X-36794275Y-28570083D01*
X-36854903Y-28317544D01*
X-36954294Y-28077597D01*
X-37089992Y-27856156D01*
X-37095801Y-27849354D01*
X-37751804Y-28505356D01*
X-37775059Y-28451447D01*
X-37879756Y-28310815D01*
X-38014062Y-28198118D01*
X-38105665Y-28152112D01*
X-37449354Y-27495801D01*
X-37456156Y-27489992D01*
X-37677597Y-27354294D01*
X-37917544Y-27254903D01*
X-38170083Y-27194275D01*
X-38428999Y-27173898D01*
X-38687916Y-27194275D01*
X-38940455Y-27254903D01*
X-39180402Y-27354294D01*
X-39401843Y-27489993D01*
X-39408645Y-27495801D01*
X-38754945Y-28149501D01*
X-38767891Y-28154213D01*
X-38914373Y-28250555D01*
X-39034688Y-28378082D01*
X-39107446Y-28504105D01*
X-39762198Y-27849354D01*
X-39768006Y-27856155D01*
X-39903705Y-28077597D01*
X-40003096Y-28317544D01*
X-40063724Y-28570083D01*
X-40084101Y-28828999D01*
X-55999500Y-28828999D01*
X-55999500Y-27490012D01*
X-48436190Y-27490012D01*
X-48416404Y-27678268D01*
X-48373966Y-27808877D01*
X-48357909Y-27858296D01*
X-48263263Y-28022228D01*
X-48136600Y-28162901D01*
X-48015954Y-28250555D01*
X-47983460Y-28274163D01*
X-47810533Y-28351156D01*
X-47748814Y-28364274D01*
X-47625378Y-28390512D01*
X-47625376Y-28390512D01*
X-47436082Y-28390512D01*
X-47250927Y-28351156D01*
X-47077999Y-28274163D01*
X-46924859Y-28162901D01*
X-46798196Y-28022228D01*
X-46703551Y-27858297D01*
X-46691335Y-27820701D01*
X-46651897Y-27763026D01*
X-46599184Y-27737730D01*
X-46481841Y-27712788D01*
X-46308913Y-27635795D01*
X-46155773Y-27524533D01*
X-46029110Y-27383860D01*
X-45934464Y-27219928D01*
X-45875970Y-27039901D01*
X-45865068Y-26936168D01*
X-45856184Y-26851644D01*
X-45875970Y-26663388D01*
X-45877251Y-26659445D01*
X-45879245Y-26589606D01*
X-45843163Y-26529774D01*
X-45780462Y-26498947D01*
X-45759319Y-26497131D01*
X-45732655Y-26497131D01*
X-45665616Y-26516816D01*
X-45644974Y-26533450D01*
X-44495274Y-27683149D01*
X-44484587Y-27695336D01*
X-44466834Y-27718474D01*
X-44443310Y-27736523D01*
X-44437254Y-27741171D01*
X-44437252Y-27741172D01*
X-44437252Y-27741173D01*
X-44349017Y-27808877D01*
X-44211818Y-27865707D01*
X-44064584Y-27885092D01*
X-44035667Y-27881284D01*
X-44019482Y-27880224D01*
X-41068870Y-27880224D01*
X-41052686Y-27881284D01*
X-41023776Y-27885091D01*
X-41023775Y-27885090D01*
X-41023775Y-27885091D01*
X-41006646Y-27882835D01*
X-40876542Y-27865707D01*
X-40739343Y-27808877D01*
X-40651108Y-27741173D01*
X-40651107Y-27741172D01*
X-40621526Y-27718474D01*
X-40603773Y-27695338D01*
X-40593078Y-27683143D01*
X-38309935Y-25400000D01*
X-36405300Y-25400000D01*
X-36386134Y-25631305D01*
X-36329157Y-25856300D01*
X-36235924Y-26068849D01*
X-36108979Y-26263153D01*
X-35951784Y-26433913D01*
X-35768626Y-26576470D01*
X-35564503Y-26686936D01*
X-35344981Y-26762298D01*
X-35116049Y-26800500D01*
X-35116048Y-26800500D01*
X-34883952Y-26800500D01*
X-34883951Y-26800500D01*
X-34655019Y-26762298D01*
X-34655017Y-26762297D01*
X-34655015Y-26762297D01*
X-34519881Y-26715905D01*
X-34435497Y-26686936D01*
X-34231374Y-26576470D01*
X-34048216Y-26433913D01*
X-33891021Y-26263153D01*
X-33764076Y-26068849D01*
X-33734828Y-26002170D01*
X-33670844Y-25856303D01*
X-33670843Y-25856300D01*
X-33613866Y-25631305D01*
X-33613865Y-25631301D01*
X-33613865Y-25631299D01*
X-33594699Y-25400000D01*
X-17355300Y-25400000D01*
X-17336134Y-25631305D01*
X-17279157Y-25856300D01*
X-17185924Y-26068849D01*
X-17058979Y-26263153D01*
X-16901784Y-26433913D01*
X-16718626Y-26576470D01*
X-16514503Y-26686936D01*
X-16294981Y-26762298D01*
X-16066049Y-26800500D01*
X-16066048Y-26800500D01*
X-15833952Y-26800500D01*
X-15833951Y-26800500D01*
X-15605019Y-26762298D01*
X-15605017Y-26762297D01*
X-15605015Y-26762297D01*
X-15469881Y-26715905D01*
X-15385497Y-26686936D01*
X-15181374Y-26576470D01*
X-14998216Y-26433913D01*
X-14841021Y-26263153D01*
X-14714076Y-26068849D01*
X-14684828Y-26002170D01*
X-14620844Y-25856303D01*
X-14620843Y-25856300D01*
X-14563866Y-25631305D01*
X-14563865Y-25631301D01*
X-14563865Y-25631299D01*
X-14544699Y-25400000D01*
X-14563865Y-25168700D01*
X-14565913Y-25160614D01*
X-14620843Y-24943700D01*
X-14620842Y-24943700D01*
X-14620844Y-24943696D01*
X-14714076Y-24731150D01*
X-14841020Y-24536848D01*
X-14998215Y-24366087D01*
X-15181372Y-24223531D01*
X-15385501Y-24113062D01*
X-15605015Y-24037702D01*
X-15788164Y-24007140D01*
X-15833951Y-23999500D01*
X-16066049Y-23999500D01*
X-16123282Y-24009050D01*
X-16294984Y-24037702D01*
X-16514498Y-24113062D01*
X-16514499Y-24113062D01*
X-16514503Y-24113064D01*
X-16718626Y-24223530D01*
X-16901784Y-24366087D01*
X-17058979Y-24536847D01*
X-17185924Y-24731151D01*
X-17279157Y-24943700D01*
X-17336134Y-25168695D01*
X-17355300Y-25400000D01*
X-33594699Y-25400000D01*
X-33613865Y-25168700D01*
X-33615913Y-25160614D01*
X-33670843Y-24943700D01*
X-33670842Y-24943700D01*
X-33670844Y-24943696D01*
X-33764076Y-24731150D01*
X-33891020Y-24536848D01*
X-34048215Y-24366087D01*
X-34231372Y-24223531D01*
X-34435501Y-24113062D01*
X-34655015Y-24037702D01*
X-34838164Y-24007140D01*
X-34883951Y-23999500D01*
X-35116049Y-23999500D01*
X-35173282Y-24009050D01*
X-35344984Y-24037702D01*
X-35564498Y-24113062D01*
X-35564499Y-24113062D01*
X-35564503Y-24113064D01*
X-35768626Y-24223530D01*
X-35951784Y-24366087D01*
X-36108979Y-24536847D01*
X-36235924Y-24731151D01*
X-36329157Y-24943700D01*
X-36386134Y-25168695D01*
X-36405300Y-25400000D01*
X-38309935Y-25400000D01*
X-33837255Y-20927319D01*
X-33775932Y-20893834D01*
X-33749574Y-20891000D01*
X-33065759Y-20891000D01*
X-32998720Y-20910685D01*
X-32952965Y-20963489D01*
X-32943021Y-21032647D01*
X-32960032Y-21079790D01*
X-33045705Y-21219597D01*
X-33145096Y-21459544D01*
X-33205724Y-21712083D01*
X-33226101Y-21970999D01*
X-33205724Y-22229916D01*
X-33145096Y-22482455D01*
X-33045707Y-22722397D01*
X-32910003Y-22943849D01*
X-32904198Y-22950645D01*
X-32248195Y-22294642D01*
X-32224941Y-22348553D01*
X-32120244Y-22489185D01*
X-31985938Y-22601882D01*
X-31894335Y-22647886D01*
X-32550645Y-23304198D01*
X-32543849Y-23310003D01*
X-32322397Y-23445707D01*
X-32082455Y-23545096D01*
X-31829916Y-23605724D01*
X-31571000Y-23626101D01*
X-31312083Y-23605724D01*
X-31059544Y-23545096D01*
X-30819597Y-23445705D01*
X-30598155Y-23310006D01*
X-30591354Y-23304198D01*
X-30591354Y-23304197D01*
X-31245053Y-22650498D01*
X-31232109Y-22645787D01*
X-31085627Y-22549445D01*
X-30965312Y-22421918D01*
X-30892551Y-22295893D01*
X-30237801Y-22950644D01*
X-30231993Y-22943843D01*
X-30096294Y-22722402D01*
X-29996903Y-22482455D01*
X-29936275Y-22229916D01*
X-29915898Y-21971000D01*
X-29936275Y-21712083D01*
X-29996903Y-21459544D01*
X-30096294Y-21219597D01*
X-30181968Y-21079790D01*
X-30200213Y-21012344D01*
X-30179097Y-20945742D01*
X-30125325Y-20901128D01*
X-30076241Y-20891000D01*
X-20873759Y-20891000D01*
X-20806720Y-20910685D01*
X-20760965Y-20963489D01*
X-20751021Y-21032647D01*
X-20768032Y-21079790D01*
X-20853705Y-21219597D01*
X-20953096Y-21459544D01*
X-21013724Y-21712083D01*
X-21034101Y-21971000D01*
X-21013724Y-22229916D01*
X-20953096Y-22482455D01*
X-20853707Y-22722397D01*
X-20718003Y-22943849D01*
X-20712198Y-22950645D01*
X-20056195Y-22294642D01*
X-20032941Y-22348553D01*
X-19928244Y-22489185D01*
X-19793938Y-22601882D01*
X-19702335Y-22647886D01*
X-20358645Y-23304198D01*
X-20351849Y-23310003D01*
X-20130397Y-23445707D01*
X-19890455Y-23545096D01*
X-19637916Y-23605724D01*
X-19379000Y-23626101D01*
X-19120083Y-23605724D01*
X-18867544Y-23545096D01*
X-18627597Y-23445705D01*
X-18406155Y-23310006D01*
X-18399354Y-23304198D01*
X-18399354Y-23304197D01*
X-19053053Y-22650498D01*
X-19040109Y-22645787D01*
X-18893627Y-22549445D01*
X-18773312Y-22421918D01*
X-18700551Y-22295893D01*
X-18045801Y-22950644D01*
X-18039993Y-22943843D01*
X-17904294Y-22722402D01*
X-17804903Y-22482455D01*
X-17744275Y-22229916D01*
X-17723898Y-21971000D01*
X-17744275Y-21712083D01*
X-17804903Y-21459544D01*
X-17904294Y-21219597D01*
X-17989968Y-21079790D01*
X-18008213Y-21012344D01*
X-17987097Y-20945742D01*
X-17933325Y-20901128D01*
X-17884241Y-20891000D01*
X-14015759Y-20891000D01*
X-13948720Y-20910685D01*
X-13902965Y-20963489D01*
X-13893021Y-21032647D01*
X-13910032Y-21079790D01*
X-13995705Y-21219597D01*
X-14095096Y-21459544D01*
X-14155724Y-21712083D01*
X-14176101Y-21970999D01*
X-14155724Y-22229916D01*
X-14095096Y-22482455D01*
X-13995707Y-22722397D01*
X-13860003Y-22943849D01*
X-13854198Y-22950645D01*
X-13198195Y-22294642D01*
X-13174941Y-22348553D01*
X-13070244Y-22489185D01*
X-12935938Y-22601882D01*
X-12844333Y-22647887D01*
X-13500645Y-23304198D01*
X-13493849Y-23310003D01*
X-13272397Y-23445707D01*
X-13032455Y-23545096D01*
X-12779916Y-23605724D01*
X-12521000Y-23626101D01*
X-12262083Y-23605724D01*
X-12009544Y-23545096D01*
X-11769597Y-23445705D01*
X-11548155Y-23310006D01*
X-11541354Y-23304198D01*
X-11541354Y-23304197D01*
X-12195053Y-22650498D01*
X-12182109Y-22645787D01*
X-12035627Y-22549445D01*
X-11915312Y-22421918D01*
X-11842551Y-22295893D01*
X-11187801Y-22950644D01*
X-11181993Y-22943843D01*
X-11046294Y-22722402D01*
X-10946903Y-22482455D01*
X-10886275Y-22229916D01*
X-10865898Y-21970999D01*
X-10886275Y-21712083D01*
X-10946903Y-21459544D01*
X-11046294Y-21219597D01*
X-11131968Y-21079790D01*
X-11150213Y-21012344D01*
X-11129097Y-20945742D01*
X-11075325Y-20901128D01*
X-11026241Y-20891000D01*
X8772030Y-20891000D01*
X8839069Y-20910685D01*
X8859711Y-20927319D01*
X14862811Y-26930419D01*
X14873506Y-26942614D01*
X14885155Y-26957796D01*
X14891259Y-26965750D01*
X14920840Y-26988448D01*
X14920841Y-26988449D01*
X15009076Y-27056153D01*
X15146275Y-27112983D01*
X15293509Y-27132367D01*
X15322420Y-27128561D01*
X15338605Y-27127500D01*
X18737021Y-27127500D01*
X18804060Y-27147185D01*
X18849815Y-27199989D01*
X18859759Y-27269147D01*
X18830734Y-27332703D01*
X18801811Y-27357227D01*
X18585156Y-27489992D01*
X18578354Y-27495801D01*
X19232054Y-28149501D01*
X19219109Y-28154213D01*
X19072627Y-28250555D01*
X18952312Y-28378082D01*
X18879552Y-28504105D01*
X18224801Y-27849354D01*
X18218992Y-27856156D01*
X18083294Y-28077597D01*
X17983903Y-28317544D01*
X17923275Y-28570083D01*
X17902898Y-28828999D01*
X17923275Y-29087916D01*
X17983903Y-29340455D01*
X18083294Y-29580402D01*
X18218993Y-29801843D01*
X18224801Y-29808644D01*
X18880804Y-29152642D01*
X18904059Y-29206553D01*
X19008756Y-29347185D01*
X19143062Y-29459882D01*
X19234665Y-29505887D01*
X18578354Y-30162198D01*
X18585155Y-30168006D01*
X18806597Y-30303705D01*
X19046544Y-30403096D01*
X19299083Y-30463724D01*
X19558000Y-30484101D01*
X19816916Y-30463724D01*
X20069455Y-30403096D01*
X20309397Y-30303707D01*
X20530849Y-30168003D01*
X20537645Y-30162198D01*
X19883945Y-29508498D01*
X19896891Y-29503787D01*
X20043373Y-29407445D01*
X20163688Y-29279918D01*
X20236447Y-29153893D01*
X20891198Y-29808645D01*
X20897003Y-29801849D01*
X21032707Y-29580397D01*
X21132096Y-29340455D01*
X21192724Y-29087916D01*
X21213101Y-28829000D01*
X21192724Y-28570083D01*
X21132096Y-28317544D01*
X21032705Y-28077597D01*
X20897006Y-27856155D01*
X20891198Y-27849354D01*
X20891197Y-27849354D01*
X20235195Y-28505356D01*
X20211941Y-28451447D01*
X20107244Y-28310815D01*
X19972938Y-28198118D01*
X19881334Y-28152112D01*
X20537645Y-27495801D01*
X20530843Y-27489993D01*
X20314189Y-27357227D01*
X20267314Y-27305415D01*
X20255891Y-27236486D01*
X20283548Y-27172323D01*
X20341504Y-27133298D01*
X20378979Y-27127500D01*
X30929021Y-27127500D01*
X30996060Y-27147185D01*
X31041815Y-27199989D01*
X31051759Y-27269147D01*
X31022734Y-27332703D01*
X30993811Y-27357227D01*
X30777156Y-27489992D01*
X30770354Y-27495801D01*
X31424054Y-28149501D01*
X31411109Y-28154213D01*
X31264627Y-28250555D01*
X31144312Y-28378082D01*
X31071552Y-28504105D01*
X30416801Y-27849354D01*
X30410992Y-27856156D01*
X30275294Y-28077597D01*
X30175903Y-28317544D01*
X30115275Y-28570083D01*
X30094898Y-28828999D01*
X30115275Y-29087916D01*
X30175903Y-29340455D01*
X30275294Y-29580402D01*
X30410993Y-29801843D01*
X30416801Y-29808644D01*
X31072804Y-29152642D01*
X31096059Y-29206553D01*
X31200756Y-29347185D01*
X31335062Y-29459882D01*
X31426665Y-29505887D01*
X30770354Y-30162198D01*
X30777155Y-30168006D01*
X30998597Y-30303705D01*
X31238544Y-30403096D01*
X31491083Y-30463724D01*
X31750000Y-30484101D01*
X32008916Y-30463724D01*
X32261455Y-30403096D01*
X32501397Y-30303707D01*
X32722849Y-30168003D01*
X32729645Y-30162198D01*
X32075945Y-29508498D01*
X32088891Y-29503787D01*
X32235373Y-29407445D01*
X32355688Y-29279918D01*
X32428447Y-29153893D01*
X33083198Y-29808645D01*
X33089003Y-29801849D01*
X33224707Y-29580397D01*
X33324096Y-29340455D01*
X33384724Y-29087916D01*
X33405101Y-28829000D01*
X36952898Y-28829000D01*
X36973275Y-29087916D01*
X37033903Y-29340455D01*
X37133294Y-29580402D01*
X37268993Y-29801843D01*
X37274801Y-29808644D01*
X37930803Y-29152641D01*
X37954059Y-29206553D01*
X38058756Y-29347185D01*
X38193062Y-29459882D01*
X38284665Y-29505886D01*
X37628353Y-30162198D01*
X37635155Y-30168006D01*
X37856597Y-30303705D01*
X38096544Y-30403096D01*
X38349083Y-30463724D01*
X38608000Y-30484101D01*
X38866916Y-30463724D01*
X39119455Y-30403096D01*
X39359397Y-30303707D01*
X39580849Y-30168003D01*
X39587645Y-30162198D01*
X38933945Y-29508498D01*
X38946891Y-29503787D01*
X39093373Y-29407445D01*
X39213688Y-29279918D01*
X39286447Y-29153894D01*
X39941198Y-29808645D01*
X39947003Y-29801849D01*
X40082707Y-29580397D01*
X40182096Y-29340455D01*
X40211014Y-29220000D01*
X53644340Y-29220000D01*
X53664936Y-29455407D01*
X53709709Y-29622501D01*
X53726097Y-29683663D01*
X53825965Y-29897830D01*
X53961505Y-30091401D01*
X54128599Y-30258495D01*
X54322170Y-30394035D01*
X54536337Y-30493903D01*
X54764592Y-30555063D01*
X54999999Y-30575659D01*
X54999999Y-30575658D01*
X55000000Y-30575659D01*
X55235408Y-30555063D01*
X55463663Y-30493903D01*
X55677830Y-30394035D01*
X55871401Y-30258495D01*
X56038495Y-30091401D01*
X56174035Y-29897830D01*
X56273903Y-29683663D01*
X56335063Y-29455408D01*
X56355659Y-29220000D01*
X56335063Y-28984592D01*
X56273903Y-28756337D01*
X56174035Y-28542171D01*
X56038495Y-28348599D01*
X55871401Y-28181505D01*
X55685839Y-28051573D01*
X55642217Y-27996998D01*
X55635024Y-27927499D01*
X55666546Y-27865145D01*
X55685837Y-27848428D01*
X55871401Y-27718495D01*
X56038495Y-27551401D01*
X56174035Y-27357830D01*
X56273903Y-27143663D01*
X56335063Y-26915408D01*
X56355659Y-26680000D01*
X56335063Y-26444592D01*
X56273903Y-26216337D01*
X56174035Y-26002171D01*
X56038495Y-25808599D01*
X55871401Y-25641505D01*
X55685839Y-25511573D01*
X55642216Y-25456998D01*
X55635022Y-25387500D01*
X55666545Y-25325145D01*
X55685837Y-25308428D01*
X55871401Y-25178495D01*
X56038495Y-25011401D01*
X56174035Y-24817830D01*
X56273903Y-24603663D01*
X56335063Y-24375408D01*
X56355659Y-24140000D01*
X56335063Y-23904592D01*
X56273903Y-23676337D01*
X56174035Y-23462171D01*
X56038495Y-23268599D01*
X55916569Y-23146673D01*
X55883084Y-23085350D01*
X55888068Y-23015658D01*
X55929940Y-22959725D01*
X55960915Y-22942810D01*
X56092331Y-22893796D01*
X56207546Y-22807546D01*
X56293796Y-22692331D01*
X56344091Y-22557483D01*
X56350500Y-22497873D01*
X56350499Y-20702128D01*
X56344091Y-20642517D01*
X56293796Y-20507669D01*
X56207546Y-20392454D01*
X56092331Y-20306204D01*
X55957483Y-20255909D01*
X55897873Y-20249500D01*
X55894550Y-20249500D01*
X54105439Y-20249500D01*
X54105420Y-20249500D01*
X54102128Y-20249501D01*
X54098848Y-20249853D01*
X54098840Y-20249854D01*
X54042515Y-20255909D01*
X53907669Y-20306204D01*
X53792454Y-20392454D01*
X53706204Y-20507668D01*
X53655910Y-20642515D01*
X53655909Y-20642517D01*
X53649500Y-20702127D01*
X53649500Y-20705448D01*
X53649500Y-20705449D01*
X53649500Y-22494560D01*
X53649500Y-22494578D01*
X53649501Y-22497872D01*
X53649853Y-22501152D01*
X53649854Y-22501159D01*
X53655909Y-22557484D01*
X53656967Y-22560320D01*
X53706204Y-22692331D01*
X53792454Y-22807546D01*
X53907669Y-22893796D01*
X54019907Y-22935658D01*
X54039082Y-22942810D01*
X54095016Y-22984681D01*
X54119433Y-23050146D01*
X54104581Y-23118419D01*
X54083431Y-23146673D01*
X53961503Y-23268601D01*
X53825965Y-23462170D01*
X53726097Y-23676336D01*
X53664936Y-23904592D01*
X53644340Y-24140000D01*
X53664936Y-24375407D01*
X53692059Y-24476631D01*
X53726097Y-24603663D01*
X53825965Y-24817830D01*
X53961505Y-25011401D01*
X54128599Y-25178495D01*
X54314160Y-25308426D01*
X54357783Y-25363002D01*
X54364976Y-25432501D01*
X54333454Y-25494855D01*
X54314159Y-25511575D01*
X54128595Y-25641508D01*
X53961505Y-25808598D01*
X53825965Y-26002170D01*
X53726097Y-26216336D01*
X53664936Y-26444592D01*
X53644340Y-26680000D01*
X53664936Y-26915407D01*
X53684508Y-26988449D01*
X53726097Y-27143663D01*
X53825965Y-27357830D01*
X53961505Y-27551401D01*
X54128599Y-27718495D01*
X54314160Y-27848426D01*
X54357783Y-27903002D01*
X54364976Y-27972501D01*
X54333454Y-28034855D01*
X54314158Y-28051575D01*
X54155169Y-28162901D01*
X54128595Y-28181508D01*
X53961505Y-28348598D01*
X53825965Y-28542170D01*
X53726097Y-28756336D01*
X53664936Y-28984592D01*
X53644340Y-29220000D01*
X40211014Y-29220000D01*
X40242724Y-29087916D01*
X40263101Y-28828999D01*
X40242724Y-28570083D01*
X40182096Y-28317544D01*
X40082705Y-28077597D01*
X39947006Y-27856155D01*
X39941198Y-27849354D01*
X39285195Y-28505356D01*
X39261941Y-28451447D01*
X39157244Y-28310815D01*
X39022938Y-28198118D01*
X38931334Y-28152112D01*
X39587645Y-27495801D01*
X39580843Y-27489993D01*
X39359402Y-27354294D01*
X39119455Y-27254903D01*
X38866916Y-27194275D01*
X38608000Y-27173898D01*
X38349083Y-27194275D01*
X38096544Y-27254903D01*
X37856597Y-27354294D01*
X37635156Y-27489992D01*
X37628354Y-27495801D01*
X38282054Y-28149501D01*
X38269109Y-28154213D01*
X38122627Y-28250555D01*
X38002312Y-28378082D01*
X37929553Y-28504104D01*
X37274801Y-27849354D01*
X37268992Y-27856156D01*
X37133294Y-28077597D01*
X37033903Y-28317544D01*
X36973275Y-28570083D01*
X36952898Y-28829000D01*
X33405101Y-28829000D01*
X33405101Y-28828999D01*
X33384724Y-28570083D01*
X33324096Y-28317544D01*
X33224705Y-28077597D01*
X33089006Y-27856155D01*
X33083198Y-27849354D01*
X33083197Y-27849354D01*
X32427195Y-28505356D01*
X32403941Y-28451447D01*
X32299244Y-28310815D01*
X32164938Y-28198118D01*
X32073334Y-28152112D01*
X32729644Y-27495801D01*
X32722843Y-27489993D01*
X32506189Y-27357227D01*
X32459314Y-27305415D01*
X32447891Y-27236486D01*
X32475548Y-27172323D01*
X32533504Y-27133298D01*
X32570979Y-27127500D01*
X33970406Y-27127500D01*
X33986589Y-27128560D01*
X34015500Y-27132367D01*
X34162734Y-27112983D01*
X34299933Y-27056153D01*
X34388168Y-26988449D01*
X34388168Y-26988448D01*
X34388170Y-26988447D01*
X34394226Y-26983799D01*
X34417750Y-26965750D01*
X34435504Y-26942610D01*
X34446190Y-26930425D01*
X34615734Y-26760881D01*
X34677055Y-26727398D01*
X34743675Y-26731282D01*
X34794947Y-26748884D01*
X34834018Y-26762298D01*
X34948484Y-26781398D01*
X35062951Y-26800500D01*
X35062952Y-26800500D01*
X35295048Y-26800500D01*
X35295049Y-26800500D01*
X35523981Y-26762298D01*
X35743503Y-26686936D01*
X35947626Y-26576470D01*
X36130784Y-26433913D01*
X36287979Y-26263153D01*
X36414924Y-26068849D01*
X36508157Y-25856300D01*
X36565134Y-25631305D01*
X36584300Y-25400000D01*
X36565134Y-25168695D01*
X36508157Y-24943700D01*
X36414924Y-24731151D01*
X36287979Y-24536847D01*
X36130784Y-24366087D01*
X35947626Y-24223530D01*
X35743503Y-24113064D01*
X35743499Y-24113062D01*
X35743498Y-24113062D01*
X35523984Y-24037702D01*
X35352281Y-24009050D01*
X35295049Y-23999500D01*
X35062951Y-23999500D01*
X35017164Y-24007140D01*
X34834015Y-24037702D01*
X34614501Y-24113062D01*
X34410372Y-24223531D01*
X34227215Y-24366087D01*
X34070020Y-24536848D01*
X33943076Y-24731150D01*
X33849844Y-24943696D01*
X33849842Y-24943700D01*
X33849843Y-24943700D01*
X33794913Y-25160614D01*
X33792865Y-25168700D01*
X33773699Y-25399999D01*
X33792865Y-25631299D01*
X33792865Y-25631301D01*
X33792866Y-25631305D01*
X33846996Y-25845061D01*
X33844372Y-25914880D01*
X33804416Y-25972197D01*
X33739815Y-25998814D01*
X33726791Y-25999500D01*
X17581209Y-25999500D01*
X17514170Y-25979815D01*
X17468415Y-25927011D01*
X17458471Y-25857853D01*
X17461000Y-25845070D01*
X17515134Y-25631305D01*
X17534300Y-25400000D01*
X17515134Y-25168695D01*
X17458157Y-24943700D01*
X17364924Y-24731151D01*
X17237979Y-24536847D01*
X17080784Y-24366087D01*
X16897626Y-24223530D01*
X16757980Y-24147957D01*
X16708391Y-24098740D01*
X16692999Y-24038907D01*
X16692999Y-23446106D01*
X16694060Y-23429919D01*
X16695173Y-23421464D01*
X16697867Y-23401009D01*
X16678483Y-23253775D01*
X16621653Y-23116576D01*
X16553949Y-23028341D01*
X16553948Y-23028340D01*
X16531250Y-22998759D01*
X16508114Y-22981006D01*
X16495919Y-22970311D01*
X15496608Y-21971000D01*
X17902898Y-21971000D01*
X17923275Y-22229916D01*
X17983903Y-22482455D01*
X18083294Y-22722402D01*
X18218993Y-22943843D01*
X18224801Y-22950644D01*
X18880804Y-22294642D01*
X18904059Y-22348553D01*
X19008756Y-22489185D01*
X19143062Y-22601882D01*
X19234665Y-22647887D01*
X18578354Y-23304198D01*
X18585155Y-23310006D01*
X18806597Y-23445705D01*
X19046544Y-23545096D01*
X19299083Y-23605724D01*
X19558000Y-23626101D01*
X19816916Y-23605724D01*
X20069455Y-23545096D01*
X20309397Y-23445707D01*
X20530849Y-23310003D01*
X20537645Y-23304198D01*
X19883945Y-22650498D01*
X19896891Y-22645787D01*
X20043373Y-22549445D01*
X20163688Y-22421918D01*
X20236447Y-22295894D01*
X20891198Y-22950645D01*
X20897003Y-22943849D01*
X21032707Y-22722397D01*
X21132096Y-22482455D01*
X21192724Y-22229916D01*
X21213101Y-21971000D01*
X30094898Y-21971000D01*
X30115275Y-22229916D01*
X30175903Y-22482455D01*
X30275294Y-22722402D01*
X30410993Y-22943843D01*
X30416801Y-22950644D01*
X31072804Y-22294642D01*
X31096059Y-22348553D01*
X31200756Y-22489185D01*
X31335062Y-22601882D01*
X31426665Y-22647887D01*
X30770354Y-23304198D01*
X30777155Y-23310006D01*
X30998597Y-23445705D01*
X31238544Y-23545096D01*
X31491083Y-23605724D01*
X31750000Y-23626101D01*
X32008916Y-23605724D01*
X32261455Y-23545096D01*
X32501397Y-23445707D01*
X32722849Y-23310003D01*
X32729645Y-23304198D01*
X32075945Y-22650498D01*
X32088891Y-22645787D01*
X32235373Y-22549445D01*
X32355688Y-22421918D01*
X32428447Y-22295894D01*
X33083198Y-22950645D01*
X33089003Y-22943849D01*
X33224707Y-22722397D01*
X33324096Y-22482455D01*
X33384724Y-22229916D01*
X33405101Y-21971000D01*
X33405101Y-21970999D01*
X36952898Y-21970999D01*
X36973275Y-22229916D01*
X37033903Y-22482455D01*
X37133294Y-22722402D01*
X37268993Y-22943843D01*
X37274801Y-22950644D01*
X37930804Y-22294642D01*
X37954059Y-22348553D01*
X38058756Y-22489185D01*
X38193062Y-22601882D01*
X38284665Y-22647887D01*
X37628354Y-23304198D01*
X37635155Y-23310006D01*
X37856597Y-23445705D01*
X38096544Y-23545096D01*
X38349083Y-23605724D01*
X38608000Y-23626101D01*
X38866916Y-23605724D01*
X39119455Y-23545096D01*
X39359397Y-23445707D01*
X39580849Y-23310003D01*
X39587645Y-23304198D01*
X38933945Y-22650498D01*
X38946891Y-22645787D01*
X39093373Y-22549445D01*
X39213688Y-22421918D01*
X39286447Y-22295894D01*
X39941198Y-22950645D01*
X39947003Y-22943849D01*
X40082707Y-22722397D01*
X40182096Y-22482455D01*
X40242724Y-22229916D01*
X40263101Y-21971000D01*
X40242724Y-21712083D01*
X40182096Y-21459544D01*
X40082705Y-21219597D01*
X39947006Y-20998155D01*
X39941198Y-20991354D01*
X39285195Y-21647356D01*
X39261941Y-21593447D01*
X39157244Y-21452815D01*
X39022938Y-21340118D01*
X38931334Y-21294112D01*
X39587645Y-20637801D01*
X39580843Y-20631993D01*
X39359402Y-20496294D01*
X39119455Y-20396903D01*
X38866916Y-20336275D01*
X38608000Y-20315898D01*
X38349083Y-20336275D01*
X38096544Y-20396903D01*
X37856597Y-20496294D01*
X37635156Y-20631992D01*
X37628354Y-20637801D01*
X38282054Y-21291501D01*
X38269109Y-21296213D01*
X38122627Y-21392555D01*
X38002312Y-21520082D01*
X37929552Y-21646105D01*
X37274801Y-20991354D01*
X37268992Y-20998156D01*
X37133294Y-21219597D01*
X37033903Y-21459544D01*
X36973275Y-21712083D01*
X36952898Y-21970999D01*
X33405101Y-21970999D01*
X33384724Y-21712083D01*
X33324096Y-21459544D01*
X33224705Y-21219597D01*
X33089006Y-20998155D01*
X33083198Y-20991354D01*
X33083197Y-20991354D01*
X32427195Y-21647355D01*
X32403941Y-21593447D01*
X32299244Y-21452815D01*
X32164938Y-21340118D01*
X32073334Y-21294112D01*
X32729645Y-20637801D01*
X32722843Y-20631993D01*
X32501402Y-20496294D01*
X32261455Y-20396903D01*
X32008916Y-20336275D01*
X31750000Y-20315898D01*
X31491083Y-20336275D01*
X31238544Y-20396903D01*
X30998597Y-20496294D01*
X30777156Y-20631992D01*
X30770354Y-20637801D01*
X31424054Y-21291501D01*
X31411109Y-21296213D01*
X31264627Y-21392555D01*
X31144312Y-21520082D01*
X31071552Y-21646105D01*
X30416801Y-20991354D01*
X30410992Y-20998156D01*
X30275294Y-21219597D01*
X30175903Y-21459544D01*
X30115275Y-21712083D01*
X30094898Y-21971000D01*
X21213101Y-21971000D01*
X21213101Y-21970999D01*
X21192724Y-21712083D01*
X21132096Y-21459544D01*
X21032705Y-21219597D01*
X20897006Y-20998155D01*
X20891198Y-20991354D01*
X20891197Y-20991354D01*
X20235195Y-21647356D01*
X20211941Y-21593447D01*
X20107244Y-21452815D01*
X19972938Y-21340118D01*
X19881334Y-21294112D01*
X20537645Y-20637801D01*
X20530843Y-20631993D01*
X20309402Y-20496294D01*
X20069455Y-20396903D01*
X19816916Y-20336275D01*
X19558000Y-20315898D01*
X19299083Y-20336275D01*
X19046544Y-20396903D01*
X18806597Y-20496294D01*
X18585156Y-20631992D01*
X18578354Y-20637801D01*
X19232054Y-21291501D01*
X19219109Y-21296213D01*
X19072627Y-21392555D01*
X18952312Y-21520082D01*
X18879552Y-21646105D01*
X18224801Y-20991354D01*
X18218992Y-20998156D01*
X18083294Y-21219597D01*
X17983903Y-21459544D01*
X17923275Y-21712083D01*
X17902898Y-21971000D01*
X15496608Y-21971000D01*
X13158687Y-19633079D01*
X13147991Y-19620883D01*
X13130240Y-19597749D01*
X13012424Y-19507347D01*
X12875225Y-19450517D01*
X12875224Y-19450516D01*
X12764959Y-19436000D01*
X12727991Y-19431133D01*
X12699080Y-19434939D01*
X12682897Y-19436000D01*
X-41672599Y-19436000D01*
X-41688785Y-19434939D01*
X-41717699Y-19431132D01*
X-41717700Y-19431132D01*
X-41791317Y-19440824D01*
X-41864935Y-19450517D01*
X-42002132Y-19507345D01*
X-42054096Y-19547218D01*
X-42119948Y-19597748D01*
X-42137700Y-19620883D01*
X-42148396Y-19633079D01*
X-44942880Y-22427563D01*
X-45004203Y-22461048D01*
X-45073895Y-22456064D01*
X-45129828Y-22414192D01*
X-45154245Y-22348728D01*
X-45153882Y-22326921D01*
X-45142020Y-22214059D01*
X-45161806Y-22025801D01*
X-45220300Y-21845774D01*
X-45314946Y-21681842D01*
X-45372182Y-21618276D01*
X-45402412Y-21555284D01*
X-45397963Y-21496986D01*
X-45374825Y-21425777D01*
X-45355039Y-21237519D01*
X-45374824Y-21049263D01*
X-45386077Y-21014631D01*
X-45388071Y-20944790D01*
X-45354897Y-20889780D01*
X-45355118Y-20889582D01*
X-45354088Y-20888438D01*
X-45351989Y-20884957D01*
X-45348064Y-20881748D01*
X-45219734Y-20739224D01*
X-45125088Y-20575292D01*
X-45066594Y-20395265D01*
X-45046808Y-20207007D01*
X-45066594Y-20018750D01*
X-45125088Y-19838724D01*
X-45170570Y-19759946D01*
X-45187041Y-19692045D01*
X-45170569Y-19635947D01*
X-45135870Y-19575847D01*
X-45077376Y-19395820D01*
X-45057590Y-19207563D01*
X-45077376Y-19019305D01*
X-45135870Y-18839278D01*
X-45230516Y-18675346D01*
X-45357179Y-18534673D01*
X-45487136Y-18440255D01*
X-45529802Y-18384925D01*
X-45535301Y-18343908D01*
X-45536642Y-18344049D01*
X-45557790Y-18142830D01*
X-45620312Y-17950410D01*
X-45619258Y-17950067D01*
X-45632555Y-17895247D01*
X-45609700Y-17829222D01*
X-45600845Y-17818180D01*
X-45577466Y-17792215D01*
X-45482820Y-17628284D01*
X-45424326Y-17448257D01*
X-45404540Y-17260000D01*
X-45424326Y-17071742D01*
X-45482820Y-16891715D01*
X-45577466Y-16727783D01*
X-45704129Y-16587110D01*
X-45857269Y-16475848D01*
X-46030197Y-16398855D01*
X-46215352Y-16359500D01*
X-46215354Y-16359500D01*
X-46404646Y-16359500D01*
X-46404648Y-16359500D01*
X-46589802Y-16398855D01*
X-46762730Y-16475848D01*
X-46915870Y-16587110D01*
X-47042533Y-16727783D01*
X-47137179Y-16891715D01*
X-47137179Y-16891716D01*
X-47195674Y-17071744D01*
X-47215460Y-17260000D01*
X-47195674Y-17448256D01*
X-47156567Y-17568614D01*
X-47133152Y-17640679D01*
X-47134206Y-17641021D01*
X-47120908Y-17695830D01*
X-47143758Y-17761857D01*
X-47152618Y-17772906D01*
X-47175997Y-17798871D01*
X-47270643Y-17962803D01*
X-47270643Y-17962804D01*
X-47329138Y-18142832D01*
X-47348924Y-18331088D01*
X-47329138Y-18519344D01*
X-47278449Y-18675347D01*
X-47270643Y-18699372D01*
X-47169481Y-18874591D01*
X-47173490Y-18876905D01*
X-47154374Y-18916560D01*
X-47162876Y-18985910D01*
X-47207522Y-19039655D01*
X-47226282Y-19050036D01*
X-47403295Y-19128848D01*
X-47556435Y-19240110D01*
X-47683098Y-19380783D01*
X-47777744Y-19544715D01*
X-47777744Y-19544716D01*
X-47836239Y-19724744D01*
X-47856025Y-19913000D01*
X-47836239Y-20101256D01*
X-47777744Y-20281284D01*
X-47743555Y-20340499D01*
X-47727084Y-20408394D01*
X-47749936Y-20474421D01*
X-47778055Y-20502810D01*
X-47809765Y-20525849D01*
X-47865873Y-20566613D01*
X-47992533Y-20707283D01*
X-48087179Y-20871215D01*
X-48105408Y-20927319D01*
X-48145674Y-21051244D01*
X-48165460Y-21239500D01*
X-48145674Y-21427756D01*
X-48115675Y-21520082D01*
X-48087179Y-21607784D01*
X-47992533Y-21771716D01*
X-47865870Y-21912389D01*
X-47768836Y-21982888D01*
X-47712730Y-22023651D01*
X-47539803Y-22100644D01*
X-47478084Y-22113762D01*
X-47354648Y-22140000D01*
X-47354646Y-22140000D01*
X-47165353Y-22140000D01*
X-47099902Y-22126088D01*
X-47030235Y-22131404D01*
X-46974501Y-22173541D01*
X-46950800Y-22234414D01*
X-46934315Y-22391268D01*
X-46946883Y-22459993D01*
X-46994615Y-22511017D01*
X-47031854Y-22525515D01*
X-47195599Y-22560319D01*
X-47368526Y-22637312D01*
X-47521666Y-22748574D01*
X-47648329Y-22889247D01*
X-47742975Y-23053179D01*
X-47742975Y-23053180D01*
X-47801470Y-23233208D01*
X-47821256Y-23421464D01*
X-47801470Y-23609720D01*
X-47769591Y-23707833D01*
X-47742975Y-23789748D01*
X-47648329Y-23953680D01*
X-47521666Y-24094353D01*
X-47496150Y-24112891D01*
X-47368526Y-24205615D01*
X-47195599Y-24282608D01*
X-47133880Y-24295726D01*
X-47010444Y-24321964D01*
X-46866544Y-24321964D01*
X-46799505Y-24341649D01*
X-46791063Y-24347584D01*
X-46774862Y-24360014D01*
X-46774862Y-24360015D01*
X-46767985Y-24365291D01*
X-46726781Y-24421715D01*
X-46720147Y-24476626D01*
X-46732911Y-24598066D01*
X-46726317Y-24660796D01*
X-46738886Y-24729521D01*
X-46786617Y-24780545D01*
X-46854357Y-24797664D01*
X-46875417Y-24795045D01*
X-46888186Y-24792331D01*
X-47077478Y-24792331D01*
X-47077480Y-24792331D01*
X-47262634Y-24831686D01*
X-47435562Y-24908679D01*
X-47588702Y-25019941D01*
X-47715365Y-25160614D01*
X-47810011Y-25324546D01*
X-47822506Y-25363002D01*
X-47868506Y-25504575D01*
X-47888292Y-25692831D01*
X-47868506Y-25881087D01*
X-47810011Y-26061115D01*
X-47715365Y-26225047D01*
X-47607673Y-26344650D01*
X-47577445Y-26407638D01*
X-47585301Y-26470800D01*
X-47584796Y-26470965D01*
X-47585647Y-26473585D01*
X-47586069Y-26476974D01*
X-47587983Y-26480776D01*
X-47588822Y-26483358D01*
X-47588823Y-26483360D01*
X-47596053Y-26505613D01*
X-47601038Y-26520953D01*
X-47640475Y-26578628D01*
X-47693188Y-26603925D01*
X-47810532Y-26628867D01*
X-47983460Y-26705860D01*
X-48136600Y-26817122D01*
X-48263263Y-26957795D01*
X-48357909Y-27121727D01*
X-48374860Y-27173898D01*
X-48416404Y-27301756D01*
X-48436190Y-27490012D01*
X-55999500Y-27490012D01*
X-55999500Y-21310000D01*
X-51641962Y-21310000D01*
X-51622176Y-21498256D01*
X-51615084Y-21520082D01*
X-51563681Y-21678284D01*
X-51469035Y-21842216D01*
X-51342372Y-21982889D01*
X-51259027Y-22043442D01*
X-51189232Y-22094151D01*
X-51016305Y-22171144D01*
X-50954585Y-22184262D01*
X-50831150Y-22210500D01*
X-50831148Y-22210500D01*
X-50641854Y-22210500D01*
X-50456699Y-22171144D01*
X-50283771Y-22094151D01*
X-50130631Y-21982889D01*
X-50003968Y-21842216D01*
X-49909322Y-21678284D01*
X-49850828Y-21498257D01*
X-49839050Y-21386192D01*
X-49831042Y-21310000D01*
X-49832491Y-21296213D01*
X-49850828Y-21121742D01*
X-49909322Y-20941715D01*
X-50003968Y-20777783D01*
X-50130631Y-20637110D01*
X-50283771Y-20525848D01*
X-50456699Y-20448855D01*
X-50641854Y-20409500D01*
X-50641856Y-20409500D01*
X-50831148Y-20409500D01*
X-50831150Y-20409500D01*
X-51016304Y-20448855D01*
X-51189232Y-20525848D01*
X-51342372Y-20637110D01*
X-51469035Y-20777783D01*
X-51563681Y-20941715D01*
X-51582019Y-20998155D01*
X-51622176Y-21121744D01*
X-51641962Y-21310000D01*
X-55999500Y-21310000D01*
X-55999500Y-15124500D01*
X-55979815Y-15057461D01*
X-55927011Y-15011706D01*
X-55875500Y-15000500D01*
X-49024760Y-15000500D01*
X-49024616Y-15000528D01*
X-49024616Y-15000524D01*
X-49000002Y-15000539D01*
X-49000000Y-15000541D01*
X-48999808Y-15000462D01*
X-48999618Y-15000384D01*
X-48999616Y-15000381D01*
X-48999499Y-15000097D01*
X-48999459Y-15000001D01*
X-48999416Y-14975889D01*
X-48999500Y-14975467D01*
X-48999500Y-3428999D01*
X-40084101Y-3428999D01*
X-40063724Y-3687916D01*
X-40003096Y-3940455D01*
X-39903707Y-4180397D01*
X-39768003Y-4401849D01*
X-39762198Y-4408645D01*
X-39106195Y-3752642D01*
X-39082941Y-3806553D01*
X-38978244Y-3947185D01*
X-38843938Y-4059882D01*
X-38752334Y-4105887D01*
X-39408645Y-4762198D01*
X-39401849Y-4768003D01*
X-39180397Y-4903707D01*
X-38940455Y-5003096D01*
X-38687916Y-5063724D01*
X-38429000Y-5084101D01*
X-38170083Y-5063724D01*
X-37917544Y-5003096D01*
X-37677597Y-4903705D01*
X-37456155Y-4768006D01*
X-37449354Y-4762198D01*
X-38103054Y-4108498D01*
X-38090109Y-4103787D01*
X-37943627Y-4007445D01*
X-37823312Y-3879918D01*
X-37750552Y-3753893D01*
X-37095801Y-4408644D01*
X-37089993Y-4401843D01*
X-36954294Y-4180402D01*
X-36854903Y-3940455D01*
X-36794275Y-3687916D01*
X-36773898Y-3428999D01*
X-33226101Y-3428999D01*
X-33205724Y-3687916D01*
X-33145096Y-3940455D01*
X-33045707Y-4180397D01*
X-32910003Y-4401849D01*
X-32904198Y-4408645D01*
X-32248195Y-3752642D01*
X-32224941Y-3806553D01*
X-32120244Y-3947185D01*
X-31985938Y-4059882D01*
X-31894334Y-4105887D01*
X-32550645Y-4762198D01*
X-32543849Y-4768003D01*
X-32322397Y-4903707D01*
X-32082455Y-5003096D01*
X-31829916Y-5063724D01*
X-31571000Y-5084101D01*
X-31312083Y-5063724D01*
X-31059544Y-5003096D01*
X-30819597Y-4903705D01*
X-30598155Y-4768006D01*
X-30591354Y-4762198D01*
X-31245054Y-4108498D01*
X-31232109Y-4103787D01*
X-31085627Y-4007445D01*
X-30965312Y-3879918D01*
X-30892551Y-3753893D01*
X-30237801Y-4408644D01*
X-30231993Y-4401843D01*
X-30096294Y-4180402D01*
X-29996903Y-3940455D01*
X-29936275Y-3687916D01*
X-29915898Y-3428999D01*
X-21034101Y-3428999D01*
X-21013724Y-3687916D01*
X-20953096Y-3940455D01*
X-20853707Y-4180397D01*
X-20718003Y-4401849D01*
X-20712198Y-4408645D01*
X-20056195Y-3752642D01*
X-20032941Y-3806553D01*
X-19928244Y-3947185D01*
X-19793938Y-4059882D01*
X-19702334Y-4105887D01*
X-20358645Y-4762198D01*
X-20351849Y-4768003D01*
X-20130397Y-4903707D01*
X-19890455Y-5003096D01*
X-19637916Y-5063724D01*
X-19379000Y-5084101D01*
X-19120083Y-5063724D01*
X-18867544Y-5003096D01*
X-18627597Y-4903705D01*
X-18406155Y-4768006D01*
X-18399354Y-4762198D01*
X-19053054Y-4108498D01*
X-19040109Y-4103787D01*
X-18893627Y-4007445D01*
X-18773312Y-3879918D01*
X-18700552Y-3753893D01*
X-18045801Y-4408644D01*
X-18039993Y-4401843D01*
X-17904294Y-4180402D01*
X-17804903Y-3940455D01*
X-17744275Y-3687916D01*
X-17723898Y-3428999D01*
X-14176101Y-3428999D01*
X-14155724Y-3687916D01*
X-14095096Y-3940455D01*
X-13995707Y-4180397D01*
X-13860003Y-4401849D01*
X-13854198Y-4408645D01*
X-13198195Y-3752642D01*
X-13174941Y-3806553D01*
X-13070244Y-3947185D01*
X-12935938Y-4059882D01*
X-12844334Y-4105887D01*
X-13500645Y-4762198D01*
X-13493849Y-4768003D01*
X-13272397Y-4903707D01*
X-13032455Y-5003096D01*
X-12779916Y-5063724D01*
X-12521000Y-5084101D01*
X-12262083Y-5063724D01*
X-12009544Y-5003096D01*
X-11769597Y-4903705D01*
X-11548155Y-4768006D01*
X-11541354Y-4762198D01*
X-12195054Y-4108498D01*
X-12182109Y-4103787D01*
X-12035627Y-4007445D01*
X-11915312Y-3879918D01*
X-11842552Y-3753893D01*
X-11187801Y-4408644D01*
X-11181993Y-4401843D01*
X-11046294Y-4180402D01*
X-10946903Y-3940455D01*
X-10886275Y-3687916D01*
X-10865898Y-3429000D01*
X11044898Y-3429000D01*
X11065275Y-3687916D01*
X11125903Y-3940455D01*
X11225294Y-4180402D01*
X11360993Y-4401843D01*
X11366801Y-4408644D01*
X12022803Y-3752641D01*
X12046059Y-3806553D01*
X12150756Y-3947185D01*
X12285062Y-4059882D01*
X12376665Y-4105887D01*
X11720354Y-4762198D01*
X11727155Y-4768006D01*
X11948597Y-4903705D01*
X12188544Y-5003096D01*
X12441083Y-5063724D01*
X12700000Y-5084101D01*
X12958916Y-5063724D01*
X13211455Y-5003096D01*
X13451397Y-4903707D01*
X13672849Y-4768003D01*
X13679645Y-4762198D01*
X13025945Y-4108498D01*
X13038891Y-4103787D01*
X13185373Y-4007445D01*
X13305688Y-3879918D01*
X13378447Y-3753894D01*
X14033198Y-4408645D01*
X14039003Y-4401849D01*
X14174707Y-4180397D01*
X14274096Y-3940455D01*
X14334724Y-3687916D01*
X14355101Y-3428999D01*
X17902898Y-3428999D01*
X17923275Y-3687916D01*
X17983903Y-3940455D01*
X18083294Y-4180402D01*
X18218993Y-4401843D01*
X18224801Y-4408644D01*
X18880803Y-3752641D01*
X18904059Y-3806553D01*
X19008756Y-3947185D01*
X19143062Y-4059882D01*
X19234665Y-4105887D01*
X18578354Y-4762198D01*
X18585155Y-4768006D01*
X18806597Y-4903705D01*
X19046544Y-5003096D01*
X19299083Y-5063724D01*
X19558000Y-5084101D01*
X19816916Y-5063724D01*
X20069455Y-5003096D01*
X20309397Y-4903707D01*
X20530849Y-4768003D01*
X20537645Y-4762198D01*
X19883945Y-4108498D01*
X19896891Y-4103787D01*
X20043373Y-4007445D01*
X20163688Y-3879918D01*
X20236447Y-3753894D01*
X20891198Y-4408645D01*
X20897003Y-4401849D01*
X21032707Y-4180397D01*
X21132096Y-3940455D01*
X21192724Y-3687916D01*
X21213101Y-3429000D01*
X21213101Y-3428999D01*
X30094898Y-3428999D01*
X30115275Y-3687916D01*
X30175903Y-3940455D01*
X30275294Y-4180402D01*
X30410993Y-4401843D01*
X30416801Y-4408644D01*
X31072803Y-3752640D01*
X31096059Y-3806553D01*
X31200756Y-3947185D01*
X31335062Y-4059882D01*
X31426665Y-4105887D01*
X30770354Y-4762198D01*
X30777155Y-4768006D01*
X30998597Y-4903705D01*
X31238544Y-5003096D01*
X31491083Y-5063724D01*
X31750000Y-5084101D01*
X32008916Y-5063724D01*
X32261455Y-5003096D01*
X32501397Y-4903707D01*
X32722849Y-4768003D01*
X32729645Y-4762198D01*
X32075945Y-4108498D01*
X32088891Y-4103787D01*
X32235373Y-4007445D01*
X32355688Y-3879918D01*
X32428447Y-3753893D01*
X33083198Y-4408645D01*
X33089003Y-4401849D01*
X33224707Y-4180397D01*
X33324096Y-3940455D01*
X33384724Y-3687916D01*
X33405101Y-3428999D01*
X36952898Y-3428999D01*
X36973275Y-3687916D01*
X37033903Y-3940455D01*
X37133294Y-4180402D01*
X37268993Y-4401843D01*
X37274801Y-4408644D01*
X37930804Y-3752642D01*
X37954059Y-3806553D01*
X38058756Y-3947185D01*
X38193062Y-4059882D01*
X38284665Y-4105886D01*
X37628353Y-4762198D01*
X37635155Y-4768006D01*
X37856597Y-4903705D01*
X38096544Y-5003096D01*
X38349083Y-5063724D01*
X38608000Y-5084101D01*
X38866916Y-5063724D01*
X39119455Y-5003096D01*
X39359397Y-4903707D01*
X39580849Y-4768003D01*
X39587645Y-4762198D01*
X38933945Y-4108498D01*
X38946891Y-4103787D01*
X39093373Y-4007445D01*
X39213688Y-3879918D01*
X39286447Y-3753894D01*
X39941198Y-4408645D01*
X39947003Y-4401849D01*
X40082707Y-4180397D01*
X40182096Y-3940455D01*
X40211014Y-3820000D01*
X53644340Y-3820000D01*
X53664936Y-4055407D01*
X53709709Y-4222501D01*
X53726097Y-4283663D01*
X53825965Y-4497830D01*
X53961505Y-4691401D01*
X54128599Y-4858495D01*
X54322170Y-4994035D01*
X54536337Y-5093903D01*
X54764592Y-5155063D01*
X55000000Y-5175659D01*
X55235408Y-5155063D01*
X55463663Y-5093903D01*
X55677830Y-4994035D01*
X55871401Y-4858495D01*
X56038495Y-4691401D01*
X56174035Y-4497830D01*
X56273903Y-4283663D01*
X56335063Y-4055408D01*
X56355659Y-3820000D01*
X56335063Y-3584592D01*
X56273903Y-3356337D01*
X56174035Y-3142171D01*
X56038495Y-2948599D01*
X55871401Y-2781505D01*
X55685839Y-2651573D01*
X55642217Y-2596998D01*
X55635024Y-2527499D01*
X55666546Y-2465145D01*
X55685837Y-2448428D01*
X55871401Y-2318495D01*
X56038495Y-2151401D01*
X56174035Y-1957830D01*
X56273903Y-1743663D01*
X56335063Y-1515408D01*
X56355659Y-1280000D01*
X56335063Y-1044592D01*
X56273903Y-816337D01*
X56174035Y-602171D01*
X56038495Y-408599D01*
X55871401Y-241505D01*
X55685839Y-111573D01*
X55642216Y-56998D01*
X55635022Y12500D01*
X55666545Y74855D01*
X55685837Y91571D01*
X55871401Y221505D01*
X56038495Y388599D01*
X56174035Y582170D01*
X56273903Y796337D01*
X56335063Y1024592D01*
X56355659Y1260000D01*
X56335063Y1495408D01*
X56273903Y1723663D01*
X56174035Y1937829D01*
X56038495Y2131401D01*
X55916566Y2253329D01*
X55883084Y2314648D01*
X55888068Y2384340D01*
X55929939Y2440274D01*
X55960916Y2457189D01*
X56030898Y2483291D01*
X56092331Y2506204D01*
X56207546Y2592454D01*
X56293796Y2707669D01*
X56344091Y2842517D01*
X56350500Y2902127D01*
X56350499Y4697872D01*
X56344091Y4757483D01*
X56293796Y4892331D01*
X56207546Y5007546D01*
X56092331Y5093796D01*
X55957483Y5144091D01*
X55897873Y5150500D01*
X54102128Y5150499D01*
X54042517Y5144091D01*
X53907669Y5093796D01*
X53792454Y5007546D01*
X53706204Y4892331D01*
X53655909Y4757483D01*
X53649500Y4697873D01*
X53649500Y4694550D01*
X53649500Y2905439D01*
X53649500Y2905420D01*
X53649501Y2902128D01*
X53649853Y2898848D01*
X53649854Y2898840D01*
X53655909Y2842515D01*
X53706204Y2707669D01*
X53792454Y2592454D01*
X53907669Y2506204D01*
X54039083Y2457189D01*
X54095016Y2415317D01*
X54119433Y2349852D01*
X54104581Y2281580D01*
X54083430Y2253326D01*
X53961505Y2131401D01*
X53825965Y1937829D01*
X53726097Y1723663D01*
X53664936Y1495407D01*
X53644340Y1260000D01*
X53664936Y1024592D01*
X53726097Y796337D01*
X53825964Y582172D01*
X53961508Y388595D01*
X54128595Y221508D01*
X54128598Y221505D01*
X54128599Y221505D01*
X54314160Y91573D01*
X54357783Y36998D01*
X54364976Y-32501D01*
X54333454Y-94855D01*
X54314159Y-111575D01*
X54128595Y-241508D01*
X53961505Y-408598D01*
X53825965Y-602170D01*
X53726097Y-816336D01*
X53664936Y-1044592D01*
X53644340Y-1280000D01*
X53664936Y-1515407D01*
X53709709Y-1682502D01*
X53726097Y-1743663D01*
X53825965Y-1957830D01*
X53961505Y-2151401D01*
X54128599Y-2318495D01*
X54314160Y-2448426D01*
X54357783Y-2503002D01*
X54364976Y-2572501D01*
X54333454Y-2634855D01*
X54314159Y-2651575D01*
X54128595Y-2781508D01*
X53961505Y-2948598D01*
X53825965Y-3142170D01*
X53726097Y-3356336D01*
X53664936Y-3584592D01*
X53644340Y-3820000D01*
X40211014Y-3820000D01*
X40242724Y-3687916D01*
X40263101Y-3429000D01*
X40242724Y-3170083D01*
X40182096Y-2917544D01*
X40082705Y-2677597D01*
X39947006Y-2456155D01*
X39941198Y-2449354D01*
X39285195Y-3105356D01*
X39261941Y-3051447D01*
X39157244Y-2910815D01*
X39022938Y-2798118D01*
X38931332Y-2752112D01*
X39587644Y-2095801D01*
X39580843Y-2089993D01*
X39359402Y-1954294D01*
X39119455Y-1854903D01*
X38866916Y-1794275D01*
X38608000Y-1773898D01*
X38349083Y-1794275D01*
X38096544Y-1854903D01*
X37856597Y-1954294D01*
X37635156Y-2089992D01*
X37628354Y-2095801D01*
X38282054Y-2749501D01*
X38269109Y-2754213D01*
X38122627Y-2850555D01*
X38002312Y-2978082D01*
X37929552Y-3104105D01*
X37274801Y-2449354D01*
X37268992Y-2456156D01*
X37133294Y-2677597D01*
X37033903Y-2917544D01*
X36973275Y-3170083D01*
X36952898Y-3428999D01*
X33405101Y-3428999D01*
X33384724Y-3170083D01*
X33324096Y-2917544D01*
X33224705Y-2677597D01*
X33089006Y-2456155D01*
X33083198Y-2449354D01*
X32427195Y-3105356D01*
X32403941Y-3051447D01*
X32299244Y-2910815D01*
X32164938Y-2798118D01*
X32073333Y-2752112D01*
X32729645Y-2095801D01*
X32722843Y-2089993D01*
X32501402Y-1954294D01*
X32261455Y-1854903D01*
X32008916Y-1794275D01*
X31750000Y-1773898D01*
X31491083Y-1794275D01*
X31238544Y-1854903D01*
X30998597Y-1954294D01*
X30777156Y-2089992D01*
X30770354Y-2095801D01*
X31424054Y-2749501D01*
X31411109Y-2754213D01*
X31264627Y-2850555D01*
X31144312Y-2978082D01*
X31071552Y-3104105D01*
X30416801Y-2449354D01*
X30410992Y-2456156D01*
X30275294Y-2677597D01*
X30175903Y-2917544D01*
X30115275Y-3170083D01*
X30094898Y-3428999D01*
X21213101Y-3428999D01*
X21192724Y-3170083D01*
X21132096Y-2917544D01*
X21032705Y-2677597D01*
X20897006Y-2456155D01*
X20891198Y-2449354D01*
X20235195Y-3105356D01*
X20211941Y-3051447D01*
X20107244Y-2910815D01*
X19972938Y-2798118D01*
X19881332Y-2752112D01*
X20537644Y-2095801D01*
X20530843Y-2089993D01*
X20309402Y-1954294D01*
X20069455Y-1854903D01*
X19816916Y-1794275D01*
X19558000Y-1773898D01*
X19299083Y-1794275D01*
X19046544Y-1854903D01*
X18806597Y-1954294D01*
X18585156Y-2089992D01*
X18578354Y-2095801D01*
X19232054Y-2749501D01*
X19219109Y-2754213D01*
X19072627Y-2850555D01*
X18952312Y-2978082D01*
X18879552Y-3104105D01*
X18224801Y-2449354D01*
X18218992Y-2456156D01*
X18083294Y-2677597D01*
X17983903Y-2917544D01*
X17923275Y-3170083D01*
X17902898Y-3428999D01*
X14355101Y-3428999D01*
X14334724Y-3170083D01*
X14274096Y-2917544D01*
X14174705Y-2677597D01*
X14039006Y-2456155D01*
X14033198Y-2449354D01*
X13377195Y-3105356D01*
X13353941Y-3051447D01*
X13249244Y-2910815D01*
X13114938Y-2798118D01*
X13023333Y-2752112D01*
X13679645Y-2095801D01*
X13672843Y-2089993D01*
X13451402Y-1954294D01*
X13211455Y-1854903D01*
X12958916Y-1794275D01*
X12700000Y-1773898D01*
X12441083Y-1794275D01*
X12188544Y-1854903D01*
X11948597Y-1954294D01*
X11727156Y-2089992D01*
X11720354Y-2095801D01*
X12374054Y-2749501D01*
X12361109Y-2754213D01*
X12214627Y-2850555D01*
X12094312Y-2978082D01*
X12021553Y-3104104D01*
X11366801Y-2449354D01*
X11360992Y-2456156D01*
X11225294Y-2677597D01*
X11125903Y-2917544D01*
X11065275Y-3170083D01*
X11044898Y-3429000D01*
X-10865898Y-3429000D01*
X-10886275Y-3170083D01*
X-10946903Y-2917544D01*
X-11046294Y-2677597D01*
X-11181992Y-2456156D01*
X-11187801Y-2449354D01*
X-11843804Y-3105357D01*
X-11867059Y-3051447D01*
X-11971756Y-2910815D01*
X-12106062Y-2798118D01*
X-12197664Y-2752113D01*
X-11541353Y-2095801D01*
X-11548156Y-2089992D01*
X-11769597Y-1954294D01*
X-12009544Y-1854903D01*
X-12262083Y-1794275D01*
X-12521000Y-1773898D01*
X-12779916Y-1794275D01*
X-13032455Y-1854903D01*
X-13272402Y-1954294D01*
X-13493843Y-2089993D01*
X-13500644Y-2095801D01*
X-12846944Y-2749500D01*
X-12859891Y-2754213D01*
X-13006373Y-2850555D01*
X-13126688Y-2978082D01*
X-13199446Y-3104104D01*
X-13854197Y-2449354D01*
X-13854198Y-2449354D01*
X-13860006Y-2456155D01*
X-13995705Y-2677597D01*
X-14095096Y-2917544D01*
X-14155724Y-3170083D01*
X-14176101Y-3428999D01*
X-17723898Y-3428999D01*
X-17744275Y-3170083D01*
X-17804903Y-2917544D01*
X-17904294Y-2677597D01*
X-18039992Y-2456156D01*
X-18045801Y-2449354D01*
X-18701804Y-3105356D01*
X-18725059Y-3051447D01*
X-18829756Y-2910815D01*
X-18964062Y-2798118D01*
X-19055665Y-2752112D01*
X-18399354Y-2095801D01*
X-18406156Y-2089992D01*
X-18627597Y-1954294D01*
X-18867544Y-1854903D01*
X-19120083Y-1794275D01*
X-19379000Y-1773898D01*
X-19637916Y-1794275D01*
X-19890455Y-1854903D01*
X-20130402Y-1954294D01*
X-20351843Y-2089993D01*
X-20358644Y-2095801D01*
X-19704945Y-2749501D01*
X-19717891Y-2754213D01*
X-19864373Y-2850555D01*
X-19984688Y-2978082D01*
X-20057446Y-3104103D01*
X-20712197Y-2449354D01*
X-20712198Y-2449354D01*
X-20718006Y-2456155D01*
X-20853705Y-2677597D01*
X-20953096Y-2917544D01*
X-21013724Y-3170083D01*
X-21034101Y-3428999D01*
X-29915898Y-3428999D01*
X-29936275Y-3170083D01*
X-29996903Y-2917544D01*
X-30096294Y-2677597D01*
X-30231992Y-2456156D01*
X-30237801Y-2449354D01*
X-30893804Y-3105356D01*
X-30917059Y-3051447D01*
X-31021756Y-2910815D01*
X-31156062Y-2798118D01*
X-31247665Y-2752112D01*
X-30591354Y-2095801D01*
X-30598156Y-2089992D01*
X-30819597Y-1954294D01*
X-31059544Y-1854903D01*
X-31312083Y-1794275D01*
X-31571000Y-1773898D01*
X-31829916Y-1794275D01*
X-32082455Y-1854903D01*
X-32322402Y-1954294D01*
X-32543843Y-2089993D01*
X-32550645Y-2095801D01*
X-31896944Y-2749500D01*
X-31909891Y-2754213D01*
X-32056373Y-2850555D01*
X-32176688Y-2978082D01*
X-32249446Y-3104104D01*
X-32904197Y-2449354D01*
X-32904198Y-2449354D01*
X-32910006Y-2456155D01*
X-33045705Y-2677597D01*
X-33145096Y-2917544D01*
X-33205724Y-3170083D01*
X-33226101Y-3428999D01*
X-36773898Y-3428999D01*
X-36794275Y-3170083D01*
X-36854903Y-2917544D01*
X-36954294Y-2677597D01*
X-37089992Y-2456156D01*
X-37095801Y-2449354D01*
X-37751804Y-3105356D01*
X-37775059Y-3051447D01*
X-37879756Y-2910815D01*
X-38014062Y-2798118D01*
X-38105665Y-2752112D01*
X-37449354Y-2095801D01*
X-37456156Y-2089992D01*
X-37677597Y-1954294D01*
X-37917544Y-1854903D01*
X-38170083Y-1794275D01*
X-38429000Y-1773898D01*
X-38687916Y-1794275D01*
X-38940455Y-1854903D01*
X-39180402Y-1954294D01*
X-39401843Y-2089993D01*
X-39408645Y-2095801D01*
X-38754945Y-2749501D01*
X-38767891Y-2754213D01*
X-38914373Y-2850555D01*
X-39034688Y-2978082D01*
X-39107446Y-3104105D01*
X-39762198Y-2449354D01*
X-39768006Y-2456155D01*
X-39903705Y-2677597D01*
X-40003096Y-2917544D01*
X-40063724Y-3170083D01*
X-40084101Y-3428999D01*
X-48999500Y-3428999D01*
X-48999500Y0D01*
X-36405300Y0D01*
X-36386134Y-231305D01*
X-36329157Y-456300D01*
X-36235924Y-668849D01*
X-36108979Y-863153D01*
X-35951784Y-1033913D01*
X-35768626Y-1176470D01*
X-35564503Y-1286936D01*
X-35344981Y-1362298D01*
X-35116049Y-1400500D01*
X-35116048Y-1400500D01*
X-34883952Y-1400500D01*
X-34883951Y-1400500D01*
X-34655019Y-1362298D01*
X-34655017Y-1362297D01*
X-34655015Y-1362297D01*
X-34545258Y-1324616D01*
X-34435497Y-1286936D01*
X-34231374Y-1176470D01*
X-34048216Y-1033913D01*
X-33891021Y-863153D01*
X-33764076Y-668849D01*
X-33670843Y-456300D01*
X-33613866Y-231305D01*
X-33613865Y-231301D01*
X-33613865Y-231299D01*
X-33594699Y0D01*
X-17355300Y0D01*
X-17336134Y-231305D01*
X-17279157Y-456300D01*
X-17185924Y-668849D01*
X-17058979Y-863153D01*
X-16901784Y-1033913D01*
X-16718626Y-1176470D01*
X-16514503Y-1286936D01*
X-16294981Y-1362298D01*
X-16066049Y-1400500D01*
X-16066048Y-1400500D01*
X-15833952Y-1400500D01*
X-15833951Y-1400500D01*
X-15605019Y-1362298D01*
X-15605017Y-1362297D01*
X-15605015Y-1362297D01*
X-15495257Y-1324617D01*
X-15385497Y-1286936D01*
X-15181374Y-1176470D01*
X-14998216Y-1033913D01*
X-14841021Y-863153D01*
X-14714076Y-668849D01*
X-14620843Y-456300D01*
X-14563866Y-231305D01*
X-14563865Y-231301D01*
X-14563865Y-231299D01*
X-14544699Y0D01*
X14723699Y0D01*
X14742865Y-231299D01*
X14742865Y-231301D01*
X14742866Y-231305D01*
X14799843Y-456300D01*
X14893076Y-668849D01*
X15020021Y-863153D01*
X15177216Y-1033913D01*
X15360374Y-1176470D01*
X15564497Y-1286936D01*
X15674257Y-1324617D01*
X15784015Y-1362297D01*
X15784017Y-1362297D01*
X15784019Y-1362298D01*
X16012951Y-1400500D01*
X16012952Y-1400500D01*
X16245048Y-1400500D01*
X16245049Y-1400500D01*
X16473981Y-1362298D01*
X16693503Y-1286936D01*
X16897626Y-1176470D01*
X17080784Y-1033913D01*
X17237979Y-863153D01*
X17364924Y-668849D01*
X17458157Y-456300D01*
X17515134Y-231305D01*
X17534300Y0D01*
X33773699Y0D01*
X33792865Y-231299D01*
X33792865Y-231301D01*
X33792866Y-231305D01*
X33849843Y-456300D01*
X33943076Y-668849D01*
X34070021Y-863153D01*
X34227216Y-1033913D01*
X34410374Y-1176470D01*
X34614497Y-1286936D01*
X34724258Y-1324616D01*
X34834015Y-1362297D01*
X34834017Y-1362297D01*
X34834019Y-1362298D01*
X35062951Y-1400500D01*
X35062952Y-1400500D01*
X35295048Y-1400500D01*
X35295049Y-1400500D01*
X35523981Y-1362298D01*
X35743503Y-1286936D01*
X35947626Y-1176470D01*
X36130784Y-1033913D01*
X36287979Y-863153D01*
X36414924Y-668849D01*
X36508157Y-456300D01*
X36565134Y-231305D01*
X36584300Y0D01*
X36565134Y231305D01*
X36508157Y456300D01*
X36414924Y668849D01*
X36287979Y863153D01*
X36130784Y1033913D01*
X35947626Y1176470D01*
X35743503Y1286936D01*
X35523981Y1362298D01*
X35295049Y1400500D01*
X35062951Y1400500D01*
X34834019Y1362298D01*
X34834017Y1362297D01*
X34834015Y1362297D01*
X34724258Y1324616D01*
X34614497Y1286936D01*
X34410374Y1176470D01*
X34227216Y1033913D01*
X34070021Y863153D01*
X33943076Y668849D01*
X33849843Y456300D01*
X33792866Y231305D01*
X33792865Y231301D01*
X33792865Y231299D01*
X33773699Y0D01*
X17534300Y0D01*
X17515134Y231305D01*
X17458157Y456300D01*
X17364924Y668849D01*
X17237979Y863153D01*
X17080784Y1033913D01*
X16897626Y1176470D01*
X16693503Y1286936D01*
X16473981Y1362298D01*
X16245049Y1400500D01*
X16012951Y1400500D01*
X15784019Y1362298D01*
X15784017Y1362297D01*
X15784015Y1362297D01*
X15674257Y1324617D01*
X15564497Y1286936D01*
X15360374Y1176470D01*
X15177216Y1033913D01*
X15020021Y863153D01*
X14893076Y668849D01*
X14799843Y456300D01*
X14742866Y231305D01*
X14742865Y231301D01*
X14742865Y231299D01*
X14723699Y0D01*
X-14544699Y0D01*
X-14563865Y231299D01*
X-14563865Y231301D01*
X-14563866Y231305D01*
X-14620843Y456300D01*
X-14714076Y668849D01*
X-14841021Y863153D01*
X-14998216Y1033913D01*
X-15181374Y1176470D01*
X-15385497Y1286936D01*
X-15495257Y1324617D01*
X-15605015Y1362297D01*
X-15605017Y1362297D01*
X-15605019Y1362298D01*
X-15833951Y1400500D01*
X-16066049Y1400500D01*
X-16294981Y1362298D01*
X-16514503Y1286936D01*
X-16718626Y1176470D01*
X-16901784Y1033913D01*
X-17058979Y863153D01*
X-17185924Y668849D01*
X-17279157Y456300D01*
X-17336134Y231305D01*
X-17355300Y0D01*
X-33594699Y0D01*
X-33613865Y231299D01*
X-33613865Y231301D01*
X-33613866Y231305D01*
X-33670843Y456300D01*
X-33764076Y668849D01*
X-33891021Y863153D01*
X-34048216Y1033913D01*
X-34231374Y1176470D01*
X-34435497Y1286936D01*
X-34545258Y1324616D01*
X-34655015Y1362297D01*
X-34655017Y1362297D01*
X-34655019Y1362298D01*
X-34883951Y1400500D01*
X-35116049Y1400500D01*
X-35344981Y1362298D01*
X-35564503Y1286936D01*
X-35768626Y1176470D01*
X-35951784Y1033913D01*
X-36108979Y863153D01*
X-36235924Y668849D01*
X-36329157Y456300D01*
X-36386134Y231305D01*
X-36405300Y0D01*
X-48999500Y0D01*
X-48999500Y3429000D01*
X-40084101Y3429000D01*
X-40063724Y3170083D01*
X-40003096Y2917544D01*
X-39903705Y2677597D01*
X-39768006Y2456155D01*
X-39762198Y2449354D01*
X-39106195Y3105357D01*
X-39082941Y3051447D01*
X-38978244Y2910815D01*
X-38843938Y2798118D01*
X-38752334Y2752112D01*
X-39408645Y2095801D01*
X-39401843Y2089993D01*
X-39180402Y1954294D01*
X-38940455Y1854903D01*
X-38687916Y1794275D01*
X-38429000Y1773898D01*
X-38170083Y1794275D01*
X-37917544Y1854903D01*
X-37677597Y1954294D01*
X-37456156Y2089992D01*
X-37449354Y2095801D01*
X-38103054Y2749501D01*
X-38090109Y2754213D01*
X-37943627Y2850555D01*
X-37823312Y2978082D01*
X-37750552Y3104105D01*
X-37095801Y2449354D01*
X-37089992Y2456156D01*
X-36954294Y2677597D01*
X-36854903Y2917544D01*
X-36794275Y3170083D01*
X-36773899Y3429000D01*
X-33226101Y3429000D01*
X-33205724Y3170083D01*
X-33145096Y2917544D01*
X-33045705Y2677597D01*
X-32910006Y2456155D01*
X-32904198Y2449354D01*
X-32248195Y3105357D01*
X-32224941Y3051447D01*
X-32120244Y2910815D01*
X-31985938Y2798118D01*
X-31894334Y2752112D01*
X-32550645Y2095801D01*
X-32543843Y2089993D01*
X-32322402Y1954294D01*
X-32082455Y1854903D01*
X-31829916Y1794275D01*
X-31571000Y1773898D01*
X-31312083Y1794275D01*
X-31059544Y1854903D01*
X-30819597Y1954294D01*
X-30598156Y2089992D01*
X-30591354Y2095801D01*
X-31245054Y2749501D01*
X-31232109Y2754213D01*
X-31085627Y2850555D01*
X-30965312Y2978082D01*
X-30892552Y3104105D01*
X-30237801Y2449354D01*
X-30231992Y2456156D01*
X-30096294Y2677597D01*
X-29996903Y2917544D01*
X-29936275Y3170083D01*
X-29915899Y3429000D01*
X-21034101Y3429000D01*
X-21013724Y3170083D01*
X-20953096Y2917544D01*
X-20853705Y2677597D01*
X-20718006Y2456155D01*
X-20712198Y2449354D01*
X-20056195Y3105357D01*
X-20032941Y3051447D01*
X-19928244Y2910815D01*
X-19793938Y2798118D01*
X-19702334Y2752112D01*
X-20358645Y2095801D01*
X-20351843Y2089993D01*
X-20130402Y1954294D01*
X-19890455Y1854903D01*
X-19637916Y1794275D01*
X-19379000Y1773898D01*
X-19120083Y1794275D01*
X-18867544Y1854903D01*
X-18627597Y1954294D01*
X-18406156Y2089992D01*
X-18399354Y2095801D01*
X-19053054Y2749501D01*
X-19040109Y2754213D01*
X-18893627Y2850555D01*
X-18773312Y2978082D01*
X-18700552Y3104105D01*
X-18045801Y2449354D01*
X-18039992Y2456156D01*
X-17904294Y2677597D01*
X-17804903Y2917544D01*
X-17744275Y3170083D01*
X-17723899Y3429000D01*
X-14176101Y3429000D01*
X-14155724Y3170083D01*
X-14095096Y2917544D01*
X-13995705Y2677597D01*
X-13860006Y2456155D01*
X-13854198Y2449354D01*
X-13198195Y3105357D01*
X-13174941Y3051447D01*
X-13070244Y2910815D01*
X-12935938Y2798118D01*
X-12844334Y2752112D01*
X-13500644Y2095801D01*
X-13493843Y2089993D01*
X-13272402Y1954294D01*
X-13032455Y1854903D01*
X-12779916Y1794275D01*
X-12521000Y1773898D01*
X-12262083Y1794275D01*
X-12009544Y1854903D01*
X-11769597Y1954294D01*
X-11548156Y2089992D01*
X-11541354Y2095801D01*
X-12195054Y2749501D01*
X-12182109Y2754213D01*
X-12035627Y2850555D01*
X-11915312Y2978082D01*
X-11842552Y3104105D01*
X-11187801Y2449354D01*
X-11181992Y2456156D01*
X-11046294Y2677597D01*
X-10946903Y2917544D01*
X-10886275Y3170083D01*
X-10865898Y3429000D01*
X11044898Y3429000D01*
X11065275Y3170083D01*
X11125903Y2917544D01*
X11225294Y2677597D01*
X11360992Y2456156D01*
X11366801Y2449354D01*
X12022804Y3105357D01*
X12046059Y3051447D01*
X12150756Y2910815D01*
X12285062Y2798118D01*
X12376665Y2752112D01*
X11720354Y2095801D01*
X11727156Y2089992D01*
X11948597Y1954294D01*
X12188544Y1854903D01*
X12441083Y1794275D01*
X12700000Y1773898D01*
X12958916Y1794275D01*
X13211455Y1854903D01*
X13451402Y1954294D01*
X13672843Y2089993D01*
X13679645Y2095801D01*
X13025945Y2749501D01*
X13038891Y2754213D01*
X13185373Y2850555D01*
X13305688Y2978082D01*
X13378447Y3104105D01*
X14033198Y2449354D01*
X14039006Y2456155D01*
X14174705Y2677597D01*
X14274096Y2917544D01*
X14334724Y3170083D01*
X14355101Y3429000D01*
X17902899Y3429000D01*
X17923275Y3170083D01*
X17983903Y2917544D01*
X18083294Y2677597D01*
X18218992Y2456156D01*
X18224801Y2449354D01*
X18880804Y3105357D01*
X18904059Y3051447D01*
X19008756Y2910815D01*
X19143062Y2798118D01*
X19234665Y2752112D01*
X18578354Y2095801D01*
X18585156Y2089992D01*
X18806597Y1954294D01*
X19046544Y1854903D01*
X19299083Y1794275D01*
X19558000Y1773898D01*
X19816916Y1794275D01*
X20069455Y1854903D01*
X20309402Y1954294D01*
X20530843Y2089993D01*
X20537644Y2095801D01*
X19883945Y2749501D01*
X19896891Y2754213D01*
X20043373Y2850555D01*
X20163688Y2978082D01*
X20236447Y3104105D01*
X20891198Y2449354D01*
X20897006Y2456155D01*
X21032705Y2677597D01*
X21132096Y2917544D01*
X21192724Y3170083D01*
X21213101Y3429000D01*
X30094899Y3429000D01*
X30115275Y3170083D01*
X30175903Y2917544D01*
X30275294Y2677597D01*
X30410992Y2456156D01*
X30416801Y2449354D01*
X31072804Y3105357D01*
X31096059Y3051447D01*
X31200756Y2910815D01*
X31335062Y2798118D01*
X31426665Y2752112D01*
X30770354Y2095801D01*
X30777156Y2089992D01*
X30998597Y1954294D01*
X31238544Y1854903D01*
X31491083Y1794275D01*
X31750000Y1773898D01*
X32008916Y1794275D01*
X32261455Y1854903D01*
X32501402Y1954294D01*
X32722843Y2089993D01*
X32729645Y2095801D01*
X32075945Y2749501D01*
X32088891Y2754213D01*
X32235373Y2850555D01*
X32355688Y2978082D01*
X32428446Y3104105D01*
X33083198Y2449354D01*
X33089006Y2456155D01*
X33224705Y2677597D01*
X33324096Y2917544D01*
X33384724Y3170083D01*
X33405101Y3429000D01*
X36952899Y3429000D01*
X36973275Y3170083D01*
X37033903Y2917544D01*
X37133294Y2677597D01*
X37268992Y2456156D01*
X37274801Y2449354D01*
X37930804Y3105357D01*
X37954059Y3051447D01*
X38058756Y2910815D01*
X38193062Y2798118D01*
X38284665Y2752112D01*
X37628354Y2095801D01*
X37635156Y2089992D01*
X37856597Y1954294D01*
X38096544Y1854903D01*
X38349083Y1794275D01*
X38608000Y1773898D01*
X38866916Y1794275D01*
X39119455Y1854903D01*
X39359402Y1954294D01*
X39580843Y2089993D01*
X39587644Y2095801D01*
X38933945Y2749501D01*
X38946891Y2754213D01*
X39093373Y2850555D01*
X39213688Y2978082D01*
X39286447Y3104105D01*
X39941198Y2449354D01*
X39947006Y2456155D01*
X40082705Y2677597D01*
X40182096Y2917544D01*
X40242724Y3170083D01*
X40263101Y3429000D01*
X40242724Y3687916D01*
X40182096Y3940455D01*
X40082707Y4180397D01*
X39947003Y4401849D01*
X39941198Y4408645D01*
X39285195Y3752642D01*
X39261941Y3806553D01*
X39157244Y3947185D01*
X39022938Y4059882D01*
X38931334Y4105887D01*
X39587645Y4762198D01*
X39580849Y4768003D01*
X39359397Y4903707D01*
X39119455Y5003096D01*
X38866916Y5063724D01*
X38608000Y5084101D01*
X38349083Y5063724D01*
X38096544Y5003096D01*
X37856597Y4903705D01*
X37635155Y4768006D01*
X37628353Y4762198D01*
X38282053Y4108498D01*
X38269109Y4103787D01*
X38122627Y4007445D01*
X38002312Y3879918D01*
X37929552Y3753893D01*
X37274801Y4408644D01*
X37268993Y4401843D01*
X37133294Y4180402D01*
X37033903Y3940455D01*
X36973275Y3687916D01*
X36952899Y3429000D01*
X33405101Y3429000D01*
X33384724Y3687916D01*
X33324096Y3940455D01*
X33224707Y4180397D01*
X33089003Y4401849D01*
X33083198Y4408645D01*
X32427195Y3752643D01*
X32403941Y3806553D01*
X32299244Y3947185D01*
X32164938Y4059882D01*
X32073334Y4105887D01*
X32729645Y4762198D01*
X32722849Y4768003D01*
X32501397Y4903707D01*
X32261455Y5003096D01*
X32008916Y5063724D01*
X31750000Y5084101D01*
X31491083Y5063724D01*
X31238544Y5003096D01*
X30998597Y4903705D01*
X30777155Y4768006D01*
X30770354Y4762198D01*
X31424054Y4108498D01*
X31411109Y4103787D01*
X31264627Y4007445D01*
X31144312Y3879918D01*
X31071552Y3753893D01*
X30416801Y4408644D01*
X30410993Y4401843D01*
X30275294Y4180402D01*
X30175903Y3940455D01*
X30115275Y3687916D01*
X30094899Y3429000D01*
X21213101Y3429000D01*
X21192724Y3687916D01*
X21132096Y3940455D01*
X21032707Y4180397D01*
X20897003Y4401849D01*
X20891198Y4408645D01*
X20235195Y3752642D01*
X20211941Y3806553D01*
X20107244Y3947185D01*
X19972938Y4059882D01*
X19881334Y4105887D01*
X20537645Y4762198D01*
X20530849Y4768003D01*
X20309397Y4903707D01*
X20069455Y5003096D01*
X19816916Y5063724D01*
X19558000Y5084101D01*
X19299083Y5063724D01*
X19046544Y5003096D01*
X18806597Y4903705D01*
X18585155Y4768006D01*
X18578353Y4762198D01*
X19232053Y4108498D01*
X19219109Y4103787D01*
X19072627Y4007445D01*
X18952312Y3879918D01*
X18879552Y3753893D01*
X18224801Y4408644D01*
X18218993Y4401843D01*
X18083294Y4180402D01*
X17983903Y3940455D01*
X17923275Y3687916D01*
X17902899Y3429000D01*
X14355101Y3429000D01*
X14334724Y3687916D01*
X14274096Y3940455D01*
X14174707Y4180397D01*
X14039003Y4401849D01*
X14033198Y4408645D01*
X13377195Y3752642D01*
X13353941Y3806553D01*
X13249244Y3947185D01*
X13114938Y4059882D01*
X13023334Y4105887D01*
X13679645Y4762198D01*
X13672849Y4768003D01*
X13451397Y4903707D01*
X13211455Y5003096D01*
X12958916Y5063724D01*
X12700000Y5084101D01*
X12441083Y5063724D01*
X12188544Y5003096D01*
X11948597Y4903705D01*
X11727155Y4768006D01*
X11720354Y4762198D01*
X12374054Y4108498D01*
X12361109Y4103787D01*
X12214627Y4007445D01*
X12094312Y3879918D01*
X12021552Y3753893D01*
X11366801Y4408644D01*
X11360993Y4401843D01*
X11225294Y4180402D01*
X11125903Y3940455D01*
X11065275Y3687916D01*
X11044898Y3429000D01*
X-10865898Y3429000D01*
X-10886275Y3687916D01*
X-10946903Y3940455D01*
X-11046294Y4180402D01*
X-11181993Y4401843D01*
X-11187801Y4408644D01*
X-11843804Y3752642D01*
X-11867059Y3806553D01*
X-11971756Y3947185D01*
X-12106062Y4059882D01*
X-12197665Y4105887D01*
X-11541354Y4762198D01*
X-11548155Y4768006D01*
X-11769597Y4903705D01*
X-12009544Y5003096D01*
X-12262083Y5063724D01*
X-12521000Y5084101D01*
X-12779916Y5063724D01*
X-13032455Y5003096D01*
X-13272397Y4903707D01*
X-13493849Y4768003D01*
X-13500645Y4762198D01*
X-12846945Y4108498D01*
X-12859891Y4103787D01*
X-13006373Y4007445D01*
X-13126688Y3879918D01*
X-13199447Y3753894D01*
X-13854198Y4408645D01*
X-13860003Y4401849D01*
X-13995707Y4180397D01*
X-14095096Y3940455D01*
X-14155724Y3687916D01*
X-14176101Y3429000D01*
X-17723899Y3429000D01*
X-17744275Y3687916D01*
X-17804903Y3940455D01*
X-17904294Y4180402D01*
X-18039993Y4401843D01*
X-18045801Y4408644D01*
X-18701804Y3752642D01*
X-18725059Y3806553D01*
X-18829756Y3947185D01*
X-18964062Y4059882D01*
X-19055665Y4105887D01*
X-18399354Y4762198D01*
X-18406155Y4768006D01*
X-18627597Y4903705D01*
X-18867544Y5003096D01*
X-19120083Y5063724D01*
X-19379000Y5084101D01*
X-19637916Y5063724D01*
X-19890455Y5003096D01*
X-20130397Y4903707D01*
X-20351849Y4768003D01*
X-20358645Y4762198D01*
X-19704945Y4108498D01*
X-19717891Y4103787D01*
X-19864373Y4007445D01*
X-19984688Y3879918D01*
X-20057447Y3753894D01*
X-20712198Y4408645D01*
X-20718003Y4401849D01*
X-20853707Y4180397D01*
X-20953096Y3940455D01*
X-21013724Y3687916D01*
X-21034101Y3429000D01*
X-29915899Y3429000D01*
X-29936275Y3687916D01*
X-29996903Y3940455D01*
X-30096294Y4180402D01*
X-30231993Y4401843D01*
X-30237801Y4408644D01*
X-30893803Y3752641D01*
X-30917059Y3806553D01*
X-31021756Y3947185D01*
X-31156062Y4059882D01*
X-31247665Y4105887D01*
X-30591354Y4762198D01*
X-30598155Y4768006D01*
X-30819597Y4903705D01*
X-31059544Y5003096D01*
X-31312083Y5063724D01*
X-31571000Y5084101D01*
X-31829916Y5063724D01*
X-32082455Y5003096D01*
X-32322397Y4903707D01*
X-32543849Y4768003D01*
X-32550645Y4762198D01*
X-31896945Y4108498D01*
X-31909891Y4103787D01*
X-32056373Y4007445D01*
X-32176688Y3879918D01*
X-32249447Y3753894D01*
X-32904198Y4408645D01*
X-32910003Y4401849D01*
X-33045707Y4180397D01*
X-33145096Y3940455D01*
X-33205724Y3687916D01*
X-33226101Y3429000D01*
X-36773899Y3429000D01*
X-36794275Y3687916D01*
X-36854903Y3940455D01*
X-36954294Y4180402D01*
X-37089993Y4401843D01*
X-37095801Y4408644D01*
X-37751804Y3752642D01*
X-37775059Y3806553D01*
X-37879756Y3947185D01*
X-38014062Y4059882D01*
X-38105665Y4105887D01*
X-37449354Y4762198D01*
X-37456155Y4768006D01*
X-37677597Y4903705D01*
X-37917544Y5003096D01*
X-38170083Y5063724D01*
X-38429000Y5084101D01*
X-38687916Y5063724D01*
X-38940455Y5003096D01*
X-39180397Y4903707D01*
X-39401849Y4768003D01*
X-39408645Y4762198D01*
X-38754945Y4108498D01*
X-38767891Y4103787D01*
X-38914373Y4007445D01*
X-39034688Y3879918D01*
X-39107447Y3753894D01*
X-39762198Y4408645D01*
X-39768003Y4401849D01*
X-39903707Y4180397D01*
X-40003096Y3940455D01*
X-40063724Y3687916D01*
X-40084101Y3429000D01*
X-48999500Y3429000D01*
X-48999500Y13375500D01*
X-48979815Y13442539D01*
X-48927011Y13488294D01*
X-48875500Y13499500D01*
X-46319034Y13499500D01*
X-46251995Y13479815D01*
G37*
%TD.AperFunction*%
%TA.AperFunction,Conductor*%
G36*
X62646701Y-88293148D02*
G01*
X62646702Y-88293148D01*
X62833399Y-88062597D01*
X62837216Y-88057343D01*
X63033476Y-87755129D01*
X63036722Y-87749508D01*
X63200323Y-87428424D01*
X63202963Y-87422494D01*
X63259736Y-87274596D01*
X63302138Y-87219063D01*
X63367832Y-87195270D01*
X63435960Y-87210771D01*
X63484893Y-87260645D01*
X63499500Y-87319033D01*
X63499500Y-89375500D01*
X63479815Y-89442539D01*
X63427011Y-89488294D01*
X63375500Y-89499500D01*
X61319034Y-89499500D01*
X61251995Y-89479815D01*
X61206240Y-89427011D01*
X61196296Y-89357853D01*
X61225321Y-89294297D01*
X61274596Y-89259736D01*
X61422500Y-89202960D01*
X61428424Y-89200323D01*
X61749508Y-89036722D01*
X61755129Y-89033476D01*
X62057343Y-88837216D01*
X62062597Y-88833399D01*
X62293148Y-88646702D01*
X62293148Y-88646701D01*
X60869883Y-87223435D01*
X60924477Y-87187768D01*
X61107368Y-87019404D01*
X61223610Y-86870057D01*
X62646701Y-88293148D01*
G37*
%TD.AperFunction*%
%TA.AperFunction,Conductor*%
G36*
X63442539Y13479815D02*
G01*
X63488294Y13427011D01*
X63499500Y13375500D01*
X63499500Y11319033D01*
X63479815Y11251994D01*
X63427011Y11206239D01*
X63357853Y11196295D01*
X63294297Y11225320D01*
X63259736Y11274596D01*
X63202963Y11422494D01*
X63200323Y11428424D01*
X63036722Y11749507D01*
X63033476Y11755128D01*
X62837216Y12057343D01*
X62833399Y12062597D01*
X62646702Y12293148D01*
X62646701Y12293148D01*
X61223610Y10870057D01*
X61107368Y11019404D01*
X60924477Y11187768D01*
X60869882Y11223436D01*
X62293148Y12646702D01*
X62062597Y12833399D01*
X62057343Y12837216D01*
X61755129Y13033476D01*
X61749508Y13036722D01*
X61428424Y13200323D01*
X61422500Y13202960D01*
X61274596Y13259736D01*
X61219064Y13302138D01*
X61195271Y13367832D01*
X61210773Y13435960D01*
X61260646Y13484893D01*
X61319034Y13499500D01*
X63375500Y13499500D01*
X63442539Y13479815D01*
G37*
%TD.AperFunction*%
%TD*%
M02*
